<?xml version="1.0" encoding="utf-8"?>
<!-- Generator: Adobe Illustrator 16.0.0, SVG Export Plug-In . SVG Version: 6.00 Build 0)  -->
<!DOCTYPE svg PUBLIC "-//W3C//DTD SVG 1.1//EN" "http://www.w3.org/Graphics/SVG/1.1/DTD/svg11.dtd">
<svg version="1.1" id="Layer_1" xmlns="http://www.w3.org/2000/svg" xmlns:xlink="http://www.w3.org/1999/xlink" x="0px" y="0px"
	 width="235px" height="135px" viewBox="0 0 235 135" enable-background="new 0 0 235 135" xml:space="preserve">
<text transform="matrix(1 0 0 1 115.167 71.334)" font-family="'RobotoCondensed-Regular'" font-size="24">Logic Design</text>
<g>
	<path fill="#151D21" d="M59.163,9.615h1.283c1.688,0.714,3.433,1.457,4.726,2.806c2.574,2.613,4.229,5.96,5.631,9.309
		c2.32,5.773,3.785,11.854,4.83,17.976c6.693-2.422,13.664-4.318,20.806-4.738c2.982-0.096,6.103,0.103,8.834,1.429
		c2.102,1,3.566,3.204,3.557,5.552c-0.008,3.43-1.693,6.56-3.478,9.384c-3.939,6.021-9.213,11.03-14.647,15.681
		c1.967,1.624,3.907,3.289,5.713,5.098c1.719-0.649,3.66-1.079,5.438-0.359c2.548,0.885,4.369,3.528,4.161,6.24
		c0.023,1.338-0.847,2.523-0.847,3.842c1.243,2.304,2.861,4.443,3.604,7c0.952,2.64,0.973,6.018-1.216,8.062
		c-2.6,2.355-6.34,2.627-9.681,2.642c-7.643-0.214-15.06-2.409-22.223-4.909c-1.238,6.73-2.78,13.478-5.613,19.746
		c-1.383,2.918-2.943,5.898-5.438,8.038c-1.308,1.169-3,1.716-4.575,2.415H59.56c-1.655-0.772-3.429-1.421-4.724-2.754
		c-3.289-3.172-5.125-7.466-6.692-11.671c-1.853-5.19-3.065-10.583-4.04-15.993c-3.181,1.2-6.397,2.319-9.686,3.206
		c-0.63,2.403-2.105,4.83-4.675,5.471c-2.899,0.966-5.981-0.607-7.574-3.062c-3.615,0.2-7.486,0.219-10.739-1.589
		c-1.53-0.8-2.33-2.379-3.226-3.772v-3.595c3.461-10.011,11.59-17.348,19.423-24.039c-5.579-4.76-10.972-9.854-15.103-15.948
		c-1.892-2.877-3.606-6.106-3.67-9.626c-0.053-2.574,1.698-4.932,4.05-5.87c3.229-1.325,6.821-1.331,10.247-1.057
		c7.212,0.698,14.179,2.868,20.966,5.325c0.912-5.128,2.077-10.217,3.746-15.154c-1.24-1.405-2.56-2.994-2.497-4.979
		c-0.289-2.634,1.397-5.211,3.813-6.2c1.466-0.695,3.108-0.3,4.661-0.439C55.447,11.68,57.183,10.437,59.163,9.615z"/>
</g>
<g>
	<path fill="#E64C3B" d="M55.47,14.089c1.263-1.407,2.668-3.219,4.769-3.094c2.908,0.665,4.383,3.582,5.603,6.026
		c3.383,7.622,4.689,15.956,5.805,24.155c-4.163,1.668-8.227,3.558-12.275,5.474c-3.702-1.878-7.456-3.643-11.303-5.203
		c0.747-5.245,1.57-10.484,2.838-15.64c2.352-0.046,4.903-0.856,6.112-3.036C58.927,19.992,57.895,16.197,55.47,14.089z"/>
</g>
<g>
	<path fill="#E64C3B" d="M12.059,37.556c2.873-1.413,6.198-0.946,9.249-0.535c7.216,1.233,14.106,3.828,20.858,6.57
		c0.517,0.252,1.468,0.459,1.211,1.257c-0.539,3.782-0.766,7.595-1.114,11.385c-3.655,2.817-7.646,5.232-11.285,8.097
		c-5.736-4.452-11.377-9.099-16.12-14.623c-1.916-2.362-3.905-4.868-4.572-7.91C9.859,40.208,10.494,38.266,12.059,37.556z"/>
</g>
<g>
	<path fill="#E64C3B" d="M97.375,37.451c3.077-0.287,6.772-0.831,9.251,1.471c1.938,2.355,0.234,5.517-1.111,7.725
		c-4.789,7.043-11.487,12.521-18.157,17.702c-3.147-2.506-6.409-4.869-9.784-7.058c-0.221-4.497-0.742-8.976-1.26-13.443
		C83.123,41.103,90.079,38.501,97.375,37.451z"/>
</g>
<g>
	<path fill="#E64C3B" d="M64.509,49.281c2.502-1.269,5.041-2.469,7.61-3.612c0.331,2.802,0.498,5.622,0.644,8.441
		C70.009,52.5,67.242,50.915,64.509,49.281z"/>
</g>
<g>
	<path fill="#E64C3B" d="M47.633,46.044c2.218,1.05,4.47,2.036,6.598,3.25c-2.368,1.389-4.751,2.738-7.14,4.096
		C47.141,50.939,47.396,48.488,47.633,46.044z"/>
</g>
<g>
	<path fill="#E64C3B" d="M46.688,59.186c4.136-2.583,8.389-4.985,12.69-7.3c4.635,2.518,9.208,5.156,13.675,7.97
		c0.023,4.81,0.332,9.66-0.141,14.449c-4.363,2.905-8.97,5.439-13.565,7.977c-4.265-2.289-8.45-4.739-12.609-7.216
		C46.598,69.771,46.698,64.479,46.688,59.186z"/>
</g>
<g>
	<path fill="#151D21" d="M57.555,60.937c2.846-0.946,6.284,0.308,7.61,3.055c1.461,2.632,0.704,6.267-1.746,8.036
		c-3.027,2.35-8.152,1.239-9.615-2.408C52.203,66.346,54.063,61.991,57.555,60.937z"/>
</g>
<g>
	<path fill="#E64C3B" d="M34.732,67.042c2.411-1.685,4.835-3.344,7.314-4.929c-0.062,3.272-0.005,6.552-0.019,9.828
		C39.5,70.457,37.12,68.741,34.732,67.042z"/>
</g>
<g>
	<path fill="#E64C3B" d="M77.808,63c2.043,1.257,3.986,2.67,5.959,4.034c-1.956,1.368-3.85,2.836-5.931,4.015
		C77.815,68.362,77.854,65.679,77.808,63z"/>
</g>
<g>
	<path fill="#E64C3B" d="M14.135,84.982c4.911-5.816,10.871-10.605,16.857-15.259c3.653,2.801,7.403,5.484,11.275,7.987
		c0.246,4.143,0.625,8.275,1.181,12.383c-3.235,1.371-6.488,2.699-9.795,3.891c-1.354-2.022-3.62-3.604-6.153-3.319
		c-3.47,0.075-6.043,3.379-6.039,6.718c-3.163,0.41-6.53,1.047-9.583-0.236c-1.542-0.681-2.593-2.383-2.262-4.082
		C10.26,89.979,12.173,87.367,14.135,84.982z"/>
</g>
<g>
	<path fill="#E64C3B" d="M77.559,76.78c3.409-2.158,6.663-4.557,9.809-7.075c2.212,1.646,4.322,3.434,6.5,5.128
		c-0.564,2.069-0.821,4.415,0.462,6.283c1.648,2.877,5.519,3.64,8.416,2.316c2.2,2.733,4.684,5.569,5.29,9.142
		c0.28,1.431-0.371,2.967-1.643,3.696c-1.983,1.18-4.412,1.127-6.637,0.961c-8.156-0.725-15.801-3.863-23.391-6.706
		C76.782,85.946,77.449,81.379,77.559,76.78z"/>
</g>
<g>
	<path fill="#E64C3B" d="M64.417,84.829c2.841-1.531,5.604-3.187,8.379-4.829c-0.203,2.856-0.361,5.715-0.593,8.566
		C69.542,87.451,66.95,86.21,64.417,84.829z"/>
</g>
<g>
	<path fill="#E64C3B" d="M47.078,80.791c2.234,1.262,4.46,2.533,6.705,3.771c0.05,0.141,0.15,0.411,0.204,0.548
		c-2.118,1.063-4.267,2.051-6.376,3.121C47.44,85.748,47.117,83.281,47.078,80.791z"/>
</g>
<g>
	<path fill="#E64C3B" d="M51.735,91.194c2.589-1.101,5.111-2.345,7.585-3.68c4.034,1.981,8.112,3.897,12.303,5.519
		c-0.873,7.327-2.166,14.653-4.651,21.618c-1.151,2.912-2.432,6.041-5.039,7.953c-1.324,1.028-3.251,0.825-4.468-0.264
		c-2.583-2.203-3.812-5.497-4.963-8.596c-2.275-6.683-3.475-13.687-4.353-20.676C49.036,92.05,50.558,91.824,51.735,91.194z"/>
</g>
</svg>
