<?xml version="1.0" encoding="utf-8"?>
<!-- Generator: Adobe Illustrator 16.0.0, SVG Export Plug-In . SVG Version: 6.00 Build 0)  -->
<!DOCTYPE svg PUBLIC "-//W3C//DTD SVG 1.1//EN" "http://www.w3.org/Graphics/SVG/1.1/DTD/svg11.dtd">
<svg version="1.1" id="Layer_1" xmlns="http://www.w3.org/2000/svg" xmlns:xlink="http://www.w3.org/1999/xlink" x="0px" y="0px"
	 width="235px" height="135px" viewBox="0 0 235 135" enable-background="new 0 0 235 135" xml:space="preserve">
<text transform="matrix(1 0 0 1 108.667 71.334)" font-family="'RobotoCondensed-Regular'" font-size="22">Logic Design</text>
<g>
	<path fill="#151D21" d="M54.599,6.463h1.283c1.688,0.714,3.433,1.457,4.726,2.806c2.574,2.613,4.229,5.96,5.631,9.309
		c2.32,5.773,3.785,11.854,4.83,17.976c6.693-2.422,13.664-4.318,20.806-4.738c2.982-0.096,6.103,0.103,8.834,1.429
		c2.102,1,3.566,3.204,3.557,5.552c-0.008,3.43-1.693,6.56-3.478,9.384c-3.939,6.021-9.213,11.03-14.647,15.681
		c1.967,1.624,3.907,3.289,5.713,5.097c1.719-0.648,3.66-1.079,5.438-0.359c2.548,0.885,4.369,3.529,4.161,6.24
		c0.023,1.338-0.847,2.523-0.847,3.842c1.243,2.305,2.861,4.443,3.604,7c0.952,2.641,0.973,6.018-1.216,8.062
		c-2.6,2.355-6.34,2.627-9.681,2.643c-7.643-0.215-15.06-2.41-22.223-4.91c-1.238,6.73-2.78,13.479-5.613,19.746
		c-1.383,2.918-2.943,5.898-5.438,8.039c-1.308,1.168-3,1.715-4.575,2.414h-0.467c-1.655-0.771-3.429-1.42-4.724-2.754
		c-3.289-3.172-5.125-7.465-6.692-11.67c-1.853-5.191-3.065-10.584-4.04-15.994c-3.181,1.201-6.397,2.32-9.686,3.207
		c-0.63,2.402-2.105,4.83-4.675,5.471c-2.899,0.965-5.981-0.607-7.574-3.062c-3.615,0.201-7.486,0.219-10.739-1.588
		c-1.53-0.801-2.33-2.379-3.226-3.773v-3.594c3.461-10.012,11.59-17.348,19.423-24.039c-5.579-4.76-10.972-9.854-15.103-15.948
		c-1.892-2.877-3.606-6.106-3.67-9.626c-0.053-2.574,1.698-4.932,4.05-5.87c3.229-1.325,6.821-1.331,10.247-1.057
		c7.212,0.698,14.179,2.868,20.966,5.325c0.912-5.128,2.077-10.217,3.746-15.154c-1.24-1.405-2.56-2.994-2.497-4.979
		c-0.289-2.634,1.397-5.211,3.813-6.2c1.466-0.695,3.108-0.3,4.661-0.439C50.883,8.528,52.619,7.285,54.599,6.463z"/>
</g>
<g>
	<path fill="#E64C3B" d="M50.906,10.937c1.263-1.407,2.668-3.219,4.769-3.094c2.908,0.665,4.383,3.582,5.603,6.026
		c3.383,7.622,4.689,15.956,5.805,24.155c-4.163,1.668-8.227,3.558-12.275,5.474c-3.702-1.878-7.456-3.643-11.303-5.203
		c0.747-5.245,1.57-10.484,2.838-15.64c2.352-0.046,4.903-0.856,6.112-3.036C54.363,16.84,53.331,13.045,50.906,10.937z"/>
</g>
<g>
	<path fill="#E64C3B" d="M7.495,34.404c2.873-1.413,6.198-0.946,9.249-0.535c7.216,1.233,14.106,3.828,20.858,6.57
		c0.517,0.252,1.468,0.459,1.211,1.257c-0.539,3.782-0.766,7.595-1.114,11.385c-3.655,2.817-7.646,5.232-11.285,8.097
		c-5.736-4.452-11.377-9.099-16.12-14.623c-1.916-2.362-3.905-4.868-4.572-7.91C5.295,37.056,5.93,35.114,7.495,34.404z"/>
</g>
<g>
	<path fill="#E64C3B" d="M92.811,34.299c3.077-0.287,6.772-0.831,9.251,1.471c1.938,2.355,0.234,5.517-1.111,7.725
		c-4.789,7.043-11.487,12.521-18.157,17.702c-3.147-2.506-6.409-4.869-9.784-7.058c-0.221-4.497-0.742-8.976-1.26-13.443
		C78.559,37.951,85.515,35.349,92.811,34.299z"/>
</g>
<g>
	<path fill="#E64C3B" d="M59.945,46.129c2.502-1.269,5.041-2.469,7.61-3.612c0.331,2.802,0.498,5.622,0.644,8.441
		C65.445,49.348,62.678,47.763,59.945,46.129z"/>
</g>
<g>
	<path fill="#E64C3B" d="M43.069,42.893c2.218,1.05,4.47,2.036,6.598,3.25c-2.368,1.389-4.751,2.738-7.14,4.096
		C42.577,47.787,42.832,45.336,43.069,42.893z"/>
</g>
<g>
	<path fill="#E64C3B" d="M42.124,56.034c4.136-2.583,8.389-4.985,12.69-7.3c4.635,2.518,9.208,5.156,13.675,7.97
		c0.023,4.81,0.332,9.66-0.141,14.448c-4.363,2.906-8.97,5.439-13.565,7.977c-4.265-2.289-8.45-4.738-12.609-7.215
		C42.034,66.619,42.134,61.328,42.124,56.034z"/>
</g>
<g>
	<path fill="#151D21" d="M52.991,57.785c2.846-0.946,6.284,0.308,7.61,3.055c1.461,2.632,0.704,6.267-1.746,8.035
		c-3.027,2.35-8.152,1.24-9.615-2.408C47.639,63.194,49.5,58.839,52.991,57.785z"/>
</g>
<g>
	<path fill="#E64C3B" d="M30.168,63.89c2.411-1.685,4.835-3.344,7.314-4.929c-0.062,3.272-0.005,6.552-0.019,9.828
		C34.936,67.305,32.556,65.589,30.168,63.89z"/>
</g>
<g>
	<path fill="#E64C3B" d="M73.244,59.848c2.043,1.257,3.986,2.67,5.959,4.034c-1.956,1.368-3.85,2.836-5.931,4.015
		C73.251,65.21,73.291,62.527,73.244,59.848z"/>
</g>
<g>
	<path fill="#E64C3B" d="M9.571,81.83c4.911-5.816,10.871-10.605,16.857-15.258c3.653,2.801,7.403,5.485,11.275,7.987
		c0.246,4.143,0.625,8.275,1.181,12.383c-3.235,1.371-6.488,2.699-9.795,3.891c-1.354-2.021-3.62-3.604-6.153-3.318
		c-3.47,0.074-6.043,3.379-6.039,6.717c-3.163,0.41-6.53,1.047-9.583-0.236c-1.542-0.68-2.593-2.383-2.262-4.082
		C5.696,86.828,7.609,84.215,9.571,81.83z"/>
</g>
<g>
	<path fill="#E64C3B" d="M72.995,73.629c3.409-2.158,6.663-4.557,9.809-7.076c2.212,1.646,4.322,3.433,6.5,5.128
		c-0.564,2.068-0.821,4.414,0.462,6.283c1.648,2.877,5.519,3.639,8.416,2.316c2.2,2.732,4.684,5.568,5.29,9.141
		c0.28,1.432-0.371,2.967-1.643,3.697c-1.983,1.18-4.412,1.127-6.637,0.961c-8.156-0.725-15.801-3.863-23.391-6.707
		C72.218,82.795,72.885,78.227,72.995,73.629z"/>
</g>
<g>
	<path fill="#E64C3B" d="M59.853,81.678c2.841-1.531,5.604-3.188,8.379-4.83c-0.203,2.857-0.361,5.715-0.593,8.566
		C64.978,84.299,62.386,83.059,59.853,81.678z"/>
</g>
<g>
	<path fill="#E64C3B" d="M42.514,77.639c2.234,1.262,4.46,2.533,6.705,3.771c0.05,0.141,0.15,0.41,0.204,0.547
		c-2.118,1.064-4.267,2.051-6.376,3.121C42.876,82.596,42.553,80.129,42.514,77.639z"/>
</g>
<g>
	<path fill="#E64C3B" d="M47.171,88.043c2.589-1.102,5.111-2.346,7.585-3.68c4.034,1.98,8.112,3.896,12.303,5.518
		c-0.873,7.328-2.166,14.654-4.651,21.619c-1.151,2.912-2.432,6.041-5.039,7.953c-1.324,1.027-3.251,0.824-4.468-0.264
		c-2.583-2.203-3.812-5.498-4.963-8.596c-2.275-6.684-3.475-13.688-4.353-20.676C44.472,88.898,45.994,88.672,47.171,88.043z"/>
</g>
</svg>
