<?xml version="1.0" encoding="utf-8"?>
<!-- Generator: Adobe Illustrator 16.0.0, SVG Export Plug-In . SVG Version: 6.00 Build 0)  -->
<!DOCTYPE svg PUBLIC "-//W3C//DTD SVG 1.1//EN" "http://www.w3.org/Graphics/SVG/1.1/DTD/svg11.dtd">
<svg version="1.1" id="Layer_1" xmlns="http://www.w3.org/2000/svg" xmlns:xlink="http://www.w3.org/1999/xlink" x="0px" y="0px"
	 width="235px" height="135px" viewBox="0 0 235 135" enable-background="new 0 0 235 135" xml:space="preserve">
<text transform="matrix(1 0 0 1 121.3018 72.5967)" display="none" fill="#282828" font-family="'RobotoCondensed-Light'" font-size="20">Logic Design.</text>
<path fill="#282828" d="M26.167,81.904c0,4.75-3.958,8.708-8.708,8.708c-4.75,0-8.708-3.958-8.708-8.708s3.958-8.708,8.708-8.708
	C22.208,73.196,26.167,77.154,26.167,81.904z M82.254,65.208c5.937,6.332,10.092,12.664,11.873,17.907
	c-1.583-1.482-3.76-2.374-6.036-2.374c-1.286,0-2.474,0.297-3.562,0.792c-0.098-3.661-2.076-8.111-5.539-12.86
	c-2.178,2.177-4.552,4.254-7.124,6.331c-0.396,5.145-1.088,9.991-2.078,14.443c3.659,0.594,6.827,0.495,9.298-0.197l-0.097,0.692
	c0,3.362,1.78,6.231,4.45,7.815c-4.254,0-9.398-0.989-15.037-2.969c-3.461,11.971-9.002,19.884-15.333,19.884
	c-6.331,0-11.871-7.913-15.333-20.082c-11.971,4.156-21.566,4.057-25.227-1.088c-0.989-1.484-1.484-3.362-1.386-5.539
	c1.584,1.582,3.76,2.671,6.233,2.671c2.67,0,5.044-1.188,6.628-3.167c2.571,2.276,6.925,2.771,12.366,1.88
	c-0.991-4.452-1.683-9.298-2.079-14.442c-2.571-2.077-4.945-4.255-7.124-6.331c-1.681,2.374-2.967,4.649-3.956,6.824
	c-1.583-1.385-3.561-2.274-5.836-2.274c1.78-2.571,3.957-5.243,6.43-7.816C13.302,53.833,8.456,42.753,12.611,36.818
	c3.562-5.145,13.255-5.145,25.227-1.089c0.693-2.374,1.385-4.55,2.176-6.528c1.287,1.285,2.869,2.077,4.65,2.374
	c-0.989,1.583-1.978,3.462-2.87,5.639c3.661,1.483,7.42,3.264,11.278,5.44c3.857-2.176,7.617-3.957,11.278-5.44
	c-2.573-6.431-6.035-10.684-9.893-11.476c0.295-0.891,0.495-1.781,0.495-2.671c0-2.968-1.484-5.54-3.661-7.123
	c0.593-0.099,1.187-0.197,1.78-0.197c6.331,0,11.872,7.914,15.333,20.082c11.971-4.155,21.567-4.056,25.227,1.088
	C97.788,42.753,92.841,53.833,82.254,65.208L82.254,65.208z M76.716,65.703c-1.385-1.68-2.87-3.263-4.551-4.945
	c0.097,1.485,0.097,2.969,0.097,4.45c0,1.684,0,3.366-0.097,4.948C73.747,68.673,75.331,67.188,76.716,65.703z M67.614,78.17
	l-3.562,2.67c-2.275,1.584-4.65,3.066-6.925,4.551c2.77,1.286,5.442,2.177,8.013,2.968C66.229,85.292,67.02,81.929,67.614,78.17
	L67.614,78.17z M53.072,101.912c3.957,0,7.518-3.463,10.289-9.301c-3.265-1.384-6.727-3.065-10.289-5.044
	c-3.463,1.979-6.924,3.66-10.289,5.044C45.652,98.449,49.214,101.912,53.072,101.912z M41.102,88.261
	c2.572-0.693,5.243-1.683,8.013-2.969c-2.275-1.386-4.649-2.868-6.925-4.551c-1.188-0.89-2.473-1.78-3.561-2.671
	C39.222,81.929,40.013,85.292,41.102,88.261z M34.079,70.156c-0.099-1.681-0.099-3.265-0.099-4.948c0-1.481,0-2.965,0.099-4.45
	c-1.683,1.683-3.166,3.266-4.553,4.945C30.913,67.188,32.495,68.673,34.079,70.156z M20.723,42.555
	c-3.066,4.354-0.495,11.971,6.034,19.886c2.375-2.374,4.947-4.651,7.716-6.926c0.396-5.54,1.188-10.783,2.275-15.53
	C29.23,38.204,23.195,38.894,20.723,42.555z M40.508,41.07c-1.088,3.464-1.879,7.322-2.473,11.576
	c1.286-0.991,2.67-1.979,4.056-2.969c2.473-1.78,4.947-3.362,7.419-4.847C46.444,43.247,43.377,41.962,40.508,41.07L40.508,41.07z
	 M65.735,41.07c-2.87,0.892-5.937,2.177-9.102,3.761c2.474,1.484,4.946,3.066,7.419,4.847c1.385,0.99,2.771,1.978,4.056,2.969
	C67.614,48.393,66.725,44.436,65.735,41.07L65.735,41.07z M68.603,57.495c-2.374-2.078-4.846-4.057-7.617-5.938
	c-2.573-1.88-5.243-3.462-7.816-4.945c-2.572,1.483-5.243,3.065-7.815,4.945c-2.769,1.881-5.243,3.957-7.617,5.938
	c-0.099,2.074-0.198,4.154-0.198,6.33c0,3.363,0.198,6.529,0.495,9.695c1.582,1.285,3.265,2.57,5.044,3.758
	c3.364,2.375,6.827,4.453,10.19,6.134c3.364-1.779,6.727-3.759,10.188-6.134c1.782-1.188,3.464-2.473,5.046-3.758
	C68.801,70.453,69,67.188,69,63.825C68.801,61.649,68.702,59.569,68.603,57.495L68.603,57.495z M85.52,42.555
	c-2.572-3.661-8.508-4.351-16.026-2.57c1.088,4.747,1.879,9.99,2.275,15.53c2.77,2.274,5.342,4.649,7.716,6.926
	C86.015,54.426,88.585,46.908,85.52,42.555z M46.071,31.625c-4.807,0-8.756-3.949-8.756-8.756s3.949-8.756,8.756-8.756
	c4.809,0,8.757,3.949,8.757,8.756C55,27.676,51.051,31.625,46.071,31.625z M88.29,80.839c5.062,0,9.202,4.141,9.202,9.202
	s-4.141,9.202-9.202,9.202s-9.203-4.141-9.203-9.202S83.229,80.839,88.29,80.839z M69.441,74.594l-16.494,9.331L36.62,74.3
	l0.171-18.953l16.495-9.33l16.327,9.624L69.441,74.594z"/>
<text transform="matrix(1 0 0 1 49.2588 72.5967)" display="none" fill="#E74C3C" font-family="'MyriadPro-Regular'" font-size="20.768">?</text>
</svg>
