<?xml version="1.0" encoding="utf-8"?>
<!-- Generator: Adobe Illustrator 16.0.0, SVG Export Plug-In . SVG Version: 6.00 Build 0)  -->
<!DOCTYPE svg PUBLIC "-//W3C//DTD SVG 1.1//EN" "http://www.w3.org/Graphics/SVG/1.1/DTD/svg11.dtd">
<svg version="1.1" id="Layer_1" xmlns="http://www.w3.org/2000/svg" xmlns:xlink="http://www.w3.org/1999/xlink" x="0px" y="0px"
	 width="72px" height="80px" viewBox="0 0 72 80" enable-background="new 0 0 72 80" xml:space="preserve">
<path fill="#161D22" d="M36.218,5.881h0.759c1,0.423,2.034,0.862,2.798,1.662c1.524,1.548,2.507,3.529,3.335,5.514
	c1.373,3.42,2.241,7.021,2.861,10.646c3.965-1.436,8.094-2.558,12.322-2.807c1.768-0.057,3.617,0.061,5.232,0.846
	c1.246,0.594,2.113,1.898,2.107,3.289c-0.004,2.032-1.002,3.886-2.061,5.559c-2.332,3.566-5.457,6.533-8.674,9.288
	c1.164,0.962,2.314,1.947,3.383,3.019c1.02-0.385,2.168-0.639,3.221-0.213c1.51,0.523,2.59,2.09,2.465,3.695
	c0.014,0.793-0.5,1.494-0.5,2.275c0.734,1.365,1.693,2.633,2.133,4.146c0.564,1.564,0.576,3.564-0.721,4.775
	c-1.541,1.395-3.754,1.557-5.734,1.564c-4.525-0.127-8.918-1.428-13.163-2.908c-0.731,3.986-1.645,7.982-3.321,11.695
	c-0.821,1.729-1.746,3.494-3.223,4.762c-0.774,0.691-1.776,1.016-2.709,1.43h-0.277c-0.979-0.457-2.03-0.842-2.798-1.631
	c-1.947-1.879-3.035-4.422-3.963-6.912c-1.097-3.074-1.816-6.268-2.393-9.473c-1.884,0.711-3.789,1.373-5.736,1.898
	c-0.374,1.424-1.248,2.861-2.769,3.24c-1.716,0.572-3.543-0.359-4.486-1.812c-2.141,0.117-4.434,0.129-6.361-0.941
	c-0.905-0.475-1.379-1.41-1.91-2.234v-2.129c2.05-5.93,6.864-10.275,11.504-14.239c-3.304-2.818-6.499-5.836-8.945-9.445
	c-1.119-1.704-2.136-3.617-2.173-5.701c-0.031-1.525,1.005-2.921,2.398-3.478c1.913-0.785,4.04-0.788,6.07-0.626
	c4.271,0.414,8.397,1.699,12.417,3.155c0.54-3.038,1.231-6.053,2.219-8.977c-0.734-0.831-1.516-1.773-1.479-2.95
	c-0.171-1.559,0.828-3.086,2.258-3.671c0.868-0.411,1.842-0.177,2.761-0.26C34.017,7.103,35.044,6.366,36.218,5.881z"/>
<path fill="#FFFFFF" d="M34.031,8.531c0.748-0.834,1.579-1.907,2.824-1.833c1.722,0.394,2.596,2.121,3.318,3.569
	c2.004,4.514,2.777,9.451,3.439,14.307c-2.467,0.988-4.874,2.107-7.271,3.243c-2.193-1.113-4.417-2.158-6.696-3.083
	c0.443-3.106,0.931-6.21,1.682-9.263c1.393-0.028,2.903-0.508,3.62-1.798C36.078,12.025,35.467,9.778,34.031,8.531z"/>
<path fill="#FFFFFF" d="M8.317,22.429c1.702-0.836,3.671-0.56,5.479-0.316c4.274,0.73,8.354,2.267,12.354,3.892
	c0.306,0.148,0.868,0.271,0.717,0.745c-0.32,2.238-0.454,4.497-0.66,6.743c-2.164,1.668-4.528,3.099-6.684,4.795
	c-3.398-2.636-6.738-5.389-9.548-8.66c-1.134-1.399-2.312-2.884-2.707-4.686C7.015,24,7.392,22.849,8.317,22.429z"/>
<path fill="#FFFFFF" d="M58.849,22.367c1.824-0.169,4.014-0.491,5.48,0.871c1.148,1.396,0.139,3.269-0.658,4.576
	c-2.836,4.172-6.805,7.415-10.754,10.484c-1.863-1.484-3.797-2.884-5.795-4.18c-0.129-2.664-0.44-5.316-0.746-7.963
	C50.408,24.531,54.528,22.989,58.849,22.367z"/>
<path fill="#FFFFFF" d="M39.384,29.374c1.482-0.751,2.986-1.462,4.506-2.139c0.197,1.659,0.297,3.329,0.383,4.999
	C42.642,31.281,41.003,30.341,39.384,29.374z"/>
<path fill="#FFFFFF" d="M29.388,27.458c1.313,0.622,2.647,1.205,3.909,1.925c-1.402,0.822-2.815,1.621-4.229,2.427
	C29.097,30.355,29.248,28.905,29.388,27.458z"/>
<path fill="#FFFFFF" d="M28.829,35.241c2.45-1.53,4.968-2.952,7.515-4.323c2.746,1.491,5.453,3.053,8.1,4.72
	c0.015,2.85,0.197,5.722-0.083,8.558c-2.584,1.721-5.312,3.223-8.034,4.725c-2.527-1.355-5.005-2.807-7.469-4.273
	C28.774,41.51,28.834,38.375,28.829,35.241z"/>
<path fill="#161D22" d="M35.264,36.277c1.687-0.56,3.723,0.183,4.508,1.811c0.865,1.559,0.417,3.711-1.034,4.758
	c-1.792,1.393-4.828,0.734-5.695-1.426C32.095,39.481,33.197,36.902,35.264,36.277z"/>
<path fill="#FFFFFF" d="M21.748,39.894c1.428-0.999,2.864-1.981,4.332-2.92c-0.037,1.938-0.003,3.88-0.011,5.821
	C24.572,41.916,23.161,40.9,21.748,39.894z"/>
<path fill="#FFFFFF" d="M47.262,37.5c1.21,0.745,2.36,1.581,3.528,2.39c-1.158,0.811-2.281,1.679-3.514,2.378
	C47.267,40.676,47.288,39.086,47.262,37.5z"/>
<path fill="#FFFFFF" d="M9.548,50.52c2.909-3.445,6.438-6.281,9.984-9.037c2.164,1.658,4.385,3.248,6.678,4.73
	c0.146,2.453,0.371,4.9,0.7,7.334c-1.916,0.812-3.843,1.6-5.802,2.305c-0.802-1.199-2.145-2.135-3.644-1.967
	c-2.056,0.045-3.58,2.002-3.577,3.979c-1.873,0.244-3.869,0.621-5.676-0.139c-0.914-0.404-1.536-1.412-1.339-2.418
	C7.252,53.479,8.386,51.932,9.548,50.52z"/>
<path fill="#FFFFFF" d="M47.113,45.66c2.019-1.277,3.945-2.697,5.81-4.189c1.311,0.977,2.561,2.033,3.852,3.037
	c-0.336,1.227-0.488,2.615,0.271,3.721c0.977,1.705,3.27,2.156,4.986,1.373c1.303,1.619,2.771,3.299,3.131,5.414
	c0.168,0.848-0.217,1.758-0.973,2.189c-1.174,0.699-2.613,0.668-3.932,0.568c-4.828-0.428-9.357-2.287-13.854-3.971
	C46.653,51.09,47.048,48.385,47.113,45.66z"/>
<path fill="#FFFFFF" d="M39.329,50.428c1.683-0.906,3.321-1.887,4.963-2.859c-0.119,1.691-0.214,3.385-0.352,5.072
	C42.365,51.982,40.829,51.246,39.329,50.428z"/>
<path fill="#FFFFFF" d="M29.06,48.037c1.322,0.748,2.641,1.5,3.971,2.232c0.029,0.084,0.088,0.244,0.12,0.324
	c-1.253,0.631-2.527,1.215-3.777,1.85C29.274,50.973,29.083,49.512,29.06,48.037z"/>
<path fill="#FFFFFF" d="M31.818,54.199c1.533-0.652,3.027-1.389,4.491-2.18c2.39,1.174,4.805,2.309,7.29,3.27
	c-0.518,4.338-1.285,8.678-2.756,12.803c-0.682,1.725-1.441,3.578-2.985,4.711c-0.783,0.609-1.925,0.488-2.645-0.156
	c-1.53-1.305-2.258-3.256-2.94-5.092c-1.348-3.957-2.059-8.105-2.578-12.246C30.219,54.705,31.121,54.572,31.818,54.199z"/>
</svg>
