<?xml version="1.0" encoding="utf-8"?>
<!-- Generator: Adobe Illustrator 16.0.0, SVG Export Plug-In . SVG Version: 6.00 Build 0)  -->
<!DOCTYPE svg PUBLIC "-//W3C//DTD SVG 1.1//EN" "http://www.w3.org/Graphics/SVG/1.1/DTD/svg11.dtd">
<svg version="1.1" id="Layer_1" xmlns="http://www.w3.org/2000/svg" xmlns:xlink="http://www.w3.org/1999/xlink" x="0px" y="0px"
	 width="72px" height="80px" viewBox="0 0 72 80" enable-background="new 0 0 72 80" xml:space="preserve">
<g>
	<path fill="#161D21" d="M35.986,2.717h0.823c1.083,0.458,2.204,0.936,3.034,1.8c1.65,1.677,2.713,3.825,3.613,5.974
		c1.487,3.705,2.429,7.606,3.098,11.535c4.297-1.555,8.769-2.771,13.352-3.04c1.914-0.062,3.917,0.065,5.67,0.917
		c1.349,0.642,2.288,2.056,2.282,3.563c-0.006,2.201-1.087,4.209-2.231,6.021c-2.528,3.864-5.912,7.078-9.398,10.063
		c1.262,1.043,2.507,2.11,3.665,3.271c1.103-0.415,2.35-0.692,3.489-0.231c1.637,0.568,2.805,2.265,2.671,4.005
		c0.016,0.858-0.543,1.62-0.543,2.466c0.797,1.479,1.836,2.852,2.312,4.491c0.609,1.694,0.623,3.86-0.781,5.175
		c-1.669,1.51-4.069,1.686-6.214,1.694c-4.903-0.137-9.662-1.545-14.26-3.15c-0.793,4.318-1.782,8.649-3.602,12.671
		c-0.888,1.873-1.889,3.786-3.489,5.16c-0.84,0.749-1.926,1.099-2.936,1.549h-0.3c-1.062-0.496-2.2-0.911-3.031-1.768
		c-2.11-2.035-3.288-4.79-4.293-7.489c-1.189-3.33-1.968-6.79-2.593-10.264c-2.042,0.771-4.105,1.491-6.215,2.06
		c-0.405,1.541-1.351,3.099-3,3.509c-1.86,0.62-3.838-0.39-4.86-1.964c-2.319,0.127-4.803,0.139-6.891-1.019
		c-0.981-0.516-1.495-1.527-2.07-2.422v-2.307c2.221-6.425,7.438-11.133,12.465-15.426c-3.581-3.054-7.041-6.323-9.692-10.234
		c-1.213-1.846-2.314-3.918-2.354-6.178c-0.035-1.652,1.089-3.165,2.598-3.766c2.073-0.85,4.377-0.854,6.576-0.679
		c4.628,0.448,9.099,1.84,13.454,3.417c0.585-3.291,1.333-6.556,2.404-9.724c-0.796-0.902-1.643-1.922-1.602-3.195
		c-0.186-1.69,0.896-3.345,2.447-3.979c0.941-0.446,1.995-0.193,2.991-0.282C33.602,4.042,34.715,3.245,35.986,2.717z"/>
</g>
<g>
	<path fill="#E54D3B" d="M33.616,5.588c0.811-0.903,1.712-2.065,3.06-1.985c1.867,0.427,2.813,2.298,3.595,3.867
		c2.171,4.892,3.01,10.239,3.727,15.5c-2.673,1.071-5.28,2.284-7.878,3.513c-2.376-1.205-4.785-2.338-7.254-3.338
		c0.479-3.366,1.008-6.728,1.822-10.036c1.509-0.03,3.146-0.549,3.921-1.949C35.835,9.376,35.173,6.94,33.616,5.588z"/>
</g>
<g>
	<path fill="#E54D3B" d="M5.759,20.647c1.843-0.907,3.977-0.607,5.935-0.344c4.631,0.792,9.053,2.457,13.385,4.216
		c0.332,0.162,0.942,0.294,0.777,0.807c-0.346,2.427-0.491,4.874-0.715,7.306c-2.345,1.808-4.906,3.358-7.241,5.197
		c-3.681-2.857-7.301-5.839-10.344-9.384c-1.229-1.516-2.506-3.124-2.934-5.076C4.348,22.349,4.755,21.103,5.759,20.647z"/>
</g>
<g>
	<path fill="#E54D3B" d="M60.508,20.58c1.974-0.185,4.346-0.534,5.938,0.943c1.242,1.512,0.15,3.54-0.715,4.958
		C62.658,31,58.36,34.515,54.08,37.84c-2.02-1.608-4.113-3.124-6.278-4.529c-0.143-2.886-0.477-5.76-0.81-8.626
		C51.361,22.922,55.824,21.253,60.508,20.58z"/>
</g>
<g>
	<path fill="#E54D3B" d="M39.417,28.171c1.605-0.814,3.235-1.584,4.883-2.317c0.212,1.798,0.32,3.607,0.414,5.416
		C42.945,30.236,41.171,29.219,39.417,28.171z"/>
</g>
<g>
	<path fill="#E54D3B" d="M28.587,26.094c1.423,0.674,2.869,1.307,4.234,2.086c-1.519,0.891-3.049,1.756-4.581,2.628
		C28.271,29.235,28.436,27.662,28.587,26.094z"/>
</g>
<g>
	<path fill="#E54D3B" d="M27.98,34.527c2.654-1.657,5.383-3.199,8.144-4.685c2.975,1.616,5.908,3.309,8.775,5.115
		c0.015,3.086,0.212,6.199-0.09,9.271c-2.8,1.866-5.756,3.491-8.706,5.12c-2.737-1.469-5.422-3.041-8.091-4.632
		C27.923,41.319,27.987,37.924,27.98,34.527z"/>
</g>
<g>
	<path fill="#161D21" d="M34.955,35.65c1.826-0.607,4.034,0.198,4.884,1.961c0.938,1.689,0.451,4.021-1.121,5.155
		c-1.942,1.509-5.231,0.796-6.17-1.545C31.52,39.122,32.714,36.327,34.955,35.65z"/>
</g>
<g>
	<path fill="#E54D3B" d="M20.309,39.568c1.547-1.081,3.103-2.146,4.693-3.163c-0.04,2.1-0.003,4.205-0.012,6.306
		C23.369,41.759,21.841,40.66,20.309,39.568z"/>
</g>
<g>
	<path fill="#E54D3B" d="M47.952,36.974c1.311,0.808,2.557,1.714,3.823,2.589c-1.256,0.877-2.471,1.821-3.807,2.577
		C47.956,40.416,47.981,38.694,47.952,36.974z"/>
</g>
<g>
	<path fill="#E54D3B" d="M7.092,51.081c3.151-3.733,6.976-6.806,10.817-9.792c2.344,1.798,4.75,3.521,7.235,5.125
		c0.157,2.659,0.401,5.31,0.757,7.946c-2.075,0.88-4.163,1.733-6.285,2.496c-0.869-1.297-2.322-2.312-3.948-2.128
		c-2.227,0.046-3.878,2.167-3.875,4.31c-2.03,0.262-4.191,0.672-6.15-0.151c-0.989-0.438-1.664-1.53-1.452-2.62
		C4.605,54.288,5.833,52.611,7.092,51.081z"/>
</g>
<g>
	<path fill="#E54D3B" d="M47.791,45.818c2.188-1.387,4.276-2.924,6.295-4.542c1.419,1.057,2.773,2.204,4.172,3.29
		c-0.363,1.329-0.526,2.836,0.296,4.032c1.058,1.848,3.541,2.336,5.4,1.487c1.411,1.755,3.005,3.575,3.395,5.865
		c0.18,0.92-0.236,1.904-1.055,2.372c-1.272,0.759-2.83,0.726-4.259,0.618c-5.234-0.465-10.14-2.48-15.01-4.304
		C47.293,51.7,47.721,48.769,47.791,45.818z"/>
</g>
<g>
	<path fill="#E54D3B" d="M39.356,50.982c1.824-0.982,3.599-2.044,5.378-3.1c-0.13,1.835-0.231,3.668-0.381,5.497
		C42.646,52.664,40.983,51.868,39.356,50.982z"/>
</g>
<g>
	<path fill="#E54D3B" d="M28.231,48.392c1.434,0.809,2.863,1.625,4.303,2.42c0.032,0.091,0.097,0.262,0.131,0.352
		c-1.359,0.683-2.738,1.315-4.092,2.002C28.463,51.572,28.256,49.987,28.231,48.392z"/>
</g>
<g>
	<path fill="#E54D3B" d="M31.219,55.067c1.663-0.707,3.28-1.505,4.868-2.361c2.588,1.271,5.206,2.5,7.896,3.54
		c-0.561,4.703-1.391,9.404-2.984,13.874c-0.739,1.869-1.561,3.875-3.234,5.104c-0.849,0.659-2.086,0.53-2.866-0.17
		c-1.658-1.414-2.447-3.527-3.185-5.515c-1.46-4.29-2.231-8.785-2.793-13.269C29.488,55.616,30.465,55.472,31.219,55.067z"/>
</g>
</svg>
