<?xml version="1.0" encoding="utf-8"?>
<!-- Generator: Adobe Illustrator 16.0.0, SVG Export Plug-In . SVG Version: 6.00 Build 0)  -->
<!DOCTYPE svg PUBLIC "-//W3C//DTD SVG 1.1//EN" "http://www.w3.org/Graphics/SVG/1.1/DTD/svg11.dtd">
<svg version="1.1" id="Layer_1" xmlns="http://www.w3.org/2000/svg" xmlns:xlink="http://www.w3.org/1999/xlink" x="0px" y="0px"
	 width="50px" height="50px" viewBox="-245.5 -315.5 50 50" enable-background="new -245.5 -315.5 50 50" xml:space="preserve">
<g>
	<path d="M-231.685-278.918c0.113,0.508,0.227,1.02,0.34,1.528c7.142-1.596,14.546-1.596,21.688,0
		c0.114-0.509,0.229-1.02,0.342-1.528C-216.681-280.564-224.319-280.564-231.685-278.918z"/>
	<path d="M-221.61-283.928c-1.668,0.035-3.336,0.148-4.998,0.342c0.712,0.285,1.238,0.889,1.309,1.662
		c0.054,0.589-0.148,1.141-0.501,1.561c1.272-0.136,2.552-0.224,3.832-0.263c-0.406-0.368-0.684-0.886-0.709-1.478
		C-222.713-282.878-222.276-283.55-221.61-283.928z"/>
	<path d="M-214.391-283.586c-1.66-0.194-3.329-0.307-4.999-0.342c0.667,0.378,1.104,1.05,1.068,1.824
		c-0.026,0.591-0.302,1.11-0.708,1.478c1.279,0.039,2.558,0.126,3.832,0.263c-0.352-0.42-0.556-0.972-0.501-1.561
		C-215.629-282.697-215.103-283.301-214.391-283.586z"/>
	<path d="M-211.372-281.328c-0.106,0.582-0.451,1.057-0.906,1.367c0.877,0.146,1.752,0.317,2.623,0.511
		c0.24-1.07,0.478-2.141,0.718-3.214c-1.077-0.24-2.16-0.447-3.249-0.621C-211.575-282.817-211.233-282.091-211.372-281.328z"/>
	<path d="M-228.813-283.284c-1.087,0.174-2.17,0.38-3.249,0.621c0.24,1.073,0.479,2.144,0.718,3.214
		c0.872-0.194,1.747-0.365,2.624-0.511c-0.454-0.31-0.8-0.786-0.906-1.37C-229.767-282.091-229.424-282.817-228.813-283.284z"/>
	<path d="M-208-285.565c0-0.774-0.124-1.545-0.348-2.223c-1.087-4.927-9.601-10.723-11.417-11.911v-0.877h1.884v-1.471h-1.884
		v-1.562h-1.471v1.562h-1.884v1.471h1.884v0.871c-1.794,1.174-10.327,6.978-11.399,11.846c-0.243,0.738-0.366,1.511-0.366,2.295
		c0,0.317,0.033,0.628,0.076,0.935c-0.012,0.003-0.024,0.004-0.037,0.007c0.113,0.508,0.227,1.015,0.34,1.525
		c7.98-1.785,16.258-1.785,24.24,0c0.113-0.51,0.227-1.017,0.34-1.525c-0.012-0.003-0.024-0.004-0.036-0.007
		C-208.032-284.937-208-285.248-208-285.565z M-209.765-287.403c0.195,0.6,0.294,1.219,0.294,1.838c0,0.221-0.017,0.439-0.043,0.655
		c-1.146-0.224-2.296-0.414-3.451-0.567c0-0.009,0.001-0.016,0.001-0.023c0-0.737-0.069-1.471-0.197-2.139
		c-0.359-2.797-2.173-5.902-3.838-8.253C-214.045-293.587-210.395-290.248-209.765-287.403z M-214.612-287.407
		c0.107,0.566,0.161,1.149,0.17,1.736c-1.425-0.152-2.854-0.234-4.285-0.279c0.269-0.365,0.433-0.812,0.433-1.3
		c0-0.958-0.617-1.766-1.471-2.071v-7.779C-218.02-294.937-215.053-290.833-214.612-287.407z M-220.5-287.985
		c0.406,0,0.735,0.331,0.735,0.735c0,0.405-0.33,0.735-0.735,0.735s-0.735-0.33-0.735-0.735
		C-221.235-287.654-220.906-287.985-220.5-287.985z M-221.235-289.32c-0.854,0.305-1.471,1.113-1.471,2.071
		c0,0.488,0.164,0.935,0.433,1.3c-1.431,0.044-2.86,0.126-4.285,0.279c0.009-0.596,0.062-1.182,0.176-1.781
		c0.437-3.391,3.403-7.492,5.146-9.654V-289.32z M-231.529-285.565c0-0.627,0.098-1.245,0.312-1.907
		c0.62-2.806,4.268-6.13,7.218-8.43c-1.664,2.347-3.477,5.441-3.833,8.217c-0.135,0.702-0.203,1.438-0.203,2.185
		c0,0.007,0.001,0.014,0.001,0.021c-1.145,0.154-2.285,0.34-3.421,0.563C-231.483-285.131-231.529-285.344-231.529-285.565z"/>
</g>
</svg>
