<?xml version="1.0" encoding="utf-8"?>
<!-- Generator: Adobe Illustrator 16.0.0, SVG Export Plug-In . SVG Version: 6.00 Build 0)  -->
<!DOCTYPE svg PUBLIC "-//W3C//DTD SVG 1.1//EN" "http://www.w3.org/Graphics/SVG/1.1/DTD/svg11.dtd">
<svg version="1.1" id="Layer_1" xmlns="http://www.w3.org/2000/svg" xmlns:xlink="http://www.w3.org/1999/xlink" x="0px" y="0px"
	 width="50px" height="50px" viewBox="174.5 -245.5 50 50" enable-background="new 174.5 -245.5 50 50" xml:space="preserve">
<path d="M211.324-212.701v-1.425c0-0.929-0.294-1.79-0.789-2.5c-0.045-4.493-4.623-8.161-10.373-8.425v-0.726h1.483l-1.697-2.392
	c0.31-0.123,0.553-0.368,0.677-0.674l2.393,1.693v-4.288l-2.393,1.696c-0.124-0.308-0.367-0.554-0.676-0.677l1.696-2.392h-4.291
	l1.696,2.392c-0.309,0.123-0.552,0.368-0.676,0.674l-2.393-1.693v4.288l2.393-1.695c0.123,0.307,0.367,0.553,0.674,0.676
	l-1.694,2.392h1.454v0.726c-5.731,0.276-10.29,3.934-10.342,8.413c-0.497,0.711-0.79,1.572-0.79,2.501v1.437H187v4.512h25v-4.512
	H211.324z M194.243-209.599h-3.624v-1.354h3.624V-209.599z M195.104-212.701h-6.073v-1.437c0-1.675,1.361-3.036,3.035-3.036
	c1.676,0,3.038,1.361,3.038,3.036V-212.701z M195.152-217.981v0.729c-0.793-0.787-1.883-1.274-3.087-1.274
	c-0.746,0-1.439,0.205-2.056,0.536c0.855-3.104,4.432-5.477,8.799-5.707v1.396C196.741-221.964,195.152-220.164,195.152-217.981z
	 M201.312-209.599h-3.625v-1.354h3.625V-209.599z M202.494-214.776v2.075h-5.988v-2.075v-3.206c0-1.675,1.343-3.037,2.994-3.037
	s2.994,1.362,2.994,3.037V-214.776z M200.162-222.305v-1.395c4.386,0.221,7.981,2.603,8.832,5.719
	c-0.617-0.332-1.312-0.537-2.06-0.537c-1.202,0-2.294,0.488-3.087,1.275v-0.74C203.848-220.174,202.244-221.979,200.162-222.305z
	 M208.382-209.599h-3.625v-1.354h3.625V-209.599z M209.971-212.701h-6.073v-1.425c0-1.674,1.363-3.037,3.037-3.037
	s3.036,1.363,3.036,3.037V-212.701z"/>
</svg>
