<?xml version="1.0" encoding="utf-8"?>
<!-- Generator: Adobe Illustrator 16.0.0, SVG Export Plug-In . SVG Version: 6.00 Build 0)  -->
<!DOCTYPE svg PUBLIC "-//W3C//DTD SVG 1.1//EN" "http://www.w3.org/Graphics/SVG/1.1/DTD/svg11.dtd">
<svg version="1.1" id="Layer_1" xmlns="http://www.w3.org/2000/svg" xmlns:xlink="http://www.w3.org/1999/xlink" x="0px" y="0px"
	 width="50px" height="50px" viewBox="244.5 -245.5 50 50" enable-background="new 244.5 -245.5 50 50" xml:space="preserve">
<path d="M257.909-220.229c0.111,0.434,0.221,0.869,0.33,1.303c7.36-2.438,15.165-2.419,22.509,0.049
	c0.113-0.451,0.228-0.901,0.343-1.352C273.52-222.755,265.48-222.755,257.909-220.229z"/>
<path d="M280.325-219.1c0.664-0.284,1.129-0.943,1.129-1.71c0-1.026-0.832-1.859-1.859-1.859c-1.028,0-1.86,0.833-1.86,1.859
	c0,0.383,0.117,0.739,0.315,1.035c-1.16,0.975-2.507,1.479-3.881,1.316c-1.571-0.194-2.944-1.226-3.94-2.764
	c0.154,0.047,0.314,0.08,0.482,0.08c0.911,0,1.65-0.739,1.65-1.65c0-0.848-0.642-1.538-1.467-1.631
	c0.078-0.181,0.12-0.38,0.12-0.589c0-0.837-0.679-1.515-1.515-1.515s-1.515,0.678-1.515,1.515c0,0.209,0.042,0.408,0.119,0.589
	c-0.824,0.093-1.466,0.783-1.466,1.631c0,0.911,0.739,1.65,1.65,1.65c0.168,0,0.328-0.033,0.481-0.08
	c-0.995,1.539-2.37,2.569-3.939,2.764c-1.374,0.163-2.722-0.342-3.881-1.316c0.198-0.296,0.315-0.652,0.315-1.035
	c0-1.026-0.832-1.859-1.86-1.859c-1.027,0-1.859,0.833-1.859,1.859c0,0.767,0.465,1.426,1.129,1.71
	c-0.446,0.849-1.004,1.581-1.675,2.12c0.212,0.835,0.423,1.671,0.633,2.506c7.752-2.588,15.982-2.588,23.734,0
	c0.21-0.835,0.421-1.671,0.633-2.506C281.329-217.519,280.771-218.251,280.325-219.1z M260.195-216.53
	c-0.451,0-0.817-0.366-0.817-0.817s0.366-0.817,0.817-0.817s0.816,0.366,0.816,0.817S260.646-216.53,260.195-216.53z M269.5-217.485
	c-0.451,0-0.817-0.365-0.817-0.816s0.366-0.817,0.817-0.817s0.817,0.366,0.817,0.817S269.951-217.485,269.5-217.485z
	 M278.532-216.53c-0.45,0-0.816-0.366-0.816-0.817s0.366-0.817,0.816-0.817c0.451,0,0.817,0.366,0.817,0.817
	S278.983-216.53,278.532-216.53z"/>
</svg>
