<?xml version="1.0" encoding="utf-8"?>
<!-- Generator: Adobe Illustrator 16.0.0, SVG Export Plug-In . SVG Version: 6.00 Build 0)  -->
<!DOCTYPE svg PUBLIC "-//W3C//DTD SVG 1.1//EN" "http://www.w3.org/Graphics/SVG/1.1/DTD/svg11.dtd">
<svg version="1.1" id="Layer_1" xmlns="http://www.w3.org/2000/svg" xmlns:xlink="http://www.w3.org/1999/xlink" x="0px" y="0px"
	 width="50px" height="50px" viewBox="244.5 -315.5 50 50" enable-background="new 244.5 -315.5 50 50" xml:space="preserve">
<g>
	<path d="M265.93-293.857c0.203-0.003,0.422,0.022,0.627,0.068l0.125-0.549c-0.24-0.054-0.486-0.081-0.73-0.081
		c-0.158-0.004-0.322,0.011-0.482,0.034l0.08,0.556C265.674-293.847,265.801-293.857,265.93-293.857z"/>
	<path d="M268.262-292.717l0.432-0.36c-0.264-0.314-0.566-0.582-0.898-0.793l-0.303,0.474
		C267.777-293.215,268.037-292.987,268.262-292.717z"/>
	<path d="M263.189-292.032l-0.5-0.254c-0.18,0.35-0.314,0.727-0.398,1.116l0.549,0.121
		C262.914-291.394,263.031-291.724,263.189-292.032z"/>
	<path d="M262.908-288.974c-0.1-0.376-0.152-0.706-0.164-1.038l-0.562,0.02c0.014,0.375,0.074,0.745,0.186,1.163L262.908-288.974z"
		/>
	<path d="M263.307-286.719l0.469-0.31c-0.217-0.329-0.395-0.644-0.529-0.935l-0.51,0.237
		C262.883-287.411,263.074-287.071,263.307-286.719z"/>
	<path d="M264.459-293.43c0.043-0.027,0.088-0.052,0.131-0.076L264.322-294c-0.053,0.029-0.105,0.06-0.158,0.091
		c-0.287,0.177-0.553,0.394-0.789,0.646l0.408,0.384C263.986-293.093,264.215-293.28,264.459-293.43z"/>
	<path d="M273.027-293.857c0.143-0.001,0.271,0.008,0.404,0.026l0.074-0.557c-0.148-0.02-0.301-0.031-0.451-0.031
		c-0.26-0.003-0.506,0.026-0.758,0.085l0.127,0.546C272.623-293.833,272.826-293.857,273.027-293.857z"/>
	<path d="M271.492-293.386l-0.305-0.472c-0.33,0.214-0.631,0.484-0.891,0.802l0.436,0.355
		C270.955-292.974,271.211-293.204,271.492-293.386z"/>
	<path d="M275.201-292.895l0.406-0.389c-0.232-0.244-0.492-0.455-0.77-0.625c-0.061-0.036-0.119-0.07-0.18-0.103l-0.27,0.494
		c0.053,0.029,0.105,0.058,0.156,0.089C274.781-293.283,275.002-293.104,275.201-292.895z"/>
	<path d="M276.098-289.005l0.541,0.154c0.107-0.378,0.168-0.771,0.18-1.17l-0.562-0.015
		C276.246-289.686,276.193-289.339,276.098-289.005z"/>
	<path d="M276.703-291.199c-0.088-0.391-0.225-0.765-0.404-1.113l-0.498,0.259c0.158,0.305,0.277,0.633,0.355,0.977L276.703-291.199
		z"/>
	<path d="M275.695-286.753c0.229-0.347,0.418-0.685,0.568-1.004l-0.51-0.239c-0.139,0.296-0.316,0.611-0.529,0.936L275.695-286.753z
		"/>
	<path d="M278.861-290.979c0.209,0.287,0.375,0.595,0.492,0.917l0.527-0.191c-0.135-0.373-0.324-0.729-0.566-1.058L278.861-290.979z
		"/>
	<path d="M278.5-286.12l0.445,0.343c0.262-0.339,0.477-0.671,0.637-0.987l-0.5-0.255C278.938-286.734,278.742-286.433,278.5-286.12z
		"/>
	<path d="M279.559-288.89c0,0.293-0.039,0.586-0.115,0.872l0.543,0.145c0.088-0.332,0.133-0.674,0.133-1.017
		c0-0.06,0-0.121-0.004-0.182l-0.559,0.029C279.559-288.993,279.559-288.941,279.559-288.89z"/>
	<path d="M259.441-288.89c0-0.051,0.002-0.103,0.004-0.153l-0.562-0.029c-0.002,0.062-0.004,0.122-0.004,0.182
		c0.002,0.343,0.047,0.685,0.135,1.017l0.543-0.145C259.48-288.304,259.441-288.597,259.441-288.89z"/>
	<path d="M260.139-290.979l-0.453-0.332c-0.242,0.33-0.432,0.685-0.566,1.058l0.527,0.191
		C259.764-290.384,259.928-290.692,260.139-290.979z"/>
	<path d="M260.5-286.12c-0.242-0.312-0.438-0.614-0.582-0.899l-0.502,0.255c0.162,0.316,0.377,0.647,0.637,0.987L260.5-286.12z"/>
	<path d="M282-289.056c0-2.075-1.258-3.985-3.279-4.984c-0.799-0.394-1.688-0.614-2.594-0.669c-0.178-0.144-0.361-0.277-0.557-0.397
		c-1.65-1.01-3.732-0.866-5.295,0.214c-0.074-0.289-0.141-0.58-0.186-0.874c0.316-0.143,0.57-0.396,0.715-0.713
		c0.492,0.078,0.98,0.193,1.459,0.356c0-0.631,0-1.261,0-1.892c-0.479,0.164-0.967,0.279-1.459,0.357
		c-0.145-0.317-0.398-0.571-0.715-0.713c0.076-0.494,0.193-0.983,0.357-1.461c-0.631,0-1.264,0-1.895,0
		c0.164,0.478,0.281,0.967,0.357,1.461c-0.316,0.143-0.57,0.396-0.713,0.713c-0.494-0.078-0.984-0.193-1.461-0.357
		c0,0.631,0,1.261,0,1.892c0.477-0.164,0.967-0.279,1.461-0.356c0.143,0.317,0.396,0.571,0.713,0.713
		c-0.045,0.293-0.109,0.584-0.184,0.871c-1.566-1.076-3.646-1.219-5.297-0.21c-0.186,0.114-0.359,0.243-0.529,0.377
		c-0.971,0.016-1.934,0.25-2.787,0.694c-1.922,1-3.113,2.908-3.113,4.978c0,0.598,0.102,1.192,0.283,1.707
		c0.225,0.944,0.836,1.928,1.643,2.89c-0.623,0.352-1.066,0.983-1.158,1.729h-0.027v1.563h23.521v-1.563h-0.029
		c-0.094-0.767-0.562-1.411-1.215-1.758c0.818-0.933,1.439-1.885,1.664-2.796C281.893-287.859,282-288.456,282-289.056z
		 M274.984-294.148c1.305,0.801,2.115,2.334,2.115,4.001c0,0.485-0.068,0.962-0.217,1.467c-0.148,0.743-0.557,1.533-1.1,2.321
		c-0.221-0.05-0.447-0.083-0.684-0.083c-0.777,0-1.488,0.283-2.037,0.75c-0.545-1.188-1.662-2.057-3-2.249v-3.871l0.006-0.007
		l-0.006-0.004v-1.372C271.289-294.71,273.377-295.126,274.984-294.148z M269.5-297.658c0.326,0,0.588,0.265,0.588,0.589
		s-0.262,0.589-0.588,0.589c-0.324,0-0.588-0.265-0.588-0.589S269.176-297.658,269.5-297.658z M264.016-294.147
		c0.592-0.362,1.262-0.553,1.934-0.553c1.143,0,2.217,0.553,2.99,1.502v5.258c-1.34,0.192-2.457,1.061-3.002,2.249
		c-0.549-0.467-1.26-0.75-2.039-0.75c-0.23,0-0.453,0.033-0.672,0.081c-0.553-0.801-0.969-1.606-1.121-2.367
		c-0.137-0.464-0.205-0.942-0.205-1.419C261.9-291.812,262.711-293.345,264.016-294.147z M258.125-289.056
		c0-1.649,0.961-3.175,2.508-3.98c0.355-0.186,0.736-0.327,1.129-0.423c-0.158,0.241-0.297,0.494-0.418,0.757
		c-0.297,0.155-0.58,0.328-0.832,0.53l0.352,0.439c0.047-0.039,0.107-0.063,0.156-0.1c-0.154,0.54-0.244,1.105-0.244,1.686
		c0,0.585,0.086,1.168,0.24,1.689c0.166,0.829,0.59,1.688,1.154,2.536c-0.312,0.207-0.582,0.471-0.805,0.771
		c-0.047-0.048-0.102-0.095-0.148-0.144l-0.406,0.388c0.082,0.085,0.174,0.165,0.258,0.248c-0.018,0.038-0.041,0.073-0.059,0.111
		c-0.26-0.121-0.549-0.188-0.852-0.203c-0.893-0.979-1.576-1.981-1.797-2.914C258.203-288.115,258.125-288.584,258.125-289.056z
		 M268.316-282.676l0.791-1.116c-0.145-0.057-0.258-0.172-0.316-0.316l-1.115,0.792v-2.001l1.115,0.791
		c0.059-0.143,0.172-0.258,0.316-0.315l-0.791-1.116h2l-0.789,1.116c0.143,0.057,0.256,0.172,0.312,0.316l1.119-0.792v2.001
		l-1.119-0.791c-0.057,0.143-0.17,0.258-0.314,0.315l0.791,1.116H268.316z M280.609-287.615c-0.223,0.896-0.949,1.891-1.908,2.882
		c-0.25,0.029-0.49,0.086-0.713,0.187c-0.016-0.038-0.039-0.073-0.057-0.111c0.084-0.083,0.176-0.163,0.256-0.248l-0.406-0.388
		c-0.045,0.048-0.1,0.095-0.148,0.144c-0.219-0.298-0.484-0.562-0.793-0.767c0.555-0.835,0.971-1.679,1.133-2.491
		c0.168-0.56,0.25-1.145,0.25-1.738c0-0.581-0.088-1.146-0.24-1.685c0.047,0.036,0.107,0.061,0.154,0.099l0.352-0.439
		c-0.252-0.202-0.535-0.375-0.832-0.529c-0.107-0.236-0.23-0.463-0.367-0.68c0.322,0.092,0.639,0.203,0.936,0.349
		c1.637,0.808,2.65,2.331,2.65,3.976C280.875-288.587,280.793-288.122,280.609-287.615z"/>
</g>
</svg>
