<?xml version="1.0" encoding="utf-8"?>
<!-- Generator: Adobe Illustrator 16.0.0, SVG Export Plug-In . SVG Version: 6.00 Build 0)  -->
<!DOCTYPE svg PUBLIC "-//W3C//DTD SVG 1.1//EN" "http://www.w3.org/Graphics/SVG/1.1/DTD/svg11.dtd">
<svg version="1.1" id="Layer_1" xmlns="http://www.w3.org/2000/svg" xmlns:xlink="http://www.w3.org/1999/xlink" x="0px" y="0px"
	 width="50px" height="50px" viewBox="-105.5 -315.5 50 50" enable-background="new -105.5 -315.5 50 50" xml:space="preserve">
<g>
	<path d="M-89.892-280.775c0.096,0.427,0.191,0.856,0.286,1.283c5.997-1.34,12.214-1.34,18.211,0
		c0.095-0.427,0.191-0.856,0.287-1.283C-77.293-282.157-83.707-282.157-89.892-280.775z"/>
	<path d="M-81.432-284.981c-1.401,0.029-2.801,0.125-4.196,0.287c0.598,0.239,1.04,0.747,1.099,1.395
		c0.045,0.495-0.125,0.958-0.421,1.311c1.068-0.115,2.143-0.188,3.217-0.221c-0.341-0.309-0.574-0.744-0.596-1.241
		C-82.358-284.1-81.992-284.664-81.432-284.981z"/>
	<path d="M-75.37-284.694c-1.394-0.163-2.795-0.258-4.198-0.287c0.561,0.317,0.927,0.881,0.897,1.532
		c-0.021,0.497-0.253,0.932-0.594,1.241c1.074,0.032,2.147,0.106,3.217,0.221c-0.295-0.354-0.467-0.816-0.421-1.311
		C-76.41-283.948-75.968-284.456-75.37-284.694z"/>
	<path d="M-72.835-282.799c-0.089,0.488-0.379,0.888-0.761,1.148c0.736,0.123,1.471,0.267,2.202,0.429
		c0.201-0.898,0.401-1.798,0.603-2.699c-0.904-0.201-1.813-0.375-2.728-0.521C-73.005-284.049-72.719-283.439-72.835-282.799z"/>
	<path d="M-87.481-284.441c-0.913,0.146-1.822,0.319-2.728,0.521c0.202,0.901,0.403,1.801,0.603,2.699
		c0.732-0.163,1.466-0.306,2.203-0.429c-0.381-0.26-0.672-0.66-0.761-1.15C-88.281-283.439-87.993-284.049-87.481-284.441z"/>
	<path d="M-83.761-292.482l-0.405-0.465c-0.318,0.276-0.628,0.558-0.927,0.842l0.426,0.448
		C-84.375-291.936-84.072-292.21-83.761-292.482z"/>
	<path d="M-81.851-294.028l-0.373-0.492c-0.326,0.246-0.656,0.502-0.984,0.768l0.387,0.48
		C-82.497-293.532-82.172-293.784-81.851-294.028z"/>
	<path d="M-87.003-288.893l-0.533-0.313c-0.253,0.432-0.429,0.84-0.523,1.213l0.598,0.152
		C-87.381-288.159-87.227-288.512-87.003-288.893z"/>
	<path d="M-85.528-290.793l-0.451-0.422c-0.308,0.331-0.586,0.652-0.827,0.957l0.485,0.383
		C-86.082-290.18-85.815-290.487-85.528-290.793z"/>
	<path d="M-75.483-290.821c0.296,0.312,0.565,0.62,0.8,0.913l0.482-0.386c-0.246-0.306-0.526-0.627-0.835-0.951L-75.483-290.821z"/>
	<path d="M-77.261-292.502c0.312,0.269,0.618,0.544,0.911,0.821l0.424-0.449c-0.301-0.285-0.612-0.564-0.931-0.84L-77.261-292.502z"
		/>
	<path d="M-73.997-288.929c0.224,0.38,0.372,0.728,0.453,1.078l0.591-0.176c-0.083-0.372-0.255-0.78-0.512-1.215L-73.997-288.929z"
		/>
	<path d="M-79.177-294.042c0.321,0.24,0.647,0.492,0.971,0.752l0.387-0.48c-0.33-0.266-0.662-0.522-0.989-0.767L-79.177-294.042z"/>
	<path d="M-68-291.157c0-2.36-1.223-4.541-3.195-5.693c-0.92-0.533-1.959-0.814-3.005-0.814c-1.516,0-2.949,0.583-4.07,1.612
		c-0.714-0.521-1.285-0.904-1.612-1.119v-1.791h1.583v-1.235h-1.583v-1.312h-1.234v1.312H-82.7v1.235h1.583v1.785
		c-0.325,0.213-0.898,0.598-1.617,1.122c-1.12-1.027-2.552-1.609-4.065-1.609c-1.046,0-2.085,0.281-3.007,0.815
		c-1.97,1.15-3.193,3.332-3.193,5.691c0,0.679,0.102,1.353,0.289,1.948c0.249,1.179,0.977,2.414,1.917,3.611
		c-0.056,0.012-0.112,0.021-0.168,0.033c0.096,0.427,0.191,0.853,0.286,1.281c6.701-1.499,13.651-1.499,20.354,0
		c0.095-0.428,0.19-0.854,0.286-1.281c-0.053-0.012-0.107-0.02-0.161-0.031c0.93-1.183,1.65-2.4,1.895-3.558
		C-68.102-289.804-68-290.478-68-291.157z M-80.5-288.388c0.341,0,0.617,0.277,0.617,0.617s-0.276,0.617-0.617,0.617
		s-0.617-0.277-0.617-0.617S-80.841-288.388-80.5-288.388z M-91.765-291.157c0-1.922,0.989-3.695,2.579-4.625
		c0.732-0.423,1.558-0.647,2.387-0.647c1.124,0,2.194,0.406,3.061,1.131c-2.324,1.801-5.274,4.488-5.8,6.878
		c-0.182,0.555-0.274,1.132-0.274,1.717c0,0.136,0.018,0.27,0.027,0.404c-0.86-1.085-1.514-2.191-1.732-3.222
		C-91.682-290.051-91.765-290.601-91.765-291.157z M-88.578-286.702c0-0.455,0.071-0.902,0.229-1.39
		c0.562-2.543,4.794-5.914,7.232-7.596v0.371c-0.025,0.017-0.048,0.032-0.073,0.049l0.073,0.104v5.656
		c-0.717,0.255-1.235,0.935-1.235,1.739c0,0.411,0.145,0.785,0.374,1.091c-1.883,0.058-3.762,0.224-5.629,0.504
		c-0.027-0.173-0.044-0.35-0.044-0.527h-0.617c0,0.206,0.02,0.409,0.05,0.611c-0.097,0.016-0.195,0.031-0.292,0.048
		C-88.548-286.258-88.578-286.478-88.578-286.702z M-72.781-286.091c0.031-0.201,0.05-0.405,0.05-0.611v-0.03l-0.617,0.03
		c0,0.177-0.016,0.354-0.043,0.527c-1.868-0.28-3.747-0.446-5.63-0.504c0.229-0.306,0.374-0.679,0.374-1.091
		c0-0.804-0.518-1.483-1.235-1.739v-5.667l0.065-0.093c-0.022-0.016-0.043-0.029-0.065-0.044v-0.371
		c2.441,1.685,6.671,5.055,7.247,7.648c0.142,0.437,0.213,0.886,0.213,1.333c0,0.224-0.028,0.444-0.068,0.66
		C-72.586-286.06-72.684-286.075-72.781-286.091z M-69.497-289.465c-0.215,1.016-0.864,2.109-1.719,3.185
		c0.01-0.141,0.028-0.28,0.028-0.422c0-0.578-0.092-1.154-0.258-1.658c-0.537-2.425-3.492-5.126-5.821-6.934
		c0.867-0.726,1.94-1.135,3.066-1.135c0.829,0,1.655,0.224,2.384,0.646c1.592,0.931,2.582,2.704,2.582,4.625
		C-69.235-290.601-69.318-290.051-69.497-289.465z"/>
</g>
</svg>
