<?xml version="1.0" encoding="utf-8"?>
<!-- Generator: Adobe Illustrator 16.0.0, SVG Export Plug-In . SVG Version: 6.00 Build 0)  -->
<!DOCTYPE svg PUBLIC "-//W3C//DTD SVG 1.1//EN" "http://www.w3.org/Graphics/SVG/1.1/DTD/svg11.dtd">
<svg version="1.1" id="Layer_1" xmlns="http://www.w3.org/2000/svg" xmlns:xlink="http://www.w3.org/1999/xlink" x="0px" y="0px"
	 width="50px" height="50px" viewBox="174.5 -315.5 50 50" enable-background="new 174.5 -315.5 50 50" xml:space="preserve">
<path d="M199.983-290.139l0.145-0.581c-0.384-0.094-0.779-0.142-1.188-0.142c-0.003,0-0.003,0-0.005,0l-0.063,0.001v0.597
	l0.077-0.001C199.298-290.265,199.647-290.223,199.983-290.139z"/>
<path d="M200.096-290.737l-0.43-0.417c-0.297,0.307-0.553,0.647-0.762,1.015l0.521,0.294
	C199.607-290.169,199.832-290.468,200.096-290.737z"/>
<path d="M200.164-290.435l-0.165-0.574c-0.409,0.117-0.801,0.287-1.163,0.504l0.306,0.514
	C199.462-290.183,199.805-290.332,200.164-290.435z"/>
<path d="M200.012-290.004c-0.119-0.406-0.292-0.796-0.514-1.159l-0.51,0.31c0.195,0.32,0.347,0.662,0.451,1.017L200.012-290.004z"/>
<path d="M199.26-291.006c0,0.337-0.039,0.673-0.117,0.999l0.582,0.14c0.088-0.372,0.133-0.755,0.133-1.134v-0.131l-0.598,0.019
	V-291.006z"/>
<path d="M200.155-290.34c-0.309-0.294-0.652-0.548-1.021-0.752l-0.29,0.523c0.324,0.18,0.627,0.4,0.897,0.66L200.155-290.34z"/>
<path d="M200.094-290.737l-0.427-0.417c-0.299,0.307-0.555,0.647-0.761,1.015l0.521,0.294
	C199.608-290.169,199.832-290.468,200.094-290.737z"/>
<path d="M199.865-290.979l-0.578-0.148c-0.102,0.396-0.152,0.806-0.152,1.216v0.04l0.598-0.04
	C199.732-290.272,199.775-290.632,199.865-290.979z"/>
<path d="M199.571-291.164l-0.576,0.159c0.112,0.408,0.278,0.801,0.494,1.169l0.516-0.301
	C199.815-290.46,199.67-290.806,199.571-291.164z"/>
<path d="M200.012-290.004c-0.119-0.406-0.291-0.796-0.512-1.159l-0.512,0.31c0.195,0.32,0.346,0.662,0.451,1.017L200.012-290.004z"
	/>
<path d="M200.164-290.435L200-291.009c-0.41,0.117-0.801,0.287-1.164,0.504l0.309,0.514
	C199.461-290.183,199.805-290.332,200.164-290.435z"/>
<path d="M200.155-290.34c-0.308-0.294-0.651-0.548-1.021-0.752l-0.29,0.523c0.326,0.18,0.627,0.4,0.897,0.66L200.155-290.34z"/>
<path d="M199.985-290.139l0.143-0.581c-0.383-0.094-0.777-0.142-1.186-0.142c-0.002,0-0.002,0-0.005,0l-0.065,0.001v0.597
	l0.08-0.001C199.301-290.265,199.648-290.223,199.985-290.139z"/>
<path d="M211.97-282.627c-0.084-0.69-0.457-1.286-0.989-1.677c0.564-0.952,0.91-2.047,0.91-3.231c0-3.517-2.86-6.377-6.379-6.377
	c-2.293,0-4.29,1.227-5.414,3.048v-1.901c0.142-0.225,0.256-0.492,0.256-0.78c0,0,0-0.001,0-0.002l1.349,0.74l-1.885-2.917v-0.028
	h0.028l2.915,1.885l-0.739-1.349c0.002,0,0.002,0,0.003,0c0.794,0,1.439-0.854,1.439-0.854s-0.646-0.853-1.439-0.853
	c-0.001,0-0.001,0-0.003,0l0.739-1.349l-2.915,1.884h-0.028v-0.027l1.885-2.917l-1.349,0.74v-0.002c0-0.795-0.854-1.439-0.854-1.439
	s-0.854,0.644-0.854,1.439v0.002l-1.349-0.74l1.885,2.917v0.027h-0.026l-2.915-1.884l0.737,1.349c-0.002,0-0.002,0-0.002,0
	c-0.795,0-1.44,0.853-1.44,0.853s0.646,0.854,1.439,0.854c0,0,0.001,0,0.003,0l-0.737,1.349l2.915-1.885h0.026v0.028l-1.885,2.917
	l1.349-0.74c0,0.001,0,0.002,0,0.002c0,0.288,0.114,0.555,0.256,0.78v1.903c-1.124-1.822-3.121-3.049-5.414-3.049
	c-3.519,0-6.379,2.86-6.379,6.377c0,1.184,0.346,2.279,0.91,3.231c-0.532,0.392-0.905,0.987-0.989,1.677H187v1.661h25v-1.661H211.97
	z M195.714-285.773c-0.584-0.497-1.34-0.798-2.166-0.798c-1.376,0-2.557,0.83-3.07,2.015c-0.312-0.144-0.657-0.229-1.022-0.229
	c-0.111,0-0.22,0.017-0.327,0.031c-0.516-0.805-0.824-1.756-0.824-2.781c0-2.858,2.326-5.183,5.185-5.183
	c2.664,0,4.84,2.027,5.125,4.617C197.322-287.821,196.253-286.948,195.714-285.773z M201.6-283.248l-1.507-0.94
	c-0.064,0.154-0.189,0.279-0.343,0.344l0.941,1.505l-1.191-0.497l-1.191,0.497l0.941-1.505c-0.153-0.065-0.278-0.19-0.343-0.344
	l-1.507,0.94l0.497-1.19l-0.497-1.191l1.507,0.941c0.064-0.155,0.189-0.279,0.343-0.344l-0.941-1.506l1.191,0.497l1.191-0.497
	l-0.941,1.506c0.153,0.065,0.278,0.189,0.343,0.344l1.507-0.941l-0.497,1.191L201.6-283.248z M209.872-284.755
	c-0.107-0.014-0.216-0.031-0.327-0.031c-0.002,0-0.004,0-0.005,0c0.095-0.139,0.188-0.28,0.27-0.428l-0.525-0.285
	c-0.177,0.328-0.396,0.631-0.653,0.901l0.003,0.002c-0.036,0.014-0.076,0.021-0.111,0.038c-0.514-1.185-1.694-2.015-3.07-2.015
	c-0.826,0-1.582,0.301-2.166,0.798c-0.415-0.904-1.143-1.634-2.043-2.051c0.017-0.264,0.051-0.525,0.116-0.779l-0.578-0.149
	c-0.062,0.233-0.099,0.472-0.123,0.711c-0.089-0.026-0.181-0.041-0.272-0.061c0.285-2.59,2.462-4.617,5.126-4.617
	c2.858,0,5.185,2.325,5.185,5.183C210.696-286.511,210.388-285.56,209.872-284.755z"/>
</svg>
