<?xml version="1.0" encoding="utf-8"?>
<!-- Generator: Adobe Illustrator 16.0.0, SVG Export Plug-In . SVG Version: 6.00 Build 0)  -->
<!DOCTYPE svg PUBLIC "-//W3C//DTD SVG 1.1//EN" "http://www.w3.org/Graphics/SVG/1.1/DTD/svg11.dtd">
<svg version="1.1" id="Layer_1" xmlns="http://www.w3.org/2000/svg" xmlns:xlink="http://www.w3.org/1999/xlink" x="0px" y="0px"
	 width="50px" height="50px" viewBox="314.5 -315.5 50 50" enable-background="new 314.5 -315.5 50 50" xml:space="preserve">
<g>
	<path d="M352-288.889c0-3.544-2.885-6.428-6.43-6.428c-2.318,0-4.348,1.237-5.479,3.083v-1.998c0.157,0,0.315,0,0.473,0
		c-0.185-0.536-0.316-1.086-0.402-1.641c0.356-0.162,0.642-0.447,0.803-0.803c0.555,0.087,1.104,0.217,1.642,0.401
		c0-0.708,0-1.418,0-2.126c-0.537,0.184-1.087,0.314-1.642,0.401c-0.161-0.356-0.446-0.641-0.803-0.803
		c0.086-0.555,0.218-1.104,0.402-1.641c-0.71,0-1.419,0-2.129,0c0.185,0.536,0.316,1.086,0.402,1.641
		c-0.356,0.162-0.642,0.447-0.803,0.803c-0.555-0.086-1.104-0.217-1.642-0.401c0,0.708,0,1.418,0,2.126
		c0.537-0.184,1.087-0.314,1.642-0.401c0.161,0.356,0.446,0.642,0.803,0.803c-0.086,0.555-0.218,1.105-0.402,1.641
		c0.157,0,0.315,0,0.473,0v1.998c-1.131-1.846-3.16-3.083-5.479-3.083c-3.545,0-6.43,2.884-6.43,6.428
		c0,2.432,1.357,4.552,3.354,5.644h-2.333v0.811h0.972v1.069h-0.972v0.809h22.959v-0.809h-0.972v-1.069h0.972v-0.811h-2.333
		C350.643-284.336,352-286.457,352-288.889z M339.5-298c0.366,0,0.662,0.297,0.662,0.662c0,0.365-0.296,0.662-0.662,0.662
		s-0.662-0.297-0.662-0.662C338.838-297.703,339.134-298,339.5-298z M345.57-294.134c2.893,0,5.246,2.353,5.246,5.245
		c0,2.893-2.354,5.247-5.246,5.247s-5.245-2.354-5.245-5.247C340.325-291.781,342.678-294.134,345.57-294.134z M342.494-283.245
		h-2.402v-2.297C340.68-284.583,341.505-283.786,342.494-283.245z M328.184-288.889c0-2.892,2.354-5.245,5.246-5.245
		s5.245,2.353,5.245,5.245c0,2.893-2.353,5.247-5.245,5.247S328.184-285.996,328.184-288.889z M338.908-285.542v2.297h-2.402
		C337.495-283.786,338.32-284.583,338.908-285.542z"/>
	<path d="M343.1-284.599l0.296-0.513c-0.329-0.189-0.632-0.423-0.9-0.691l-0.418,0.418
		C342.381-285.08,342.726-284.815,343.1-284.599z"/>
	<path d="M344.421-293.091l-0.155-0.571c-0.415,0.113-0.815,0.281-1.189,0.5l0.299,0.511
		C343.704-292.844,344.057-292.992,344.421-293.091z"/>
	<path d="M342.478-291.954l-0.42-0.416c-0.306,0.308-0.569,0.653-0.781,1.023l0.513,0.296
		C341.977-291.379,342.209-291.683,342.478-291.954z"/>
	<path d="M341.357-290l-0.572-0.153c-0.108,0.412-0.164,0.837-0.164,1.264v0.014l0.592-0.014
		C341.213-289.265,341.261-289.64,341.357-290z"/>
	<path d="M340.792-287.595c0.113,0.417,0.281,0.818,0.498,1.19l0.511-0.298c-0.191-0.329-0.339-0.68-0.438-1.047L340.792-287.595z"
		/>
	<path d="M349.79-287.798l0.573,0.148c0.104-0.404,0.157-0.821,0.157-1.239v-0.041l-0.592,0.041
		C349.929-288.521,349.883-288.154,349.79-287.798z"/>
	<path d="M345.582-283.938c0.002,0,0.005,0,0.007,0l0.021-0.169l-0.039-0.423c-0.383,0-0.761-0.049-1.126-0.146l-0.152,0.571
		C344.704-283.995,345.131-283.938,345.582-283.938z"/>
	<path d="M346.745-284.691l0.159,0.571c0.413-0.116,0.811-0.285,1.186-0.507l-0.301-0.508
		C347.459-284.942,347.108-284.792,346.745-284.691z"/>
	<path d="M350.342-290.208c-0.114-0.415-0.285-0.815-0.505-1.187l-0.509,0.3c0.193,0.328,0.342,0.68,0.444,1.043L350.342-290.208z"
		/>
	<path d="M349.104-285.425c0.303-0.307,0.563-0.654,0.776-1.03l-0.516-0.291c-0.188,0.331-0.416,0.636-0.682,0.907L349.104-285.425z
		"/>
	<path d="M346.673-293.105l0.149-0.573c-0.407-0.105-0.828-0.16-1.252-0.16h-0.026l0.026,0.592
		C345.943-293.246,346.314-293.199,346.673-293.105z"/>
	<path d="M349.044-292.411c-0.309-0.304-0.654-0.566-1.027-0.779l-0.293,0.513c0.329,0.188,0.633,0.42,0.904,0.687L349.044-292.411z
		"/>
	<path d="M328.651-287.594c0.113,0.417,0.281,0.818,0.498,1.19l0.511-0.298c-0.191-0.328-0.339-0.68-0.438-1.047L328.651-287.594z"
		/>
	<path d="M334.604-284.69l0.16,0.571c0.413-0.115,0.813-0.286,1.186-0.508l-0.303-0.508
		C335.319-284.941,334.969-284.791,334.604-284.69z"/>
	<path d="M332.278-293.091l-0.154-0.571c-0.416,0.113-0.816,0.281-1.19,0.5l0.3,0.511
		C331.562-292.844,331.913-292.992,332.278-293.091z"/>
	<path d="M329.217-290l-0.573-0.153c-0.109,0.412-0.164,0.837-0.163,1.277h0.047l0.544-0.013
		C329.071-289.265,329.119-289.64,329.217-290z"/>
	<path d="M333.448-283.938l0.021-0.169l-0.039-0.423c-0.383,0-0.761-0.049-1.126-0.146l-0.152,0.571
		c0.412,0.111,0.839,0.167,1.29,0.167C333.443-283.938,333.446-283.938,333.448-283.938z"/>
	<path d="M329.936-285.384c0.306,0.305,0.65,0.569,1.023,0.785l0.296-0.513c-0.328-0.189-0.632-0.421-0.901-0.689L329.936-285.384z"
		/>
	<path d="M329.914-292.372c-0.305,0.309-0.567,0.654-0.781,1.026l0.514,0.293c0.188-0.327,0.421-0.631,0.688-0.904L329.914-292.372z
		"/>
	<path d="M337.65-287.799l0.572,0.148c0.104-0.403,0.156-0.819,0.155-1.251l-0.169-0.015l-0.422,0.029
		C337.787-288.52,337.741-288.154,337.65-287.799z"/>
	<path d="M338.2-290.21c-0.116-0.415-0.284-0.813-0.504-1.186l-0.511,0.3c0.194,0.327,0.343,0.678,0.444,1.044L338.2-290.21z"/>
	<path d="M336.964-285.424c0.3-0.307,0.562-0.654,0.775-1.031l-0.516-0.291c-0.188,0.332-0.417,0.637-0.683,0.906L336.964-285.424z"
		/>
	<path d="M334.53-293.105l0.149-0.573c-0.404-0.105-0.826-0.16-1.25-0.16h-0.027l0.027,0.592
		C333.804-293.246,334.174-293.199,334.53-293.105z"/>
	<path d="M336.901-292.411c-0.308-0.304-0.653-0.566-1.026-0.779l-0.294,0.513c0.328,0.188,0.634,0.42,0.906,0.687L336.901-292.411z
		"/>
</g>
</svg>
