<?xml version="1.0" encoding="utf-8"?>
<!-- Generator: Adobe Illustrator 16.0.0, SVG Export Plug-In . SVG Version: 6.00 Build 0)  -->
<!DOCTYPE svg PUBLIC "-//W3C//DTD SVG 1.1//EN" "http://www.w3.org/Graphics/SVG/1.1/DTD/svg11.dtd">
<svg version="1.1" id="Layer_1" xmlns="http://www.w3.org/2000/svg" xmlns:xlink="http://www.w3.org/1999/xlink" x="0px" y="0px"
	 width="50px" height="50px" viewBox="-35.5 -315.5 50 50" enable-background="new -35.5 -315.5 50 50" xml:space="preserve">
<g>
	<path d="M-19.775-281.149c0.094,0.421,0.188,0.845,0.282,1.267c5.922-1.323,12.062-1.323,17.985,0
		c0.094-0.422,0.189-0.846,0.284-1.267C-7.333-282.515-13.667-282.515-19.775-281.149z"/>
	<path d="M-11.421-285.304c-1.384,0.029-2.765,0.123-4.144,0.284c0.59,0.236,1.026,0.737,1.086,1.378
		c0.045,0.488-0.124,0.945-0.417,1.294c1.055-0.113,2.118-0.186,3.178-0.218c-0.336-0.305-0.567-0.735-0.588-1.226
		C-12.336-284.433-11.974-284.99-11.421-285.304z"/>
	<path d="M-5.434-285.02c-1.376-0.161-2.76-0.255-4.146-0.284c0.555,0.313,0.917,0.871,0.886,1.513
		c-0.021,0.491-0.25,0.92-0.586,1.226c1.06,0.032,2.12,0.104,3.177,0.218c-0.293-0.349-0.462-0.806-0.417-1.294
		C-6.46-284.283-6.024-284.784-5.434-285.02z"/>
	<path d="M-2.93-283.148c-0.088,0.482-0.374,0.876-0.752,1.134c0.729,0.122,1.453,0.263,2.174,0.424
		c0.2-0.887,0.398-1.775,0.596-2.665c-0.893-0.199-1.791-0.371-2.694-0.515C-3.099-284.383-2.816-283.78-2.93-283.148z"/>
	<path d="M-17.394-284.77c-0.902,0.144-1.8,0.315-2.694,0.515c0.199,0.89,0.397,1.778,0.595,2.665
		c0.723-0.161,1.448-0.302,2.176-0.424c-0.376-0.257-0.663-0.651-0.751-1.136C-18.185-283.78-17.9-284.383-17.394-284.77z"/>
	<path d="M-16.021-296.52l-0.038-0.607c-0.417,0.026-0.832,0.095-1.231,0.205l0.162,0.588
		C-16.77-296.433-16.397-296.496-16.021-296.52z"/>
	<path d="M-13.601-296.78c-0.388-0.139-0.797-0.241-1.212-0.299l-0.085,0.603c0.374,0.054,0.741,0.144,1.091,0.271L-13.601-296.78z"
		/>
	<path d="M-11.49-295.463c-0.298-0.291-0.629-0.55-0.986-0.773l-0.321,0.519c0.319,0.198,0.616,0.43,0.881,0.689L-11.49-295.463z"/>
	<path d="M-20.866-291.67c0-0.274,0.025-0.55,0.075-0.821l-0.6-0.109c-0.056,0.307-0.085,0.619-0.085,0.93
		c0,0.108,0.004,0.218,0.011,0.326l0.609-0.038C-20.862-291.479-20.866-291.574-20.866-291.67z"/>
	<path d="M-19.885-294.504l-0.484-0.372c-0.257,0.334-0.475,0.697-0.646,1.075l0.556,0.25
		C-20.307-293.885-20.114-294.207-19.885-294.504z"/>
	<path d="M-20.648-290.292l-0.58,0.186l0.061,0.198c0.072,0.306,0.188,0.629,0.346,0.958l0.55-0.262
		c-0.139-0.292-0.24-0.572-0.305-0.851L-20.648-290.292z"/>
	<path d="M-18.186-295.921l-0.13-0.276l-0.172-0.254c-0.36,0.188-0.699,0.415-1.011,0.672l0.39,0.469
		C-18.831-295.541-18.527-295.743-18.186-295.921z"/>
	<path d="M-9.516-295.451l0.429,0.434c0.262-0.258,0.557-0.492,0.877-0.693l-0.325-0.517C-8.892-296.002-9.22-295.742-9.516-295.451
		z"/>
	<path d="M-0.427-290.047c-0.06,0.255-0.158,0.53-0.293,0.817l0.551,0.26c0.154-0.325,0.266-0.641,0.333-0.923l0.071-0.231
		l-0.581-0.186L-0.427-290.047z"/>
	<path d="M-2.562-296.479l-0.228,0.569c0.315,0.166,0.614,0.364,0.888,0.589l0.387-0.472c-0.306-0.251-0.64-0.473-0.982-0.652
		L-2.562-296.479z"/>
	<path d="M-0.548-293.566l0.555-0.252c-0.173-0.38-0.391-0.741-0.648-1.074l-0.483,0.374
		C-0.896-294.223-0.701-293.903-0.548-293.566z"/>
	<path d="M-0.134-291.67c0,0.09-0.003,0.18-0.008,0.27l0.608,0.034c0.006-0.1,0.01-0.202,0.01-0.303c0-0.315-0.03-0.635-0.088-0.95
		l-0.6,0.112C-0.16-292.229-0.134-291.948-0.134-291.67z"/>
	<path d="M-7.41-296.775l0.207,0.574c0.35-0.127,0.717-0.218,1.088-0.272l-0.085-0.603C-6.615-297.017-7.022-296.916-7.41-296.775z"
		/>
	<path d="M-4.993-296.518c0.376,0.021,0.748,0.083,1.107,0.181l0.161-0.588c-0.4-0.108-0.814-0.176-1.23-0.203L-4.993-296.518z"/>
	<path d="M2-291.67c0-2.549-1.456-4.898-3.801-6.131c-1.079-0.564-2.298-0.862-3.526-0.862c-1.028,0-2.019,0.214-2.935,0.598
		c0-0.516,0-1.032,0-1.548c-0.396,0.134-0.799,0.231-1.209,0.294c-0.118-0.262-0.329-0.472-0.589-0.589
		c0.063-0.409,0.158-0.813,0.294-1.209c-0.522,0-1.043,0-1.565,0c0.136,0.396,0.231,0.799,0.295,1.209
		c-0.262,0.118-0.473,0.328-0.591,0.589c-0.41-0.063-0.813-0.16-1.209-0.294c0,0.499,0,0.999,0,1.498
		c-0.887-0.356-1.849-0.548-2.838-0.548c-1.227,0-2.445,0.298-3.525,0.863c-2.345,1.233-3.801,3.583-3.801,6.13
		c0,0.732,0.123,1.461,0.349,2.109c0.278,1.186,1.058,2.423,2.072,3.631c-0.084,0.019-0.17,0.031-0.254,0.05
		c0.094,0.421,0.188,0.842,0.282,1.265c6.618-1.48,13.482-1.48,20.102,0c0.094-0.423,0.188-0.843,0.282-1.265
		c-0.081-0.018-0.162-0.03-0.243-0.048c1-1.192,1.772-2.409,2.043-3.572C1.876-290.198,2-290.928,2-291.67z M-9.471-298.343
		c0.401,0.062,0.798,0.159,1.187,0.288c-0.582,0.247-1.115,0.579-1.615,0.964c-0.055-0.221-0.126-0.438-0.161-0.663
		C-9.799-297.871-9.588-298.081-9.471-298.343z M-10.548-299.318c0.269,0,0.487,0.218,0.487,0.487s-0.218,0.487-0.487,0.487
		s-0.487-0.218-0.487-0.487S-10.817-299.318-10.548-299.318z M-10.5-288.668c0.336,0,0.61,0.274,0.61,0.61s-0.274,0.61-0.61,0.61
		c-0.337,0-0.61-0.274-0.61-0.61S-10.836-288.668-10.5-288.668z M-11.626-298.343c0.118,0.262,0.329,0.472,0.591,0.589
		c-0.031,0.203-0.098,0.397-0.146,0.596c-0.488-0.362-1.004-0.679-1.565-0.912C-12.379-298.19-12.005-298.284-11.626-298.343z
		 M-21.78-291.67c0-2.094,1.207-4.029,3.149-5.05c0.904-0.474,1.928-0.724,2.958-0.724c1.751,0,3.398,0.709,4.563,1.943v1.338
		l-0.014,0.013l0.014,0.017v4.356c-0.559,0.199-0.988,0.659-1.146,1.234c-0.711-1.145-1.99-1.916-3.464-1.916
		c-1.716,0-3.174,1.036-3.769,2.497c-0.065-0.088-0.146-0.184-0.206-0.269l-0.504,0.343c0.142,0.208,0.322,0.429,0.494,0.647
		c-0.026,0.138-0.032,0.281-0.043,0.423c-0.857-1.043-1.5-2.094-1.732-3.083C-21.679-290.478-21.78-291.073-21.78-291.67z
		 M0.464-289.84c-0.228,0.973-0.864,2.01-1.715,3.042c-0.009-0.146-0.017-0.294-0.045-0.438c0.179-0.226,0.363-0.455,0.507-0.668
		l-0.502-0.343c-0.062,0.092-0.15,0.193-0.219,0.287c-0.593-1.461-2.053-2.499-3.768-2.499c-1.477,0-2.756,0.771-3.466,1.916
		c-0.16-0.575-0.588-1.035-1.146-1.234v-4.343l0.027-0.032l-0.027-0.023v-1.316c1.16-1.241,2.808-1.953,4.562-1.953
		c1.032,0,2.057,0.25,2.96,0.723c1.941,1.021,3.147,2.956,3.147,5.051C0.781-291.065,0.68-290.47,0.464-289.84z"/>
</g>
</svg>
