<?xml version="1.0" encoding="utf-8"?>
<!-- Generator: Adobe Illustrator 16.0.0, SVG Export Plug-In . SVG Version: 6.00 Build 0)  -->
<!DOCTYPE svg PUBLIC "-//W3C//DTD SVG 1.1//EN" "http://www.w3.org/Graphics/SVG/1.1/DTD/svg11.dtd">
<svg version="1.1" id="Layer_1" xmlns="http://www.w3.org/2000/svg" xmlns:xlink="http://www.w3.org/1999/xlink" x="0px" y="0px"
	 width="50px" height="50px" viewBox="-245.5 -245.5 50 50" enable-background="new -245.5 -245.5 50 50" xml:space="preserve">
<g>
	<path d="M-208-215.925c0-0.635-0.126-1.269-0.355-1.825c-1.067-3.879-9.206-8.423-11.383-9.58l-0.399-0.563
		c0.249-0.1,0.446-0.297,0.545-0.545l1.933,1.368v-3.462l-1.933,1.369c-0.1-0.248-0.297-0.447-0.545-0.546l1.369-1.932h-3.463
		l1.369,1.932c-0.249,0.099-0.446,0.297-0.545,0.544l-1.933-1.367v3.462l1.933-1.369c0.099,0.248,0.296,0.446,0.545,0.546
		l-0.395,0.558c-2.153,1.142-10.316,5.691-11.37,9.527c-0.247,0.607-0.372,1.241-0.372,1.883c0,1.09,0.384,2.124,1.035,3.029v1.079
		h22.93v-1.081C-208.384-213.802-208-214.836-208-215.925z M-209.343-217.416c0.198,0.489,0.298,0.99,0.298,1.49
		c0,0.868-0.309,1.696-0.839,2.427h-3.502c0.211-0.66,0.334-1.371,0.334-2.106c0-0.581-0.071-1.157-0.202-1.673
		c-0.563-3.337-4.587-7.223-6.223-8.684h0.057C-216.613-224.401-210.208-220.546-209.343-217.416z M-226.902-215.604
		c0-0.501,0.06-0.992,0.187-1.5c0.483-2.86,4.034-6.387,5.693-7.901v4.788c-0.523,0.583-1.227,1.576-1.237,2.709
		c-0.002,0.279,0.046,0.547,0.116,0.807c-0.879-0.397-1.853-0.408-1.853-0.408s-0.014,1.31,0.942,2.121
		c0.62,0.526,1.491,0.711,2.031,0.779v0.711h-5.489C-226.758-214.14-226.902-214.855-226.902-215.604z M-219.978-214.208
		c0.545-0.065,1.386-0.247,1.994-0.747c0.97-0.798,0.98-2.109,0.98-2.109s-0.978-0.003-1.868,0.389
		c0.075-0.259,0.13-0.528,0.132-0.811c0.011-1.176-0.723-2.204-1.238-2.781v-4.734c1.663,1.519,5.212,5.05,5.701,7.937
		c0.119,0.474,0.179,0.965,0.179,1.46c0,0.749-0.144,1.464-0.39,2.106h-5.489V-214.208z M-231.64-217.473
		c0.851-3.083,7.245-6.927,10.051-8.489h0.061c-1.635,1.461-5.653,5.338-6.209,8.644c-0.139,0.549-0.209,1.125-0.209,1.714
		c0,0.736,0.123,1.446,0.334,2.106h-3.503c-0.53-0.731-0.838-1.56-0.838-2.427C-231.955-216.432-231.855-216.933-231.64-217.473z"/>
	<rect x="-231.965" y="-210.886" width="22.93" height="1.528"/>
</g>
</svg>
