<?xml version="1.0" encoding="utf-8"?>
<!-- Generator: Adobe Illustrator 16.0.0, SVG Export Plug-In . SVG Version: 6.00 Build 0)  -->
<!DOCTYPE svg PUBLIC "-//W3C//DTD SVG 1.1//EN" "http://www.w3.org/Graphics/SVG/1.1/DTD/svg11.dtd">
<svg version="1.1" id="Layer_1" xmlns="http://www.w3.org/2000/svg" xmlns:xlink="http://www.w3.org/1999/xlink" x="0px" y="0px"
	 width="50px" height="50px" viewBox="34.5 -315.5 50 50" enable-background="new 34.5 -315.5 50 50" xml:space="preserve">
<path d="M72-281.282v-0.883h-1.632v-2.2c0-0.958-0.35-1.828-0.908-2.523c0.687-1.095,0.981-2.348,0.787-3.614
	c-0.239-1.56-1.144-2.928-2.547-3.853c-2.311-1.52-5.396-1.379-7.556,0.137v-1.175c0.074-0.158,0.126-0.332,0.126-0.515
	c0-0.001,0-0.001,0-0.002l1.218,0.667l-1.701-2.631v-0.025h0.023l2.632,1.701l-0.666-1.217c0,0,0.001,0,0.002,0
	c0.718,0,1.299-0.771,1.299-0.771s-0.581-0.77-1.299-0.77c-0.001,0-0.002,0-0.002,0l0.666-1.217l-2.632,1.7h-0.023v-0.024
	l1.701-2.631l-1.218,0.667c0-0.001,0-0.001,0-0.002c0-0.717-0.771-1.299-0.771-1.299s-0.771,0.582-0.771,1.299
	c0,0.001,0,0.001,0,0.002l-1.218-0.667l1.701,2.631v0.024h-0.023l-2.632-1.7l0.666,1.217h-0.001c-0.719,0-1.3,0.77-1.3,0.77
	s0.581,0.771,1.3,0.771h0.001l-0.666,1.217l2.632-1.701h0.023v0.025l-1.701,2.631l1.218-0.667c0,0.001,0,0.001,0,0.002
	c0,0.183,0.052,0.356,0.126,0.515v1.175c-2.16-1.518-5.247-1.658-7.556-0.137c-1.403,0.925-2.308,2.293-2.547,3.853
	c-0.194,1.263,0.101,2.514,0.782,3.607c-0.556,0.693-0.903,1.563-0.903,2.52v2.209H47v0.883h1.059v1.164H47v0.881h25v-0.881h-1.059
	v-1.164H72z M56.778-284.963v-2.939c0-1.522,1.221-2.761,2.722-2.761s2.722,1.238,2.722,2.761v2.939v2.797h-5.443V-284.963z
	 M69.079-284.365v2.2h-5.523v-2.2c0-1.522,1.239-2.762,2.762-2.762S69.079-285.888,69.079-284.365z M66.993-293.278
	c1.094,0.72,1.797,1.775,1.98,2.971c0.134,0.879-0.038,1.758-0.471,2.542c-0.632-0.408-1.379-0.65-2.186-0.65
	c-1.091,0-2.078,0.439-2.808,1.143v-0.629c0-2.009-1.462-3.669-3.365-3.984v-0.639C61.834-294.342,64.829-294.706,66.993-293.278z
	 M50.026-290.307c0.184-1.196,0.887-2.251,1.98-2.971c2.164-1.427,5.159-1.065,6.849,0.752v0.639
	c-1.903,0.315-3.365,1.975-3.365,3.984v0.619c-0.729-0.705-1.717-1.143-2.809-1.143c-0.809,0-1.557,0.244-2.189,0.653
	C50.062-288.555,49.893-289.43,50.026-290.307z M49.921-284.375c0-1.523,1.238-2.762,2.761-2.762c1.523,0,2.763,1.239,2.763,2.762
	v2.209h-5.523V-284.375z"/>
</svg>
