<?xml version="1.0" encoding="utf-8"?>
<!-- Generator: Adobe Illustrator 16.0.0, SVG Export Plug-In . SVG Version: 6.00 Build 0)  -->
<!DOCTYPE svg PUBLIC "-//W3C//DTD SVG 1.1//EN" "http://www.w3.org/Graphics/SVG/1.1/DTD/svg11.dtd">
<svg version="1.1" id="Layer_1" xmlns="http://www.w3.org/2000/svg" xmlns:xlink="http://www.w3.org/1999/xlink" x="0px" y="0px"
	 width="50px" height="50px" viewBox="-315.5 -315.5 50 50" enable-background="new -315.5 -315.5 50 50" xml:space="preserve">
<path d="M-279.072-281.39c0.684-1.033,1.072-2.23,1.072-3.481c0-0.705-0.124-1.408-0.351-2.031
	c-0.98-4.024-7.996-8.703-10.764-10.414l-1.065-1.503c0.22-0.087,0.394-0.262,0.482-0.48l1.707,1.207v-3.057l-1.707,1.209
	c-0.088-0.219-0.262-0.396-0.481-0.482l1.209-1.706h-3.059l1.209,1.706c-0.22,0.087-0.394,0.262-0.481,0.48l-1.707-1.207v3.057
	l1.707-1.208c0.087,0.218,0.261,0.395,0.481,0.481l-1.058,1.492c-2.753,1.701-9.786,6.382-10.755,10.366
	c-0.243,0.672-0.367,1.375-0.367,2.089c0,1.252,0.388,2.449,1.072,3.482c-0.177,0.283-0.303,0.602-0.345,0.948h-0.028v1.568h23.603
	v-1.568h-0.028C-278.769-280.789-278.895-281.107-279.072-281.39z M-297.891-283.619c-0.493,0.335-0.888,0.804-1.128,1.357
	c-0.294-0.136-0.619-0.216-0.964-0.216c-0.407,0-0.783,0.111-1.114,0.295c-0.497-0.811-0.775-1.73-0.775-2.688
	c0-0.584,0.101-1.158,0.317-1.765c0.757-3.102,5.898-6.877,8.989-8.907c-1.883,2.107-4.733,5.745-5.193,8.913
	c-0.136,0.627-0.205,1.285-0.205,1.955C-297.964-284.316-297.931-283.966-297.891-283.619z M-294.075-283.411
	c-0.551-0.469-1.264-0.753-2.045-0.753c-0.239,0-0.469,0.036-0.693,0.085c-0.014-0.196-0.024-0.394-0.024-0.596
	c0-0.589,0.061-1.166,0.187-1.753c0.475-3.267,3.891-7.266,5.586-9.079v9.84C-292.407-285.474-293.528-284.602-294.075-283.411z
	 M-290.5-280.446c-0.935,0-1.691-0.758-1.691-1.692c0-0.934,0.757-1.691,1.691-1.691s1.691,0.758,1.691,1.691
	C-288.809-281.204-289.565-280.446-290.5-280.446z M-284.188-284.079c-0.224-0.049-0.453-0.085-0.692-0.085
	c-0.781,0-1.494,0.284-2.045,0.753c-0.547-1.191-1.668-2.063-3.011-2.256v-9.835c1.699,1.816,5.112,5.817,5.592,9.112
	c0.12,0.557,0.181,1.135,0.181,1.716C-284.163-284.473-284.174-284.276-284.188-284.079z M-279.904-282.183
	c-0.33-0.184-0.706-0.295-1.113-0.295c-0.345,0-0.67,0.08-0.964,0.216c-0.24-0.553-0.635-1.022-1.128-1.357
	c0.04-0.347,0.074-0.697,0.074-1.056c0-0.661-0.069-1.318-0.2-1.916c-0.464-3.192-3.312-6.833-5.198-8.945
	c3.095,2.034,8.237,5.818,9.004,8.958c0.201,0.558,0.302,1.132,0.302,1.707C-279.128-283.913-279.407-282.993-279.904-282.183z"/>
</svg>
