<?xml version="1.0" encoding="utf-8"?>
<!-- Generator: Adobe Illustrator 16.0.0, SVG Export Plug-In . SVG Version: 6.00 Build 0)  -->
<!DOCTYPE svg PUBLIC "-//W3C//DTD SVG 1.1//EN" "http://www.w3.org/Graphics/SVG/1.1/DTD/svg11.dtd">
<svg version="1.1" id="Layer_1" xmlns="http://www.w3.org/2000/svg" xmlns:xlink="http://www.w3.org/1999/xlink" x="0px" y="0px"
	 width="50px" height="50px" viewBox="34.5 -245.5 50 50" enable-background="new 34.5 -245.5 50 50" xml:space="preserve">
<path d="M72-218.371c0-2.308-1.248-4.438-3.256-5.558c-0.801-0.446-1.691-0.698-2.602-0.764c-0.172-0.158-0.354-0.306-0.545-0.439
	c-1.719-1.188-3.934-0.999-5.523,0.341v-1.728h-0.01c0.004-0.028,0.02-0.052,0.02-0.081c0-0.001,0-0.001,0-0.003l0.924,0.505
	l-1.291-1.996v-0.018h0.018l1.996,1.291l-0.504-0.923l0,0c0.545,0,0.984-0.586,0.984-0.586s-0.439-0.585-0.984-0.585l0,0
	l0.504-0.923l-1.996,1.29h-0.018v-0.017l1.291-1.996l-0.924,0.505c0-0.001,0-0.001,0-0.003c0-0.543-0.584-0.983-0.584-0.983
	s-0.584,0.44-0.584,0.983c0,0.002,0,0.002,0,0.003l-0.926-0.505l1.291,1.996v0.017h-0.018l-1.996-1.29l0.506,0.923
	c-0.002,0-0.002,0-0.002,0c-0.545,0-0.984,0.585-0.984,0.585s0.439,0.586,0.984,0.586c0,0,0,0,0.002,0l-0.506,0.923l1.996-1.291
	h0.018v0.018l-1.291,1.996l0.926-0.505c0,0.002,0,0.002,0,0.003c0,0.029,0.016,0.053,0.02,0.081h-0.012v1.724
	c-1.592-1.338-3.803-1.526-5.521-0.336c-0.182,0.125-0.354,0.268-0.518,0.417c-0.977,0.021-1.939,0.289-2.793,0.79
	C48.184-222.8,47-220.673,47-218.371c0,0.661,0.098,1.317,0.279,1.898c0.244,1.168,0.961,2.396,1.891,3.582h-1.465v0.884h1v1.164h-1
	v0.883h23.588v-0.883h-0.998v-1.164h0.998v-0.884H69.73c0.967-1.17,1.707-2.375,1.957-3.522C71.895-217.049,72-217.708,72-218.371z
	 M59.982-222.969c1.207-1.826,3.328-2.345,4.961-1.217c1.316,0.914,2.135,2.669,2.135,4.583c0,0.56-0.07,1.11-0.219,1.681
	c-0.285,1.614-1.49,3.418-2.863,5.031h-4.254c0.197-0.389,0.441-0.92,0.441-1.199c0-0.065-0.016-0.123-0.037-0.184
	c0.121,0.092,0.26,0.165,0.416,0.205c0.809,0.189,1.24-0.963,1.004-1.22c-0.369-0.364-0.631,0.527-0.881,0.605
	c-0.242,0.073-0.457,0.034-0.639-0.05v-2.567h2.566c0.084,0.182,0.123,0.397,0.049,0.64c-0.074,0.25-0.965,0.511-0.604,0.88
	c0.258,0.237,1.412-0.194,1.221-1.005c-0.037-0.155-0.111-0.293-0.203-0.414c0.059,0.022,0.119,0.036,0.184,0.036
	c0.465,0,1.66-0.684,1.66-0.684s-1.195-0.684-1.66-0.684c-0.064,0-0.125,0.015-0.184,0.037c0.092-0.121,0.166-0.262,0.203-0.417
	c0.191-0.811-0.963-1.24-1.221-1.005c-0.361,0.372,0.529,0.631,0.604,0.881c0.074,0.243,0.035,0.457-0.049,0.639h-2.566v-2.567
	c0.182-0.084,0.396-0.124,0.639-0.05c0.25,0.078,0.512,0.969,0.881,0.605c0.236-0.257-0.195-1.41-1.004-1.22
	c-0.156,0.04-0.293,0.112-0.416,0.203c0.023-0.06,0.037-0.118,0.037-0.183c0-0.25-0.199-0.711-0.383-1.085L59.982-222.969z
	 M54.057-224.186c0.582-0.403,1.238-0.616,1.896-0.616c1.176,0,2.295,0.668,3.07,1.833l0.178,0.268
	c-0.184,0.376-0.387,0.84-0.387,1.092c0,0.065,0.016,0.124,0.039,0.184c-0.123-0.092-0.262-0.165-0.418-0.204
	c-0.809-0.189-1.24,0.963-1.004,1.22c0.371,0.364,0.631-0.527,0.883-0.605c0.242-0.073,0.457-0.034,0.637,0.05v2.567h-2.566
	c-0.084-0.182-0.123-0.396-0.049-0.639c0.074-0.25,0.967-0.51,0.604-0.881c-0.258-0.235-1.41,0.194-1.221,1.005
	c0.039,0.155,0.111,0.293,0.205,0.414c-0.059-0.022-0.119-0.035-0.184-0.035c-0.465,0-1.66,0.683-1.66,0.683s1.195,0.684,1.66,0.684
	c0.064,0,0.125-0.014,0.184-0.037c-0.094,0.124-0.166,0.262-0.205,0.417c-0.189,0.811,0.963,1.242,1.221,1.005
	c0.363-0.37-0.529-0.631-0.604-0.88c-0.074-0.242-0.035-0.458,0.049-0.64h2.566v2.567c-0.18,0.084-0.395,0.123-0.637,0.05
	c-0.252-0.078-0.512-0.969-0.883-0.605c-0.236,0.257,0.195,1.41,1.004,1.22c0.156-0.04,0.293-0.112,0.416-0.203
	c-0.021,0.06-0.037,0.118-0.037,0.183c0,0.277,0.244,0.811,0.439,1.199h-4.238c-1.381-1.624-2.594-3.441-2.883-5.076
	c-0.141-0.535-0.211-1.084-0.211-1.636C51.922-221.514,52.74-223.271,54.057-224.186z M48.393-216.76
	c-0.162-0.522-0.244-1.064-0.244-1.611c0-1.896,0.969-3.644,2.525-4.561c0.361-0.211,0.744-0.37,1.141-0.478
	c-0.662,1.083-1.043,2.414-1.043,3.808c0,0.65,0.084,1.298,0.238,1.881c0.281,1.584,1.295,3.277,2.514,4.831h-2.855
	C49.543-214.177,48.652-215.521,48.393-216.76z M70.582-216.714c-0.27,1.219-1.201,2.548-2.377,3.824h-2.721
	c1.213-1.543,2.221-3.221,2.498-4.785c0.162-0.621,0.244-1.27,0.244-1.927c0-1.36-0.363-2.656-0.994-3.724
	c0.326,0.104,0.646,0.23,0.951,0.401c1.646,0.917,2.668,2.663,2.668,4.554C70.852-217.828,70.764-217.289,70.582-216.714z"/>
</svg>
