<?xml version="1.0" encoding="utf-8"?>
<!-- Generator: Adobe Illustrator 16.0.0, SVG Export Plug-In . SVG Version: 6.00 Build 0)  -->
<!DOCTYPE svg PUBLIC "-//W3C//DTD SVG 1.1//EN" "http://www.w3.org/Graphics/SVG/1.1/DTD/svg11.dtd">
<svg version="1.1" id="Layer_1" xmlns="http://www.w3.org/2000/svg" xmlns:xlink="http://www.w3.org/1999/xlink" x="0px" y="0px"
	 width="50px" height="50px" viewBox="314.5 -245.5 50 50" enable-background="new 314.5 -245.5 50 50" xml:space="preserve">
<g>
	<path d="M352-219.206c0-2.308-1.248-4.438-3.256-5.558c-0.801-0.445-1.691-0.698-2.602-0.763c-0.172-0.158-0.354-0.307-0.545-0.439
		c-1.098-0.758-2.395-0.941-3.604-0.638l-0.459-1.099l0.631-1.513l-1.912,1.196c-0.084-0.197-0.24-0.354-0.438-0.437l1.195-1.913
		l-1.512,0.631l-1.512-0.631l1.195,1.913c-0.197,0.083-0.355,0.24-0.438,0.437l-1.912-1.196l0.629,1.513l-0.457,1.098
		c-1.211-0.303-2.508-0.12-3.604,0.64c-0.182,0.126-0.354,0.269-0.518,0.418c-0.977,0.021-1.939,0.288-2.793,0.79
		c-1.908,1.123-3.092,3.249-3.092,5.551c0,0.661,0.098,1.316,0.279,1.898c0.219,1.042,0.82,2.129,1.605,3.196v3.482h21.23v-3.594
		c0.77-1.012,1.357-2.04,1.572-3.024C351.895-217.884,352-218.543,352-219.206z M344.943-225.021
		c1.316,0.914,2.135,2.669,2.135,4.583c0,0.56-0.07,1.11-0.219,1.68c-0.242,1.373-1.154,2.882-2.266,4.295h-0.381
		c1.15-1.44,2.129-3.007,2.379-4.413c0.133-0.5,0.199-1.026,0.199-1.562c0-1.821-0.77-3.487-2.008-4.348
		c-0.545-0.375-1.129-0.565-1.736-0.565c-1.023,0-1.992,0.573-2.701,1.554c-0.084-0.049-0.164-0.117-0.25-0.151
		C341.32-225.648,343.359-226.118,344.943-225.021z M343.475-214.462h-1.57c0.322-0.982,0.518-2.175,0.518-3.51
		c0-2.485-0.65-4.514-1.625-5.478c0.951-1.321,2.451-1.694,3.658-0.862c1.086,0.756,1.76,2.24,1.76,3.875
		c0,0.488-0.059,0.964-0.184,1.439C345.775-217.564,344.699-215.933,343.475-214.462z M340.254-227.386l1.387,0.868
		c-0.412,0.138-0.803,0.353-1.174,0.608l-0.65-1.039C340.014-227.032,340.17-227.19,340.254-227.386z M339.5-222.917
		c0.723,0,1.771,1.926,1.771,4.944c0,1.457-0.246,2.651-0.58,3.506l0.043,0.004h-3.049l0.605-0.055
		c-0.324-0.852-0.562-2.025-0.562-3.456C337.729-220.99,338.777-222.917,339.5-222.917z M337.09-214.462h-1.57
		c-1.219-1.457-2.283-3.065-2.531-4.465c-0.141-0.543-0.205-1.023-0.205-1.51c0-1.635,0.678-3.12,1.768-3.876
		c1.199-0.834,2.699-0.46,3.656,0.861c-0.979,0.963-1.629,2.993-1.629,5.48C336.578-216.64,336.768-215.444,337.09-214.462z
		 M338.746-227.386c0.082,0.196,0.24,0.354,0.436,0.438l-0.648,1.038c-0.371-0.256-0.762-0.469-1.174-0.607L338.746-227.386z
		 M334.057-225.021c0.582-0.403,1.238-0.616,1.896-0.616c1.121,0,2.184,0.622,2.953,1.689c-0.088,0.034-0.166,0.1-0.248,0.149
		c-0.713-0.979-1.684-1.551-2.705-1.551c-0.609,0-1.191,0.19-1.73,0.565c-1.242,0.862-2.014,2.528-2.014,4.348
		c0,0.537,0.07,1.061,0.217,1.632c0.244,1.373,1.215,2.919,2.357,4.343h-0.367c-1.117-1.423-2.037-2.948-2.283-4.34
		c-0.141-0.534-0.211-1.084-0.211-1.635C331.922-222.35,332.74-224.106,334.057-225.021z M328.148-219.206
		c0-1.896,0.969-3.644,2.525-4.561c0.361-0.211,0.744-0.371,1.141-0.479c-0.662,1.083-1.043,2.414-1.043,3.808
		c0,0.65,0.084,1.297,0.238,1.881c0.236,1.337,1.006,2.749,1.973,4.094h-2.914c-0.826-1.056-1.465-2.128-1.676-3.133
		C328.23-218.117,328.148-218.66,328.148-219.206z M335.035-211.828h-3.08v-1.149h3.08V-211.828z M341.039-211.828h-3.078v-1.149
		h3.078V-211.828z M347.043-211.828h-3.078v-1.149h3.078V-211.828z M350.582-217.549c-0.219,0.985-0.879,2.043-1.742,3.087h-2.814
		c0.957-1.333,1.723-2.729,1.957-4.048c0.162-0.621,0.244-1.27,0.244-1.927c0-1.361-0.363-2.656-0.994-3.724
		c0.326,0.103,0.646,0.23,0.951,0.401c1.646,0.917,2.668,2.663,2.668,4.554C350.852-218.663,350.764-218.124,350.582-217.549z"/>
</g>
</svg>
