<?xml version="1.0" encoding="utf-8"?>
<!-- Generator: Adobe Illustrator 16.0.0, SVG Export Plug-In . SVG Version: 6.00 Build 0)  -->
<!DOCTYPE svg PUBLIC "-//W3C//DTD SVG 1.1//EN" "http://www.w3.org/Graphics/SVG/1.1/DTD/svg11.dtd">
<svg version="1.1" id="Layer_1" xmlns="http://www.w3.org/2000/svg" xmlns:xlink="http://www.w3.org/1999/xlink" x="0px" y="0px"
	 width="50px" height="50px" viewBox="104.5 -315.5 50 50" enable-background="new 104.5 -315.5 50 50" xml:space="preserve">
<g>
	<path d="M125.057-289.922l0.412,0.434c0.283-0.269,0.576-0.535,0.876-0.798l-0.392-0.45
		C125.646-290.469,125.346-290.196,125.057-289.922z"/>
	<path d="M126.881-291.514l0.374,0.464c0.313-0.252,0.627-0.496,0.938-0.731l-0.359-0.476
		C127.519-292.02,127.198-291.771,126.881-291.514z"/>
	<path d="M123.4-288.136l0.469,0.371c0.231-0.294,0.49-0.591,0.767-0.888l-0.437-0.408
		C123.902-288.742,123.633-288.43,123.4-288.136z"/>
	<path d="M132.633-290.306c0.303,0.26,0.598,0.526,0.881,0.794l0.411-0.434c-0.291-0.275-0.593-0.546-0.9-0.813L132.633-290.306z"/>
	<path d="M134.785-289.09l-0.432,0.411c0.286,0.302,0.546,0.6,0.773,0.883l0.467-0.373
		C135.355-288.466,135.084-288.776,134.785-289.09z"/>
	<path d="M130.779-291.795c0.311,0.232,0.626,0.476,0.939,0.728l0.374-0.464c-0.319-0.257-0.639-0.505-0.956-0.742L130.779-291.795z
		"/>
	<path d="M141.971-282.648c-0.12-0.978-0.81-1.77-1.727-2.046c0.514-0.798,0.892-1.599,1.055-2.373
		c0.193-0.629,0.293-1.281,0.293-1.938c0-2.283-1.184-4.393-3.091-5.507c-0.891-0.516-1.896-0.788-2.907-0.788
		c-1.467,0-2.854,0.563-3.937,1.56c-0.714-0.52-1.281-0.899-1.592-1.104c0.035-0.1,0.075-0.202,0.075-0.312l-0.003-0.001
		l1.012,0.552l-1.411-2.184v-0.02h0.02l2.184,1.413l-0.553-1.011c0.001,0,0.001,0,0.002,0c0.595,0,1.078-0.64,1.078-0.64
		s-0.483-0.638-1.078-0.638c-0.001,0-0.001,0-0.002,0l0.553-1.012l-2.184,1.412h-0.02v-0.019l1.411-2.184l-1.012,0.552l0.003-0.001
		c0-0.596-0.641-1.078-0.641-1.078s-0.641,0.482-0.641,1.078l0.003,0.001l-1.013-0.552l1.412,2.184v0.019h-0.02l-2.184-1.412
		l0.553,1.012c-0.001,0-0.001,0-0.001,0c-0.596,0-1.079,0.638-1.079,0.638s0.483,0.64,1.078,0.64c0,0,0.001,0,0.002,0l-0.553,1.011
		l2.184-1.413h0.02v0.02l-1.412,2.184l1.013-0.552l-0.003,0.001c0,0.109,0.04,0.209,0.075,0.308
		c-0.311,0.203-0.88,0.584-1.596,1.104c-1.083-0.994-2.469-1.556-3.933-1.556c-1.012,0-2.017,0.272-2.909,0.789
		c-1.905,1.113-3.089,3.223-3.089,5.506c0,0.657,0.1,1.309,0.279,1.884c0.168,0.792,0.554,1.611,1.077,2.424
		c-0.921,0.273-1.614,1.067-1.735,2.048H117v1.661h25v-1.661H141.971z M135.594-294.104c0.802,0,1.601,0.217,2.306,0.625
		c1.54,0.9,2.498,2.615,2.498,4.475c0,0.538-0.081,1.069-0.253,1.637c-0.185,0.867-0.705,1.791-1.39,2.71
		c-0.077,0.027-0.157,0.046-0.232,0.08c-0.006-0.013-0.014-0.024-0.02-0.039c0.001-0.025,0.006-0.052,0.006-0.079
		c0-0.559-0.09-1.117-0.25-1.604c-0.52-2.346-3.378-4.959-5.632-6.708C133.467-293.708,134.504-294.104,135.594-294.104z
		 M129.5-282.654c-0.99,0-1.792-0.802-1.792-1.792s0.802-1.792,1.792-1.792s1.792,0.803,1.792,1.792S130.49-282.654,129.5-282.654z
		 M121.098-293.478c0.708-0.409,1.507-0.626,2.309-0.626c1.087,0,2.123,0.393,2.962,1.094c-2.249,1.743-5.103,4.342-5.611,6.654
		c-0.176,0.537-0.266,1.095-0.266,1.661c0,0.027,0.005,0.052,0.006,0.079c-0.006,0.014-0.014,0.026-0.02,0.039
		c-0.068-0.032-0.145-0.048-0.215-0.074c-0.7-0.938-1.231-1.882-1.421-2.77c-0.158-0.514-0.239-1.045-0.239-1.583
		C118.603-290.863,119.561-292.578,121.098-293.478z M125.714-285.794c-0.585-0.497-1.34-0.798-2.166-0.798
		c-0.161,0-0.317,0.014-0.472,0.035c0.044-0.086,0.08-0.168,0.133-0.258l-0.516-0.303c-0.156,0.267-0.271,0.519-0.365,0.765
		c-0.132,0.051-0.258,0.109-0.379,0.176c0.658-2.443,4.638-5.613,6.953-7.211v0.358c-0.024,0.016,0,0.148,0,0.148v4.697
		C127.48-287.98,126.293-287.056,125.714-285.794z M130.098-288.184v-4.708c0,0,0.021-0.118,0-0.133v-0.358
		c2.301,1.588,6.239,4.725,6.95,7.205c-0.118-0.065-0.242-0.123-0.369-0.172c-0.093-0.255-0.207-0.521-0.373-0.803l-0.515,0.303
		c0.061,0.102,0.101,0.197,0.149,0.294c-0.159-0.023-0.322-0.036-0.488-0.036c-0.826,0-1.581,0.301-2.166,0.798
		C132.707-287.056,131.52-287.98,130.098-288.184z"/>
</g>
</svg>
