<?xml version="1.0" encoding="utf-8"?>
<!-- Generator: Adobe Illustrator 16.0.0, SVG Export Plug-In . SVG Version: 6.00 Build 0)  -->
<!DOCTYPE svg PUBLIC "-//W3C//DTD SVG 1.1//EN" "http://www.w3.org/Graphics/SVG/1.1/DTD/svg11.dtd">
<svg version="1.1" id="Layer_1" xmlns="http://www.w3.org/2000/svg" xmlns:xlink="http://www.w3.org/1999/xlink" x="0px" y="0px"
	 width="50px" height="50px" viewBox="-35.5 -245.5 50 50" enable-background="new -35.5 -245.5 50 50" xml:space="preserve">
<path d="M2-218.946c0-2.308-1.247-4.438-3.255-5.558c-0.8-0.445-1.692-0.698-2.602-0.763c-0.173-0.158-0.353-0.307-0.543-0.439
	c-1.19-0.822-2.618-0.983-3.912-0.562c0.283-0.596,0.288-1.21,0.288-1.21s-0.692-0.002-1.322,0.331
	c0.053-0.221,0.092-0.45,0.093-0.69c0.012-1.536-1.224-2.792-1.224-2.792s-1.256,1.236-1.269,2.773
	c-0.001,0.238,0.034,0.466,0.082,0.688c-0.623-0.339-1.311-0.348-1.311-0.348s-0.005,0.636,0.284,1.246
	c-1.293-0.418-2.719-0.257-3.906,0.565c-0.182,0.126-0.353,0.269-0.518,0.418c-0.976,0.021-1.94,0.288-2.793,0.79
	c-1.907,1.123-3.092,3.249-3.092,5.551c0,0.661,0.099,1.317,0.279,1.898c0.219,1.042,0.821,2.129,1.605,3.196v3.482H0.116v-3.595
	c0.77-1.011,1.356-2.04,1.573-3.024C1.896-217.624,2-218.283,2-218.946z M-10.271-225.03c-0.003,0.003-0.008,0.007-0.011,0.01
	h-0.105C-10.354-225.022-10.317-225.025-10.271-225.03z M-10.521-225.064c0,0,0.007-0.007,0.007-0.008
	c-0.001,0.033-0.001,0.049-0.002,0.053h-0.005C-10.521-225.023-10.521-225.036-10.521-225.064L-10.521-225.064z M-10.624-225.02
	h-0.09c-0.002-0.002-0.005-0.006-0.009-0.008C-10.682-225.024-10.653-225.022-10.624-225.02z M-15.943-224.761
	c0.583-0.403,1.238-0.616,1.896-0.616c1.131,0,2.203,0.629,2.973,1.713v0.532c-0.284,0-0.568,0-0.851,0
	c0.377,1.105,0.593,2.25,0.661,3.402c-1.151-0.068-2.297-0.284-3.402-0.662c0,0.952,0,1.901,0,2.854
	c1.105-0.378,2.251-0.594,3.402-0.663c-0.068,1.153-0.284,2.297-0.661,3.403c0.283,0,0.567,0,0.851,0v0.484l0.382-0.035l0.768,0.08
	v-0.529c0.284,0,0.568,0,0.852,0c-0.378-1.106-0.594-2.25-0.662-3.403c1.151,0.069,2.297,0.284,3.402,0.663c0-0.952,0-1.902,0-2.854
	c-1.105,0.378-2.251,0.594-3.402,0.662c0.068-1.153,0.284-2.297,0.662-3.402c-0.284,0-0.568,0-0.852,0v-0.529
	c1.22-1.723,3.276-2.203,4.87-1.1c1.316,0.914,2.134,2.669,2.134,4.583c0,0.56-0.071,1.11-0.218,1.681
	c-0.244,1.373-1.156,2.881-2.267,4.295h-10.178c-1.117-1.423-2.037-2.948-2.284-4.34c-0.14-0.535-0.211-1.084-0.211-1.636
	C-18.079-222.089-17.26-223.846-15.943-224.761z M-21.851-218.946c0-1.896,0.968-3.644,2.525-4.561
	c0.36-0.211,0.743-0.372,1.139-0.479c-0.662,1.083-1.042,2.414-1.042,3.808c0,0.65,0.083,1.298,0.239,1.881
	c0.235,1.337,1.005,2.749,1.97,4.094h-2.913c-0.827-1.057-1.465-2.128-1.676-3.133C-21.77-217.857-21.851-218.399-21.851-218.946z
	 M-15.816-211.042c-0.594,0-1.077-0.482-1.077-1.077c0-0.595,0.482-1.077,1.077-1.077c0.595,0,1.076,0.481,1.076,1.077
	C-14.74-211.524-15.222-211.042-15.816-211.042z M-10.5-211.042c-0.594,0-1.077-0.482-1.077-1.077c0-0.595,0.483-1.077,1.077-1.077
	c0.595,0,1.077,0.481,1.077,1.077C-9.423-211.524-9.905-211.042-10.5-211.042z M-5.184-211.042c-0.594,0-1.076-0.482-1.076-1.077
	c0-0.595,0.482-1.077,1.076-1.077c0.595,0,1.077,0.481,1.077,1.077C-4.107-211.524-4.588-211.042-5.184-211.042z M0.581-217.29
	c-0.217,0.986-0.878,2.043-1.741,3.087h-2.814c0.958-1.333,1.723-2.729,1.957-4.048c0.163-0.621,0.246-1.27,0.246-1.927
	c0-1.361-0.364-2.656-0.995-3.724c0.326,0.103,0.646,0.23,0.951,0.401c1.645,0.917,2.666,2.663,2.666,4.554
	C0.851-218.403,0.765-217.864,0.581-217.29z"/>
</svg>
