<?xml version="1.0" encoding="utf-8"?>
<!-- Generator: Adobe Illustrator 16.0.0, SVG Export Plug-In . SVG Version: 6.00 Build 0)  -->
<!DOCTYPE svg PUBLIC "-//W3C//DTD SVG 1.1//EN" "http://www.w3.org/Graphics/SVG/1.1/DTD/svg11.dtd">
<svg version="1.1" id="Layer_1" xmlns="http://www.w3.org/2000/svg" xmlns:xlink="http://www.w3.org/1999/xlink" x="0px" y="0px"
	 width="50px" height="50px" viewBox="-105.5 -245.5 50 50" enable-background="new -105.5 -245.5 50 50" xml:space="preserve">
<path d="M-68-218.454c0-2.308-1.247-4.438-3.255-5.558c-0.8-0.446-1.692-0.697-2.601-0.764c-0.173-0.158-0.354-0.306-0.544-0.439
	c-1.72-1.188-3.934-0.999-5.524,0.341v-1.768c0.001-0.015,0.01-0.026,0.01-0.041c0-0.001,0-0.001,0-0.003l0.924,0.505l-1.291-1.996
	v-0.018h0.018l1.996,1.291l-0.505-0.922c0.001,0,0.001,0,0.001,0c0.544,0,0.986-0.586,0.986-0.586s-0.441-0.585-0.986-0.585
	c0,0,0,0-0.001,0l0.505-0.923l-1.996,1.29h-0.018v-0.017l1.291-1.996l-0.924,0.505c0-0.001,0-0.001,0-0.003
	c0-0.543-0.585-0.983-0.585-0.983s-0.584,0.44-0.584,0.983c0,0.002,0,0.002,0,0.003l-0.924-0.505l1.29,1.996v0.017h-0.018
	l-1.996-1.29l0.505,0.923c-0.001,0-0.001,0-0.001,0c-0.543,0-0.985,0.585-0.985,0.585s0.441,0.586,0.985,0.586c0,0,0,0,0.001,0
	l-0.505,0.922l1.996-1.291h0.018v0.018l-1.29,1.996l0.924-0.505c0,0.002,0,0.002,0,0.003c0,0.014,0.009,0.025,0.009,0.039v1.767
	c-1.593-1.338-3.805-1.526-5.523-0.336c-0.181,0.125-0.352,0.268-0.518,0.417c-0.976,0.021-1.939,0.289-2.793,0.79
	c-1.907,1.123-3.092,3.249-3.092,5.551c0,0.661,0.099,1.317,0.279,1.898c0.219,1.043,0.821,2.129,1.605,3.196v3.482h21.231v-3.595
	c0.77-1.011,1.356-2.04,1.573-3.024C-68.104-217.131-68-217.79-68-218.454z M-75.056-224.269c1.317,0.914,2.134,2.669,2.134,4.583
	c0,0.56-0.07,1.11-0.218,1.681c-0.244,1.373-1.155,2.881-2.267,4.295h-2.239c0.466-1.127,0.746-2.541,0.746-4.103
	c0-2.849-0.914-5.225-2.238-6.204C-77.929-225.011-76.343-225.16-75.056-224.269z M-81.075-223.15v9.329l0.382-0.035l0.768,0.08
	v-9.374c0.973,0.596,1.877,2.611,1.877,5.338c0,1.703-0.357,3.121-0.857,4.103h-3.414l0.21-0.019
	c-0.494-0.981-0.842-2.396-0.842-4.084C-82.952-220.539-82.048-222.554-81.075-223.15z M-85.942-224.269
	c0.583-0.403,1.237-0.616,1.895-0.616c0.787,0,1.538,0.321,2.188,0.867c-1.326,0.978-2.242,3.355-2.242,6.206
	c0,1.562,0.279,2.977,0.745,4.103h-2.227c-1.118-1.423-2.038-2.948-2.285-4.34c-0.139-0.535-0.211-1.084-0.211-1.636
	C-88.079-221.597-87.259-223.354-85.942-224.269z M-91.851-218.454c0-1.896,0.968-3.644,2.525-4.561
	c0.36-0.211,0.744-0.372,1.141-0.478c-0.663,1.083-1.043,2.414-1.043,3.808c0,0.65,0.084,1.298,0.239,1.881
	c0.237,1.337,1.007,2.75,1.971,4.094h-2.915c-0.827-1.056-1.465-2.128-1.676-3.133C-91.77-217.365-91.851-217.907-91.851-218.454z
	 M-69.419-216.796c-0.218,0.985-0.878,2.043-1.741,3.087h-2.814c0.958-1.333,1.723-2.73,1.957-4.048
	c0.164-0.621,0.246-1.27,0.246-1.928c0-1.359-0.364-2.656-0.995-3.724c0.326,0.104,0.646,0.23,0.951,0.401
	c1.645,0.917,2.666,2.663,2.666,4.554C-69.149-217.91-69.235-217.372-69.419-216.796z"/>
</svg>
