<?xml version="1.0" encoding="utf-8"?>
<!-- Generator: Adobe Illustrator 16.0.0, SVG Export Plug-In . SVG Version: 6.00 Build 0)  -->
<!DOCTYPE svg PUBLIC "-//W3C//DTD SVG 1.1//EN" "http://www.w3.org/Graphics/SVG/1.1/DTD/svg11.dtd">
<svg version="1.1" id="Layer_1" xmlns="http://www.w3.org/2000/svg" xmlns:xlink="http://www.w3.org/1999/xlink" x="0px" y="0px"
	 width="50px" height="50px" viewBox="-175.5 -245.5 50 50" enable-background="new -175.5 -245.5 50 50" xml:space="preserve">
<g>
	<path d="M-140.441-218.05c0,0.293-0.039,0.586-0.115,0.872l0.543,0.145c0.088-0.331,0.133-0.674,0.134-1.016
		c0-0.061-0.001-0.121-0.004-0.182l-0.561,0.028C-140.442-218.153-140.441-218.102-140.441-218.05z"/>
	<path d="M-141.5-215.28l0.446,0.342c0.261-0.339,0.476-0.67,0.636-0.986l-0.5-0.255C-141.063-215.895-141.258-215.592-141.5-215.28
		z"/>
	<path d="M-143.012-213.686l0.375,0.417c0.29-0.26,0.567-0.526,0.825-0.796l-0.406-0.388
		C-142.466-214.194-142.733-213.938-143.012-213.686z"/>
	<path d="M-141.138-220.138c0.209,0.286,0.374,0.595,0.491,0.917l0.529-0.191c-0.135-0.374-0.325-0.729-0.566-1.058
		L-141.138-220.138z"/>
	<path d="M-159.862-220.138l-0.453-0.332c-0.241,0.329-0.432,0.685-0.566,1.058l0.529,0.191
		C-160.236-219.543-160.071-219.852-159.862-220.138z"/>
	<path d="M-160.583-215.924c0.161,0.316,0.375,0.647,0.636,0.986l0.446-0.342c-0.241-0.312-0.437-0.615-0.582-0.899
		L-160.583-215.924z"/>
	<path d="M-158.783-214.453l-0.406,0.388c0.258,0.27,0.536,0.536,0.825,0.796l0.375-0.417
		C-158.267-213.938-158.534-214.194-158.783-214.453z"/>
	<path d="M-160.559-218.05c0-0.052,0.001-0.103,0.003-0.154l-0.561-0.028c-0.003,0.062-0.004,0.122-0.004,0.182
		c0,0.342,0.045,0.685,0.134,1.016l0.543-0.145C-160.52-217.464-160.558-217.757-160.559-218.05z"/>
	<path d="M-151.739-221.905l0.432-0.36c-0.263-0.314-0.565-0.582-0.898-0.793l-0.302,0.474
		C-152.223-222.404-151.964-222.175-151.739-221.905z"/>
	<path d="M-154.07-223.046c0.219,0.016,0.422,0.022,0.627,0.068l0.124-0.549c-0.24-0.054-0.486-0.081-0.73-0.081
		c-0.165,0-0.323,0.011-0.482,0.034l0.08,0.556C-154.325-223.036-154.199-223.046-154.07-223.046z"/>
	<path d="M-156.811-221.221l-0.5-0.254c-0.179,0.35-0.313,0.727-0.398,1.116l0.549,0.121
		C-157.085-220.582-156.968-220.912-156.811-221.221z"/>
	<path d="M-157.09-218.162c-0.101-0.376-0.153-0.706-0.165-1.039l-0.562,0.02c0.013,0.375,0.071,0.745,0.183,1.163L-157.09-218.162z
		"/>
	<path d="M-156.02-214.986c0.231,0.291,0.479,0.58,0.738,0.865l0.416-0.378c-0.251-0.276-0.491-0.556-0.714-0.836L-156.02-214.986z"
		/>
	<path d="M-156.693-215.908l0.47-0.309c-0.217-0.33-0.396-0.645-0.53-0.935l-0.509,0.237
		C-157.117-216.599-156.925-216.26-156.693-215.908z"/>
	<path d="M-155.54-222.619c0.042-0.027,0.086-0.052,0.13-0.076l-0.267-0.494c-0.054,0.029-0.107,0.06-0.159,0.091
		c-0.287,0.177-0.553,0.394-0.79,0.646l0.409,0.384C-156.013-222.282-155.786-222.468-155.54-222.619z"/>
	<path d="M-143.901-218.193l0.54,0.153c0.108-0.378,0.168-0.771,0.179-1.17l-0.562-0.015
		C-143.753-218.874-143.806-218.527-143.901-218.193z"/>
	<path d="M-144.305-215.941c0.227-0.347,0.418-0.685,0.568-1.004l-0.509-0.239c-0.139,0.296-0.317,0.611-0.529,0.936
		L-144.305-215.941z"/>
	<path d="M-143.297-220.388c-0.088-0.391-0.224-0.765-0.404-1.113l-0.499,0.259c0.158,0.305,0.278,0.633,0.355,0.977
		L-143.297-220.388z"/>
	<path d="M-144.797-222.083l0.406-0.389c-0.234-0.245-0.494-0.455-0.771-0.625c-0.06-0.036-0.12-0.07-0.18-0.103l-0.269,0.494
		c0.053,0.029,0.105,0.058,0.157,0.089C-145.219-222.472-144.998-222.293-144.797-222.083z"/>
	<path d="M-144.973-215.015l-0.441-0.349c-0.222,0.281-0.46,0.562-0.709,0.84l0.418,0.375
		C-145.448-214.436-145.202-214.726-144.973-215.015z"/>
	<path d="M-148.508-222.574l-0.304-0.472c-0.33,0.212-0.629,0.482-0.891,0.801l0.435,0.356
		C-149.044-222.162-148.789-222.393-148.508-222.574z"/>
	<path d="M-146.961-223.046c0.125,0.002,0.263,0.008,0.392,0.026l0.076-0.557c-0.15-0.02-0.302-0.031-0.455-0.031
		c-0.256-0.006-0.505,0.026-0.755,0.086l0.127,0.547C-147.372-223.021-147.166-223.046-146.961-223.046z"/>
	<path d="M-138-218.244c0-2.075-1.256-3.985-3.278-4.984c-0.799-0.394-1.689-0.614-2.596-0.669c-0.176-0.144-0.36-0.277-0.555-0.397
		c-1.722-1.053-3.928-0.872-5.509,0.34v-1.466c0.11-0.188,0.196-0.403,0.196-0.636l0-0.003l1.198,0.656l-1.672-2.589v-0.024h0.023
		l2.588,1.675l-0.655-1.199c0.001,0,0.001,0,0.002,0c0.705,0,1.277-0.758,1.277-0.758s-0.572-0.757-1.277-0.757
		c-0.001,0-0.001,0-0.002,0l0.655-1.198l-2.588,1.673h-0.023v-0.023l1.672-2.589l-1.198,0.656c0,0,0-0.001,0-0.003
		c0-0.705-0.758-1.276-0.758-1.276s-0.757,0.572-0.757,1.276c0,0.002,0,0.003,0,0.003l-1.197-0.656l1.673,2.589v0.023h-0.024
		l-2.588-1.673l0.655,1.198c-0.001,0-0.001,0-0.002,0c-0.705,0-1.277,0.757-1.277,0.757s0.572,0.758,1.277,0.758
		c0.001,0,0.001,0,0.002,0l-0.655,1.199l2.588-1.675h0.024v0.024l-1.673,2.589l1.197-0.656v0.003c0,0.233,0.085,0.447,0.195,0.634
		v1.465c-1.585-1.208-3.786-1.391-5.509-0.337c-0.185,0.114-0.359,0.243-0.528,0.377c-0.972,0.016-1.934,0.25-2.787,0.694
		c-1.921,1.001-3.114,2.908-3.114,4.978c0,0.598,0.101,1.191,0.283,1.707c0.279,1.181,1.162,2.424,2.281,3.606h-0.442v1.521h20.757
		v-1.521h-0.558c1.162-1.166,2.076-2.387,2.364-3.542C-138.106-217.049-138-217.645-138-218.244z M-145.016-223.336
		c1.305,0.801,2.116,2.334,2.116,4.001c0,0.485-0.068,0.962-0.217,1.467c-0.319,1.59-1.787,3.394-3.357,4.937h-0.414
		c0.136-0.132,0.274-0.26,0.407-0.395l-0.399-0.395c-0.26,0.263-0.525,0.52-0.793,0.771l0.019,0.02h-2.283v-8.068l0.006-0.007
		l-0.006-0.004v-1.372C-148.71-223.898-146.623-224.314-145.016-223.336z M-155.984-223.335c0.592-0.362,1.261-0.553,1.933-0.553
		c1.143,0,2.217,0.553,2.989,1.502v9.455h-2.244c-0.269-0.25-0.536-0.507-0.797-0.769l-0.397,0.397
		c0.127,0.127,0.257,0.248,0.386,0.372h-0.402c-1.576-1.551-3.053-3.369-3.377-4.985c-0.137-0.464-0.206-0.941-0.206-1.419
		C-158.1-221.001-157.289-222.533-155.984-223.335z M-161.64-216.852c-0.157-0.452-0.236-0.92-0.236-1.393
		c0-1.649,0.961-3.175,2.509-3.981c0.356-0.185,0.736-0.326,1.129-0.422c-0.166,0.252-0.311,0.52-0.437,0.798
		c-0.289,0.153-0.567,0.321-0.814,0.518l0.353,0.439c0.044-0.035,0.099-0.058,0.145-0.092c-0.148,0.529-0.232,1.082-0.232,1.649
		c0,0.585,0.084,1.169,0.24,1.689c0.312,1.558,1.512,3.226,2.9,4.715h-1.013c-0.015-0.012-0.03-0.023-0.045-0.035l-0.029,0.035
		h-1.681C-160.214-214.214-161.341-215.595-161.64-216.852z M-139.39-216.803c-0.298,1.198-1.477,2.567-2.939,3.872h-1.5
		l-0.029-0.035c-0.015,0.012-0.03,0.023-0.045,0.035h-1.001c1.38-1.478,2.57-3.131,2.876-4.666c0.167-0.56,0.251-1.145,0.251-1.738
		c0-0.567-0.084-1.121-0.231-1.649c0.045,0.034,0.101,0.057,0.144,0.092l0.353-0.439c-0.247-0.197-0.525-0.365-0.813-0.517
		c-0.113-0.251-0.242-0.492-0.387-0.721c0.323,0.091,0.639,0.203,0.937,0.349c1.635,0.808,2.651,2.331,2.651,3.976
		C-139.124-217.776-139.207-217.31-139.39-216.803z"/>
	<rect x="-160.878" y="-210.567" width="20.757" height="1.383"/>
</g>
</svg>
