<?xml version="1.0" encoding="utf-8"?>
<!-- Generator: Adobe Illustrator 16.0.0, SVG Export Plug-In . SVG Version: 6.00 Build 0)  -->
<!DOCTYPE svg PUBLIC "-//W3C//DTD SVG 1.1//EN" "http://www.w3.org/Graphics/SVG/1.1/DTD/svg11.dtd">
<svg version="1.1" id="Layer_1" xmlns="http://www.w3.org/2000/svg" xmlns:xlink="http://www.w3.org/1999/xlink" x="0px" y="0px"
	 width="50px" height="50px" viewBox="-315.5 -245.5 50 50" enable-background="new -315.5 -245.5 50 50" xml:space="preserve">
<path d="M-278-209.699v-0.883h-0.766c0.214-0.678,0.342-1.389,0.342-2.123c0-0.745-0.119-1.487-0.337-2.146
	c-1.056-4.788-9.4-10.444-11.095-11.55v-0.837l1.234,0.515l-1.483-2.374c0.244-0.104,0.439-0.3,0.542-0.544l2.375,1.485
	l-0.783-1.877l0.783-1.878l-2.375,1.485c-0.103-0.244-0.298-0.439-0.542-0.542l1.484-2.375l-1.878,0.784l-1.878-0.784l1.484,2.375
	c-0.244,0.103-0.439,0.298-0.542,0.542l-2.375-1.485l0.783,1.878l-0.783,1.877l2.375-1.485c0.103,0.244,0.298,0.44,0.542,0.544
	l-1.484,2.374l1.234-0.515v0.831c-1.673,1.092-10.036,6.755-11.08,11.495c-0.233,0.711-0.352,1.455-0.352,2.207
	c0,0.734,0.127,1.445,0.341,2.123H-303v0.883h1.058v1.164H-303v0.881h25v-0.881h-1.06v-1.164H-278z M-280.002-214.512
	c0.192,0.59,0.29,1.198,0.29,1.807c0,0.741-0.157,1.455-0.42,2.123h-3.326c0.125-0.662,0.212-1.348,0.212-2.06
	c0-0.712-0.066-1.422-0.191-2.068c-0.368-2.862-2.311-6.064-3.994-8.378C-284.498-220.842-280.645-217.415-280.002-214.512z
	 M-284.71-214.509c0.116,0.607,0.174,1.234,0.174,1.866c0,0.72-0.083,1.412-0.221,2.06h-3.932c0.614-0.519,1.013-1.285,1.013-2.149
	c0-1.335-0.934-2.451-2.181-2.744v-8.637C-288.175-222.05-285.15-217.929-284.71-214.509z M-290.5-214.268
	c0.848,0,1.537,0.689,1.537,1.536s-0.689,1.537-1.537,1.537s-1.537-0.69-1.537-1.537S-291.348-214.268-290.5-214.268z
	 M-291.144-215.476c-1.247,0.293-2.181,1.409-2.181,2.744c0,0.865,0.399,1.631,1.013,2.149h-3.932
	c-0.138-0.648-0.221-1.34-0.221-2.06c0-0.641,0.059-1.267,0.18-1.905c0.437-3.39,3.462-7.511,5.141-9.571V-215.476z
	 M-301.287-212.706c0-0.616,0.097-1.224,0.304-1.869c0.633-2.864,4.485-6.279,7.415-8.522c-1.682,2.311-3.624,5.505-3.989,8.345
	c-0.13,0.678-0.196,1.387-0.196,2.109c0,0.719,0.083,1.402,0.206,2.06h-3.32C-301.129-211.251-301.287-211.964-301.287-212.706z"/>
</svg>
