<?xml version="1.0" encoding="utf-8"?>
<!-- Generator: Adobe Illustrator 16.0.0, SVG Export Plug-In . SVG Version: 6.00 Build 0)  -->
<!DOCTYPE svg PUBLIC "-//W3C//DTD SVG 1.1//EN" "http://www.w3.org/Graphics/SVG/1.1/DTD/svg11.dtd">
<svg version="1.1" id="Layer_1" xmlns="http://www.w3.org/2000/svg" xmlns:xlink="http://www.w3.org/1999/xlink" x="0px" y="0px"
	 width="50px" height="50px" viewBox="104.5 -245.5 50 50" enable-background="new 104.5 -245.5 50 50" xml:space="preserve">
<g>
	<path d="M126.224-222.784c0,0,0.724,0.414,1.004,0.414c0.038,0,0.075-0.009,0.111-0.022c-0.056,0.073-0.101,0.157-0.124,0.252
		c-0.114,0.488,0.583,0.749,0.737,0.607c0.22-0.223-0.318-0.383-0.365-0.532c-0.044-0.148-0.021-0.278,0.03-0.387h1.553v1.551
		c-0.11,0.049-0.239,0.075-0.388,0.031c-0.15-0.048-0.308-0.586-0.531-0.367c-0.144,0.155,0.117,0.853,0.607,0.739
		c0.093-0.025,0.176-0.069,0.25-0.124c-0.014,0.036-0.022,0.072-0.022,0.11c0,0.281,0.414,1.004,0.414,1.004
		s0.414-0.723,0.414-1.004c0-0.038-0.01-0.074-0.022-0.111c0.074,0.056,0.156,0.1,0.25,0.125c0.49,0.114,0.751-0.584,0.607-0.739
		c-0.224-0.22-0.381,0.319-0.531,0.367c-0.148,0.043-0.277,0.018-0.388-0.031v-1.551h1.553c0.051,0.109,0.074,0.239,0.03,0.387
		c-0.047,0.15-0.585,0.309-0.365,0.532c0.154,0.142,0.852-0.118,0.737-0.607c-0.023-0.095-0.067-0.179-0.123-0.251
		c0.035,0.013,0.072,0.022,0.11,0.022c0.28,0,1.004-0.414,1.004-0.414s-0.724-0.414-1.004-0.414c-0.038,0-0.075,0.009-0.111,0.022
		c0.057-0.073,0.101-0.157,0.124-0.252c0.114-0.488-0.583-0.749-0.737-0.606c-0.22,0.223,0.318,0.381,0.365,0.533
		c0.044,0.146,0.021,0.276-0.03,0.386h-1.553v-1.552c0.11-0.05,0.239-0.075,0.388-0.031c0.15,0.047,0.308,0.586,0.531,0.366
		c0.144-0.155-0.117-0.853-0.607-0.738c-0.093,0.025-0.176,0.069-0.25,0.124c0.014-0.036,0.022-0.072,0.022-0.11
		c0-0.281-0.414-1.004-0.414-1.004s-0.414,0.724-0.414,1.004c0,0.038,0.01,0.074,0.023,0.111c-0.075-0.056-0.157-0.1-0.251-0.125
		c-0.49-0.114-0.751,0.583-0.607,0.738c0.224,0.22,0.381-0.319,0.531-0.366c0.148-0.044,0.277-0.019,0.388,0.031v1.552h-1.553
		c-0.051-0.11-0.074-0.24-0.03-0.386c0.047-0.151,0.585-0.31,0.365-0.533c-0.154-0.143-0.852,0.118-0.737,0.606
		c0.023,0.095,0.067,0.179,0.123,0.25c-0.035-0.013-0.072-0.021-0.11-0.021C126.947-223.196,126.224-222.784,126.224-222.784z"/>
	<path d="M140.123-216.585c-0.112-0.407-0.277-0.797-0.492-1.162l-0.511,0.301c0.189,0.319,0.335,0.662,0.432,1.018L140.123-216.585
		z"/>
	<path d="M139.571-214.232l0.573,0.148c0.103-0.392,0.154-0.8,0.153-1.225l-0.168-0.014l-0.423,0.028
		C139.707-214.934,139.661-214.577,139.571-214.232z"/>
	<path d="M137.557-218.987c0.321,0.183,0.619,0.407,0.884,0.667l0.413-0.42c-0.3-0.297-0.638-0.553-1.005-0.762L137.557-218.987z"/>
	<path d="M135.431-220.135l0.026,0.592c0.366,0,0.727,0.046,1.073,0.138l0.15-0.571c-0.395-0.105-0.807-0.158-1.224-0.158H135.431z"
		/>
	<path d="M131.348-216.379l-0.57-0.153c-0.106,0.4-0.161,0.816-0.161,1.237v0.014l0.592-0.014
		C131.208-215.664,131.256-216.029,131.348-216.379z"/>
	<path d="M133.018-219.475l0.298,0.511c0.321-0.188,0.666-0.332,1.021-0.43l-0.157-0.571
		C133.774-219.853,133.383-219.688,133.018-219.475z"/>
	<path d="M130.784-214.031c0.108,0.405,0.272,0.798,0.485,1.165l0.513-0.298c-0.187-0.321-0.331-0.665-0.427-1.022L130.784-214.031z
		"/>
	<path d="M131.256-217.7l0.513,0.296c0.186-0.321,0.412-0.617,0.673-0.882l-0.421-0.416
		C131.724-218.401,131.466-218.063,131.256-217.7z"/>
	<path d="M123.516-220.135l0.027,0.592c0.364,0,0.725,0.046,1.071,0.138l0.15-0.573c-0.396-0.103-0.807-0.156-1.222-0.156H123.516z"
		/>
	<path d="M119.342-217.698l0.513,0.296c0.186-0.321,0.411-0.617,0.673-0.882l-0.421-0.416
		C119.809-218.4,119.552-218.062,119.342-217.698z"/>
	<path d="M127.656-214.233l0.573,0.148c0.102-0.393,0.153-0.8,0.153-1.223l-0.172-0.015l-0.42,0.028
		C127.791-214.936,127.747-214.578,127.656-214.233z"/>
	<path d="M119.435-216.378l-0.572-0.152c-0.106,0.4-0.161,0.816-0.161,1.235v0.014l0.592-0.014
		C119.293-215.664,119.342-216.028,119.435-216.378z"/>
	<path d="M121.102-219.474l0.3,0.511c0.32-0.188,0.663-0.333,1.02-0.431l-0.157-0.571
		C121.856-219.853,121.466-219.688,121.102-219.474z"/>
	<path d="M118.87-214.031c0.108,0.405,0.272,0.798,0.485,1.165l0.514-0.298c-0.188-0.321-0.332-0.665-0.428-1.022L118.87-214.031z"
		/>
	<path d="M125.641-218.988c0.321,0.183,0.62,0.407,0.883,0.667l0.415-0.421c-0.3-0.297-0.639-0.552-1.005-0.762L125.641-218.988z"/>
	<path d="M128.209-216.585c-0.113-0.407-0.278-0.797-0.493-1.162l-0.51,0.301c0.188,0.319,0.334,0.662,0.432,1.018L128.209-216.585z
		"/>
	<path d="M141.087-212.332c0.504-0.932,0.793-1.966,0.793-3.044c0-0.709-0.123-1.418-0.348-2.047
		c-0.973-4.067-7.943-8.794-10.663-10.505c0.163-0.089,0.324-0.194,0.465-0.334c0.708-0.701,0.715-1.85,0.715-1.85
		s-0.712-0.002-1.362,0.341c0.055-0.228,0.096-0.464,0.098-0.711c0.012-1.581-1.261-2.875-1.261-2.875s-1.294,1.272-1.306,2.855
		c-0.002,0.245,0.034,0.479,0.084,0.708c-0.641-0.349-1.351-0.358-1.351-0.358s-0.01,1.149,0.687,1.859
		c0.148,0.152,0.317,0.265,0.49,0.358c-2.714,1.707-9.685,6.429-10.645,10.45c-0.24,0.681-0.363,1.389-0.363,2.107
		c0,1.079,0.289,2.114,0.792,3.044H117v1.904h25v-1.904H141.087z M129.495-227.385c1.141,0.694,5.297,3.305,8.16,6.187
		c-0.688-0.256-1.423-0.416-2.198-0.416c-2.772,0-5.107,1.807-5.957,4.295c-0.85-2.488-3.185-4.295-5.957-4.295
		c-0.786,0-1.53,0.162-2.225,0.425C124.175-224.065,128.353-226.689,129.495-227.385z M127.724-212.332h-0.36
		c0.143-0.185,0.277-0.379,0.393-0.583l-0.513-0.292c-0.183,0.319-0.405,0.613-0.66,0.875h-3.029c0.117-0.22,0.344-0.67,0.344-0.878
		c0-0.038-0.009-0.074-0.021-0.111c0.072,0.056,0.156,0.1,0.251,0.125c0.49,0.114,0.75-0.584,0.606-0.739
		c-0.223-0.22-0.381,0.319-0.533,0.366c-0.146,0.044-0.275,0.019-0.386-0.031v-1.551h1.553c0.05,0.108,0.073,0.239,0.028,0.387
		c-0.045,0.15-0.585,0.309-0.365,0.532c0.157,0.142,0.854-0.118,0.739-0.607c-0.024-0.095-0.068-0.179-0.124-0.251
		c0.036,0.013,0.072,0.022,0.111,0.022c0.28,0,1.003-0.414,1.003-0.414s-0.723-0.414-1.003-0.414c-0.039,0-0.075,0.009-0.111,0.022
		c0.056-0.073,0.1-0.157,0.124-0.252c0.114-0.488-0.582-0.749-0.739-0.605c-0.22,0.223,0.32,0.381,0.365,0.533
		c0.045,0.146,0.021,0.276-0.028,0.386h-1.553v-1.552c0.11-0.05,0.24-0.075,0.386-0.031c0.152,0.047,0.311,0.586,0.533,0.366
		c0.144-0.155-0.116-0.853-0.606-0.738c-0.095,0.025-0.179,0.069-0.251,0.124c0.013-0.036,0.021-0.072,0.021-0.11
		c0-0.281-0.413-1.004-0.413-1.004s-0.414,0.724-0.414,1.004c0,0.038,0.009,0.074,0.023,0.111c-0.074-0.055-0.157-0.099-0.252-0.125
		c-0.49-0.115-0.75,0.583-0.607,0.738c0.224,0.22,0.382-0.319,0.533-0.366c0.146-0.044,0.276-0.019,0.386,0.031v1.552h-1.552
		c-0.05-0.11-0.074-0.24-0.029-0.386c0.045-0.151,0.585-0.31,0.364-0.533c-0.156-0.143-0.852,0.118-0.737,0.605
		c0.024,0.095,0.068,0.179,0.123,0.251c-0.035-0.013-0.072-0.021-0.11-0.021c-0.281,0-1.003,0.413-1.003,0.413
		s0.722,0.414,1.003,0.414c0.038,0,0.075-0.009,0.11-0.022c-0.055,0.073-0.099,0.157-0.123,0.252
		c-0.114,0.488,0.581,0.749,0.737,0.607c0.221-0.223-0.319-0.383-0.364-0.532c-0.045-0.148-0.021-0.279,0.029-0.387h1.552v1.551
		c-0.109,0.05-0.24,0.075-0.386,0.031c-0.151-0.047-0.31-0.586-0.533-0.366c-0.143,0.155,0.117,0.853,0.607,0.739
		c0.095-0.025,0.178-0.069,0.25-0.124c-0.013,0.036-0.021,0.072-0.021,0.11c0,0.208,0.227,0.659,0.345,0.878h-4.054
		c-0.597-0.839-0.956-1.857-0.956-2.963c0-2.832,2.305-5.135,5.138-5.135c2.832,0,5.136,2.304,5.136,5.135
		C128.679-214.189,128.32-213.171,127.724-212.332z M139.639-212.332h-0.36c0.145-0.185,0.277-0.378,0.393-0.583l-0.515-0.291
		c-0.181,0.319-0.404,0.612-0.659,0.874h-2.96c0.117-0.22,0.344-0.67,0.344-0.878c0-0.038-0.009-0.074-0.021-0.111
		c0.072,0.056,0.156,0.1,0.251,0.125c0.489,0.114,0.75-0.584,0.606-0.739c-0.223-0.22-0.382,0.319-0.533,0.366
		c-0.146,0.044-0.275,0.019-0.386-0.031v-1.551h1.553c0.05,0.108,0.073,0.239,0.028,0.387c-0.045,0.15-0.585,0.309-0.365,0.532
		c0.157,0.142,0.854-0.118,0.738-0.607c-0.023-0.095-0.067-0.179-0.123-0.251c0.036,0.013,0.072,0.022,0.11,0.022
		c0.281,0,1.004-0.414,1.004-0.414s-0.723-0.414-1.004-0.414c-0.038,0-0.074,0.009-0.11,0.022c0.056-0.073,0.1-0.157,0.123-0.252
		c0.115-0.488-0.581-0.749-0.738-0.605c-0.22,0.223,0.32,0.381,0.365,0.533c0.045,0.146,0.021,0.276-0.028,0.386h-1.553v-1.552
		c0.11-0.05,0.24-0.075,0.386-0.031c0.151,0.047,0.311,0.586,0.533,0.366c0.144-0.155-0.117-0.853-0.606-0.738
		c-0.095,0.025-0.179,0.069-0.251,0.124c0.013-0.036,0.021-0.072,0.021-0.11c0-0.281-0.413-1.004-0.413-1.004
		s-0.414,0.724-0.414,1.004c0,0.038,0.009,0.074,0.023,0.111c-0.074-0.055-0.157-0.099-0.252-0.125
		c-0.49-0.115-0.751,0.583-0.607,0.738c0.224,0.22,0.382-0.319,0.533-0.366c0.146-0.044,0.276-0.019,0.386,0.031v1.552h-1.552
		c-0.05-0.11-0.074-0.24-0.029-0.386c0.045-0.151,0.585-0.31,0.364-0.533c-0.156-0.143-0.852,0.118-0.737,0.605
		c0.024,0.095,0.068,0.179,0.123,0.251c-0.035-0.013-0.072-0.021-0.11-0.021c-0.281,0-1.004,0.413-1.004,0.413
		s0.723,0.414,1.004,0.414c0.038,0,0.075-0.009,0.11-0.022c-0.055,0.073-0.099,0.157-0.123,0.252
		c-0.114,0.488,0.581,0.749,0.737,0.607c0.221-0.223-0.319-0.383-0.364-0.532c-0.045-0.148-0.021-0.279,0.029-0.387h1.552v1.551
		c-0.109,0.05-0.24,0.075-0.386,0.031c-0.151-0.047-0.31-0.586-0.533-0.366c-0.144,0.155,0.117,0.853,0.607,0.739
		c0.095-0.025,0.178-0.069,0.25-0.124c-0.013,0.036-0.021,0.072-0.021,0.11c0,0.208,0.227,0.659,0.345,0.878h-4.122
		c-0.597-0.839-0.956-1.857-0.956-2.963c0-2.832,2.304-5.135,5.137-5.135s5.138,2.304,5.138,5.135
		C140.595-214.189,140.235-213.171,139.639-212.332z"/>
	<rect x="117" y="-209.374" width="25" height="1.73"/>
</g>
</svg>
