<?xml version="1.0" standalone="no"?>
<!DOCTYPE svg PUBLIC "-//W3C//DTD SVG 20010904//EN"
 "http://www.w3.org/TR/2001/REC-SVG-20010904/DTD/svg10.dtd">
<svg version="1.0" xmlns="http://www.w3.org/2000/svg"
 width="724.000000pt" height="433.000000pt" viewBox="0 0 724.000000 433.000000"
 preserveAspectRatio="xMidYMid meet">
<metadata>
Created by potrace 1.11, written by Peter Selinger 2001-2013
</metadata>
<g transform="translate(0.000000,433.000000) scale(0.100000,-0.100000)"
fill="#000000" stroke="none">
<path d="M0 2165 l0 -2165 3620 0 3620 0 0 2165 0 2165 -3620 0 -3620 0 0
-2165z m2391 1407 c313 -73 601 -236 807 -457 166 -178 284 -410 344 -676 20
-90 23 -131 23 -309 0 -160 -4 -224 -18 -290 -115 -539 -491 -965 -999 -1135
-182 -60 -250 -70 -478 -70 -160 0 -224 4 -290 18 -600 128 -1059 581 -1166
1152 -26 139 -26 451 -1 580 127 631 593 1087 1227 1201 113 20 439 12 551
-14z"/>
<path d="M1926 3420 c-313 -36 -587 -169 -804 -394 -240 -248 -365 -556 -365
-901 0 -345 125 -652 381 -934 227 -250 563 -394 922 -394 218 0 397 42 589
138 370 186 627 524 708 933 21 107 23 327 4 432 -30 170 -120 389 -222 545
-66 101 -250 286 -349 352 -259 173 -577 255 -864 223z m237 -397 c99 -31 152
-106 145 -205 -7 -92 -40 -126 -191 -194 -63 -28 -76 -45 -86 -113 -5 -41 -9
-46 -31 -46 -22 0 -25 5 -28 42 -5 67 18 105 102 167 88 65 104 86 112 148 12
88 -26 146 -110 169 -54 15 -134 -3 -171 -37 -28 -26 -30 -52 -10 -121 5 -14
0 -28 -14 -42 -46 -46 -111 -8 -111 65 0 84 91 163 211 183 63 10 115 5 182
-16z m-113 -643 c24 -24 26 -67 4 -98 -11 -16 -25 -22 -51 -22 -47 0 -73 24
-73 67 0 42 30 73 70 73 17 0 39 -9 50 -20z"/>
</g>
</svg>
