<?xml version="1.0" encoding="utf-8"?>
<!-- Generator: Adobe Illustrator 16.0.0, SVG Export Plug-In . SVG Version: 6.00 Build 0)  -->
<!DOCTYPE svg PUBLIC "-//W3C//DTD SVG 1.1//EN" "http://www.w3.org/Graphics/SVG/1.1/DTD/svg11.dtd">
<svg version="1.1" id="Layer_1" xmlns="http://www.w3.org/2000/svg" xmlns:xlink="http://www.w3.org/1999/xlink" x="0px" y="0px"
	 width="50px" height="50px" viewBox="104.5 -35.5 50 50" enable-background="new 104.5 -35.5 50 50" xml:space="preserve">
<path d="M138.592,0.458h-0.34v-2.25h0.34c0.553,0,1-0.448,1-1s-0.447-1-1-1h-18.18c-0.553,0-1,0.448-1,1s0.447,1,1,1h0.34v2.25
	h-0.34c-0.553,0-1,0.448-1,1s0.447,1,1,1h18.18c0.553,0,1-0.448,1-1S139.145,0.458,138.592,0.458z M137.252,0.458h-4.5v-2.25h4.5
	V0.458z M131.752,0.458h-4.5v-2.25h4.5V0.458z M121.752-1.792h4.5v2.25h-4.5V-1.792z M142.476-20.752
	c-0.058-0.019-0.115-0.038-0.174-0.052c-3.199-0.801-6.486-0.112-9.192,1.73l-3.21-4.199c-0.189-0.247-0.605-0.247-0.795,0
	l-3.219,4.21c-1.944-1.323-4.199-2.071-6.517-2.071c-0.896,0-1.793,0.111-2.662,0.328c-0.062,0.015-0.121,0.034-0.266,0.08
	c-0.26,0.074-0.414,0.34-0.349,0.602l3.733,14.938c0.056,0.223,0.256,0.379,0.485,0.379h0.188h7.396h10.8
	c0.229,0,0.43-0.156,0.485-0.379l3.731-14.938C142.977-20.384,142.735-20.678,142.476-20.752z M126.905-14.965
	c-0.089,0.063-0.19,0.094-0.292,0.094c-0.155,0-0.309-0.072-0.406-0.208c-2.512-3.494-7.849-3.416-7.885-3.417
	c-0.26,0.003-0.505-0.212-0.512-0.489c-0.006-0.276,0.212-0.504,0.488-0.511c0.234,0,5.896-0.093,8.721,3.833
	C127.181-15.438,127.129-15.126,126.905-14.965z M130.289-16.469c-1.164,1.683-2.012,3.96-2.067,7.082
	c-0.005,0.273-0.228,0.491-0.5,0.491c-0.003,0-0.006,0-0.009,0c-0.276-0.005-0.496-0.233-0.491-0.509
	c0.051-2.843,0.725-5.053,1.71-6.771c-0.663-0.865-1.425-1.623-2.248-2.283l2.818-3.688l2.803,3.667
	C131.577-17.895,130.898-17.225,130.289-16.469z"/>
</svg>
