<?xml version="1.0" encoding="utf-8"?>
<!-- Generator: Adobe Illustrator 16.0.0, SVG Export Plug-In . SVG Version: 6.00 Build 0)  -->
<!DOCTYPE svg PUBLIC "-//W3C//DTD SVG 1.1//EN" "http://www.w3.org/Graphics/SVG/1.1/DTD/svg11.dtd">
<svg version="1.1" id="Layer_1" xmlns="http://www.w3.org/2000/svg" xmlns:xlink="http://www.w3.org/1999/xlink" x="0px" y="0px"
	 width="50px" height="50px" viewBox="34.5 -315.5 50 50" enable-background="new 34.5 -315.5 50 50" xml:space="preserve">
<path d="M67.25-280.487c0,0.276-0.224,0.5-0.5,0.5h-14.5c-0.276,0-0.5-0.224-0.5-0.5s0.224-0.5,0.5-0.5h14.5
	C67.026-280.987,67.25-280.763,67.25-280.487z M72.92-297.32l-5.815,14.714c-0.075,0.191-0.26,0.316-0.465,0.316H52.36
	c-0.205,0-0.39-0.125-0.465-0.316L46.08-297.32c-0.055-0.138-0.045-0.293,0.026-0.423c0.07-0.13,0.195-0.222,0.342-0.251
	c2.631-0.524,5.444-0.209,7.872,0.866c0.191,0.085,0.311,0.281,0.296,0.491s-0.158,0.388-0.36,0.446
	c-0.96,0.276-1.631,1.161-1.631,2.15c0,1.241,1.01,2.25,2.25,2.25s2.25-1.009,2.25-2.25c0-0.728-0.358-1.415-0.96-1.837
	c-0.108-0.077-0.183-0.194-0.205-0.326c-0.022-0.131,0.009-0.267,0.087-0.375l3.047-4.24c0.188-0.261,0.625-0.261,0.812,0
	l3.047,4.24c0.078,0.108,0.109,0.244,0.087,0.375c-0.022,0.132-0.097,0.249-0.205,0.326c-0.602,0.423-0.96,1.11-0.96,1.837
	c0,1.241,1.01,2.25,2.25,2.25s2.25-1.009,2.25-2.25c0-0.99-0.671-1.874-1.631-2.15c-0.202-0.058-0.346-0.236-0.36-0.446
	s0.104-0.406,0.296-0.491c2.428-1.076,5.239-1.39,7.872-0.866c0.146,0.029,0.271,0.121,0.342,0.251
	C72.965-297.613,72.975-297.458,72.92-297.32z M71.764-297.115c-1.896-0.28-3.862-0.1-5.666,0.508
	c0.785,0.602,1.277,1.546,1.277,2.567c0,1.792-1.458,3.25-3.25,3.25s-3.25-1.458-3.25-3.25c0-0.883,0.364-1.725,0.994-2.333
	l-2.369-3.296l-2.369,3.296c0.63,0.608,0.994,1.449,0.994,2.333c0,1.792-1.458,3.25-3.25,3.25s-3.25-1.458-3.25-3.25
	c0-1.021,0.492-1.965,1.277-2.567c-1.805-0.608-3.771-0.788-5.666-0.508L52.7-283.29h13.6L71.764-297.115z M59.614-293.441
	c-0.27-0.061-0.538,0.105-0.601,0.373c-0.453,1.931-2.155,3.279-4.139,3.279c-1.225,0-2.391-0.531-3.2-1.456
	c-0.183-0.208-0.498-0.229-0.705-0.047c-0.208,0.182-0.229,0.498-0.047,0.706c0.998,1.143,2.438,1.798,3.952,1.798
	c2.45,0,4.553-1.666,5.111-4.051C60.05-293.109,59.883-293.378,59.614-293.441z"/>
</svg>
