<?xml version="1.0" encoding="utf-8"?>
<!-- Generator: Adobe Illustrator 16.0.0, SVG Export Plug-In . SVG Version: 6.00 Build 0)  -->
<!DOCTYPE svg PUBLIC "-//W3C//DTD SVG 1.1//EN" "http://www.w3.org/Graphics/SVG/1.1/DTD/svg11.dtd">
<svg version="1.1" id="Layer_1" xmlns="http://www.w3.org/2000/svg" xmlns:xlink="http://www.w3.org/1999/xlink" x="0px" y="0px"
	 width="50px" height="50px" viewBox="104.5 104.5 50 50" enable-background="new 104.5 104.5 50 50" xml:space="preserve">
<path d="M139.5,138.327h-20c-0.276,0-0.5-0.224-0.5-0.5s0.224-0.5,0.5-0.5h20c0.276,0,0.5,0.224,0.5,0.5
	S139.776,138.327,139.5,138.327z M140,134.099v1.967c0,0.276-0.224,0.5-0.5,0.5l-14.811,0.012c-0.001,0-0.001,0-0.002,0
	c-0.037,0-0.073-0.004-0.107-0.012h-5.08c-0.276,0-0.5-0.224-0.5-0.5v-1.967h1.393c0.276,0,0.5-0.224,0.5-0.5s-0.224-0.5-0.5-0.5
	H119v-11.76c0-0.202,0.122-0.385,0.309-0.462c0.186-0.076,0.402-0.034,0.545,0.107l3.631,3.621c0.189,0.189,0.196,0.494,0.016,0.691
	c-0.167,0.183-0.365,0.48-0.365,0.863c0,0.87,1.03,1.604,2.25,1.604c1.24,0,2.25-0.72,2.25-1.604c0-0.627-0.524-1.201-1.336-1.464
	c-0.166-0.054-0.292-0.189-0.333-0.358s0.01-0.348,0.133-0.471l3.048-3.048c0.195-0.195,0.512-0.195,0.707,0l3.048,3.048
	c0.123,0.123,0.174,0.302,0.133,0.471s-0.167,0.305-0.333,0.358c-0.812,0.263-1.336,0.837-1.336,1.464
	c0,0.885,1.01,1.604,2.25,1.604c1.22,0,2.25-0.734,2.25-1.604c0-0.384-0.2-0.683-0.368-0.866c-0.182-0.197-0.175-0.503,0.016-0.692
	l3.635-3.617c0.143-0.143,0.356-0.185,0.545-0.107c0.187,0.078,0.308,0.26,0.308,0.462v11.76h-1.393c-0.276,0-0.5,0.224-0.5,0.5
	s0.224,0.5,0.5,0.5H140z M121.9,129.777c0.806,0.615,1.828,0.897,3.193,0.897c0.221,0,0.4-0.18,0.4-0.4s-0.18-0.4-0.4-0.4
	c-1.56,0-2.542-0.387-3.284-1.295c-0.107-0.132-0.286-0.181-0.444-0.124c-0.159,0.057-0.266,0.208-0.266,0.377v2.192
	c0,0.221,0.18,0.4,0.4,0.4s0.4-0.18,0.4-0.4V129.777z M126.098,133.599c0-0.276-0.224-0.5-0.5-0.5h-2.603
	c-0.276,0-0.5,0.224-0.5,0.5s0.224,0.5,0.5,0.5h2.603C125.874,134.099,126.098,133.875,126.098,133.599z M131.302,133.599
	c0-0.276-0.224-0.5-0.5-0.5h-2.603c-0.276,0-0.5,0.224-0.5,0.5s0.224,0.5,0.5,0.5h2.603
	C131.078,134.099,131.302,133.875,131.302,133.599z M136.506,133.599c0-0.276-0.224-0.5-0.5-0.5h-2.603c-0.276,0-0.5,0.224-0.5,0.5
	s0.224,0.5,0.5,0.5h2.603C136.282,134.099,136.506,133.875,136.506,133.599z"/>
</svg>
