<?xml version="1.0" encoding="utf-8"?>
<!-- Generator: Adobe Illustrator 16.0.0, SVG Export Plug-In . SVG Version: 6.00 Build 0)  -->
<!DOCTYPE svg PUBLIC "-//W3C//DTD SVG 1.1//EN" "http://www.w3.org/Graphics/SVG/1.1/DTD/svg11.dtd">
<svg version="1.1" id="Layer_1" xmlns="http://www.w3.org/2000/svg" xmlns:xlink="http://www.w3.org/1999/xlink" x="0px" y="0px"
	 width="50px" height="50px" viewBox="-105.5 -315.5 50 50" enable-background="new -105.5 -315.5 50 50" xml:space="preserve">
<path d="M-66.249-299.197c-0.072-0.125-0.194-0.213-0.336-0.241c-3.454-0.687-7.16-0.013-10.045,1.796l-3.464-4.822
	c-0.188-0.261-0.624-0.261-0.812,0l-3.464,4.822c-2.885-1.809-6.59-2.481-10.045-1.796c-0.142,0.028-0.264,0.116-0.336,0.241
	c-0.072,0.125-0.086,0.275-0.04,0.412l6.203,18.1c0.01,0.029,0.038,0.045,0.053,0.071c0.472,1.559,4.384,2.273,8.036,2.273
	c3.651,0,7.563-0.714,8.035-2.273c0.015-0.026,0.043-0.042,0.053-0.071l6.203-18.1C-66.162-298.922-66.176-299.072-66.249-299.197z
	 M-73.019-281.997c-1.291-1.044-4.47-1.533-7.48-1.533c-3.011,0-6.19,0.488-7.481,1.533l-0.29-0.845
	c0.006-0.606,2.748-1.783,7.771-1.783c5.022,0,7.764,1.177,7.77,1.783L-73.019-281.997z M-80.5-279.341
	c-3.201,0-5.312-0.523-6.343-1.006c-0.474-0.222-0.741-0.437-0.741-0.587c0-0.11,0.143-0.256,0.397-0.413
	c0.85-0.522,3.091-1.182,6.687-1.182c3.595,0,5.836,0.66,6.686,1.182c0.255,0.157,0.397,0.303,0.397,0.413
	c0,0.15-0.267,0.365-0.741,0.587C-75.188-279.864-77.299-279.341-80.5-279.341z M-72.349-283.952
	c-1.378-1.141-4.857-1.673-8.15-1.673c-3.294,0-6.773,0.533-8.151,1.673l-5.005-14.605c3.201-0.489,6.561,0.254,9.13,2.008
	c0.224,0.152,0.53,0.099,0.688-0.121l3.337-4.645l3.337,4.645c0.158,0.22,0.464,0.273,0.688,0.121
	c2.57-1.754,5.929-2.498,9.13-2.008L-72.349-283.952z M-85.649-294.903c0.228,0.156,0.287,0.467,0.131,0.695
	c-0.156,0.229-0.468,0.287-0.695,0.131c-0.952-0.649-2.056-1.123-3.23-1.389l2.341,7.04c0.087,0.262-0.055,0.545-0.317,0.632
	c-0.052,0.017-0.105,0.025-0.158,0.025c-0.209,0-0.405-0.132-0.475-0.342l-2.608-7.842c-0.055-0.164-0.02-0.345,0.091-0.478
	c0.11-0.133,0.282-0.2,0.454-0.175C-88.486-296.375-86.942-295.786-85.649-294.903z"/>
</svg>
