<?xml version="1.0" encoding="utf-8"?>
<!-- Generator: Adobe Illustrator 16.0.0, SVG Export Plug-In . SVG Version: 6.00 Build 0)  -->
<!DOCTYPE svg PUBLIC "-//W3C//DTD SVG 1.1//EN" "http://www.w3.org/Graphics/SVG/1.1/DTD/svg11.dtd">
<svg version="1.1" id="Layer_1" xmlns="http://www.w3.org/2000/svg" xmlns:xlink="http://www.w3.org/1999/xlink" x="0px" y="0px"
	 width="50px" height="50px" viewBox="-245.5 244.5 50 50" enable-background="new -245.5 244.5 50 50" xml:space="preserve">
<g>
	<path d="M-205.188,265.426c-0.175-0.131-0.413-0.133-0.59-0.007l-8.048,5.734c-0.187,0.133-0.259,0.376-0.176,0.589
		c0.077,0.197,0.116,0.396,0.116,0.593c0,0.896-0.729,1.625-1.625,1.625s-1.625-0.729-1.625-1.625c0-0.858,0.675-1.567,1.537-1.614
		c0.167-0.009,0.317-0.1,0.403-0.243c0.085-0.144,0.093-0.319,0.022-0.47l-4.875-10.28c-0.083-0.175-0.258-0.286-0.452-0.286
		s-0.369,0.111-0.452,0.286l-4.879,10.288c-0.07,0.147-0.063,0.32,0.018,0.462c0.082,0.143,0.227,0.235,0.39,0.25
		c0.844,0.074,1.48,0.766,1.48,1.607c0,0.896-0.729,1.625-1.625,1.625s-1.625-0.729-1.625-1.625c0-0.161,0.031-0.331,0.095-0.52
		c0.07-0.206-0.002-0.435-0.178-0.563l-7.941-5.829c-0.176-0.128-0.416-0.129-0.593,0.001c-0.176,0.13-0.247,0.359-0.175,0.566
		l5.733,16.509c0.07,0.201,0.259,0.336,0.472,0.336h18.559c0.213,0,0.402-0.135,0.472-0.336l5.733-16.509
		C-204.943,265.784-205.013,265.557-205.188,265.426z M-210.596,279.012h-2.154c-0.276,0-0.5,0.224-0.5,0.5s0.224,0.5,0.5,0.5h1.807
		l-0.633,1.823h-17.848l-0.633-1.823h2.307c0.276,0,0.5-0.224,0.5-0.5s-0.224-0.5-0.5-0.5h-2.654l-4.109-11.832l6.37,4.676
		c-0.033,0.163-0.049,0.321-0.049,0.479c0,1.447,1.178,2.625,2.625,2.625s2.625-1.178,2.625-2.625c0-1.128-0.703-2.088-1.717-2.455
		l4.16-8.771l4.148,8.748c-1.042,0.351-1.784,1.332-1.784,2.479c0,1.447,1.178,2.625,2.625,2.625s2.625-1.178,2.625-2.625
		c0-0.192-0.022-0.385-0.067-0.576l6.478-4.615L-210.596,279.012z"/>
	<path d="M-220.286,264.156c-0.25-0.115-0.547-0.011-0.666,0.238l-2.239,4.722c-0.093,0.196-0.049,0.431,0.11,0.579
		c0.733,0.686,1.138,1.623,1.138,2.64c0,0.276,0.224,0.5,0.5,0.5s0.5-0.224,0.5-0.5c0-1.171-0.421-2.261-1.195-3.106l2.089-4.406
		C-219.93,264.573-220.036,264.275-220.286,264.156z"/>
	<path d="M-221.75,279.012h-3c-0.276,0-0.5,0.224-0.5,0.5s0.224,0.5,0.5,0.5h3c0.276,0,0.5-0.224,0.5-0.5
		S-221.474,279.012-221.75,279.012z"/>
	<path d="M-215.75,279.012h-3c-0.276,0-0.5,0.224-0.5,0.5s0.224,0.5,0.5,0.5h3c0.276,0,0.5-0.224,0.5-0.5
		S-215.474,279.012-215.75,279.012z"/>
</g>
</svg>
