<?xml version="1.0" encoding="utf-8"?>
<!-- Generator: Adobe Illustrator 16.0.0, SVG Export Plug-In . SVG Version: 6.00 Build 0)  -->
<!DOCTYPE svg PUBLIC "-//W3C//DTD SVG 1.1//EN" "http://www.w3.org/Graphics/SVG/1.1/DTD/svg11.dtd">
<svg version="1.1" id="Layer_1" xmlns="http://www.w3.org/2000/svg" xmlns:xlink="http://www.w3.org/1999/xlink" x="0px" y="0px"
	 width="50px" height="50px" viewBox="314.5 -315.5 50 50" enable-background="new 314.5 -315.5 50 50" xml:space="preserve">
<path d="M339.5-292.756c-1.7,0-3.083,1.383-3.083,3.083s1.383,3.083,3.083,3.083s3.083-1.383,3.083-3.083
	S341.2-292.756,339.5-292.756z M339.5-288.089c-0.873,0-1.583-0.71-1.583-1.583s0.71-1.583,1.583-1.583s1.583,0.71,1.583,1.583
	S340.373-288.089,339.5-288.089z M352.75-281.817c0,0.414-0.336,0.75-0.75,0.75h-25c-0.414,0-0.75-0.336-0.75-0.75
	s0.336-0.75,0.75-0.75h25C352.414-282.567,352.75-282.231,352.75-281.817z M352.432-294.472c-0.199-0.14-0.453-0.175-0.686-0.092
	l-5.661,2.035l-6.011-7.149c-0.285-0.34-0.863-0.34-1.148,0l-6.011,7.149l-5.661-2.035c-0.231-0.083-0.485-0.048-0.686,0.092
	c-0.199,0.14-0.318,0.369-0.318,0.613v8.987c0,0.414,0.336,0.75,0.75,0.75h25c0.414,0,0.75-0.336,0.75-0.75v-8.987
	C352.75-294.103,352.631-294.332,352.432-294.472z M351.25-285.622h-23.5v-7.171l5.149,1.851c0.294,0.107,0.625,0.018,0.828-0.223
	l5.772-6.866l5.772,6.866c0.202,0.241,0.533,0.331,0.828,0.223l5.149-1.851V-285.622z"/>
</svg>
