<?xml version="1.0" encoding="utf-8"?>
<!-- Generator: Adobe Illustrator 16.0.0, SVG Export Plug-In . SVG Version: 6.00 Build 0)  -->
<!DOCTYPE svg PUBLIC "-//W3C//DTD SVG 1.1//EN" "http://www.w3.org/Graphics/SVG/1.1/DTD/svg11.dtd">
<svg version="1.1" id="Layer_1" xmlns="http://www.w3.org/2000/svg" xmlns:xlink="http://www.w3.org/1999/xlink" x="0px" y="0px"
	 width="50px" height="50px" viewBox="-175.5 -105.5 50 50" enable-background="new -175.5 -105.5 50 50" xml:space="preserve">
<path d="M-136.037-85.09c-0.269-0.203-0.639-0.201-0.905,0.003l-7.77,5.932l-5.102-11.524c-0.241-0.543-1.131-0.543-1.372,0
	l-5.16,11.657l-7.703-6.058c-0.267-0.209-0.639-0.215-0.91-0.014c-0.272,0.201-0.375,0.559-0.253,0.874l5.352,13.827
	c0.112,0.289,0.39,0.479,0.699,0.479h17.322c0.31,0,0.587-0.19,0.699-0.479l5.352-13.827
	C-135.667-84.533-135.769-84.889-136.037-85.09z M-150.5-88.523l4.561,10.304l-4.763,3.636l-4.428-3.482L-150.5-88.523z
	 M-156.973-77.607l-2.172,4.906l-3.681-9.509L-156.973-77.607z M-158.074-71.414l2.318-5.236l3.823,3.006l-2.921,2.23H-158.074z
	 M-152.382-71.414l1.667-1.272l1.618,1.272H-152.382z M-146.724-71.455l-2.761-2.171l4.17-3.183l2.388,5.396h-3.749
	C-146.691-71.428-146.707-71.442-146.724-71.455z M-141.855-72.7l-2.233-5.045l5.941-4.535L-141.855-72.7z"/>
</svg>
