<?xml version="1.0" encoding="utf-8"?>
<!-- Generator: Adobe Illustrator 16.0.0, SVG Export Plug-In . SVG Version: 6.00 Build 0)  -->
<!DOCTYPE svg PUBLIC "-//W3C//DTD SVG 1.1//EN" "http://www.w3.org/Graphics/SVG/1.1/DTD/svg11.dtd">
<svg version="1.1" id="Layer_1" xmlns="http://www.w3.org/2000/svg" xmlns:xlink="http://www.w3.org/1999/xlink" x="0px" y="0px"
	 width="50px" height="50px" viewBox="-175.5 174.5 50 50" enable-background="new -175.5 174.5 50 50" xml:space="preserve">
<path d="M-140.641,188.945c-1.085,0-1.969,0.883-1.969,1.969c0,0.711,0.381,1.328,0.946,1.674l-3.765,3.746l-3.871-3.871
	c0.463-0.359,0.768-0.916,0.768-1.549c0-1.086-0.883-1.969-1.969-1.969s-1.969,0.883-1.969,1.969c0,0.633,0.304,1.189,0.768,1.549
	l-3.876,3.877l-3.821-3.812c0.598-0.338,1.007-0.971,1.007-1.707c0-1.086-0.883-1.969-1.969-1.969s-1.969,0.883-1.969,1.969
	c0,0.764,0.441,1.42,1.078,1.746v14.648c0,0.207,0.084,0.395,0.221,0.531c1.146,1.873,6.945,2.402,10.529,2.402
	s9.383-0.529,10.529-2.402c0.136-0.137,0.221-0.324,0.221-0.531V192.66c0.637-0.326,1.078-0.982,1.078-1.746
	C-138.672,189.828-139.555,188.945-140.641,188.945z M-140.641,190.445c0.258,0,0.469,0.211,0.469,0.469
	c0,0.26-0.21,0.469-0.469,0.469s-0.469-0.209-0.469-0.469C-141.109,190.656-140.899,190.445-140.641,190.445z M-150.5,190.445
	c0.258,0,0.469,0.211,0.469,0.469c0,0.26-0.21,0.469-0.469,0.469s-0.469-0.209-0.469-0.469
	C-150.969,190.656-150.758,190.445-150.5,190.445z M-156.106,197.93c0.293,0.291,0.768,0.293,1.06,0l4.546-4.547l4.54,4.541
	c0.293,0.293,0.767,0.293,1.059,0l3.651-3.631v11.068c-2.216-1.059-6.422-1.389-9.25-1.389s-7.034,0.33-9.25,1.389v-11.066
	L-156.106,197.93z M-141.284,207.061c-0.214,0.266-0.987,0.607-2.25,0.906c-1.586,0.375-3.947,0.682-6.966,0.682
	c-3.026,0-5.392-0.309-6.978-0.684c-1.256-0.299-2.024-0.639-2.238-0.904c0.143-0.178,0.536-0.387,1.149-0.596
	c1.472-0.502,4.239-0.992,8.066-0.992c3.831,0,6.599,0.492,8.069,0.992C-141.819,206.674-141.426,206.883-141.284,207.061z
	 M-160.359,190.352c0.258,0,0.469,0.211,0.469,0.469c0,0.26-0.21,0.469-0.469,0.469s-0.469-0.209-0.469-0.469
	C-160.828,190.562-160.618,190.352-160.359,190.352z"/>
</svg>
