<?xml version="1.0" encoding="utf-8"?>
<!-- Generator: Adobe Illustrator 16.0.0, SVG Export Plug-In . SVG Version: 6.00 Build 0)  -->
<!DOCTYPE svg PUBLIC "-//W3C//DTD SVG 1.1//EN" "http://www.w3.org/Graphics/SVG/1.1/DTD/svg11.dtd">
<svg version="1.1" id="Layer_1" xmlns="http://www.w3.org/2000/svg" xmlns:xlink="http://www.w3.org/1999/xlink" x="0px" y="0px"
	 width="50px" height="50px" viewBox="34.5 34.5 50 50" enable-background="new 34.5 34.5 50 50" xml:space="preserve">
<path d="M69.692,50.877c-0.188-0.077-0.401-0.035-0.545,0.107l-4.576,4.553l-4.718-4.718c-0.195-0.195-0.512-0.195-0.707,0
	l-4.724,4.723l-4.569-4.558c-0.144-0.142-0.358-0.184-0.545-0.107C49.122,50.954,49,51.137,49,51.339v14.727
	c0,0.276,0.224,0.5,0.5,0.5h5.08c0.034,0.008,0.07,0.012,0.107,0.012c0.001,0,0.001,0,0.002,0L69.5,66.565
	c0.276,0,0.5-0.224,0.5-0.5V51.339C70,51.137,69.879,50.955,69.692,50.877z M69,65.565l-14.194,0.012
	c-0.035-0.008-0.07-0.012-0.106-0.012H50V52.544l4.07,4.06c0.195,0.193,0.512,0.194,0.707-0.001L59.5,51.88l4.717,4.717
	c0.195,0.195,0.511,0.194,0.706,0.001L69,52.542V65.565z M57.986,55.515c0.195,0.195,0.195,0.512,0,0.707l-3.207,3.207
	c-0.195,0.195-0.512,0.194-0.707,0.001L52,57.362v3.443c0,0.276-0.224,0.5-0.5,0.5s-0.5-0.224-0.5-0.5v-4.648
	c0-0.202,0.122-0.385,0.309-0.462c0.187-0.076,0.402-0.034,0.545,0.107l2.572,2.565l2.854-2.854
	C57.475,55.319,57.791,55.319,57.986,55.515z M70,67.827c0,0.276-0.224,0.5-0.5,0.5h-20c-0.276,0-0.5-0.224-0.5-0.5
	s0.224-0.5,0.5-0.5h20C69.776,67.327,70,67.551,70,67.827z"/>
</svg>
