<?xml version="1.0" encoding="utf-8"?>
<!-- Generator: Adobe Illustrator 16.0.0, SVG Export Plug-In . SVG Version: 6.00 Build 0)  -->
<!DOCTYPE svg PUBLIC "-//W3C//DTD SVG 1.1//EN" "http://www.w3.org/Graphics/SVG/1.1/DTD/svg11.dtd">
<svg version="1.1" id="Layer_1" xmlns="http://www.w3.org/2000/svg" xmlns:xlink="http://www.w3.org/1999/xlink" x="0px" y="0px"
	 width="50px" height="50px" viewBox="244.5 -105.5 50 50" enable-background="new 244.5 -105.5 50 50" xml:space="preserve">
<path d="M282.021-84.428c-1.562,0-2.833,1.271-2.833,2.832c0,0.763,0.306,1.474,0.831,1.996l-1.998,1l-5.652-5.653
	c0.939-0.817,1.485-1.998,1.485-3.26c0-2.39-1.943-4.334-4.333-4.334s-4.333,1.944-4.333,4.334c0,1.252,0.537,2.426,1.461,3.242
	l-5.669,5.67l-1.997-1c0.524-0.521,0.83-1.233,0.83-1.996c0-1.562-1.271-2.832-2.834-2.832c-1.562,0-2.832,1.271-2.832,2.832
	c0,1.394,1.011,2.557,2.354,2.79v4.997c0,0.268,0.212,0.482,0.477,0.495c2.277,1.939,12.055,1.966,12.523,1.966
	s10.246-0.026,12.523-1.966c0.265-0.013,0.477-0.227,0.477-0.495v-4.993c1.335-0.229,2.354-1.394,2.354-2.793
	C284.854-83.158,283.583-84.428,282.021-84.428z M257.499-74.176c0.194-0.645,4.486-1.849,12.001-1.849s11.808,1.204,12.001,1.827
	c-0.193,0.645-4.486,1.849-12.001,1.849S257.693-73.553,257.499-74.176z M282.37-71.269c0.121,0.248,0.019,0.547-0.229,0.668
	c-1.475,0.72-5.955,1.446-12.641,1.446c-6.592,0-11.231-0.878-12.607-1.432c-0.256-0.103-0.381-0.395-0.277-0.65
	c0.103-0.257,0.394-0.38,0.65-0.277c1.103,0.443,5.544,1.359,12.234,1.359c7.473,0,11.249-0.88,12.201-1.345
	C281.949-71.62,282.248-71.518,282.37-71.269z"/>
</svg>
