<?xml version="1.0" encoding="utf-8"?>
<!-- Generator: Adobe Illustrator 16.0.0, SVG Export Plug-In . SVG Version: 6.00 Build 0)  -->
<!DOCTYPE svg PUBLIC "-//W3C//DTD SVG 1.1//EN" "http://www.w3.org/Graphics/SVG/1.1/DTD/svg11.dtd">
<svg version="1.1" id="Layer_1" xmlns="http://www.w3.org/2000/svg" xmlns:xlink="http://www.w3.org/1999/xlink" x="0px" y="0px"
	 width="50px" height="50px" viewBox="-315.5 314.5 50 50" enable-background="new -315.5 314.5 50 50" xml:space="preserve">
<path d="M-280.641,327.639c-1.085,0-1.969,0.883-1.969,1.969c0,0.711,0.381,1.328,0.947,1.676l-3.765,3.744l-3.871-3.871
	c0.463-0.359,0.768-0.916,0.768-1.549c0-1.086-0.883-1.969-1.969-1.969s-1.969,0.883-1.969,1.969c0,0.633,0.304,1.189,0.768,1.549
	l-3.875,3.877l-3.822-3.811c0.599-0.338,1.008-0.973,1.008-1.709c0-1.086-0.883-1.969-1.969-1.969s-1.969,0.883-1.969,1.969
	c0,0.764,0.441,1.42,1.078,1.746v14.648c0,0.049,0.019,0.09,0.027,0.135c-0.004,0.045-0.022,0.084-0.022,0.129
	c0,2.438,6.754,3.088,10.745,3.088s10.745-0.65,10.745-3.088c0-0.045-0.018-0.084-0.022-0.129c0.009-0.045,0.027-0.086,0.027-0.135
	v-14.555c0.637-0.326,1.078-0.982,1.078-1.746C-278.672,328.521-279.555,327.639-280.641,327.639z M-280.641,329.139
	c0.258,0,0.469,0.211,0.469,0.469c0,0.26-0.21,0.469-0.469,0.469s-0.469-0.209-0.469-0.469
	C-281.109,329.35-280.899,329.139-280.641,329.139z M-281.25,332.986v6.221l-3.118-3.119L-281.25,332.986z M-290.5,347.76
	c-4.104,0-6.994-0.566-8.368-1.102c-0.442-0.172-0.73-0.34-0.848-0.486c0.241-0.299,1.179-0.693,2.727-1.014
	c0.49-0.102,1.047-0.193,1.656-0.275c0.707-0.096,1.492-0.172,2.352-0.225c0.771-0.047,1.594-0.074,2.481-0.074
	c0.875,0,1.689,0.027,2.452,0.072c0.857,0.053,1.64,0.129,2.346,0.221c0.624,0.084,1.192,0.178,1.692,0.281
	c1.547,0.32,2.486,0.715,2.726,1.014c-0.118,0.146-0.405,0.314-0.847,0.486C-283.506,347.193-286.396,347.76-290.5,347.76z
	 M-281.25,343.873l-5.457-5.457l1.276-1.27l4.181,4.182V343.873z M-291.409,343.096l0.898-0.895l0.896,0.893
	c-0.305-0.006-0.603-0.01-0.884-0.01C-290.789,343.084-291.095,343.088-291.409,343.096z M-283.499,343.744
	c-1.202-0.266-2.56-0.438-3.88-0.539l-2.069-2.062l1.678-1.668L-283.499,343.744z M-290.51,340.084l-1.668-1.662l1.678-1.678
	l1.67,1.67L-290.51,340.084z M-291.573,341.143l-2.076,2.064c-1.312,0.102-2.659,0.273-3.852,0.537l4.263-4.262L-291.573,341.143z
	 M-299.75,343.873v-2.545l4.175-4.176l1.275,1.271L-299.75,343.873z M-290.5,329.139c0.258,0,0.469,0.211,0.469,0.469
	c0,0.26-0.21,0.469-0.469,0.469s-0.469-0.209-0.469-0.469C-290.969,329.35-290.758,329.139-290.5,329.139z M-290.5,332.076
	l4.009,4.01l-1.276,1.27l-2.203-2.203c-0.293-0.293-0.768-0.293-1.061,0l-2.209,2.211l-1.275-1.271L-290.5,332.076z
	 M-296.637,336.094l-3.113,3.113v-6.217L-296.637,336.094z M-300.359,329.045c0.258,0,0.469,0.211,0.469,0.469
	c0,0.26-0.21,0.469-0.469,0.469s-0.469-0.209-0.469-0.469C-300.828,329.256-300.618,329.045-300.359,329.045z M-279.928,348.918
	c0.216,0.354,0.104,0.814-0.249,1.031c-1.227,0.75-4.895,1.506-10.323,1.506c-5.345,0-9.135-0.906-10.269-1.477
	c-0.37-0.186-0.519-0.637-0.333-1.006s0.637-0.521,1.007-0.334c0.552,0.279,3.798,1.316,9.594,1.316c5.456,0,8.694-0.77,9.541-1.285
	C-280.607,348.451-280.145,348.564-279.928,348.918z"/>
</svg>
