<?xml version="1.0" encoding="utf-8"?>
<!-- Generator: Adobe Illustrator 16.0.0, SVG Export Plug-In . SVG Version: 6.00 Build 0)  -->
<!DOCTYPE svg PUBLIC "-//W3C//DTD SVG 1.1//EN" "http://www.w3.org/Graphics/SVG/1.1/DTD/svg11.dtd">
<svg version="1.1" id="Layer_1" xmlns="http://www.w3.org/2000/svg" xmlns:xlink="http://www.w3.org/1999/xlink" x="0px" y="0px"
	 width="50px" height="50px" viewBox="34.5 -245.5 50 50" enable-background="new 34.5 -245.5 50 50" xml:space="preserve">
<path d="M69.34-210.654c0,0.414-0.336,0.75-0.75,0.75H50.41c-0.414,0-0.75-0.336-0.75-0.75s0.336-0.75,0.75-0.75h18.18
	C69.004-211.404,69.34-211.068,69.34-210.654z M75.302-223.098l-6.14,9.743c-0.138,0.218-0.377,0.351-0.635,0.351H50.473
	c-0.258,0-0.497-0.133-0.635-0.351l-6.14-9.743c-0.188-0.298-0.143-0.687,0.108-0.934c0.252-0.248,0.642-0.286,0.935-0.096
	l8.253,5.354l5.405-8.132c-0.68-0.386-1.145-1.108-1.145-1.944c0-1.238,1.007-2.246,2.245-2.246s2.245,1.008,2.245,2.246
	c0,0.836-0.465,1.559-1.145,1.944l5.352,8.05l8.312-5.275c0.297-0.188,0.684-0.146,0.932,0.102
	C75.445-223.781,75.488-223.395,75.302-223.098z M58.755-228.85c0,0.41,0.334,0.745,0.745,0.745s0.745-0.335,0.745-0.745
	c0-0.411-0.334-0.746-0.745-0.746S58.755-229.261,58.755-228.85z M50.531-215.069l1.632-2.455l-5.378-3.488L50.531-215.069z
	 M56.818-214.504l-3.396-2.204l-1.465,2.204H56.818z M59.339-214.657l5.347-3.394l-5.186-7.8l-5.247,7.894L59.339-214.657z
	 M61.896-214.504h5.146l-1.527-2.298L61.896-214.504z M72.257-221.08l-5.474,3.475l1.686,2.536L72.257-221.08z"/>
</svg>
