<?xml version="1.0" encoding="utf-8"?>
<!-- Generator: Adobe Illustrator 16.0.0, SVG Export Plug-In . SVG Version: 6.00 Build 0)  -->
<!DOCTYPE svg PUBLIC "-//W3C//DTD SVG 1.1//EN" "http://www.w3.org/Graphics/SVG/1.1/DTD/svg11.dtd">
<svg version="1.1" id="Layer_1" xmlns="http://www.w3.org/2000/svg" xmlns:xlink="http://www.w3.org/1999/xlink" x="0px" y="0px"
	 width="50px" height="50px" viewBox="-105.5 -35.5 50 50" enable-background="new -105.5 -35.5 50 50" xml:space="preserve">
<path d="M-67.568-16.797c-0.201-0.141-0.456-0.175-0.686-0.092l-5.662,2.035l-6.01-7.149c-0.285-0.34-0.863-0.34-1.148,0
	l-6.01,7.149l-5.662-2.035c-0.229-0.083-0.485-0.048-0.686,0.092c-0.2,0.14-0.318,0.369-0.318,0.613v8.987
	c0,0.414,0.336,0.75,0.75,0.75h25c0.414,0,0.75-0.336,0.75-0.75v-8.987C-67.25-16.428-67.369-16.657-67.568-16.797z M-80.126-19.746
	l-6.029,7.172c-0.078,0.092-0.19,0.143-0.306,0.143c-0.045,0-0.091-0.008-0.135-0.023l-5.471-1.967
	c-0.208-0.075-0.316-0.304-0.241-0.512c0.074-0.208,0.305-0.317,0.512-0.241l5.208,1.873l5.85-6.958
	c0.142-0.169,0.395-0.192,0.563-0.049C-80.006-20.167-79.984-19.915-80.126-19.746z M-68-0.742h-0.655v-2.25H-68
	c0.552,0,1-0.448,1-1s-0.448-1-1-1h-25c-0.552,0-1,0.448-1,1s0.448,1,1,1h0.655v2.25H-93c-0.552,0-1,0.448-1,1s0.448,1,1,1h25
	c0.552,0,1-0.448,1-1S-67.448-0.742-68-0.742z M-69.655-0.742h-6.563v-2.25h6.563V-0.742z M-77.218-0.742h-6.563v-2.25h6.563V-0.742
	z M-91.345-2.992h6.563v2.25h-6.563V-2.992z"/>
</svg>
