<?xml version="1.0" encoding="utf-8"?>
<!-- Generator: Adobe Illustrator 16.0.0, SVG Export Plug-In . SVG Version: 6.00 Build 0)  -->
<!DOCTYPE svg PUBLIC "-//W3C//DTD SVG 1.1//EN" "http://www.w3.org/Graphics/SVG/1.1/DTD/svg11.dtd">
<svg version="1.1" id="Layer_1" xmlns="http://www.w3.org/2000/svg" xmlns:xlink="http://www.w3.org/1999/xlink" x="0px" y="0px"
	 width="50px" height="50px" viewBox="-175.5 -175.5 50 50" enable-background="new -175.5 -175.5 50 50" xml:space="preserve">
<path d="M-150.498-155.131c1.7,0,3.083-1.383,3.083-3.083s-1.383-3.083-3.083-3.083s-3.083,1.383-3.083,3.083
	S-152.198-155.131-150.498-155.131z M-150.498-160.297c1.148,0,2.083,0.935,2.083,2.083s-0.935,2.083-2.083,2.083
	s-2.083-0.935-2.083-2.083S-151.646-160.297-150.498-160.297z M-159.19-148.01l-1.666-6.739c-0.037-0.147-0.004-0.303,0.088-0.423
	c0.092-0.121,0.233-0.193,0.385-0.197l0.189-0.002c1.972,0,3.897,0.677,5.568,1.956c0.219,0.168,0.261,0.481,0.093,0.701
	c-0.168,0.219-0.48,0.261-0.701,0.093c-1.362-1.043-2.907-1.638-4.494-1.735l1.51,6.106c0.066,0.268-0.097,0.539-0.365,0.605
	c-0.041,0.01-0.081,0.015-0.121,0.015C-158.93-147.63-159.134-147.782-159.19-148.01z M-137.756-156.381
	c0.066-0.263-0.17-0.556-0.431-0.628c-0.055-0.019-0.11-0.036-0.166-0.05c-4.585-1.147-9.376,0.902-12.156,5.118
	c-2.229-3.358-5.829-5.431-9.599-5.431c-0.852,0-1.704,0.105-2.531,0.312c-0.059,0.015-0.114,0.032-0.25,0.076
	c-0.26,0.073-0.416,0.34-0.35,0.603l3.54,14.167c0.023,0.096,0.078,0.175,0.146,0.239c0.593,1.786,6.077,2.271,9.057,2.271
	c2.979,0,8.461-0.485,9.054-2.271c0.068-0.064,0.123-0.144,0.146-0.239L-137.756-156.381z M-150.065-150.771
	c2.425-4.196,6.907-6.333,11.22-5.377l-3.196,12.791c-1.631-1.186-5.936-1.535-8.455-1.535c-0.366,0-0.772,0.009-1.201,0.024
	c0.013-0.904,0.116-1.807,0.339-2.699C-151.075-148.697-150.64-149.774-150.065-150.771z M-162.151-156.147
	c0.671-0.148,1.357-0.224,2.042-0.224c3.578,0,7.015,2.046,9.033,5.357c-0.55,1.004-0.971,2.08-1.252,3.204
	c-0.248,0.991-0.367,1.992-0.382,2.996c-2.341,0.156-5.031,0.574-6.245,1.458L-162.151-156.147z M-150.497-140.703
	c-5.355,0-8.117-1.117-8.117-1.594s2.762-1.595,8.117-1.595c5.353,0,8.114,1.118,8.114,1.595S-145.144-140.703-150.497-140.703z"/>
</svg>
