<?xml version="1.0" encoding="utf-8"?>
<!-- Generator: Adobe Illustrator 16.0.0, SVG Export Plug-In . SVG Version: 6.00 Build 0)  -->
<!DOCTYPE svg PUBLIC "-//W3C//DTD SVG 1.1//EN" "http://www.w3.org/Graphics/SVG/1.1/DTD/svg11.dtd">
<svg version="1.1" id="Layer_1" xmlns="http://www.w3.org/2000/svg" xmlns:xlink="http://www.w3.org/1999/xlink" x="0px" y="0px"
	 width="50px" height="50px" viewBox="-105.5 -245.5 50 50" enable-background="new -105.5 -245.5 50 50" xml:space="preserve">
<path d="M-66.249-229.197c-0.072-0.125-0.194-0.213-0.336-0.24c-3.454-0.688-7.16-0.015-10.045,1.796l-3.464-4.821
	c-0.188-0.261-0.624-0.261-0.812,0l-3.464,4.821c-2.885-1.81-6.59-2.481-10.045-1.796c-0.142,0.027-0.264,0.115-0.336,0.24
	c-0.072,0.125-0.086,0.275-0.04,0.412l5.092,14.859c1.562-1.224,5.394-1.86,9.2-1.86c3.805,0,7.636,0.637,9.199,1.86l5.092-14.859
	C-66.162-228.922-66.176-229.072-66.249-229.197z M-85.518-224.208c-0.156,0.229-0.468,0.286-0.695,0.131
	c-0.952-0.649-2.056-1.123-3.23-1.389l2.341,7.039c0.087,0.262-0.055,0.545-0.317,0.633c-0.052,0.017-0.105,0.025-0.158,0.025
	c-0.209,0-0.405-0.133-0.475-0.343l-2.608-7.842c-0.055-0.164-0.02-0.345,0.091-0.478c0.11-0.134,0.282-0.202,0.454-0.175
	c1.627,0.23,3.171,0.819,4.464,1.702C-85.421-224.747-85.362-224.437-85.518-224.208z M-80.5-214.786
	c-5.319,0-8.33,1.126-8.849,1.885l0.76,2.216c0.01,0.029,0.038,0.045,0.053,0.071c0.472,1.56,4.384,2.273,8.036,2.273
	c3.651,0,7.563-0.714,8.035-2.273c0.015-0.026,0.043-0.042,0.053-0.071l0.76-2.216C-72.171-213.66-75.182-214.786-80.5-214.786z
	 M-80.5-209.341c-4.674,0-7.084-1.117-7.084-1.594c0-0.478,2.41-1.595,7.084-1.595c4.673,0,7.083,1.117,7.083,1.595
	C-73.417-210.458-75.826-209.341-80.5-209.341z"/>
</svg>
