<?xml version="1.0" encoding="utf-8"?>
<!-- Generator: Adobe Illustrator 16.0.0, SVG Export Plug-In . SVG Version: 6.00 Build 0)  -->
<!DOCTYPE svg PUBLIC "-//W3C//DTD SVG 1.1//EN" "http://www.w3.org/Graphics/SVG/1.1/DTD/svg11.dtd">
<svg version="1.1" id="Layer_1" xmlns="http://www.w3.org/2000/svg" xmlns:xlink="http://www.w3.org/1999/xlink" x="0px" y="0px"
	 width="50px" height="50px" viewBox="-245.5 -315.5 50 50" enable-background="new -245.5 -315.5 50 50" xml:space="preserve">
<path d="M-207.25-280.208c0,0.414-0.336,0.75-0.75,0.75h-25c-0.414,0-0.75-0.336-0.75-0.75s0.336-0.75,0.75-0.75h25
	C-207.586-280.958-207.25-280.623-207.25-280.208z M-207.35-289.857c0.063,0.111,0.1,0.238,0.1,0.37v6.224
	c0,0.414-0.336,0.75-0.75,0.75h-12.428c-0.025,0-0.048-0.01-0.072-0.012c-0.024,0.002-0.047,0.012-0.072,0.012H-233
	c-0.414,0-0.75-0.336-0.75-0.75v-6.224c0-0.132,0.036-0.259,0.1-0.37c-1.399-0.292-2.454-1.533-2.454-3.018
	c0-1.7,1.383-3.083,3.083-3.083s3.083,1.383,3.083,3.083c0,1.41-0.958,2.589-2.252,2.955l3.12,1.563l7.45-7.45
	c-1.136-0.455-1.943-1.562-1.943-2.859c0-1.7,1.383-3.083,3.083-3.083s3.083,1.383,3.083,3.083c0,1.308-0.822,2.421-1.974,2.869
	l7.44,7.44l3.12-1.562c-1.295-0.366-2.252-1.545-2.252-2.955c0-1.7,1.383-3.083,3.083-3.083s3.083,1.383,3.083,3.083
	C-204.896-291.391-205.951-290.149-207.35-289.857z M-210.812-287.24l2.062,2.062v-3.096L-210.812-287.24z M-219.729-284.452
	l6.386-3.198l-6.386-6.386V-284.452z M-222.062-298.667c0,0.873,0.71,1.583,1.583,1.583s1.583-0.71,1.583-1.583
	s-0.71-1.583-1.583-1.583S-222.062-299.54-222.062-298.667z M-227.656-287.65l6.427,3.219v-9.646L-227.656-287.65z M-232.25-288.273
	v3.096l2.062-2.062L-232.25-288.273z M-233.021-291.292c0.873,0,1.583-0.71,1.583-1.583s-0.71-1.583-1.583-1.583
	s-1.583,0.71-1.583,1.583S-233.894-291.292-233.021-291.292z M-223.745-284.013l-5.029-2.519l-2.519,2.519H-223.745z
	 M-217.255-284.013h7.548l-2.519-2.519L-217.255-284.013z M-206.396-292.875c0-0.873-0.71-1.583-1.583-1.583
	s-1.583,0.71-1.583,1.583s0.71,1.583,1.583,1.583S-206.396-292.002-206.396-292.875z"/>
</svg>
