<?xml version="1.0" encoding="utf-8"?>
<!-- Generator: Adobe Illustrator 16.0.0, SVG Export Plug-In . SVG Version: 6.00 Build 0)  -->
<!DOCTYPE svg PUBLIC "-//W3C//DTD SVG 1.1//EN" "http://www.w3.org/Graphics/SVG/1.1/DTD/svg11.dtd">
<svg version="1.1" id="Layer_1" xmlns="http://www.w3.org/2000/svg" xmlns:xlink="http://www.w3.org/1999/xlink" x="0px" y="0px"
	 width="50px" height="50px" viewBox="-105.5 34.5 50 50" enable-background="new -105.5 34.5 50 50" xml:space="preserve">
<path d="M-78.656,59.795c0-1.018-0.827-1.844-1.844-1.844s-1.844,0.826-1.844,1.844c0,1.016,0.827,1.844,1.844,1.844
	S-78.656,60.811-78.656,59.795z M-80.5,60.139c-0.189,0-0.344-0.154-0.344-0.344s0.154-0.344,0.344-0.344s0.344,0.154,0.344,0.344
	S-80.311,60.139-80.5,60.139z M-65.719,51.99c-1.017,0-1.844,0.826-1.844,1.844c0,0.395,0.127,0.758,0.339,1.059l-7.455,5.791
	l-5.059-11.426c0.636-0.293,1.081-0.93,1.081-1.674c0-1.018-0.827-1.844-1.844-1.844s-1.844,0.826-1.844,1.844
	c0,0.744,0.445,1.381,1.081,1.674l-5.04,11.385l-7.473-5.75c0.211-0.301,0.338-0.664,0.338-1.059c0-1.018-0.827-1.844-1.844-1.844
	s-1.844,0.826-1.844,1.844c0,1.016,0.827,1.844,1.844,1.844c0.04,0,0.078-0.01,0.117-0.012l5.305,13.703
	c0.112,0.289,0.39,0.479,0.699,0.479h17.321c0.31,0,0.587-0.189,0.699-0.479l5.305-13.703c0.039,0.002,0.077,0.012,0.117,0.012
	c1.017,0,1.844-0.828,1.844-1.844C-63.875,52.816-64.702,51.99-65.719,51.99z M-80.5,47.24c0.189,0,0.344,0.154,0.344,0.344
	s-0.154,0.344-0.344,0.344s-0.344-0.154-0.344-0.344S-80.689,47.24-80.5,47.24z M-80.5,51.238l4.601,10.395l-4.537,3.523
	l-4.644-3.572L-80.5,51.238z M-95.625,53.834c0-0.189,0.154-0.344,0.344-0.344s0.344,0.154,0.344,0.344s-0.154,0.344-0.344,0.344
	S-95.625,54.023-95.625,53.834z M-86.928,62.055l-2.217,5.008l-3.701-9.562L-86.928,62.055z M-88.074,68.348l2.37-5.352l4.044,3.111
	l-2.884,2.24H-88.074z M-82.099,68.348l1.667-1.295l1.684,1.295H-82.099z M-76.48,68.199l-2.727-2.098l3.934-3.055l2.347,5.301
	h-3.408C-76.375,68.293-76.424,68.244-76.48,68.199z M-71.855,67.062l-2.198-4.965l5.89-4.576L-71.855,67.062z M-65.719,54.178
	c-0.189,0-0.344-0.154-0.344-0.344s0.154-0.344,0.344-0.344s0.344,0.154,0.344,0.344S-65.529,54.178-65.719,54.178z M-71.167,72.51
	c0,0.414-0.336,0.75-0.75,0.75h-17.167c-0.414,0-0.75-0.336-0.75-0.75s0.336-0.75,0.75-0.75h17.167
	C-71.502,71.76-71.167,72.096-71.167,72.51z"/>
</svg>
