<?xml version="1.0" encoding="utf-8"?>
<!-- Generator: Adobe Illustrator 16.0.0, SVG Export Plug-In . SVG Version: 6.00 Build 0)  -->
<!DOCTYPE svg PUBLIC "-//W3C//DTD SVG 1.1//EN" "http://www.w3.org/Graphics/SVG/1.1/DTD/svg11.dtd">
<svg version="1.1" id="Layer_1" xmlns="http://www.w3.org/2000/svg" xmlns:xlink="http://www.w3.org/1999/xlink" x="0px" y="0px"
	 width="50px" height="50px" viewBox="34.5 -105.5 50 50" enable-background="new 34.5 -105.5 50 50" xml:space="preserve">
<path d="M74.281-87.717c-1.017,0-1.844,0.827-1.844,1.844c0,0.395,0.127,0.759,0.34,1.06l-7.456,5.791l-5.059-11.427
	c0.636-0.292,1.081-0.931,1.081-1.674c0-1.017-0.827-1.844-1.844-1.844s-1.844,0.827-1.844,1.844c0,0.743,0.445,1.382,1.081,1.674
	l-5.04,11.385l-7.474-5.75c0.212-0.3,0.339-0.664,0.339-1.059c0-1.017-0.827-1.844-1.844-1.844s-1.844,0.827-1.844,1.844
	s0.827,1.844,1.844,1.844c0.04,0,0.077-0.01,0.116-0.012l5.29,13.663v2.595c0,0.414,0.336,0.75,0.75,0.75h17.25
	c0.414,0,0.75-0.336,0.75-0.75v-2.595l5.29-13.663c0.039,0.002,0.076,0.012,0.116,0.012c1.017,0,1.844-0.827,1.844-1.844
	S75.298-87.717,74.281-87.717z M59.5-92.467c0.189,0,0.344,0.154,0.344,0.344s-0.154,0.344-0.344,0.344s-0.344-0.154-0.344-0.344
	S59.311-92.467,59.5-92.467z M59.5-88.468l4.602,10.394l-2.236,1.737l-1.609-4.109c0.64-0.289,1.088-0.931,1.088-1.677
	c0-1.017-0.827-1.844-1.844-1.844s-1.844,0.827-1.844,1.844c0,0.747,0.448,1.388,1.089,1.678l-1.568,4.059l-2.257-1.736L59.5-88.468
	z M59.5-81.779c-0.189,0-0.344-0.154-0.344-0.344s0.154-0.344,0.344-0.344s0.344,0.154,0.344,0.344S59.689-81.779,59.5-81.779z
	 M59.505-78.252l1.126,2.874l-1.066,0.828l-1.148-0.884L59.505-78.252z M57.901-71.358l1.668-1.296l1.684,1.296H57.901z
	 M60.793-73.605l0.408-0.316l0.353,0.902L60.793-73.605z M58.341-73.6l-0.904,0.703l0.416-1.078L58.341-73.6z M55.235-71.358h-3.31
	l2.37-5.354l2.317,1.783L55.235-71.358z M63.815-71.358l-1.38-3.522l2.291-1.78l2.348,5.303H63.815z M44.375-85.873
	c0-0.189,0.154-0.344,0.344-0.344s0.344,0.154,0.344,0.344s-0.154,0.344-0.344,0.344S44.375-85.684,44.375-85.873z M53.072-77.653
	l-2.217,5.008l-3.702-9.562L53.072-77.653z M67.375-68.533h-15.75v-1.312h15.75V-68.533z M68.145-72.646l-2.197-4.963l5.891-4.576
	L68.145-72.646z M74.281-85.529c-0.189,0-0.344-0.154-0.344-0.344s0.154-0.344,0.344-0.344s0.344,0.154,0.344,0.344
	S74.471-85.529,74.281-85.529z"/>
</svg>
