<?xml version="1.0" encoding="utf-8"?>
<!-- Generator: Adobe Illustrator 16.0.0, SVG Export Plug-In . SVG Version: 6.00 Build 0)  -->
<!DOCTYPE svg PUBLIC "-//W3C//DTD SVG 1.1//EN" "http://www.w3.org/Graphics/SVG/1.1/DTD/svg11.dtd">
<svg version="1.1" id="Layer_1" xmlns="http://www.w3.org/2000/svg" xmlns:xlink="http://www.w3.org/1999/xlink" x="0px" y="0px"
	 width="50px" height="50px" viewBox="104.5 -315.5 50 50" enable-background="new 104.5 -315.5 50 50" xml:space="preserve">
<path d="M145.104-293.845c0-1.7-1.384-3.083-3.084-3.083s-3.083,1.383-3.083,3.083c0,0.911,0.405,1.723,1.035,2.287l-3.888,1.398
	l-5.272-6.271c1.055-0.49,1.791-1.553,1.791-2.79c0-1.7-1.383-3.083-3.083-3.083s-3.083,1.383-3.083,3.083
	c0,1.227,0.725,2.278,1.763,2.774l-5.285,6.286l-3.888-1.398c0.63-0.564,1.035-1.376,1.035-2.287c0-1.7-1.383-3.083-3.083-3.083
	s-3.084,1.383-3.084,3.083c0,1.447,1.007,2.656,2.354,2.986v8.356c0,0.414,0.336,0.75,0.75,0.75h25c0.414,0,0.75-0.336,0.75-0.75
	v-8.356C144.098-291.188,145.104-292.397,145.104-293.845z M129.521-300.803c0.873,0,1.583,0.71,1.583,1.583
	s-0.71,1.583-1.583,1.583s-1.583-0.71-1.583-1.583S128.647-300.803,129.521-300.803z M115.396-293.845
	c0-0.873,0.711-1.583,1.584-1.583s1.583,0.71,1.583,1.583s-0.71,1.583-1.583,1.583S115.396-292.972,115.396-293.845z
	 M141.25-283.252h-23.5v-7.171l5.149,1.852c0.295,0.106,0.626,0.017,0.828-0.224l5.772-6.865l5.772,6.865
	c0.202,0.24,0.534,0.33,0.828,0.224l5.149-1.852V-283.252z M142.021-292.262c-0.873,0-1.583-0.71-1.583-1.583
	s0.71-1.583,1.583-1.583s1.584,0.71,1.584,1.583S142.894-292.262,142.021-292.262z M142.75-279.447c0,0.414-0.336,0.75-0.75,0.75
	h-25c-0.414,0-0.75-0.336-0.75-0.75s0.336-0.75,0.75-0.75h25C142.414-280.197,142.75-279.861,142.75-279.447z"/>
</svg>
