<?xml version="1.0" encoding="utf-8"?>
<!-- Generator: Adobe Illustrator 16.0.0, SVG Export Plug-In . SVG Version: 6.00 Build 0)  -->
<!DOCTYPE svg PUBLIC "-//W3C//DTD SVG 1.1//EN" "http://www.w3.org/Graphics/SVG/1.1/DTD/svg11.dtd">
<svg version="1.1" id="Layer_1" xmlns="http://www.w3.org/2000/svg" xmlns:xlink="http://www.w3.org/1999/xlink" x="0px" y="0px"
	 width="50px" height="50px" viewBox="-105.5 -175.5 50 50" enable-background="new -105.5 -175.5 50 50" xml:space="preserve">
<path d="M-80.498-154.709c1.7,0,3.083-1.383,3.083-3.083s-1.383-3.083-3.083-3.083s-3.083,1.383-3.083,3.083
	S-82.198-154.709-80.498-154.709z M-80.498-159.875c1.148,0,2.083,0.935,2.083,2.083s-0.935,2.083-2.083,2.083
	s-2.083-0.935-2.083-2.083S-81.646-159.875-80.498-159.875z M-84.503-153.743c0.219,0.168,0.261,0.481,0.093,0.701
	s-0.48,0.262-0.701,0.093c-1.362-1.043-2.907-1.638-4.494-1.735l1.51,6.106c0.066,0.268-0.097,0.539-0.365,0.605
	c-0.041,0.01-0.081,0.015-0.121,0.015c-0.225,0-0.429-0.152-0.485-0.38l-1.666-6.739c-0.037-0.147-0.004-0.303,0.088-0.423
	c0.092-0.121,0.233-0.193,0.385-0.197l0.189-0.002C-88.099-155.699-86.174-155.022-84.503-153.743z M-71.298-140.625
	c0,0.276-0.224,0.5-0.5,0.5h-17.4c-0.276,0-0.5-0.224-0.5-0.5s0.224-0.5,0.5-0.5h17.4
	C-71.521-141.125-71.298-140.901-71.298-140.625z M-68.188-157.337c-0.055-0.019-0.11-0.036-0.166-0.05
	c-4.586-1.146-9.377,0.902-12.156,5.118c-2.229-3.358-5.829-5.431-9.599-5.431c-0.852,0-1.704,0.105-2.531,0.312
	c-0.059,0.015-0.114,0.032-0.25,0.076c-0.26,0.073-0.416,0.34-0.35,0.603l3.54,14.167c0.055,0.223,0.255,0.379,0.485,0.379h0.178
	h7.014h10.242c0.229,0,0.43-0.156,0.485-0.379l3.54-14.167C-67.69-156.972-67.927-157.265-68.188-157.337z M-88.824-143.163
	l-3.327-13.312c0.671-0.148,1.357-0.224,2.042-0.224c3.578,0,7.015,2.046,9.033,5.357c-0.55,1.004-0.971,2.08-1.252,3.204
	c-0.411,1.642-0.505,3.312-0.281,4.975H-88.824z M-72.172-143.163h-9.412c-0.23-1.581-0.165-3.171,0.226-4.731
	c0.283-1.131,0.718-2.208,1.293-3.204c2.425-4.196,6.907-6.333,11.22-5.377L-72.172-143.163z"/>
</svg>
