<?xml version="1.0" encoding="utf-8"?>
<!-- Generator: Adobe Illustrator 16.0.0, SVG Export Plug-In . SVG Version: 6.00 Build 0)  -->
<!DOCTYPE svg PUBLIC "-//W3C//DTD SVG 1.1//EN" "http://www.w3.org/Graphics/SVG/1.1/DTD/svg11.dtd">
<svg version="1.1" id="Layer_1" xmlns="http://www.w3.org/2000/svg" xmlns:xlink="http://www.w3.org/1999/xlink" x="0px" y="0px"
	 width="50px" height="50px" viewBox="314.5 104.5 50 50" enable-background="new 314.5 104.5 50 50" xml:space="preserve">
<g>
	<path d="M354.572,123.448c-1.191,0-2.161,0.968-2.161,2.158c0,0.577,0.231,1.1,0.603,1.488l-2.298,3.646l-10.466-7.711v-1.994
		h0.822c0.414,0,0.75-0.336,0.75-0.75s-0.336-0.75-0.75-0.75h-0.822v-0.879c0-0.414-0.336-0.75-0.75-0.75s-0.75,0.336-0.75,0.75
		v0.879h-0.822c-0.414,0-0.75,0.336-0.75,0.75s0.336,0.75,0.75,0.75h0.822v1.953l-10.489,7.713l-2.273-3.606
		c0.371-0.388,0.602-0.911,0.602-1.488c0-1.19-0.968-2.158-2.158-2.158c-1.191,0-2.161,0.968-2.161,2.158s0.97,2.159,2.161,2.159
		c0.066,0,0.128-0.014,0.193-0.02l5.738,9.104c0.021,0.034,0.06,0.051,0.086,0.081c0.422,2.548,8.146,2.631,9.052,2.631
		s8.629-0.083,9.052-2.631c0.026-0.03,0.064-0.047,0.087-0.082l5.737-9.104c0.065,0.006,0.129,0.02,0.196,0.02
		c1.19,0,2.158-0.969,2.158-2.159S355.763,123.448,354.572,123.448z M324.431,126.266c-0.364,0-0.661-0.296-0.661-0.659
		s0.297-0.658,0.661-0.658c0.363,0,0.658,0.295,0.658,0.658S324.794,126.266,324.431,126.266z M346.116,137.2
		c-1.216,0.434-3.488,0.862-6.616,0.862s-5.4-0.429-6.616-0.862c-0.473-0.168-0.801-0.337-0.936-0.481
		c0.292-0.312,1.41-0.731,3.191-1.019c1.176-0.189,2.634-0.322,4.36-0.322s3.185,0.133,4.36,0.322
		c1.781,0.287,2.899,0.707,3.191,1.019C346.917,136.863,346.589,137.032,346.116,137.2z M347.779,135.399
		c-2.084-1.467-7.529-1.521-8.279-1.521s-6.194,0.055-8.279,1.521l-2.158-3.425l10.41-7.654l10.441,7.693L347.779,135.399z
		 M354.572,126.266c-0.364,0-0.661-0.296-0.661-0.659s0.297-0.658,0.661-0.658c0.363,0,0.658,0.295,0.658,0.658
		S354.936,126.266,354.572,126.266z"/>
	<path d="M336.966,130.618c0,1.396,1.138,2.533,2.535,2.533c1.396,0,2.533-1.137,2.533-2.533c0-1.397-1.137-2.534-2.533-2.534
		C338.104,128.084,336.966,129.221,336.966,130.618z M339.501,129.584c0.569,0,1.033,0.464,1.033,1.034
		c0,0.569-0.464,1.033-1.033,1.033c-0.57,0-1.035-0.464-1.035-1.033C338.466,130.048,338.931,129.584,339.501,129.584z"/>
</g>
</svg>
