<?xml version="1.0" encoding="utf-8"?>
<!-- Generator: Adobe Illustrator 16.0.0, SVG Export Plug-In . SVG Version: 6.00 Build 0)  -->
<!DOCTYPE svg PUBLIC "-//W3C//DTD SVG 1.1//EN" "http://www.w3.org/Graphics/SVG/1.1/DTD/svg11.dtd">
<svg version="1.1" id="Layer_1" xmlns="http://www.w3.org/2000/svg" xmlns:xlink="http://www.w3.org/1999/xlink" x="0px" y="0px"
	 width="50px" height="50px" viewBox="314.5 34.5 50 50" enable-background="new 314.5 34.5 50 50" xml:space="preserve">
<path d="M351.328,52.386c0-1.086-0.883-1.969-1.969-1.969s-1.969,0.883-1.969,1.969c0,0.71,0.381,1.328,0.945,1.674l-3.765,3.745
	l-4.321-4.321v-2.91h1.5c0.414,0,0.75-0.336,0.75-0.75s-0.336-0.75-0.75-0.75h-1.5v-1.75c0-0.414-0.336-0.75-0.75-0.75
	s-0.75,0.336-0.75,0.75v1.75h-1.5c-0.414,0-0.75,0.336-0.75,0.75s0.336,0.75,0.75,0.75h1.5v2.91l-4.327,4.327L330.602,54
	c0.599-0.339,1.008-0.973,1.008-1.708c0-1.086-0.883-1.969-1.969-1.969s-1.969,0.883-1.969,1.969c0,0.764,0.441,1.42,1.078,1.746
	v14.648c0,0.414,0.336,0.75,0.75,0.75h5.056c0.043,0.008,0.087,0.012,0.132,0.012h0.002l14.811-0.012c0.414,0,0.75-0.336,0.75-0.75
	V54.132C350.887,53.806,351.328,53.149,351.328,52.386z M349.359,51.917c0.259,0,0.469,0.21,0.469,0.469s-0.21,0.469-0.469,0.469
	s-0.469-0.21-0.469-0.469S349.101,51.917,349.359,51.917z M344.04,59.395c0.293,0.293,0.767,0.294,1.06,0.001l3.65-3.632V66.65
	l-8.5-8.501v-2.545L344.04,59.395z M340.25,60.271l7.666,7.667l-7.666,0.006V60.271z M334.954,59.4l3.796-3.796v2.545l-8.5,8.501
	V55.767l3.645,3.635C334.188,59.692,334.662,59.693,334.954,59.4z M329.641,51.823c0.259,0,0.469,0.21,0.469,0.469
	s-0.21,0.469-0.469,0.469s-0.469-0.21-0.469-0.469S329.382,51.823,329.641,51.823z M334.699,67.937h-3.614l7.665-7.666v7.675
	l-3.921,0.003C334.786,67.94,334.743,67.937,334.699,67.937z M350.165,71.677c0,0.414-0.336,0.75-0.75,0.75h-20
	c-0.414,0-0.75-0.336-0.75-0.75s0.336-0.75,0.75-0.75h20C349.829,70.927,350.165,71.263,350.165,71.677z"/>
</svg>
