<?xml version="1.0" encoding="utf-8"?>
<!-- Generator: Adobe Illustrator 16.0.0, SVG Export Plug-In . SVG Version: 6.00 Build 0)  -->
<!DOCTYPE svg PUBLIC "-//W3C//DTD SVG 1.1//EN" "http://www.w3.org/Graphics/SVG/1.1/DTD/svg11.dtd">
<svg version="1.1" id="Layer_1" xmlns="http://www.w3.org/2000/svg" xmlns:xlink="http://www.w3.org/1999/xlink" x="0px" y="0px"
	 width="50px" height="50px" viewBox="-245.5 34.5 50 50" enable-background="new -245.5 34.5 50 50" xml:space="preserve">
<path d="M-206.037,53.262c-0.269-0.202-0.639-0.2-0.905,0.004l-7.771,5.933l-5.101-11.525c-0.24-0.543-1.131-0.543-1.372,0
	l-5.16,11.656l-7.704-6.058c-0.266-0.208-0.638-0.215-0.909-0.013c-0.272,0.2-0.375,0.559-0.253,0.873l5.352,13.828
	c0.111,0.289,0.39,0.479,0.699,0.479h17.322c0.31,0,0.588-0.19,0.699-0.479l5.352-13.828
	C-205.667,53.818-205.769,53.463-206.037,53.262z M-212.353,66.939h-16.294l-1.146-2.963h6.533c0.423,1.117,1.497,1.918,2.76,1.918
	s2.337-0.801,2.76-1.918h6.534L-212.353,66.939z M-221.959,62.936c0-0.805,0.654-1.459,1.459-1.459s1.459,0.654,1.459,1.459
	s-0.654,1.459-1.459,1.459S-221.959,63.74-221.959,62.936z M-210.626,62.477h-6.961c-0.223-1.413-1.438-2.5-2.913-2.5
	s-2.69,1.087-2.913,2.5h-6.961l-2.452-6.335l6.312,4.964c0.182,0.142,0.419,0.196,0.645,0.138c0.225-0.056,0.411-0.212,0.505-0.424
	l4.865-10.99l4.8,10.846c0.093,0.21,0.277,0.366,0.5,0.423c0.221,0.056,0.459,0.01,0.641-0.131l6.412-4.895L-210.626,62.477z
	 M-211.167,70.985c0,0.414-0.336,0.75-0.75,0.75h-17.167c-0.414,0-0.75-0.336-0.75-0.75s0.336-0.75,0.75-0.75h17.167
	C-211.502,70.235-211.167,70.571-211.167,70.985z"/>
</svg>
