<?xml version="1.0" encoding="utf-8"?>
<!-- Generator: Adobe Illustrator 16.0.0, SVG Export Plug-In . SVG Version: 6.00 Build 0)  -->
<!DOCTYPE svg PUBLIC "-//W3C//DTD SVG 1.1//EN" "http://www.w3.org/Graphics/SVG/1.1/DTD/svg11.dtd">
<svg version="1.1" id="Layer_1" xmlns="http://www.w3.org/2000/svg" xmlns:xlink="http://www.w3.org/1999/xlink" x="0px" y="0px"
	 width="50px" height="50px" viewBox="-175.5 -315.5 50 50" enable-background="new -175.5 -315.5 50 50" xml:space="preserve">
<path d="M-134.896-294.166c0-1.7-1.383-3.083-3.083-3.083s-3.083,1.383-3.083,3.083c0,1.183,0.676,2.199,1.655,2.716l-4.541,3.284
	l-5.601-8.077c1.244-0.397,2.153-1.55,2.153-2.924c0-1.7-1.383-3.083-3.083-3.083s-3.083,1.383-3.083,3.083
	c0,1.361,0.893,2.506,2.119,2.914l-5.608,8.087l-4.542-3.284c0.979-0.517,1.656-1.534,1.656-2.716c0-1.7-1.383-3.083-3.083-3.083
	s-3.083,1.383-3.083,3.083c0,1.448,1.006,2.657,2.354,2.987v8.625c0,0.414,0.336,0.75,0.75,0.75h12.428
	c0.025,0,0.048-0.009,0.072-0.012c0.024,0.002,0.047,0.012,0.072,0.012H-138c0.414,0,0.75-0.336,0.75-0.75v-8.625
	C-135.902-291.509-134.896-292.718-134.896-294.166z M-152.062-299.167c0-0.873,0.71-1.583,1.583-1.583s1.583,0.71,1.583,1.583
	s-0.71,1.583-1.583,1.583S-152.062-298.293-152.062-299.167z M-150.5-294.982l5.336,7.695l-5.336,3.859l-5.336-3.859L-150.5-294.982
	z M-164.604-294.166c0-0.873,0.71-1.583,1.583-1.583s1.583,0.71,1.583,1.583s-0.71,1.583-1.583,1.583
	S-164.604-293.293-164.604-294.166z M-162.25-283.305v-6.769l9.361,6.769H-162.25z M-138.75-283.305h-9.361l9.361-6.769V-283.305z
	 M-137.979-292.583c-0.873,0-1.583-0.71-1.583-1.583s0.71-1.583,1.583-1.583s1.583,0.71,1.583,1.583
	S-137.106-292.583-137.979-292.583z M-137.25-279.5c0,0.414-0.336,0.75-0.75,0.75h-25c-0.414,0-0.75-0.336-0.75-0.75
	s0.336-0.75,0.75-0.75h25C-137.586-280.25-137.25-279.914-137.25-279.5z"/>
</svg>
