<?xml version="1.0" encoding="utf-8"?>
<!-- Generator: Adobe Illustrator 16.0.0, SVG Export Plug-In . SVG Version: 6.00 Build 0)  -->
<!DOCTYPE svg PUBLIC "-//W3C//DTD SVG 1.1//EN" "http://www.w3.org/Graphics/SVG/1.1/DTD/svg11.dtd">
<svg version="1.1" id="Layer_1" xmlns="http://www.w3.org/2000/svg" xmlns:xlink="http://www.w3.org/1999/xlink" x="0px" y="0px"
	 width="50px" height="50px" viewBox="104.5 -315.5 50 50" enable-background="new 104.5 -315.5 50 50" xml:space="preserve">
<path d="M131.75-284.085c0,0.276-0.224,0.5-0.5,0.5h-3c-0.276,0-0.5-0.224-0.5-0.5s0.224-0.5,0.5-0.5h3
	C131.526-284.585,131.75-284.362,131.75-284.085z M142.92-296.168l-5.815,14.714c-0.075,0.191-0.26,0.316-0.465,0.316H122.36
	c-0.205,0-0.39-0.125-0.465-0.316l-5.815-14.714c-0.055-0.138-0.045-0.293,0.026-0.423c0.07-0.13,0.195-0.222,0.342-0.251
	c2.632-0.523,5.443-0.21,7.872,0.866c0.191,0.085,0.311,0.282,0.296,0.491c-0.015,0.21-0.159,0.388-0.36,0.446
	c-0.96,0.276-1.631,1.161-1.631,2.15c0,1.241,1.01,2.25,2.25,2.25s2.25-1.009,2.25-2.25c0-0.728-0.358-1.415-0.959-1.837
	c-0.109-0.077-0.184-0.194-0.206-0.326c-0.022-0.132,0.009-0.267,0.087-0.375l3.047-4.24c0.188-0.261,0.625-0.261,0.812,0
	l3.047,4.24c0.078,0.108,0.109,0.244,0.087,0.375c-0.022,0.131-0.097,0.249-0.206,0.326c-0.601,0.422-0.959,1.109-0.959,1.837
	c0,1.241,1.01,2.25,2.25,2.25s2.25-1.009,2.25-2.25c0-0.99-0.671-1.874-1.631-2.15c-0.201-0.058-0.346-0.236-0.36-0.446
	c-0.015-0.209,0.104-0.406,0.296-0.491c2.427-1.076,5.238-1.39,7.872-0.866c0.146,0.029,0.271,0.121,0.342,0.251
	C142.965-296.461,142.975-296.306,142.92-296.168z M141.764-295.964c-1.897-0.279-3.861-0.1-5.666,0.508
	c0.785,0.602,1.277,1.545,1.277,2.567c0,1.792-1.458,3.25-3.25,3.25s-3.25-1.458-3.25-3.25c0-0.884,0.364-1.725,0.994-2.333
	l-2.369-3.297l-2.369,3.297c0.63,0.607,0.994,1.449,0.994,2.333c0,1.792-1.458,3.25-3.25,3.25s-3.25-1.458-3.25-3.25
	c0-1.022,0.492-1.966,1.277-2.567c-1.806-0.608-3.771-0.787-5.666-0.508l4.594,11.624c0.088-0.144,0.239-0.245,0.42-0.245h3
	c0.276,0,0.5,0.224,0.5,0.5s-0.224,0.5-0.5,0.5h-3c-0.047,0-0.089-0.015-0.133-0.027l0.583,1.474h13.6l0.583-1.474
	c-0.044,0.012-0.086,0.027-0.133,0.027h-2.5c-0.276,0-0.5-0.224-0.5-0.5s0.224-0.5,0.5-0.5h2.5c0.181,0,0.332,0.101,0.42,0.245
	L141.764-295.964z M129.986-291.689c0.063-0.269-0.104-0.538-0.372-0.601c-0.271-0.061-0.538,0.104-0.601,0.373
	c-0.453,1.931-2.155,3.279-4.139,3.279c-1.225,0-2.391-0.531-3.2-1.456c-0.182-0.209-0.498-0.229-0.705-0.047
	c-0.208,0.182-0.229,0.498-0.047,0.706c0.999,1.143,2.439,1.798,3.952,1.798C127.325-287.638,129.427-289.304,129.986-291.689z"/>
</svg>
