<?xml version="1.0" encoding="utf-8"?>
<!-- Generator: Adobe Illustrator 16.0.0, SVG Export Plug-In . SVG Version: 6.00 Build 0)  -->
<!DOCTYPE svg PUBLIC "-//W3C//DTD SVG 1.1//EN" "http://www.w3.org/Graphics/SVG/1.1/DTD/svg11.dtd">
<svg version="1.1" id="Layer_1" xmlns="http://www.w3.org/2000/svg" xmlns:xlink="http://www.w3.org/1999/xlink" x="0px" y="0px"
	 width="50px" height="50px" viewBox="174.5 -175.5 50 50" enable-background="new 174.5 -175.5 50 50" xml:space="preserve">
<path d="M212-139.572h-25c-0.414,0-0.75-0.336-0.75-0.75s0.336-0.75,0.75-0.75h25c0.414,0,0.75,0.336,0.75,0.75
	S212.414-139.572,212-139.572z M212.75-152.364v8.987c0,0.414-0.336,0.75-0.75,0.75h-25c-0.414,0-0.75-0.336-0.75-0.75v-8.987
	c0-0.244,0.119-0.473,0.318-0.613s0.454-0.175,0.686-0.092l5.66,2.035l3.609-4.292c-0.543-0.663-0.844-1.488-0.844-2.352
	c0-2.068,1.683-3.75,3.75-3.75s3.75,1.683,3.75,3.75c0,0.821-0.276,1.617-0.775,2.267l3.68,4.377l5.662-2.035
	c0.231-0.083,0.487-0.048,0.686,0.092C212.631-152.837,212.75-152.608,212.75-152.364z M193.844-148.754l4.059-4.833
	c0.142-0.169,0.12-0.421-0.05-0.563c-0.168-0.143-0.422-0.12-0.563,0.049l-3.879,4.62l-5.208-1.873
	c-0.209-0.076-0.438,0.033-0.512,0.241c-0.075,0.208,0.033,0.437,0.24,0.512l5.471,1.967c0.045,0.016,0.091,0.023,0.136,0.023
	C193.653-148.611,193.766-148.662,193.844-148.754z M201.879-148.669c0-0.276-0.224-0.5-0.5-0.5H200v-1.409
	c0-0.276-0.224-0.5-0.5-0.5s-0.5,0.224-0.5,0.5v1.409h-1.379c-0.276,0-0.5,0.224-0.5,0.5s0.224,0.5,0.5,0.5H199v3.258
	c0,0.276,0.224,0.5,0.5,0.5s0.5-0.224,0.5-0.5v-3.258h1.379C201.655-148.169,201.879-148.393,201.879-148.669z"/>
</svg>
