<?xml version="1.0" encoding="utf-8"?>
<!-- Generator: Adobe Illustrator 16.0.0, SVG Export Plug-In . SVG Version: 6.00 Build 0)  -->
<!DOCTYPE svg PUBLIC "-//W3C//DTD SVG 1.1//EN" "http://www.w3.org/Graphics/SVG/1.1/DTD/svg11.dtd">
<svg version="1.1" id="Layer_1" xmlns="http://www.w3.org/2000/svg" xmlns:xlink="http://www.w3.org/1999/xlink" x="0px" y="0px"
	 width="50px" height="50px" viewBox="174.5 -35.5 50 50" enable-background="new 174.5 -35.5 50 50" xml:space="preserve">
<path d="M212,0.632h-0.654v-2.25H212c0.553,0,1-0.447,1-1c0-0.552-0.447-1-1-1h-25c-0.553,0-1,0.448-1,1c0,0.553,0.447,1,1,1h0.654
	v2.25H187c-0.553,0-1,0.448-1,1c0,0.553,0.447,1,1,1h25c0.553,0,1-0.447,1-1C213,1.08,212.553,0.632,212,0.632z M210.346,0.632
	h-6.564v-2.25h6.564V0.632z M202.781,0.632h-6.562v-2.25h6.562V0.632z M188.654-1.618h6.564v2.25h-6.564V-1.618z M212.432-15.181
	c-0.198-0.141-0.453-0.176-0.686-0.093l-5.662,2.035l-3.68-4.377c0.499-0.649,0.775-1.445,0.775-2.267c0-2.067-1.683-3.75-3.75-3.75
	s-3.75,1.683-3.75,3.75c0,0.863,0.301,1.688,0.844,2.352l-3.609,4.292l-5.66-2.035c-0.23-0.083-0.485-0.048-0.686,0.093
	c-0.199,0.14-0.318,0.369-0.318,0.613v8.987c0,0.414,0.336,0.75,0.75,0.75h25c0.414,0,0.75-0.336,0.75-0.75v-8.987
	C212.75-14.812,212.631-15.041,212.432-15.181z M193.537-10.815c-0.045,0-0.091-0.008-0.136-0.023l-5.471-1.967
	c-0.207-0.074-0.315-0.304-0.24-0.512c0.074-0.208,0.301-0.317,0.512-0.241l5.208,1.873l3.879-4.62
	c0.142-0.169,0.396-0.19,0.563-0.049c0.17,0.143,0.191,0.395,0.05,0.563l-4.059,4.833C193.766-10.865,193.653-10.815,193.537-10.815
	z M201.379-10.373H200v3.258c0,0.276-0.224,0.5-0.5,0.5s-0.5-0.224-0.5-0.5v-3.258h-1.379c-0.276,0-0.5-0.224-0.5-0.5
	s0.224-0.5,0.5-0.5H199v-1.409c0-0.276,0.224-0.5,0.5-0.5s0.5,0.224,0.5,0.5v1.409h1.379c0.276,0,0.5,0.224,0.5,0.5
	S201.655-10.373,201.379-10.373z"/>
</svg>
