<?xml version="1.0" encoding="utf-8"?>
<!-- Generator: Adobe Illustrator 16.0.0, SVG Export Plug-In . SVG Version: 6.00 Build 0)  -->
<!DOCTYPE svg PUBLIC "-//W3C//DTD SVG 1.1//EN" "http://www.w3.org/Graphics/SVG/1.1/DTD/svg11.dtd">
<svg version="1.1" id="Layer_1" xmlns="http://www.w3.org/2000/svg" xmlns:xlink="http://www.w3.org/1999/xlink" x="0px" y="0px"
	 width="50px" height="50px" viewBox="-245.5 -35.5 50 50" enable-background="new -245.5 -35.5 50 50" xml:space="preserve">
<path d="M-208.672-18c0-1.085-0.883-1.969-1.969-1.969s-1.969,0.883-1.969,1.969c0,0.71,0.381,1.328,0.946,1.674l-3.765,3.746
	l-3.871-3.871c0.463-0.361,0.768-0.917,0.768-1.549c0-1.085-0.883-1.969-1.969-1.969s-1.969,0.883-1.969,1.969
	c0,0.631,0.304,1.188,0.768,1.549l-3.875,3.875l-3.822-3.811c0.599-0.338,1.008-0.973,1.008-1.708c0-1.085-0.883-1.969-1.969-1.969
	s-1.969,0.883-1.969,1.969c0,0.763,0.441,1.419,1.078,1.746V-1.7c0,0.414,0.336,0.75,0.75,0.75h5.052
	c0.045,0.008,0.09,0.012,0.135,0.012s0.09-0.004,0.135-0.012h14.677c0.414,0,0.75-0.336,0.75-0.75v-14.555
	C-209.113-16.581-208.672-17.237-208.672-18z M-210.641-18.469c0.258,0,0.469,0.21,0.469,0.469s-0.21,0.469-0.469,0.469
	s-0.469-0.21-0.469-0.469S-210.899-18.469-210.641-18.469z M-211.25-14.621v6.219l-3.117-3.117L-211.25-14.621z M-220.5-18.469
	c0.258,0,0.469,0.21,0.469,0.469s-0.21,0.469-0.469,0.469s-0.469-0.21-0.469-0.469S-220.758-18.469-220.5-18.469z M-220.5-15.531
	l4.009,4.009l-4.019,3.999l-4.005-3.993L-220.5-15.531z M-226.638-11.515l-3.112,3.112v-6.216L-226.638-11.515z M-230.359-18.562
	c0.258,0,0.469,0.21,0.469,0.469s-0.21,0.469-0.469,0.469s-0.469-0.21-0.469-0.469S-230.618-18.562-230.359-18.562z M-225.61-2.45
	h-4.14v-3.832l4.175-4.175l4.002,3.99L-225.61-2.45z M-223.483-2.45l2.972-2.957l2.966,2.957H-223.483z M-215.421-2.45l-4.027-4.015
	l4.017-3.997l4.181,4.181v3.832H-215.421z"/>
</svg>
