<?xml version="1.0" encoding="utf-8"?>
<!-- Generator: Adobe Illustrator 16.0.0, SVG Export Plug-In . SVG Version: 6.00 Build 0)  -->
<!DOCTYPE svg PUBLIC "-//W3C//DTD SVG 1.1//EN" "http://www.w3.org/Graphics/SVG/1.1/DTD/svg11.dtd">
<svg version="1.1" id="Layer_1" xmlns="http://www.w3.org/2000/svg" xmlns:xlink="http://www.w3.org/1999/xlink" x="0px" y="0px"
	 width="50px" height="50px" viewBox="174.5 -315.5 50 50" enable-background="new 174.5 -315.5 50 50" xml:space="preserve">
<path d="M212.894-297.5c-0.07-0.13-0.195-0.222-0.342-0.251c-2.633-0.523-5.444-0.21-7.872,0.866
	c-0.191,0.085-0.311,0.282-0.296,0.491c0.015,0.21,0.159,0.389,0.36,0.446c0.96,0.276,1.631,1.161,1.631,2.15
	c0,1.241-1.01,2.25-2.25,2.25s-2.25-1.009-2.25-2.25c0-0.728,0.358-1.414,0.959-1.837c0.109-0.077,0.184-0.194,0.206-0.325
	c0.022-0.132-0.009-0.268-0.087-0.376l-3.047-4.24c-0.188-0.261-0.625-0.261-0.812,0l-3.047,4.24
	c-0.078,0.108-0.109,0.244-0.087,0.376c0.022,0.131,0.097,0.248,0.206,0.325c0.601,0.423,0.959,1.109,0.959,1.837
	c0,1.241-1.01,2.25-2.25,2.25s-2.25-1.009-2.25-2.25c0-0.989,0.671-1.874,1.631-2.15c0.201-0.058,0.346-0.236,0.36-0.446
	c0.015-0.209-0.104-0.406-0.296-0.491c-2.428-1.076-5.241-1.39-7.872-0.866c-0.146,0.029-0.271,0.121-0.342,0.251
	c-0.071,0.13-0.081,0.285-0.026,0.423l5.779,14.622l0.036,0.092c0,0.001,0.001,0.001,0.001,0.002
	c0.51,1.459,4.171,2.132,7.604,2.132s7.094-0.673,7.604-2.132c0-0.001,0.001-0.001,0.001-0.002l0.036-0.092l5.779-14.622
	C212.975-297.215,212.965-297.37,212.894-297.5z M206.179-282.711c0,0.166-0.321,0.416-0.955,0.664
	c-1.054,0.412-2.973,0.817-5.724,0.817s-4.67-0.405-5.724-0.817c-0.634-0.248-0.955-0.498-0.955-0.664
	c0-0.091,0.119-0.209,0.308-0.336c0.734-0.492,2.865-1.146,6.371-1.146s5.637,0.654,6.371,1.146
	C206.06-282.92,206.179-282.802,206.179-282.711z M206.578-283.751c-1.244-0.983-4.241-1.442-7.078-1.442s-5.834,0.459-7.078,1.442
	l-5.186-13.121c1.896-0.279,3.861-0.101,5.666,0.508c-0.785,0.602-1.277,1.546-1.277,2.567c0,1.792,1.458,3.25,3.25,3.25
	s3.25-1.458,3.25-3.25c0-0.884-0.364-1.725-0.994-2.332l2.369-3.297l2.369,3.297c-0.63,0.607-0.994,1.448-0.994,2.332
	c0,1.792,1.458,3.25,3.25,3.25s3.25-1.458,3.25-3.25c0-1.021-0.492-1.966-1.277-2.567c1.805-0.608,3.769-0.787,5.666-0.508
	L206.578-283.751z M199.986-292.598c-0.56,2.386-2.661,4.051-5.111,4.051c-1.513,0-2.953-0.655-3.952-1.798
	c-0.183-0.208-0.161-0.523,0.047-0.705c0.207-0.182,0.522-0.162,0.705,0.047c0.81,0.926,1.976,1.456,3.2,1.456
	c1.983,0,3.686-1.349,4.139-3.279c0.062-0.268,0.33-0.434,0.601-0.372C199.883-293.136,200.05-292.866,199.986-292.598z"/>
</svg>
