<?xml version="1.0" encoding="utf-8"?>
<!-- Generator: Adobe Illustrator 16.0.0, SVG Export Plug-In . SVG Version: 6.00 Build 0)  -->
<!DOCTYPE svg PUBLIC "-//W3C//DTD SVG 1.1//EN" "http://www.w3.org/Graphics/SVG/1.1/DTD/svg11.dtd">
<svg version="1.1" id="Layer_1" xmlns="http://www.w3.org/2000/svg" xmlns:xlink="http://www.w3.org/1999/xlink" x="0px" y="0px"
	 width="50px" height="50px" viewBox="-35.5 174.5 50 50" enable-background="new -35.5 174.5 50 50" xml:space="preserve">
<g>
	<g>
		<path d="M-0.524,202.396c-0.192,0-0.384-0.073-0.53-0.22l-9.445-9.444l-9.445,9.444c-0.293,0.293-0.768,0.293-1.061,0
			s-0.293-0.768,0-1.061l9.976-9.975c0.293-0.293,0.768-0.293,1.061,0l9.976,9.975c0.293,0.293,0.293,0.768,0,1.061
			C-0.141,202.323-0.333,202.396-0.524,202.396z"/>
	</g>
	<g>
		<g>
			<path d="M-0.641,187.565c-1.085,0-1.969-0.883-1.969-1.969s0.883-1.969,1.969-1.969s1.969,0.883,1.969,1.969
				S0.445,187.565-0.641,187.565z M-0.641,185.128c-0.258,0-0.469,0.21-0.469,0.469s0.21,0.469,0.469,0.469s0.469-0.21,0.469-0.469
				S-0.382,185.128-0.641,185.128z"/>
		</g>
		<g>
			<path d="M-20.359,187.472c-1.085,0-1.969-0.883-1.969-1.969s0.883-1.969,1.969-1.969s1.969,0.883,1.969,1.969
				S-19.274,187.472-20.359,187.472z M-20.359,185.034c-0.258,0-0.469,0.21-0.469,0.469s0.21,0.469,0.469,0.469
				s0.469-0.21,0.469-0.469S-20.101,185.034-20.359,185.034z"/>
		</g>
		<g>
			<path d="M-15.312,202.659c-0.047,0-0.093-0.004-0.138-0.013h-5.05c-0.414,0-0.75-0.336-0.75-0.75v-14.725
				c0-0.303,0.183-0.576,0.462-0.692c0.278-0.117,0.602-0.053,0.817,0.161l4.394,4.381l4.547-4.547
				c0.141-0.141,0.332-0.22,0.53-0.22l0,0c0.199,0,0.39,0.079,0.53,0.22l4.542,4.542l4.399-4.376
				c0.214-0.215,0.536-0.279,0.817-0.161c0.28,0.116,0.462,0.39,0.462,0.692v14.725c0,0.414-0.336,0.75-0.75,0.75l-14.81,0.013
				C-15.31,202.659-15.312,202.659-15.312,202.659z M-19.75,201.146h4.449c0.046,0,0.091,0.004,0.135,0.012l13.916-0.012v-12.171
				l-3.651,3.632c-0.292,0.291-0.767,0.292-1.059-0.001l-4.54-4.541l-4.546,4.546c-0.292,0.293-0.767,0.292-1.06,0.001l-3.645-3.634
				V201.146z"/>
		</g>
	</g>
	<g>
		<path d="M-10.5,202.284c-0.414,0-0.75-0.336-0.75-0.75v-21c0-0.414,0.336-0.75,0.75-0.75s0.75,0.336,0.75,0.75v21
			C-9.75,201.948-10.086,202.284-10.5,202.284z"/>
	</g>
	<g>
		<path d="M-8.25,183.784h-4.5c-0.414,0-0.75-0.336-0.75-0.75s0.336-0.75,0.75-0.75h4.5c0.414,0,0.75,0.336,0.75,0.75
			S-7.836,183.784-8.25,183.784z"/>
	</g>
</g>
<g>
	<ellipse fill="#FFFFFF" cx="-10.5" cy="202.159" rx="9.995" ry="2.338"/>
	<path d="M-10.5,205.247c-3.991,0-10.745-0.65-10.745-3.088s6.754-3.088,10.745-3.088s10.745,0.65,10.745,3.088
		S-6.509,205.247-10.5,205.247z M-19.716,202.159c0.484,0.601,3.792,1.588,9.216,1.588c5.424,0,8.732-0.987,9.216-1.588
		c-0.484-0.601-3.792-1.588-9.216-1.588C-15.924,200.571-19.231,201.559-19.716,202.159z"/>
</g>
</svg>
