<?xml version="1.0" encoding="utf-8"?>
<!-- Generator: Adobe Illustrator 16.0.0, SVG Export Plug-In . SVG Version: 6.00 Build 0)  -->
<!DOCTYPE svg PUBLIC "-//W3C//DTD SVG 1.1//EN" "http://www.w3.org/Graphics/SVG/1.1/DTD/svg11.dtd">
<svg version="1.1" id="Layer_1" xmlns="http://www.w3.org/2000/svg" xmlns:xlink="http://www.w3.org/1999/xlink" x="0px" y="0px"
	 width="50px" height="50px" viewBox="104.5 -105.5 50 50" enable-background="new 104.5 -105.5 50 50" xml:space="preserve">
<path d="M131.344-79.926c0-1.017-0.827-1.844-1.844-1.844s-1.844,0.827-1.844,1.844s0.827,1.844,1.844,1.844
	S131.344-78.909,131.344-79.926z M129.5-79.582c-0.189,0-0.344-0.154-0.344-0.344s0.154-0.344,0.344-0.344s0.344,0.154,0.344,0.344
	S129.689-79.582,129.5-79.582z M144.281-87.73c-1.017,0-1.844,0.827-1.844,1.844c0,0.396,0.127,0.76,0.34,1.061l-7.456,5.791
	l-5.059-11.428c0.636-0.291,1.081-0.93,1.081-1.674c0-1.017-0.827-1.844-1.844-1.844s-1.844,0.827-1.844,1.844
	c0,0.744,0.445,1.383,1.081,1.674l-5.04,11.386l-7.474-5.75c0.212-0.301,0.339-0.665,0.339-1.06c0-1.017-0.827-1.844-1.844-1.844
	s-1.844,0.827-1.844,1.844s0.827,1.844,1.844,1.844c0.04,0,0.077-0.009,0.116-0.012l5.29,13.663v2.622c0,0.414,0.336,0.75,0.75,0.75
	h17.25c0.414,0,0.75-0.336,0.75-0.75v-2.622l5.29-13.663c0.039,0.003,0.076,0.012,0.116,0.012c1.017,0,1.844-0.827,1.844-1.844
	S145.298-87.73,144.281-87.73z M129.5-92.48c0.189,0,0.344,0.154,0.344,0.344s-0.154,0.344-0.344,0.344s-0.344-0.154-0.344-0.344
	S129.311-92.48,129.5-92.48z M129.5-88.481l4.602,10.395l-4.537,3.523l-4.645-3.573L129.5-88.481z M127.901-71.372l1.668-1.295
	l1.684,1.295H127.901z M125.456-71.372h-3.53l2.37-5.353l4.045,3.112L125.456-71.372z M133.666-71.372
	c-0.041-0.055-0.09-0.104-0.146-0.148l-2.727-2.098l3.934-3.056l2.348,5.302H133.666z M114.375-85.887
	c0-0.189,0.154-0.344,0.344-0.344s0.344,0.154,0.344,0.344s-0.154,0.344-0.344,0.344S114.375-85.697,114.375-85.887z
	 M123.072-77.666l-2.217,5.008l-3.702-9.562L123.072-77.666z M137.375-68.52h-15.75v-1.312h15.75V-68.52z M138.145-72.658
	l-2.197-4.964l5.891-4.575L138.145-72.658z M144.281-85.543c-0.189,0-0.344-0.154-0.344-0.344s0.154-0.344,0.344-0.344
	s0.344,0.154,0.344,0.344S144.471-85.543,144.281-85.543z"/>
</svg>
