<?xml version="1.0" encoding="utf-8"?>
<!-- Generator: Adobe Illustrator 16.0.0, SVG Export Plug-In . SVG Version: 6.00 Build 0)  -->
<!DOCTYPE svg PUBLIC "-//W3C//DTD SVG 1.1//EN" "http://www.w3.org/Graphics/SVG/1.1/DTD/svg11.dtd">
<svg version="1.1" id="Layer_1" xmlns="http://www.w3.org/2000/svg" xmlns:xlink="http://www.w3.org/1999/xlink" x="0px" y="0px"
	 width="50px" height="50px" viewBox="-105.5 174.5 50 50" enable-background="new -105.5 174.5 50 50" xml:space="preserve">
<path d="M-80.499,202.592c3.308,0,8.375,0.344,10.499,1.485v-11.572c0-0.202-0.122-0.384-0.308-0.462
	c-0.185-0.075-0.4-0.034-0.544,0.107l-4.576,4.553l-2.2-2.199c0.438-0.603,0.675-1.322,0.675-2.073c0-1.956-1.591-3.547-3.547-3.547
	s-3.547,1.591-3.547,3.547c0,0.75,0.237,1.471,0.674,2.073l-2.204,2.204l-4.57-4.558c-0.143-0.142-0.357-0.184-0.545-0.107
	c-0.187,0.077-0.308,0.26-0.308,0.462v11.572C-88.876,202.936-83.807,202.592-80.499,202.592z M-89,197.323
	c0-0.202,0.122-0.385,0.308-0.462c0.188-0.075,0.402-0.034,0.545,0.107l2.573,2.567l3.125-3.106
	c0.195-0.194,0.512-0.194,0.707,0.002c0.195,0.196,0.194,0.513-0.002,0.707l-3.479,3.457c-0.195,0.194-0.51,0.193-0.706,0
	L-88,198.528v2.994c0,0.276-0.224,0.5-0.5,0.5s-0.5-0.224-0.5-0.5V197.323z M-80.499,203.592c-6.555,0-10.317,1.107-10.501,1.702
	v1.938c0,0.052,0.015,0.1,0.029,0.146c-0.008,0.049-0.029,0.094-0.029,0.145c0,2.048,6.602,2.594,10.502,2.594
	c3.899,0,10.498-0.546,10.498-2.594c0-0.051-0.021-0.096-0.029-0.145c0.015-0.047,0.029-0.095,0.029-0.146v-1.946
	C-70.177,204.701-73.939,203.592-80.499,203.592z M-80.498,209.116c-5.925,0-9.336-1.044-9.503-1.584
	c0.165-0.56,3.574-1.604,9.503-1.604c5.926,0,9.334,1.045,9.499,1.584C-71.166,208.072-74.576,209.116-80.498,209.116z"/>
</svg>
