<?xml version="1.0" encoding="utf-8"?>
<!-- Generator: Adobe Illustrator 16.0.0, SVG Export Plug-In . SVG Version: 6.00 Build 0)  -->
<!DOCTYPE svg PUBLIC "-//W3C//DTD SVG 1.1//EN" "http://www.w3.org/Graphics/SVG/1.1/DTD/svg11.dtd">
<svg version="1.1" id="Layer_1" xmlns="http://www.w3.org/2000/svg" xmlns:xlink="http://www.w3.org/1999/xlink" x="0px" y="0px"
	 width="50px" height="50px" viewBox="-245.5 104.5 50 50" enable-background="new -245.5 104.5 50 50" xml:space="preserve">
<path d="M-210,137.827c0,0.276-0.224,0.5-0.5,0.5h-20c-0.276,0-0.5-0.224-0.5-0.5s0.224-0.5,0.5-0.5h20
	C-210.224,137.327-210,137.551-210,137.827z M-222.2,133.099h-3.4c-0.276,0-0.5,0.224-0.5,0.5s0.224,0.5,0.5,0.5h3.4
	c0.276,0,0.5-0.224,0.5-0.5S-221.924,133.099-222.2,133.099z M-215.4,133.099h-3.4c-0.276,0-0.5,0.224-0.5,0.5s0.224,0.5,0.5,0.5
	h3.4c0.276,0,0.5-0.224,0.5-0.5S-215.124,133.099-215.4,133.099z M-210,121.339v14.727c0,0.276-0.224,0.5-0.5,0.5l-14.811,0.012
	h-0.001c-0.037,0-0.073-0.004-0.108-0.012h-5.08c-0.276,0-0.5-0.224-0.5-0.5v-14.727c0-0.202,0.122-0.385,0.309-0.462
	c0.186-0.076,0.401-0.034,0.544,0.107l3.631,3.621c0.189,0.189,0.197,0.494,0.016,0.691c-0.167,0.183-0.365,0.479-0.365,0.863
	c0,0.885,1.009,1.604,2.25,1.604s2.25-0.72,2.25-1.604c0-0.627-0.525-1.201-1.337-1.464c-0.166-0.054-0.292-0.189-0.332-0.358
	c-0.041-0.169,0.009-0.348,0.132-0.471l3.048-3.048c0.195-0.195,0.512-0.195,0.707,0l3.048,3.048
	c0.123,0.123,0.173,0.302,0.132,0.471c-0.041,0.169-0.167,0.305-0.332,0.358c-0.812,0.263-1.337,0.837-1.337,1.464
	c0,0.885,1.009,1.604,2.25,1.604s2.25-0.72,2.25-1.604c0-0.384-0.2-0.683-0.368-0.866c-0.182-0.197-0.175-0.503,0.016-0.692
	l3.635-3.617c0.144-0.142,0.36-0.183,0.544-0.107C-210.122,120.955-210,121.137-210,121.339z M-211,135.565v-1.467h-1
	c-0.276,0-0.5-0.224-0.5-0.5s0.224-0.5,0.5-0.5h1v-10.557l-2.473,2.461c0.222,0.357,0.338,0.75,0.338,1.157
	c0,1.437-1.458,2.604-3.25,2.604s-3.25-1.168-3.25-2.604c0-0.846,0.499-1.616,1.317-2.098l-2.182-2.183l-2.182,2.183
	c0.819,0.481,1.317,1.252,1.317,2.098c0,1.437-1.458,2.604-3.25,2.604s-3.25-1.168-3.25-2.604c0-0.405,0.115-0.797,0.335-1.153
	l-2.47-2.463v10.555h1c0.276,0,0.5,0.224,0.5,0.5s-0.224,0.5-0.5,0.5h-1v1.467h4.699c0.036,0,0.072,0.004,0.106,0.012L-211,135.565z
	 M-224.506,130.274c0-0.221-0.179-0.4-0.4-0.4c-1.56,0-2.542-0.387-3.284-1.295c-0.107-0.131-0.284-0.181-0.444-0.124
	c-0.159,0.057-0.266,0.208-0.266,0.377v2.192c0,0.221,0.179,0.4,0.4,0.4s0.4-0.18,0.4-0.4v-1.247
	c0.806,0.615,1.828,0.897,3.194,0.897C-224.686,130.675-224.506,130.495-224.506,130.274z"/>
</svg>
