<?xml version="1.0" encoding="utf-8"?>
<!-- Generator: Adobe Illustrator 16.0.0, SVG Export Plug-In . SVG Version: 6.00 Build 0)  -->
<!DOCTYPE svg PUBLIC "-//W3C//DTD SVG 1.1//EN" "http://www.w3.org/Graphics/SVG/1.1/DTD/svg11.dtd">
<svg version="1.1" id="Layer_1" xmlns="http://www.w3.org/2000/svg" xmlns:xlink="http://www.w3.org/1999/xlink" x="0px" y="0px"
	 width="50px" height="50px" viewBox="-245.5 314.5 50 50" enable-background="new -245.5 314.5 50 50" xml:space="preserve">
<path d="M-210.641,327.657c-1.085,0-1.969,0.883-1.969,1.969c0,0.71,0.381,1.328,0.947,1.675l-3.765,3.746l-3.871-3.872
	c0.463-0.36,0.768-0.917,0.768-1.549c0-1.086-0.883-1.969-1.969-1.969s-1.969,0.883-1.969,1.969c0,0.632,0.304,1.188,0.768,1.549
	l-3.875,3.876l-3.822-3.811c0.599-0.338,1.008-0.973,1.008-1.708c0-1.086-0.883-1.969-1.969-1.969s-1.969,0.883-1.969,1.969
	c0,0.764,0.441,1.42,1.078,1.746v14.648c0,0.042,0.017,0.078,0.024,0.118c-0.003,0.037-0.019,0.07-0.019,0.108
	c0,2.438,6.754,3.088,10.745,3.088s10.745-0.65,10.745-3.088c0-0.038-0.016-0.071-0.019-0.108c0.007-0.04,0.024-0.076,0.024-0.118
	v-14.555c0.637-0.326,1.078-0.982,1.078-1.746C-208.672,328.54-209.555,327.657-210.641,327.657z M-210.641,329.157
	c0.258,0,0.469,0.21,0.469,0.469s-0.21,0.469-0.469,0.469s-0.469-0.21-0.469-0.469S-210.899,329.157-210.641,329.157z
	 M-211.25,333.005v6.22l-3.118-3.118L-211.25,333.005z M-212.228,346.677c-1.41,0.524-4.26,1.064-8.272,1.064
	c-4.012,0-6.861-0.54-8.271-1.064c-0.497-0.185-0.818-0.367-0.944-0.523c0.232-0.287,1.117-0.663,2.564-0.977
	c0.542-0.117,1.164-0.226,1.861-0.317c0.707-0.094,1.491-0.17,2.349-0.221c0.76-0.046,1.57-0.073,2.442-0.073
	c0.861,0,1.662,0.027,2.414,0.071c0.855,0.051,1.637,0.125,2.343,0.218c0.711,0.093,1.345,0.203,1.896,0.322
	c1.447,0.313,2.332,0.689,2.563,0.977C-211.41,346.31-211.732,346.492-212.228,346.677z M-229.75,341.346l4.175-4.176l4.002,3.99
	l-2.037,2.027c-2.268,0.173-4.649,0.555-6.14,1.267V341.346z M-220.5,343.065c-0.277,0-0.571,0.004-0.872,0.011l0.861-0.856
	l0.858,0.855C-219.945,343.069-220.23,343.065-220.5,343.065z M-217.418,343.186l-2.03-2.024l4.017-3.997l4.181,4.182v3.108
	C-212.746,343.739-215.142,343.357-217.418,343.186z M-220.5,329.157c0.258,0,0.469,0.21,0.469,0.469s-0.21,0.469-0.469,0.469
	s-0.469-0.21-0.469-0.469S-220.758,329.157-220.5,329.157z M-220.5,332.095l4.009,4.01l-4.019,3.998l-4.005-3.993L-220.5,332.095z
	 M-226.637,336.111l-3.113,3.113v-6.217L-226.637,336.111z M-230.359,329.063c0.258,0,0.469,0.21,0.469,0.469
	s-0.21,0.469-0.469,0.469s-0.469-0.21-0.469-0.469S-230.618,329.063-230.359,329.063z M-209.928,348.9
	c0.216,0.354,0.104,0.814-0.249,1.03c-1.227,0.75-4.895,1.506-10.323,1.506c-5.345,0-9.135-0.905-10.269-1.476
	c-0.37-0.187-0.519-0.637-0.333-1.007c0.187-0.369,0.636-0.521,1.007-0.333c0.552,0.278,3.798,1.315,9.594,1.315
	c5.456,0,8.694-0.769,9.541-1.285C-210.607,348.433-210.145,348.547-209.928,348.9z"/>
</svg>
