<?xml version="1.0" encoding="utf-8"?>
<!-- Generator: Adobe Illustrator 16.0.0, SVG Export Plug-In . SVG Version: 6.00 Build 0)  -->
<!DOCTYPE svg PUBLIC "-//W3C//DTD SVG 1.1//EN" "http://www.w3.org/Graphics/SVG/1.1/DTD/svg11.dtd">
<svg version="1.1" id="Layer_1" xmlns="http://www.w3.org/2000/svg" xmlns:xlink="http://www.w3.org/1999/xlink" x="0px" y="0px"
	 width="50px" height="50px" viewBox="174.5 104.5 50 50" enable-background="new 174.5 104.5 50 50" xml:space="preserve">
<path d="M214.281,122.25c-1.017,0-1.844,0.827-1.844,1.844c0,0.395,0.127,0.759,0.34,1.06l-7.456,5.792l-5.059-11.428
	c0.636-0.291,1.081-0.93,1.081-1.674c0-1.017-0.827-1.844-1.844-1.844s-1.844,0.827-1.844,1.844c0,0.744,0.445,1.383,1.081,1.674
	l-5.04,11.385l-7.474-5.75c0.212-0.301,0.339-0.664,0.339-1.059c0-1.017-0.827-1.844-1.844-1.844s-1.844,0.827-1.844,1.844
	s0.827,1.844,1.844,1.844c0.04,0,0.077-0.01,0.116-0.012l5.491,14.183h0.091c0,0.017-0.009,0.031-0.009,0.048
	c0,2.764,8.161,2.844,9.092,2.844s9.092-0.08,9.092-2.844c0-0.017-0.009-0.031-0.009-0.048h0.091l5.491-14.183
	c0.039,0.002,0.076,0.012,0.116,0.012c1.017,0,1.844-0.827,1.844-1.844S215.298,122.25,214.281,122.25z M184.719,124.438
	c-0.189,0-0.344-0.154-0.344-0.344c0-0.107,0.053-0.2,0.131-0.264c0.06-0.048,0.131-0.08,0.213-0.08
	c0.189,0,0.344,0.154,0.344,0.344c0,0.05-0.012,0.098-0.031,0.141C184.977,124.354,184.858,124.438,184.719,124.438z
	 M207.052,140.156c-0.483,0.518-3.21,1.344-7.552,1.344s-7.068-0.826-7.552-1.344c0.014-0.015,0.049-0.032,0.066-0.048
	c0.349-0.303,1.408-0.688,3.072-0.961c0.493-0.081,1.031-0.151,1.627-0.206c0.836-0.077,1.762-0.126,2.786-0.126
	c1.044,0,1.988,0.05,2.837,0.129c0.607,0.058,1.149,0.132,1.649,0.216c1.62,0.272,2.656,0.65,2.999,0.948
	C207.003,140.124,207.038,140.142,207.052,140.156z M199.156,127.844c0-0.189,0.154-0.344,0.344-0.344s0.344,0.154,0.344,0.344
	c0,0.111-0.057,0.206-0.139,0.269c-0.059,0.044-0.127,0.075-0.205,0.075c-0.08,0-0.151-0.032-0.21-0.079
	C199.211,128.046,199.156,127.953,199.156,127.844z M199.505,131.716l1.126,2.873l-1.066,0.828l-1.148-0.884L199.505,131.716z
	 M201.555,136.948l-0.762-0.586l0.408-0.316L201.555,136.948z M198.341,136.368l-0.904,0.702l0.416-1.078L198.341,136.368z
	 M195.643,137.553c-1.283,0.157-2.621,0.422-3.629,0.858l2.282-5.155l2.317,1.783L195.643,137.553z M203.404,137.559l-0.969-2.473
	l2.291-1.779l2.26,5.104C205.99,137.98,204.673,137.716,203.404,137.559z M199.156,117.844c0-0.189,0.154-0.344,0.344-0.344
	s0.344,0.154,0.344,0.344c0,0.133-0.078,0.244-0.188,0.302c-0.047,0.024-0.099,0.042-0.155,0.042s-0.108-0.018-0.155-0.042
	C199.234,118.088,199.156,117.977,199.156,117.844z M199.5,121.499l4.602,10.394l-2.236,1.737l-1.608-4.109
	c0.639-0.289,1.087-0.931,1.087-1.677c0-1.017-0.827-1.844-1.844-1.844s-1.844,0.827-1.844,1.844c0,0.747,0.448,1.388,1.088,1.678
	l-1.567,4.059l-2.256-1.736L199.5,121.499z M193.072,132.314l-2.217,5.008l-3.702-9.562L193.072,132.314z M208.145,137.322
	l-2.197-4.964l5.891-4.575L208.145,137.322z M213.966,124.229c-0.018-0.042-0.028-0.087-0.028-0.136
	c0-0.189,0.154-0.344,0.344-0.344c0.078,0,0.147,0.031,0.205,0.075c0.082,0.063,0.139,0.157,0.139,0.269
	c0,0.189-0.154,0.344-0.344,0.344C214.141,124.438,214.019,124.352,213.966,124.229z"/>
</svg>
