<?xml version="1.0" encoding="utf-8"?>
<!-- Generator: Adobe Illustrator 16.0.0, SVG Export Plug-In . SVG Version: 6.00 Build 0)  -->
<!DOCTYPE svg PUBLIC "-//W3C//DTD SVG 1.1//EN" "http://www.w3.org/Graphics/SVG/1.1/DTD/svg11.dtd">
<svg version="1.1" id="Layer_1" xmlns="http://www.w3.org/2000/svg" xmlns:xlink="http://www.w3.org/1999/xlink" x="0px" y="0px"
	 width="50px" height="50px" viewBox="34.5 244.5 50 50" enable-background="new 34.5 244.5 50 50" xml:space="preserve">
<path d="M61.404,269.076c0-1.049-0.854-1.904-1.904-1.904s-1.904,0.855-1.904,1.904s0.854,1.902,1.904,1.902
	S61.404,270.125,61.404,269.076z M59.5,269.479c-0.223,0-0.404-0.18-0.404-0.402s0.182-0.404,0.404-0.404s0.404,0.182,0.404,0.404
	S59.723,269.479,59.5,269.479z M75.091,260.885c-1.05,0-1.904,0.854-1.904,1.904c0,0.422,0.143,0.809,0.376,1.125l-7.938,6.166
	l-5.372-12.137c0.677-0.291,1.152-0.965,1.152-1.748c0-1.049-0.854-1.902-1.904-1.902s-1.904,0.854-1.904,1.902
	c0,0.783,0.476,1.457,1.152,1.748l-5.353,12.092l-7.957-6.123c0.232-0.316,0.375-0.701,0.375-1.123c0-1.051-0.854-1.904-1.904-1.904
	s-1.903,0.854-1.903,1.904c0,1.049,0.854,1.902,1.903,1.902c0.051,0,0.1-0.01,0.149-0.014l5.374,13.881
	c0,0.012-0.005,0.021-0.005,0.033c0,0.123,0.027,0.24,0.059,0.355v3.615c0,0.275,0.151,0.529,0.395,0.66
	c1.065,0.574,4.619,1.484,9.619,1.484c5.082,0,8.521-0.762,9.674-1.518c0.211-0.139,0.339-0.375,0.339-0.627v-3.609
	c0.032-0.117,0.06-0.236,0.06-0.361c0-0.012-0.005-0.021-0.005-0.033l5.374-13.881c0.05,0.004,0.099,0.014,0.149,0.014
	c1.05,0,1.903-0.854,1.903-1.902C76.994,261.738,76.141,260.885,75.091,260.885z M43.506,262.789c0-0.223,0.181-0.404,0.403-0.404
	s0.404,0.182,0.404,0.404s-0.182,0.402-0.404,0.402S43.506,263.012,43.506,262.789z M50.986,278.715
	c-0.027-0.027-0.053-0.055-0.065-0.08c0.013-0.029,0.038-0.061,0.065-0.094c0.079-0.092,0.218-0.191,0.415-0.295
	c0.066-0.035,0.137-0.07,0.216-0.105c0.883-0.395,2.568-0.814,4.938-1.016c0.79-0.066,1.657-0.109,2.596-0.117
	c0.117-0.002,0.229-0.004,0.349-0.004c0.172,0,0.334,0.004,0.501,0.006c0.955,0.012,1.833,0.059,2.63,0.131
	c2.351,0.211,3.999,0.633,4.833,1c0.038,0.016,0.076,0.033,0.11,0.049c0.209,0.1,0.356,0.193,0.438,0.277
	c0.028,0.027,0.054,0.057,0.066,0.082c-0.013,0.029-0.038,0.061-0.066,0.094c-0.042,0.049-0.097,0.098-0.172,0.15
	c-0.389,0.271-1.225,0.586-2.453,0.848c-1.44,0.307-3.423,0.539-5.888,0.539c-2.49,0-4.487-0.238-5.932-0.539
	c-1.226-0.256-2.054-0.559-2.429-0.803C51.073,278.795,51.024,278.754,50.986,278.715z M52.241,276.348l1.753-3.959l4.089,3.145
	C56.174,275.609,53.957,275.846,52.241,276.348z M61.043,275.537l3.986-3.096l1.729,3.906
	C65.081,275.857,62.922,275.619,61.043,275.537z M59.5,255.793c0.223,0,0.404,0.18,0.404,0.402S59.723,256.6,59.5,256.6
	s-0.404-0.182-0.404-0.404S59.277,255.793,59.5,255.793z M59.5,259.951l4.903,11.076l-4.835,3.756l-4.949-3.807L59.5,259.951z
	 M46.386,266.533l6.386,4.914l-2.393,5.402L46.386,266.533z M68.013,282.111c-1.129,0.494-4.003,1.096-8.513,1.096
	c-4.255,0-7.313-0.689-8.514-1.135v-1.697c2.116,0.994,5.931,1.305,8.514,1.305c2.582,0,6.396-0.311,8.513-1.305V282.111z
	 M68.621,276.85l-2.371-5.355l6.355-4.938L68.621,276.85z M75.091,263.191c-0.223,0-0.404-0.18-0.404-0.402s0.182-0.404,0.404-0.404
	s0.403,0.182,0.403,0.404S75.313,263.191,75.091,263.191z"/>
</svg>
