<?xml version="1.0" encoding="utf-8"?>
<!-- Generator: Adobe Illustrator 16.0.0, SVG Export Plug-In . SVG Version: 6.00 Build 0)  -->
<!DOCTYPE svg PUBLIC "-//W3C//DTD SVG 1.1//EN" "http://www.w3.org/Graphics/SVG/1.1/DTD/svg11.dtd">
<svg version="1.1" id="Layer_1" xmlns="http://www.w3.org/2000/svg" xmlns:xlink="http://www.w3.org/1999/xlink" x="0px" y="0px"
	 width="50px" height="50px" viewBox="104.5 34.5 50 50" enable-background="new 104.5 34.5 50 50" xml:space="preserve">
<path d="M121,60.547v-4.647c0-0.202,0.122-0.385,0.309-0.462c0.186-0.075,0.402-0.034,0.545,0.107l2.571,2.565l2.854-2.854
	c0.195-0.195,0.512-0.195,0.707,0s0.195,0.512,0,0.707l-3.207,3.208c-0.195,0.195-0.512,0.194-0.707,0.001L122,57.104v3.442
	c0,0.276-0.224,0.5-0.5,0.5S121,60.823,121,60.547z M140,65.807c0,0.033-0.013,0.062-0.019,0.093
	c0.003,0.031,0.019,0.06,0.019,0.092c0,2.048-6.6,2.594-10.499,2.594c-3.9,0-10.501-0.546-10.501-2.594
	c0-0.032,0.016-0.061,0.019-0.092c-0.006-0.031-0.019-0.06-0.019-0.093V51.08c0-0.202,0.122-0.385,0.309-0.462
	c0.187-0.076,0.402-0.034,0.545,0.107l4.569,4.558l4.724-4.723c0.195-0.195,0.512-0.195,0.707,0l4.718,4.718l4.576-4.553
	c0.144-0.142,0.356-0.185,0.545-0.107c0.187,0.078,0.308,0.26,0.308,0.462V65.807z M120,52.285V62.77
	c0.464-0.243,1.084-0.46,1.882-0.649c0.265-0.068,0.537,0.102,0.602,0.371c0.063,0.269-0.103,0.538-0.371,0.602
	c-1.91,0.454-2.107,0.894-2.112,0.906v0.777c1.99-1.059,6.526-1.379,9.501-1.379c2.974,0,7.509,0.32,9.499,1.379v-0.778
	c-0.005-0.013-0.21-0.466-2.203-0.926c-0.27-0.062-0.438-0.331-0.375-0.6c0.062-0.27,0.33-0.438,0.6-0.375
	c0.914,0.211,1.542,0.438,1.979,0.661V52.283l-4.077,4.056c-0.195,0.193-0.511,0.194-0.706-0.001l-4.717-4.717l-4.723,4.723
	c-0.195,0.195-0.512,0.194-0.707,0.001L120,52.285z M139.001,65.98c-0.166-0.539-3.575-1.583-9.5-1.583
	c-5.926,0-9.336,1.044-9.502,1.604c0.167,0.54,3.578,1.584,9.502,1.584C135.424,67.585,138.834,66.541,139.001,65.98z
	 M130.937,62.419c1.026,0.031,2.021,0.096,2.958,0.192c0.018,0.002,0.035,0.003,0.053,0.003c0.253,0,0.47-0.191,0.496-0.448
	c0.028-0.275-0.171-0.521-0.445-0.549c-0.961-0.1-1.98-0.166-3.03-0.198c-0.319-0.002-0.507,0.209-0.516,0.484
	C130.444,62.18,130.661,62.41,130.937,62.419z M124.906,61.629c-0.275,0.029-0.474,0.275-0.444,0.55
	c0.027,0.257,0.244,0.447,0.496,0.447c0.019,0,0.036-0.001,0.054-0.003c0.93-0.1,1.925-0.166,2.957-0.199
	c0.276-0.009,0.493-0.24,0.484-0.516s-0.245-0.496-0.516-0.484C126.88,61.458,125.86,61.527,124.906,61.629z"/>
</svg>
