<?xml version="1.0" encoding="utf-8"?>
<!-- Generator: Adobe Illustrator 16.0.0, SVG Export Plug-In . SVG Version: 6.00 Build 0)  -->
<!DOCTYPE svg PUBLIC "-//W3C//DTD SVG 1.1//EN" "http://www.w3.org/Graphics/SVG/1.1/DTD/svg11.dtd">
<svg version="1.1" id="Layer_1" xmlns="http://www.w3.org/2000/svg" xmlns:xlink="http://www.w3.org/1999/xlink" x="0px" y="0px"
	 width="50px" height="50px" viewBox="-35.5 -315.5 50 50" enable-background="new -35.5 -315.5 50 50" xml:space="preserve">
<path d="M5.104-293.229c0-1.7-1.383-3.083-3.083-3.083s-3.083,1.383-3.083,3.083c0,1.142,0.63,2.128,1.555,2.662l-4.407,1.584
	l-5.835-6.94v-3.39h1.875c0.414,0,0.75-0.336,0.75-0.75s-0.336-0.75-0.75-0.75H-9.75v-1.917c0-0.414-0.336-0.75-0.75-0.75
	s-0.75,0.336-0.75,0.75v1.917h-1.875c-0.414,0-0.75,0.336-0.75,0.75s0.336,0.75,0.75,0.75h1.875v3.39l-5.835,6.94l-4.408-1.584
	c0.924-0.533,1.555-1.52,1.555-2.662c0-1.7-1.383-3.083-3.083-3.083s-3.083,1.383-3.083,3.083c0,1.448,1.006,2.657,2.354,2.987
	v8.917c0,0.021,0.01,0.038,0.012,0.057c0.001,0.024-0.005,0.047,0,0.072c0.006,0.033,0.023,0.06,0.033,0.091
	c0.012,0.038,0.022,0.074,0.04,0.109c0.025,0.05,0.057,0.094,0.092,0.137c0.022,0.028,0.042,0.057,0.068,0.081
	c0.044,0.042,0.096,0.072,0.15,0.101c0.027,0.015,0.05,0.035,0.079,0.046c0.086,0.034,0.179,0.056,0.276,0.056H2
	c0.098,0,0.19-0.021,0.276-0.056c0.029-0.012,0.052-0.031,0.079-0.046c0.054-0.029,0.105-0.06,0.15-0.101
	c0.026-0.024,0.045-0.053,0.068-0.081c0.035-0.043,0.067-0.086,0.092-0.137c0.018-0.035,0.028-0.072,0.04-0.109
	c0.01-0.031,0.027-0.059,0.033-0.091c0.004-0.024-0.002-0.047,0-0.072c0.002-0.02,0.012-0.037,0.012-0.057v-8.917
	C4.098-290.572,5.104-291.781,5.104-293.229z M1.25-289.246v6.407l-4.136-4.92L1.25-289.246z M-1.02-283.208l-7.264-2.611
	l3.892-1.399L-1.02-283.208z M-5.42-288.442l-4.33,1.556v-6.706L-5.42-288.442z M-11.25-293.592v6.706l-4.33-1.556L-11.25-293.592z
	 M-12.717-285.819l-7.264,2.611l3.372-4.01L-12.717-285.819z M-22.25-282.839v-6.407l4.136,1.487L-22.25-282.839z M-24.604-293.229
	c0-0.873,0.71-1.583,1.583-1.583s1.583,0.71,1.583,1.583s-0.71,1.583-1.583,1.583S-24.604-292.356-24.604-293.229z M-11.25-284.752
	v2.677h-7.446L-11.25-284.752z M-9.75-282.076v-2.677l7.446,2.677H-9.75z M2.021-291.646c-0.873,0-1.583-0.71-1.583-1.583
	s0.71-1.583,1.583-1.583s1.583,0.71,1.583,1.583S2.894-291.646,2.021-291.646z M2.75-278.271c0,0.414-0.336,0.75-0.75,0.75h-25
	c-0.414,0-0.75-0.336-0.75-0.75s0.336-0.75,0.75-0.75H2C2.414-279.021,2.75-278.685,2.75-278.271z"/>
</svg>
