<?xml version="1.0" encoding="utf-8"?>
<!-- Generator: Adobe Illustrator 16.0.0, SVG Export Plug-In . SVG Version: 6.00 Build 0)  -->
<!DOCTYPE svg PUBLIC "-//W3C//DTD SVG 1.1//EN" "http://www.w3.org/Graphics/SVG/1.1/DTD/svg11.dtd">
<svg version="1.1" id="Layer_1" xmlns="http://www.w3.org/2000/svg" xmlns:xlink="http://www.w3.org/1999/xlink" x="0px" y="0px"
	 width="50px" height="50px" viewBox="104.5 -175.5 50 50" enable-background="new 104.5 -175.5 50 50" xml:space="preserve">
<path d="M145.2-156.988c-0.468-0.292-1.084-0.154-1.379,0.313l-5.094,8.085l-8.024-8.023c1.218-0.482,2.084-1.665,2.084-3.051
	c0-1.813-1.475-3.288-3.286-3.288c-1.813,0-3.288,1.475-3.288,3.288c0,1.387,0.866,2.569,2.084,3.051l-8.023,8.022l-5.095-8.085
	c-0.293-0.467-0.911-0.605-1.379-0.313c-0.467,0.294-0.607,0.912-0.312,1.379l6.14,9.744c0.183,0.291,0.502,0.467,0.846,0.467
	h18.056c0.344,0,0.663-0.176,0.846-0.467l6.139-9.744C145.808-156.076,145.667-156.693,145.2-156.988z M128.5-147.398h-6.59
	l6.59-6.589V-147.398z M130.5-153.987l6.59,6.589h-6.59V-153.987z M129.501-160.952c0.709,0,1.286,0.578,1.286,1.288
	c0,0.709-0.577,1.287-1.286,1.287c-0.71,0-1.288-0.577-1.288-1.287C128.213-160.374,128.791-160.952,129.501-160.952z
	 M138.59-142.298c0.553,0,1-0.448,1-1s-0.447-1-1-1h-18.18c-0.553,0-1,0.448-1,1s0.447,1,1,1h0.34v2.25h-0.34c-0.553,0-1,0.448-1,1
	s0.447,1,1,1h18.18c0.553,0,1-0.448,1-1s-0.447-1-1-1h-0.34v-2.25H138.59z M131.75-142.298v2.25h-4.5v-2.25H131.75z M121.75-142.298
	h4.5v2.25h-4.5V-142.298z M137.25-140.048h-4.5v-2.25h4.5V-140.048z"/>
</svg>
