<?xml version="1.0" encoding="utf-8"?>
<!-- Generator: Adobe Illustrator 16.0.0, SVG Export Plug-In . SVG Version: 6.00 Build 0)  -->
<!DOCTYPE svg PUBLIC "-//W3C//DTD SVG 1.1//EN" "http://www.w3.org/Graphics/SVG/1.1/DTD/svg11.dtd">
<svg version="1.1" id="Layer_1" xmlns="http://www.w3.org/2000/svg" xmlns:xlink="http://www.w3.org/1999/xlink" x="0px" y="0px"
	 width="50px" height="50px" viewBox="104.5 -245.5 50 50" enable-background="new 104.5 -245.5 50 50" xml:space="preserve">
<path d="M129.5-223.092c-1.238,0-2.245,1.007-2.245,2.246c0,1.238,1.007,2.245,2.245,2.245s2.245-1.007,2.245-2.245
	C131.745-222.084,130.738-223.092,129.5-223.092z M129.5-220.101c-0.411,0-0.745-0.334-0.745-0.745c0-0.411,0.334-0.746,0.745-0.746
	s0.745,0.334,0.745,0.746C130.245-220.436,129.911-220.101,129.5-220.101z M139.34-212.235c0,0.414-0.336,0.75-0.75,0.75h-18.18
	c-0.414,0-0.75-0.336-0.75-0.75s0.336-0.75,0.75-0.75h18.18C139.004-212.985,139.34-212.649,139.34-212.235z M145.196-225.609
	c-0.248-0.248-0.635-0.29-0.932-0.102l-5.009,3.179l-1.24-2.685c-0.174-0.377-0.62-0.539-0.994-0.367l-3.123,1.436
	c-0.111,0.051-0.197,0.131-0.268,0.221l-3.506-5.273c-0.279-0.419-0.971-0.419-1.25,0l-3.506,5.273
	c-0.07-0.09-0.156-0.169-0.268-0.221l-3.123-1.436c-0.373-0.169-0.821-0.01-0.994,0.367l-1.266,2.739l-4.978-3.229
	c-0.294-0.19-0.682-0.152-0.935,0.096c-0.251,0.247-0.296,0.636-0.108,0.934l6.14,9.744c0.138,0.218,0.377,0.35,0.635,0.35h18.055
	c0.258,0,0.497-0.132,0.635-0.35l6.14-9.744C145.488-224.975,145.445-225.362,145.196-225.609z M134.525-222.785l2.442-1.124
	l1.011,2.187l-2.026,1.286l-1.544-2.322C134.447-222.769,134.487-222.768,134.525-222.785z M122.032-223.909l2.442,1.124
	c0.038,0.017,0.078,0.017,0.117,0.027l-1.598,2.404l-2.004-1.3L122.032-223.909z M116.785-222.593l5.378,3.489l-1.632,2.455
	L116.785-222.593z M121.957-216.084l1.465-2.204l3.396,2.204H121.957z M124.253-219.538l5.247-7.894l5.186,7.8l-5.347,3.394
	L124.253-219.538z M135.516-218.382l1.527,2.297h-5.146L135.516-218.382z M138.469-216.649l-1.686-2.537l5.474-3.474
	L138.469-216.649z"/>
</svg>
