<?xml version="1.0" encoding="utf-8"?>
<!-- Generator: Adobe Illustrator 16.0.0, SVG Export Plug-In . SVG Version: 6.00 Build 0)  -->
<!DOCTYPE svg PUBLIC "-//W3C//DTD SVG 1.1//EN" "http://www.w3.org/Graphics/SVG/1.1/DTD/svg11.dtd">
<svg version="1.1" id="Layer_1" xmlns="http://www.w3.org/2000/svg" xmlns:xlink="http://www.w3.org/1999/xlink" x="0px" y="0px"
	 width="50px" height="50px" viewBox="244.5 -245.5 50 50" enable-background="new 244.5 -245.5 50 50" xml:space="preserve">
<path d="M286-227.429c-1.376,0-2.495,1.12-2.495,2.496c0,0.539,0.176,1.036,0.469,1.444l-8.022,5.091l-5.545-8.342
	c0.928-0.364,1.589-1.263,1.589-2.318c0-1.376-1.119-2.496-2.495-2.496s-2.495,1.12-2.495,2.496c0,1.056,0.661,1.954,1.589,2.318
	l-5.6,8.425l-7.97-5.171c0.294-0.409,0.471-0.906,0.471-1.447c0-1.376-1.119-2.496-2.495-2.496s-2.495,1.12-2.495,2.496
	s1.119,2.495,2.495,2.495c0.262,0,0.509-0.052,0.746-0.127l6.092,9.668c0.138,0.218,0.377,0.351,0.635,0.351h18.055
	c0.258,0,0.497-0.133,0.635-0.351l6.092-9.668c0.237,0.075,0.484,0.127,0.746,0.127c1.376,0,2.495-1.119,2.495-2.495
	S287.376-227.429,286-227.429z M269.5-230.054c0.549,0,0.995,0.447,0.995,0.996s-0.446,0.995-0.995,0.995s-0.995-0.446-0.995-0.995
	S268.951-230.054,269.5-230.054z M252.005-224.933c0-0.549,0.446-0.996,0.995-0.996s0.995,0.447,0.995,0.996
	s-0.446,0.995-0.995,0.995S252.005-224.384,252.005-224.933z M278.113-214.046h-17.227l-4.102-6.509l6.015,3.902
	c0.345,0.224,0.806,0.128,1.033-0.215l5.667-8.525l5.608,8.438c0.227,0.34,0.681,0.438,1.027,0.218l6.121-3.885L278.113-214.046z
	 M286-223.938c-0.549,0-0.995-0.446-0.995-0.995s0.446-0.996,0.995-0.996s0.995,0.447,0.995,0.996S286.549-223.938,286-223.938z
	 M279.34-210.196c0,0.414-0.336,0.75-0.75,0.75h-18.18c-0.414,0-0.75-0.336-0.75-0.75s0.336-0.75,0.75-0.75h18.18
	C279.004-210.946,279.34-210.61,279.34-210.196z"/>
</svg>
