<?xml version="1.0" encoding="utf-8"?>
<!-- Generator: Adobe Illustrator 16.0.0, SVG Export Plug-In . SVG Version: 6.00 Build 0)  -->
<!DOCTYPE svg PUBLIC "-//W3C//DTD SVG 1.1//EN" "http://www.w3.org/Graphics/SVG/1.1/DTD/svg11.dtd">
<svg version="1.1" id="Layer_1" xmlns="http://www.w3.org/2000/svg" xmlns:xlink="http://www.w3.org/1999/xlink" x="0px" y="0px"
	 width="50px" height="50px" viewBox="174.5 34.5 50 50" enable-background="new 174.5 34.5 50 50" xml:space="preserve">
<path d="M211.328,50.511c0-1.086-0.883-1.969-1.969-1.969s-1.969,0.883-1.969,1.969c0,0.71,0.381,1.328,0.945,1.674l-3.765,3.745
	l-3.87-3.87c0.464-0.36,0.768-0.917,0.768-1.549c0-1.086-0.883-1.969-1.969-1.969s-1.969,0.883-1.969,1.969
	c0,0.632,0.304,1.188,0.768,1.549l-3.876,3.876l-3.821-3.811c0.599-0.339,1.008-0.973,1.008-1.708c0-1.086-0.883-1.969-1.969-1.969
	s-1.969,0.883-1.969,1.969c0,0.764,0.441,1.42,1.078,1.746v14.648c0,0.414,0.336,0.75,0.75,0.75h5.056
	c0.043,0.008,0.087,0.012,0.132,0.012c0.001,0,0.002,0,0.002,0l14.811-0.012c0.414,0,0.75-0.336,0.75-0.75V52.257
	C210.887,51.931,211.328,51.274,211.328,50.511z M209.359,50.042c0.259,0,0.469,0.21,0.469,0.469s-0.21,0.469-0.469,0.469
	s-0.469-0.21-0.469-0.469S209.101,50.042,209.359,50.042z M199.5,50.042c0.259,0,0.469,0.21,0.469,0.469s-0.21,0.469-0.469,0.469
	s-0.469-0.21-0.469-0.469S199.241,50.042,199.5,50.042z M189.641,49.948c0.259,0,0.469,0.21,0.469,0.469s-0.21,0.469-0.469,0.469
	s-0.469-0.21-0.469-0.469S189.382,49.948,189.641,49.948z M208.75,66.062l-13.921,0.012c-0.043-0.008-0.086-0.012-0.13-0.012h-4.449
	v-12.17l3.645,3.635c0.294,0.291,0.768,0.292,1.06-0.001l4.546-4.546l4.54,4.54c0.292,0.293,0.766,0.294,1.06,0.001l3.65-3.632
	V66.062z M210.25,69.802c0,0.414-0.336,0.75-0.75,0.75h-20c-0.414,0-0.75-0.336-0.75-0.75s0.336-0.75,0.75-0.75h20
	C209.914,69.052,210.25,69.388,210.25,69.802z"/>
</svg>
