<?xml version="1.0" encoding="utf-8"?>
<!-- Generator: Adobe Illustrator 16.0.0, SVG Export Plug-In . SVG Version: 6.00 Build 0)  -->
<!DOCTYPE svg PUBLIC "-//W3C//DTD SVG 1.1//EN" "http://www.w3.org/Graphics/SVG/1.1/DTD/svg11.dtd">
<svg version="1.1" id="Layer_1" xmlns="http://www.w3.org/2000/svg" xmlns:xlink="http://www.w3.org/1999/xlink" x="0px" y="0px"
	 width="50px" height="50px" viewBox="244.5 314.5 50 50" enable-background="new 244.5 314.5 50 50" xml:space="preserve">
<path d="M279.759,347.625c0-0.658-3.621-1.939-10.258-1.939c-6.638,0-10.259,1.281-10.259,1.939c0,0.092-0.031,0.174-0.075,0.246
	l0.842,2.137c0.012,0.029,0.04,0.045,0.056,0.07c0.63,1.727,6.114,2.201,9.437,2.201s8.807-0.475,9.437-2.201
	c0.016-0.025,0.044-0.041,0.056-0.07l0.841-2.135C279.79,347.799,279.759,347.717,279.759,347.625z M269.501,351.279
	c-5.352,0-8.379-1.004-8.5-1.533c0.114-0.523,3.218-1.543,8.5-1.543s8.386,1.02,8.5,1.535
	C277.88,350.275,274.853,351.279,269.501,351.279z M284.985,333.85c-0.167-0.139-0.404-0.154-0.586-0.037l-5.25,3.332l-1.36-2.945
	c-0.057-0.121-0.159-0.215-0.286-0.26c-0.127-0.047-0.265-0.039-0.387,0.02l-3.578,1.738l-1.761-2.65
	c0.823-0.676,1.302-1.67,1.302-2.748c0-1.973-1.605-3.578-3.578-3.578s-3.578,1.605-3.578,3.578c0,1.078,0.479,2.074,1.302,2.75
	l-1.691,2.543l-3.664-1.639c-0.25-0.113-0.543-0.002-0.658,0.246l-1.387,3.002l-5.219-3.387c-0.181-0.117-0.419-0.105-0.589,0.033
	c-0.168,0.137-0.229,0.369-0.148,0.57l4.839,12.287c1.656-1.57,7.477-2.02,10.794-2.02s9.138,0.449,10.793,2.02l4.838-12.287
	C285.212,334.217,285.152,333.986,284.985,333.85z M260.682,337.732l1.23-2.664l3.06,1.367l-1.906,2.869l-2.398-1.557
	C260.671,337.742,260.679,337.738,260.682,337.732z M269.104,335.684l-4.909,7.342c-0.097,0.143-0.255,0.221-0.416,0.221
	c-0.093,0-0.186-0.025-0.27-0.078l-3.466-2.217c-0.232-0.148-0.301-0.459-0.151-0.691c0.148-0.234,0.458-0.299,0.69-0.15
	l3.053,1.951l4.637-6.934c0.154-0.229,0.464-0.291,0.694-0.139C269.196,335.143,269.258,335.453,269.104,335.684z M275.879,339.219
	l-1.782-2.68l2.998-1.457l1.202,2.604L275.879,339.219z"/>
</svg>
