<?xml version="1.0" encoding="utf-8"?>
<!-- Generator: Adobe Illustrator 16.0.0, SVG Export Plug-In . SVG Version: 6.00 Build 0)  -->
<!DOCTYPE svg PUBLIC "-//W3C//DTD SVG 1.1//EN" "http://www.w3.org/Graphics/SVG/1.1/DTD/svg11.dtd">
<svg version="1.1" id="Layer_1" xmlns="http://www.w3.org/2000/svg" xmlns:xlink="http://www.w3.org/1999/xlink" x="0px" y="0px"
	 width="50px" height="50px" viewBox="314.5 244.5 50 50" enable-background="new 314.5 244.5 50 50" xml:space="preserve">
<path d="M354.572,263.072c-1.191,0-2.161,0.968-2.161,2.158c0,0.577,0.231,1.1,0.603,1.488l-2.298,3.646l-10.466-7.711v-1.994h0.822
	c0.414,0,0.75-0.336,0.75-0.75s-0.336-0.75-0.75-0.75h-0.822v-0.879c0-0.414-0.336-0.75-0.75-0.75s-0.75,0.336-0.75,0.75v0.879
	h-0.822c-0.414,0-0.75,0.336-0.75,0.75s0.336,0.75,0.75,0.75h0.822v1.953l-10.489,7.713l-2.273-3.606
	c0.371-0.388,0.602-0.911,0.602-1.488c0-1.19-0.968-2.158-2.158-2.158c-1.191,0-2.161,0.968-2.161,2.158s0.97,2.159,2.161,2.159
	c0.066,0,0.128-0.014,0.193-0.02l5.738,9.104c0.002,0.004,0.007,0.005,0.009,0.009v2.975c0,0.276,0.152,0.53,0.396,0.661
	c0.974,0.522,4.205,1.351,8.733,1.351c4.607,0,7.733-0.695,8.788-1.384c0.212-0.139,0.34-0.375,0.34-0.628v-2.975
	c0.003-0.004,0.008-0.006,0.011-0.01l5.737-9.104c0.065,0.006,0.129,0.02,0.196,0.02c1.19,0,2.158-0.969,2.158-2.159
	S355.763,263.072,354.572,263.072z M324.431,265.89c-0.364,0-0.661-0.296-0.661-0.659s0.297-0.658,0.661-0.658
	c0.363,0,0.658,0.295,0.658,0.658S324.794,265.89,324.431,265.89z M347.128,279.004c-1.039,0.438-3.612,0.966-7.628,0.966
	c-3.784,0-6.52-0.604-7.629-1.005v-1.368c2.433,1.086,6.947,1.134,7.629,1.134s5.195-0.048,7.628-1.134V279.004z M347.128,275.879
	c-0.275,0.287-1.243,0.662-2.769,0.945c-1.257,0.233-2.881,0.406-4.859,0.406c-1.978,0-3.602-0.173-4.858-0.406
	c-1.527-0.284-2.496-0.659-2.771-0.946v-0.021c0.152-0.16,0.533-0.348,1.087-0.532c1.262-0.421,3.495-0.822,6.542-0.822
	s5.281,0.401,6.542,0.822c0.553,0.185,0.934,0.371,1.086,0.531V275.879z M348.011,274.657c-1.973-1.596-7.733-1.655-8.511-1.655
	s-6.537,0.06-8.51,1.654l-1.928-3.059l10.41-7.654l10.441,7.693L348.011,274.657z M354.572,265.89c-0.364,0-0.661-0.296-0.661-0.659
	s0.297-0.658,0.661-0.658c0.363,0,0.658,0.295,0.658,0.658S354.936,265.89,354.572,265.89z M336.966,269.242
	c0,1.396,1.138,2.533,2.535,2.533c1.396,0,2.533-1.137,2.533-2.533c0-1.397-1.137-2.534-2.533-2.534
	C338.104,266.708,336.966,267.845,336.966,269.242z M339.501,268.208c0.569,0,1.033,0.464,1.033,1.034
	c0,0.569-0.464,1.033-1.033,1.033c-0.57,0-1.035-0.464-1.035-1.033C338.466,268.672,338.931,268.208,339.501,268.208z"/>
</svg>
