<?xml version="1.0" encoding="utf-8"?>
<!-- Generator: Adobe Illustrator 16.0.0, SVG Export Plug-In . SVG Version: 6.00 Build 0)  -->
<!DOCTYPE svg PUBLIC "-//W3C//DTD SVG 1.1//EN" "http://www.w3.org/Graphics/SVG/1.1/DTD/svg11.dtd">
<svg version="1.1" id="Layer_1" xmlns="http://www.w3.org/2000/svg" xmlns:xlink="http://www.w3.org/1999/xlink" x="0px" y="0px"
	 width="50px" height="50px" viewBox="314.5 -35.5 50 50" enable-background="new 314.5 -35.5 50 50" xml:space="preserve">
<path d="M351.328-17.807c0-1.085-0.883-1.969-1.969-1.969s-1.969,0.884-1.969,1.969c0,0.71,0.381,1.328,0.945,1.674l-3.765,3.746
	l-4.321-4.322v-2.91h1.5c0.414,0,0.75-0.336,0.75-0.75s-0.336-0.75-0.75-0.75h-1.5v-1.75c0-0.414-0.336-0.75-0.75-0.75
	s-0.75,0.336-0.75,0.75v1.75h-1.5c-0.414,0-0.75,0.336-0.75,0.75s0.336,0.75,0.75,0.75h1.5v2.91l-4.327,4.327l-3.821-3.811
	c0.599-0.338,1.008-0.973,1.008-1.708c0-1.085-0.883-1.969-1.969-1.969s-1.969,0.884-1.969,1.969c0,0.764,0.441,1.42,1.078,1.746
	v3.298v11.351v3.375c0,0.414,0.336,0.75,0.75,0.75h20c0.414,0,0.75-0.336,0.75-0.75v-3.375v-11.351v-3.204
	C350.887-16.387,351.328-17.043,351.328-17.807z M349.359-18.275c0.259,0,0.469,0.211,0.469,0.469c0,0.259-0.21,0.469-0.469,0.469
	s-0.469-0.21-0.469-0.469C348.891-18.064,349.101-18.275,349.359-18.275z M338.75-2.248l-3.919,0.004
	c-0.043-0.008-0.087-0.012-0.132-0.012h-3.615l7.666-7.665V-2.248z M340.25-9.921l7.665,7.665l-7.665,0.007V-9.921z M344.04-10.797
	c0.292,0.292,0.766,0.293,1.06,0.001l3.65-3.632v1.571v9.315l-8.5-8.501v-2.546L344.04-10.797z M334.954-10.792l3.796-3.796v2.546
	l-8.5,8.499v-9.313v-1.568l3.645,3.634C334.188-10.498,334.661-10.499,334.954-10.792z M329.641-18.369
	c0.259,0,0.469,0.211,0.469,0.469c0,0.259-0.21,0.469-0.469,0.469s-0.469-0.21-0.469-0.469
	C329.172-18.158,329.382-18.369,329.641-18.369z M330.25,1.119v-1.875h4.303c0.044,0.008,0.089,0.012,0.135,0.012h0.003l14.06-0.012
	v1.875H330.25z"/>
</svg>
