<?xml version="1.0" encoding="utf-8"?>
<!-- Generator: Adobe Illustrator 16.0.0, SVG Export Plug-In . SVG Version: 6.00 Build 0)  -->
<!DOCTYPE svg PUBLIC "-//W3C//DTD SVG 1.1//EN" "http://www.w3.org/Graphics/SVG/1.1/DTD/svg11.dtd">
<svg version="1.1" id="Layer_1" xmlns="http://www.w3.org/2000/svg" xmlns:xlink="http://www.w3.org/1999/xlink" x="0px" y="0px"
	 width="50px" height="50px" viewBox="-315.5 -175.5 50 50" enable-background="new -315.5 -175.5 50 50" xml:space="preserve">
<path d="M-294.541-153.078c0.219,0.168,0.261,0.481,0.093,0.701c-0.167,0.219-0.481,0.261-0.701,0.093
	c-1.362-1.043-2.907-1.638-4.494-1.735l1.51,6.106c0.066,0.268-0.097,0.539-0.365,0.605c-0.041,0.01-0.081,0.015-0.121,0.015
	c-0.225,0-0.429-0.152-0.485-0.38l-1.666-6.739c-0.037-0.147-0.004-0.303,0.088-0.423c0.092-0.121,0.233-0.193,0.385-0.197
	l0.189-0.002C-298.137-155.034-296.212-154.357-294.541-153.078z M-277.756-156.044l-3.54,14.167
	c-0.055,0.223-0.255,0.379-0.485,0.379h-10.242h-7.014h-0.178c-0.229,0-0.43-0.156-0.485-0.379l-3.54-14.167
	c-0.066-0.263,0.089-0.529,0.35-0.603c0.136-0.044,0.191-0.062,0.25-0.076c0.827-0.206,1.68-0.312,2.531-0.312
	c2.143,0,4.229,0.681,6.046,1.871l3.167-4.143c0.095-0.124,0.242-0.196,0.397-0.196s0.303,0.072,0.397,0.196l3.147,4.118
	c2.548-1.673,5.617-2.28,8.6-1.534c0.056,0.014,0.111,0.031,0.166,0.05C-277.927-156.6-277.69-156.307-277.756-156.044z
	 M-293.242-154.59c1.047,0.817,1.964,1.83,2.732,2.986c0.775-1.176,1.703-2.186,2.743-3.001l-2.731-3.574L-293.242-154.59z
	 M-292.608-142.498c-0.224-1.663-0.13-3.333,0.281-4.975c0.281-1.124,0.702-2.2,1.252-3.204c-2.018-3.312-5.455-5.357-9.033-5.357
	c-0.685,0-1.371,0.075-2.042,0.224l3.327,13.312H-292.608z M-278.845-155.811c-4.312-0.955-8.795,1.181-11.22,5.377
	c-0.575,0.996-1.01,2.073-1.293,3.204c-0.391,1.561-0.456,3.15-0.226,4.731h9.412L-278.845-155.811z"/>
</svg>
