<?xml version="1.0" encoding="utf-8"?>
<!-- Generator: Adobe Illustrator 16.0.0, SVG Export Plug-In . SVG Version: 6.00 Build 0)  -->
<!DOCTYPE svg PUBLIC "-//W3C//DTD SVG 1.1//EN" "http://www.w3.org/Graphics/SVG/1.1/DTD/svg11.dtd">
<svg version="1.1" id="Layer_1" xmlns="http://www.w3.org/2000/svg" xmlns:xlink="http://www.w3.org/1999/xlink" x="0px" y="0px"
	 width="50px" height="50px" viewBox="-315.5 244.5 50 50" enable-background="new -315.5 244.5 50 50" xml:space="preserve">
<path d="M-277.75,268.428c0-2.199-0.974-4.238-2.541-5.324c-1.404-0.977-3.195-1.037-4.661-0.197
	c-1.81-1.002-4.064-0.65-5.547,0.662c-1.487-1.312-3.747-1.664-5.548-0.662c-1.45-0.832-3.25-0.787-4.661,0.197
	c-1.568,1.084-2.542,3.125-2.542,5.324c0,0.627,0.08,1.25,0.225,1.789c0.243,1.375,1.066,3.416,2.512,6.236v3.555
	c0,0.275,0.151,0.529,0.394,0.66c1.065,0.574,4.618,1.486,9.619,1.486c5.082,0,8.52-0.764,9.674-1.52
	c0.211-0.137,0.339-0.373,0.339-0.627v-3.551c1.427-2.783,2.274-4.883,2.502-6.182C-277.829,269.678-277.75,269.057-277.75,268.428z
	 M-291.079,265.121c0.143,0.174,0.355,0.275,0.581,0.275h0c0.225,0,0.438-0.102,0.581-0.275c1.061-1.301,2.968-1.781,4.452-0.795
	c1.183,0.791,1.917,2.314,1.917,3.977c0,0.482-0.063,0.961-0.203,1.482c-0.154,0.832-0.619,2.055-1.352,3.592
	c-1.818-0.311-3.833-0.428-5.398-0.428c-1.564,0-3.578,0.117-5.396,0.428c-0.736-1.549-1.205-2.787-1.365-3.652
	c-0.127-0.467-0.191-0.947-0.191-1.424c0-1.664,0.735-3.186,1.919-3.975C-294.061,263.346-292.138,263.826-291.079,265.121z
	 M-281.988,276.088c-0.305,0.354-1.487,0.824-3.427,1.152c0.431-0.781,0.813-1.504,1.158-2.184c1.255,0.285,2.03,0.615,2.269,0.855
	V276.088z M-287.27,277.479c-0.962,0.09-2.037,0.146-3.23,0.146c-1.193,0-2.268-0.057-3.23-0.145
	c-0.553-0.973-1.042-1.873-1.472-2.705c1.282-0.193,2.855-0.326,4.702-0.326c1.848,0,3.422,0.133,4.705,0.322
	C-286.226,275.604-286.716,276.506-287.27,277.479z M-299.014,275.986c0.238-0.275,1.015-0.625,2.275-0.92
	c0.344,0.68,0.725,1.4,1.155,2.178c-1.943-0.32-3.126-0.773-3.431-1.082V275.986z M-301.75,268.428c0-1.715,0.727-3.283,1.896-4.092
	c0.772-0.537,1.677-0.662,2.504-0.391c-1.006,1.119-1.602,2.688-1.602,4.355c0,0.609,0.082,1.221,0.229,1.756
	c0.164,0.895,0.611,2.119,1.318,3.641c-0.945,0.248-1.755,0.568-2.322,0.977c-1.024-2.098-1.641-3.693-1.835-4.777
	C-301.687,269.42-301.75,268.926-301.75,268.428z M-290.5,280.654c-4.255,0-7.313-0.689-8.513-1.135v-1.697
	c2.116,0.992,5.931,1.303,8.513,1.303c2.582,0,6.396-0.311,8.513-1.303v1.736C-283.117,280.051-285.991,280.654-290.5,280.654z
	 M-279.449,269.955c-0.185,1.035-0.8,2.623-1.824,4.721c-0.566-0.408-1.376-0.73-2.32-0.977c0.703-1.512,1.146-2.717,1.304-3.58
	c0.161-0.592,0.242-1.203,0.242-1.816c0-1.666-0.595-3.234-1.599-4.355c0.835-0.275,1.728-0.15,2.501,0.389
	c1.169,0.811,1.896,2.379,1.896,4.092C-279.25,268.928-279.313,269.424-279.449,269.955z M-290.5,262.453
	c1.545,0,2.803-1.258,2.803-2.805c0-1.545-1.257-2.803-2.803-2.803s-2.803,1.258-2.803,2.803
	C-293.303,261.195-292.045,262.453-290.5,262.453z M-290.5,258.346c0.718,0,1.303,0.584,1.303,1.303s-0.584,1.305-1.303,1.305
	s-1.303-0.586-1.303-1.305S-291.218,258.346-290.5,258.346z"/>
</svg>
