<?xml version="1.0" encoding="utf-8"?>
<!-- Generator: Adobe Illustrator 16.0.0, SVG Export Plug-In . SVG Version: 6.00 Build 0)  -->
<!DOCTYPE svg PUBLIC "-//W3C//DTD SVG 1.1//EN" "http://www.w3.org/Graphics/SVG/1.1/DTD/svg11.dtd">
<svg version="1.1" id="Layer_1" xmlns="http://www.w3.org/2000/svg" xmlns:xlink="http://www.w3.org/1999/xlink" x="0px" y="0px"
	 width="50px" height="50px" viewBox="314.5 314.5 50 50" enable-background="new 314.5 314.5 50 50" xml:space="preserve">
<path d="M352.021,332.328c-1.7,0-3.083,1.383-3.083,3.082c0,0.911,0.404,1.723,1.035,2.288l-3.888,1.397l-5.535-6.583
	c1.192-0.426,2.054-1.556,2.054-2.894c0-1.7-1.383-3.084-3.083-3.084s-3.083,1.384-3.083,3.084c0,1.326,0.846,2.448,2.021,2.883
	l-5.544,6.594l-3.888-1.397c0.631-0.565,1.035-1.377,1.035-2.288c0-1.699-1.383-3.082-3.083-3.082s-3.084,1.383-3.084,3.082
	c0,1.447,1.007,2.657,2.354,2.987v8.356c0,0.058,0.021,0.109,0.033,0.164c-0.021,0.085-0.033,0.173-0.033,0.264
	c0,3.001,11.894,3.088,13.25,3.088s13.25-0.087,13.25-3.088c0-0.091-0.012-0.179-0.033-0.264c0.013-0.055,0.033-0.106,0.033-0.164
	v-8.356c1.348-0.33,2.354-1.54,2.354-2.987C355.104,333.711,353.721,332.328,352.021,332.328z M337.938,329.619
	c0-0.873,0.71-1.584,1.583-1.584s1.583,0.711,1.583,1.584s-0.71,1.583-1.583,1.583S337.938,330.492,337.938,329.619z
	 M332.899,340.685c0.294,0.104,0.625,0.017,0.828-0.224l5.772-6.866l5.772,6.866c0.202,0.24,0.533,0.328,0.828,0.224l5.149-1.852
	v6.757c-3.241-1.443-10.693-1.496-11.75-1.496s-8.509,0.053-11.75,1.496v-6.757L332.899,340.685z M339.5,348.77
	c-5.778,0-9.458-0.688-10.99-1.266c-0.301-0.113-0.527-0.224-0.661-0.322c0.479-0.354,2.032-0.837,4.624-1.178
	c1.828-0.24,4.167-0.41,7.027-0.41s5.2,0.17,7.028,0.41c2.591,0.341,4.146,0.824,4.623,1.178c-0.134,0.099-0.359,0.209-0.661,0.322
	C348.959,348.082,345.279,348.77,339.5,348.77z M325.396,335.41c0-0.872,0.711-1.582,1.584-1.582s1.583,0.71,1.583,1.582
	c0,0.873-0.71,1.584-1.583,1.584S325.396,336.283,325.396,335.41z M352.021,336.994c-0.873,0-1.583-0.711-1.583-1.584
	c0-0.872,0.71-1.582,1.583-1.582s1.584,0.71,1.584,1.582C353.604,336.283,352.894,336.994,352.021,336.994z M352.595,349.99
	c0.182,0.372,0.027,0.821-0.345,1.003c-1.5,0.732-6.024,1.472-12.75,1.472c-6.627,0-11.308-0.89-12.701-1.449
	c-0.384-0.155-0.57-0.592-0.416-0.977c0.155-0.384,0.595-0.567,0.977-0.416c1.088,0.438,5.486,1.342,12.141,1.342
	c6.889,0,11.006-0.789,12.092-1.319C351.967,349.463,352.412,349.617,352.595,349.99z"/>
</svg>
