<?xml version="1.0" encoding="utf-8"?>
<!-- Generator: Adobe Illustrator 16.0.0, SVG Export Plug-In . SVG Version: 6.00 Build 0)  -->
<!DOCTYPE svg PUBLIC "-//W3C//DTD SVG 1.1//EN" "http://www.w3.org/Graphics/SVG/1.1/DTD/svg11.dtd">
<svg version="1.1" id="Layer_1" xmlns="http://www.w3.org/2000/svg" xmlns:xlink="http://www.w3.org/1999/xlink" x="0px" y="0px"
	 width="50px" height="50px" viewBox="104.5 -105.5 50 50" enable-background="new 104.5 -105.5 50 50" xml:space="preserve">
<path d="M142.244-87.388c0.065-0.262-0.172-0.555-0.433-0.628c-0.055-0.018-0.108-0.035-0.164-0.049
	c-3.03-0.759-6.144-0.104-8.714,1.637l-3.034-3.969c-0.189-0.247-0.605-0.247-0.795,0l-3.047,3.986
	c-1.839-1.255-3.971-1.966-6.166-1.966c-0.852,0-1.704,0.105-2.53,0.312c-0.059,0.014-0.115,0.032-0.251,0.076
	c-0.261,0.073-0.416,0.34-0.351,0.603l3.541,14.167c0.018,0.068,0.051,0.127,0.092,0.18c0,0.01-0.005,0.019-0.005,0.028
	c0,2.052,5.964,2.594,9.117,2.594c3.152,0,9.113-0.542,9.113-2.594c0-0.01-0.005-0.019-0.005-0.028
	c0.041-0.053,0.074-0.112,0.092-0.18L142.244-87.388z M129.502-89.27l2.627,3.436c-0.459,0.37-0.901,0.766-1.312,1.208
	c-1.377,1.639-2.442,3.991-2.503,7.415c-0.005,0.273-0.228,0.491-0.5,0.491c-0.003,0-0.006,0-0.009,0
	c-0.276-0.005-0.496-0.233-0.491-0.509c0.048-2.708,0.691-4.812,1.632-6.446c-0.619-0.805-1.326-1.513-2.091-2.131L129.502-89.27z
	 M118.899-85.825c-0.254,0.016-0.504-0.212-0.512-0.488c-0.007-0.276,0.212-0.505,0.488-0.512c0.217-0.005,5.607-0.087,8.293,3.646
	c0.161,0.224,0.11,0.537-0.114,0.698c-0.088,0.063-0.19,0.094-0.292,0.094c-0.155,0-0.309-0.072-0.406-0.208
	C123.975-85.906,118.953-85.83,118.899-85.825z M129.505-71.418c-5.355,0-8.117-1.117-8.117-1.594c0-0.477,2.762-1.595,8.117-1.595
	c5.353,0,8.113,1.118,8.113,1.595C137.618-72.535,134.857-71.418,129.505-71.418z"/>
</svg>
