<?xml version="1.0" encoding="utf-8"?>
<!-- Generator: Adobe Illustrator 16.0.0, SVG Export Plug-In . SVG Version: 6.00 Build 0)  -->
<!DOCTYPE svg PUBLIC "-//W3C//DTD SVG 1.1//EN" "http://www.w3.org/Graphics/SVG/1.1/DTD/svg11.dtd">
<svg version="1.1" id="Layer_1" xmlns="http://www.w3.org/2000/svg" xmlns:xlink="http://www.w3.org/1999/xlink" x="0px" y="0px"
	 width="50px" height="50px" viewBox="314.5 314.5 50 50" enable-background="new 314.5 314.5 50 50" xml:space="preserve">
<path d="M354.985,333.85c-0.167-0.137-0.404-0.154-0.586-0.037l-5.25,3.332l-1.36-2.945c-0.057-0.121-0.159-0.215-0.286-0.26
	c-0.127-0.047-0.265-0.039-0.387,0.02l-3.579,1.738l-1.762-2.65c0.823-0.674,1.302-1.67,1.302-2.748
	c0-1.973-1.605-3.578-3.578-3.578s-3.578,1.605-3.578,3.578c0,1.078,0.479,2.072,1.302,2.748l-1.69,2.545l-3.663-1.639
	c-0.249-0.113-0.542-0.002-0.658,0.246l-1.387,3.002l-5.219-3.387c-0.181-0.117-0.42-0.105-0.589,0.033
	c-0.168,0.137-0.229,0.367-0.148,0.57l6.139,15.59c0.012,0.029,0.04,0.045,0.056,0.07c0.63,1.727,6.115,2.201,9.438,2.201
	c3.321,0,8.805-0.475,9.435-2.201c0.016-0.025,0.044-0.041,0.056-0.07l6.141-15.59C355.212,334.217,355.152,333.986,354.985,333.85z
	 M347.095,335.082l1.202,2.604l-2.418,1.533l-1.783-2.682L347.095,335.082z M334.467,345.586c-0.031-0.273,0.165-0.521,0.439-0.555
	c0.96-0.111,1.979-0.186,3.032-0.223c0.274-0.021,0.508,0.207,0.518,0.482s-0.207,0.508-0.482,0.518
	c-1.025,0.035-2.019,0.107-2.952,0.217c-0.02,0.002-0.039,0.004-0.059,0.004C334.713,346.029,334.497,345.842,334.467,345.586z
	 M340.956,344.803c0.005,0,0.011,0,0.017,0c1.063,0.035,2.084,0.109,3.033,0.219c0.274,0.031,0.471,0.279,0.439,0.555
	c-0.029,0.254-0.246,0.441-0.496,0.441c-0.02,0-0.039,0-0.059-0.002c-0.922-0.107-1.915-0.178-2.951-0.213
	c-0.276-0.01-0.492-0.24-0.483-0.516C340.465,345.016,340.688,344.803,340.956,344.803z M330.682,337.732l1.23-2.664l3.059,1.367
	l-1.905,2.869l-2.398-1.557C330.671,337.742,330.679,337.738,330.682,337.732z M329.891,340.26c0.148-0.234,0.458-0.299,0.69-0.15
	l3.054,1.951l4.636-6.934c0.154-0.229,0.463-0.291,0.694-0.139c0.229,0.154,0.291,0.465,0.138,0.695l-4.908,7.342
	c-0.097,0.143-0.255,0.221-0.416,0.221c-0.093,0-0.186-0.025-0.27-0.078l-3.467-2.217
	C329.81,340.803,329.741,340.492,329.891,340.26z M329.574,348.029c-0.276,0-0.5-0.223-0.5-0.5c0-0.826,0.92-1.469,2.812-1.961
	c0.27-0.076,0.54,0.092,0.609,0.357c0.07,0.268-0.09,0.541-0.357,0.609c-1.713,0.447-2.063,0.898-2.063,0.994
	C330.074,347.807,329.851,348.029,329.574,348.029z M339.501,351.279c-5.353,0-8.38-1.004-8.502-1.533
	c0.114-0.523,3.219-1.543,8.502-1.543c5.28,0,8.384,1.02,8.498,1.535C347.878,350.275,344.852,351.279,339.501,351.279z
	 M349.499,347.941c-0.027,0.004-0.054,0.006-0.081,0.006c-0.24,0-0.453-0.174-0.492-0.42c-0.001-0.004-0.135-0.5-2.144-1.012
	c-0.268-0.066-0.43-0.34-0.361-0.607c0.067-0.268,0.335-0.432,0.607-0.361c1.817,0.463,2.761,1.059,2.884,1.82
	C349.957,347.641,349.771,347.896,349.499,347.941z"/>
</svg>
