<?xml version="1.0" encoding="utf-8"?>
<!-- Generator: Adobe Illustrator 16.0.0, SVG Export Plug-In . SVG Version: 6.00 Build 0)  -->
<!DOCTYPE svg PUBLIC "-//W3C//DTD SVG 1.1//EN" "http://www.w3.org/Graphics/SVG/1.1/DTD/svg11.dtd">
<svg version="1.1" id="Layer_1" xmlns="http://www.w3.org/2000/svg" xmlns:xlink="http://www.w3.org/1999/xlink" x="0px" y="0px"
	 width="50px" height="50px" viewBox="174.5 314.5 50 50" enable-background="new 174.5 314.5 50 50" xml:space="preserve">
<path d="M214.993,334.712c-0.166-0.144-0.407-0.162-0.594-0.043l-5.25,3.331l-1.36-2.944c-0.057-0.122-0.159-0.216-0.286-0.261
	c-0.127-0.046-0.266-0.038-0.387,0.021l-3.579,1.737l-1.761-2.649c0.823-0.675,1.302-1.67,1.302-2.748
	c0-1.974-1.605-3.579-3.578-3.579s-3.578,1.605-3.578,3.579c0,1.078,0.479,2.073,1.302,2.748l-1.691,2.545l-3.663-1.639
	c-0.25-0.114-0.542-0.003-0.658,0.246l-1.387,3.002l-5.219-3.387c-0.185-0.12-0.429-0.104-0.597,0.039
	c-0.169,0.144-0.223,0.381-0.133,0.583l6.14,13.878c0.011,0.024,0.035,0.036,0.049,0.058c0.642,1.723,6.117,2.195,9.437,2.195
	c3.318,0,8.793-0.473,9.435-2.195c0.014-0.021,0.038-0.033,0.049-0.058l6.14-13.878C215.213,335.092,215.16,334.855,214.993,334.712
	z M190.682,338.588l1.23-2.664l3.06,1.368l-1.906,2.868l-2.398-1.556C190.671,338.598,190.679,338.595,190.682,338.588z
	 M190.043,341.807c-0.232-0.148-0.301-0.458-0.151-0.69c0.148-0.234,0.458-0.3,0.69-0.151l3.054,1.952l4.636-6.935
	c0.154-0.229,0.464-0.29,0.694-0.138c0.229,0.154,0.291,0.464,0.138,0.694l-4.908,7.342c-0.097,0.144-0.255,0.222-0.416,0.222
	c-0.093,0-0.186-0.025-0.27-0.079L190.043,341.807z M199.501,350.424c-5.353,0-8.38-1.004-8.501-1.533
	c0.114-0.523,3.219-1.543,8.501-1.543c5.281,0,8.385,1.02,8.499,1.534C207.879,349.42,204.852,350.424,199.501,350.424z
	 M205.879,340.075l-1.782-2.682l2.998-1.455l1.202,2.603L205.879,340.075z"/>
</svg>
