<?xml version="1.0" encoding="utf-8"?>
<!-- Generator: Adobe Illustrator 16.0.0, SVG Export Plug-In . SVG Version: 6.00 Build 0)  -->
<!DOCTYPE svg PUBLIC "-//W3C//DTD SVG 1.1//EN" "http://www.w3.org/Graphics/SVG/1.1/DTD/svg11.dtd">
<svg version="1.1" id="Layer_1" xmlns="http://www.w3.org/2000/svg" xmlns:xlink="http://www.w3.org/1999/xlink" x="0px" y="0px"
	 width="50px" height="50px" viewBox="-175.5 -105.5 50 50" enable-background="new -175.5 -105.5 50 50" xml:space="preserve">
<path d="M-141.298-70.688c0,0.276-0.224,0.5-0.5,0.5h-17.4c-0.276,0-0.5-0.224-0.5-0.5s0.224-0.5,0.5-0.5h17.4
	C-141.521-71.188-141.298-70.964-141.298-70.688z M-150.498-85.646c1.424,0,2.583-1.158,2.583-2.583
	c0-1.424-1.159-2.583-2.583-2.583s-2.583,1.159-2.583,2.583C-153.081-86.805-151.922-85.646-150.498-85.646z M-137.756-86.771
	l-3.54,14.167c-0.055,0.223-0.255,0.379-0.485,0.379h-10.242h-7.014h-0.178c-0.229,0-0.43-0.156-0.485-0.379l-3.54-14.167
	c-0.066-0.263,0.089-0.529,0.35-0.603c0.136-0.044,0.191-0.062,0.25-0.076c0.827-0.206,1.68-0.312,2.531-0.312
	c3.484,0,6.808,1.785,9.054,4.703c-0.94,1.634-1.583,3.737-1.631,6.445c-0.005,0.276,0.215,0.504,0.491,0.509
	c0.003,0,0.006,0,0.009,0c0.272,0,0.495-0.218,0.5-0.491c0.061-3.434,1.132-5.79,2.516-7.43c2.835-3.045,6.898-4.404,10.817-3.424
	c0.056,0.014,0.111,0.031,0.166,0.05C-137.927-87.327-137.69-87.034-137.756-86.771z M-152.833-82.563
	c-2.687-3.735-8.062-3.643-8.292-3.646c-0.276,0.007-0.495,0.236-0.488,0.512c0.006,0.276,0.232,0.483,0.512,0.488
	c0.049,0.004,5.076-0.082,7.458,3.229c0.098,0.136,0.251,0.208,0.406,0.208c0.101,0,0.203-0.03,0.292-0.094
	C-152.722-82.026-152.671-82.339-152.833-82.563z"/>
</svg>
