<?xml version="1.0" encoding="utf-8"?>
<!-- Generator: Adobe Illustrator 16.0.0, SVG Export Plug-In . SVG Version: 6.00 Build 0)  -->
<!DOCTYPE svg PUBLIC "-//W3C//DTD SVG 1.1//EN" "http://www.w3.org/Graphics/SVG/1.1/DTD/svg11.dtd">
<svg version="1.1" id="Layer_1" xmlns="http://www.w3.org/2000/svg" xmlns:xlink="http://www.w3.org/1999/xlink" x="0px" y="0px"
	 width="50px" height="50px" viewBox="-175.5 -245.5 50 50" enable-background="new -175.5 -245.5 50 50" xml:space="preserve">
<path d="M-140.659-212.111c0,0.414-0.336,0.75-0.75,0.75h-18.18c-0.414,0-0.75-0.336-0.75-0.75s0.336-0.75,0.75-0.75h18.18
	C-140.995-212.861-140.659-212.525-140.659-212.111z M-134.933-225.589c-0.351-0.221-0.814-0.115-1.035,0.235l-5.918,9.394h-3.631
	l2.586-4.881c0.194-0.366,0.055-0.82-0.312-1.014c-0.363-0.193-0.82-0.054-1.014,0.312l-2.958,5.583h-2.535v-9.012h2.666
	c0.414,0,0.75-0.336,0.75-0.75s-0.336-0.75-0.75-0.75h-2.666v-2.417c0-0.414-0.336-0.75-0.75-0.75s-0.75,0.336-0.75,0.75v2.417
	h-2.668c-0.414,0-0.75,0.336-0.75,0.75s0.336,0.75,0.75,0.75h2.668v9.012h-2.284l-3.225-5.521c-0.209-0.358-0.667-0.479-1.026-0.269
	c-0.357,0.208-0.478,0.668-0.269,1.026l2.782,4.764h-3.842l-5.92-9.394c-0.221-0.35-0.684-0.456-1.034-0.234
	c-0.351,0.221-0.456,0.684-0.234,1.034l6.141,9.744c0.137,0.218,0.376,0.35,0.634,0.35h5.562h7.201h5.291
	c0.258,0,0.497-0.132,0.635-0.35l6.139-9.744C-134.478-224.905-134.583-225.368-134.933-225.589z"/>
</svg>
