<?xml version="1.0" encoding="utf-8"?>
<!-- Generator: Adobe Illustrator 16.0.0, SVG Export Plug-In . SVG Version: 6.00 Build 0)  -->
<!DOCTYPE svg PUBLIC "-//W3C//DTD SVG 1.1//EN" "http://www.w3.org/Graphics/SVG/1.1/DTD/svg11.dtd">
<svg version="1.1" id="Layer_1" xmlns="http://www.w3.org/2000/svg" xmlns:xlink="http://www.w3.org/1999/xlink" x="0px" y="0px"
	 width="50px" height="50px" viewBox="174.5 -105.5 50 50" enable-background="new 174.5 -105.5 50 50" xml:space="preserve">
<path d="M197.667-81.76c0-1.011,0.822-1.833,1.833-1.833s1.833,0.822,1.833,1.833c0,1.011-0.822,1.834-1.833,1.834
	S197.667-80.749,197.667-81.76z M212.5-75.793c0,0.054-0.015,0.103-0.03,0.151c0.017,0.071,0.03,0.143,0.03,0.217
	c0,2.806-12.469,2.838-13,2.838s-13-0.032-13-2.838c0-0.075,0.014-0.146,0.03-0.217c-0.016-0.048-0.03-0.097-0.03-0.151v-8.986
	c0-0.163,0.079-0.315,0.212-0.409c0.135-0.094,0.306-0.115,0.457-0.062l5.826,2.093l6.122-7.282c0.189-0.226,0.576-0.226,0.766,0
	l6.122,7.282l5.826-2.093c0.153-0.053,0.323-0.032,0.457,0.062c0.133,0.094,0.212,0.247,0.212,0.409V-75.793z M196.667-81.76
	c0,1.562,1.271,2.834,2.833,2.834s2.833-1.271,2.833-2.834c0-1.562-1.271-2.833-2.833-2.833S196.667-83.322,196.667-81.76z
	 M211.501-75.436c-0.193-0.624-4.486-1.827-12.001-1.827s-11.807,1.204-12.001,1.849c0.194,0.624,4.486,1.827,12.001,1.827
	S211.308-74.791,211.501-75.436z M211.701-72.736c-0.952,0.465-4.729,1.345-12.201,1.345c-6.69,0-11.132-0.916-12.234-1.359
	c-0.258-0.103-0.548,0.021-0.65,0.277c-0.104,0.256,0.021,0.547,0.277,0.65c1.376,0.554,6.016,1.432,12.607,1.432
	c6.686,0,11.166-0.727,12.641-1.446c0.248-0.121,0.351-0.42,0.229-0.668C212.248-72.755,211.95-72.858,211.701-72.736z"/>
</svg>
