<?xml version="1.0" encoding="utf-8"?>
<!-- Generator: Adobe Illustrator 16.0.0, SVG Export Plug-In . SVG Version: 6.00 Build 0)  -->
<!DOCTYPE svg PUBLIC "-//W3C//DTD SVG 1.1//EN" "http://www.w3.org/Graphics/SVG/1.1/DTD/svg11.dtd">
<svg version="1.1" id="Layer_1" xmlns="http://www.w3.org/2000/svg" xmlns:xlink="http://www.w3.org/1999/xlink" x="0px" y="0px"
	 width="50px" height="50px" viewBox="244.5 -35.5 50 50" enable-background="new 244.5 -35.5 50 50" xml:space="preserve">
<path d="M281.328-17.807c0-1.085-0.883-1.969-1.969-1.969s-1.969,0.884-1.969,1.969c0,0.71,0.381,1.328,0.946,1.674l-3.765,3.746
	l-4.322-4.322v-2.91h1.5c0.414,0,0.75-0.336,0.75-0.75s-0.336-0.75-0.75-0.75h-1.5v-1.75c0-0.414-0.336-0.75-0.75-0.75
	s-0.75,0.336-0.75,0.75v1.75h-1.5c-0.414,0-0.75,0.336-0.75,0.75s0.336,0.75,0.75,0.75h1.5v2.91l-4.326,4.327l-3.822-3.811
	c0.599-0.338,1.008-0.973,1.008-1.708c0-1.085-0.883-1.969-1.969-1.969s-1.969,0.884-1.969,1.969c0,0.764,0.441,1.42,1.078,1.746
	v3.298v11.351v3.375c0,0.414,0.336,0.75,0.75,0.75h20c0.414,0,0.75-0.336,0.75-0.75v-3.375v-11.351v-3.204
	C280.887-16.387,281.328-17.043,281.328-17.807z M279.359-18.275c0.259,0,0.469,0.211,0.469,0.469c0,0.259-0.21,0.469-0.469,0.469
	s-0.469-0.21-0.469-0.469C278.891-18.064,279.101-18.275,279.359-18.275z M260.25-6.088l4.175-4.175l4.002,3.99l-4.036,4.017h-4.141
	V-6.088z M268.75-4.478v2.222h-2.233L268.75-4.478z M270.25-4.455l2.205,2.199h-2.205V-4.455z M270.553-6.271l4.017-3.996
	l4.181,4.18v3.832h-4.171L270.553-6.271z M278.75-14.428v1.571v4.647l-3.117-3.117L278.75-14.428z M273.509-11.329l-3.259,3.243
	v-6.502L273.509-11.329z M268.75-14.588v6.52l-3.265-3.255L268.75-14.588z M260.25-8.209v-4.647v-1.568l3.112,3.104L260.25-8.209z
	 M259.641-18.369c0.259,0,0.469,0.211,0.469,0.469c0,0.259-0.21,0.469-0.469,0.469s-0.469-0.21-0.469-0.469
	C259.172-18.158,259.382-18.369,259.641-18.369z M260.25,1.119v-1.875h4.303c0.044,0.008,0.09,0.012,0.135,0.012
	s0.091-0.004,0.135-0.012h13.928v1.875H260.25z"/>
</svg>
