<?xml version="1.0" encoding="utf-8"?>
<!-- Generator: Adobe Illustrator 16.0.0, SVG Export Plug-In . SVG Version: 6.00 Build 0)  -->
<!DOCTYPE svg PUBLIC "-//W3C//DTD SVG 1.1//EN" "http://www.w3.org/Graphics/SVG/1.1/DTD/svg11.dtd">
<svg version="1.1" id="Layer_1" xmlns="http://www.w3.org/2000/svg" xmlns:xlink="http://www.w3.org/1999/xlink" x="0px" y="0px"
	 width="50px" height="50px" viewBox="-35.5 34.5 50 50" enable-background="new -35.5 34.5 50 50" xml:space="preserve">
<path d="M-0.308,53.229c-0.185-0.075-0.4-0.034-0.544,0.107l-4.576,4.553l-2.2-2.199c0.438-0.603,0.675-1.322,0.675-2.073
	c0-1.956-1.591-3.547-3.547-3.547s-3.547,1.591-3.547,3.547c0,0.75,0.237,1.471,0.674,2.073l-2.204,2.204l-4.57-4.558
	c-0.143-0.142-0.357-0.184-0.545-0.107C-20.878,53.307-21,53.489-21,53.691v14.727c0,0.276,0.224,0.5,0.5,0.5h5.08
	c0.035,0.008,0.071,0.012,0.108,0.012h0.001L-0.5,68.918c0.276,0,0.5-0.224,0.5-0.5V53.691C0,53.489-0.122,53.308-0.308,53.229z
	 M-15.195,67.93c-0.034-0.008-0.07-0.012-0.106-0.012H-20v-1.301h2.5c0.276,0,0.5-0.224,0.5-0.5s-0.224-0.5-0.5-0.5H-20V54.896
	l4.071,4.06c0.195,0.193,0.511,0.194,0.707-0.001l2.88-2.88c0.192-0.192,0.196-0.503,0.008-0.699
	c-0.459-0.479-0.712-1.104-0.712-1.759c0-1.404,1.143-2.547,2.547-2.547s2.547,1.143,2.547,2.547c0,0.655-0.253,1.279-0.712,1.757
	c-0.189,0.196-0.186,0.508,0.007,0.7l2.875,2.875c0.195,0.195,0.511,0.195,0.706,0.001L-1,54.895v10.723h-1.5
	c-0.276,0-0.5,0.224-0.5,0.5s0.224,0.5,0.5,0.5H-1v1.301L-15.195,67.93z M-11.743,58.325l-3.479,3.457
	c-0.195,0.194-0.51,0.193-0.706,0L-18,59.715v4.119c0,0.276-0.224,0.5-0.5,0.5s-0.5-0.224-0.5-0.5V58.51
	c0-0.202,0.122-0.385,0.308-0.462c0.187-0.076,0.402-0.033,0.545,0.107l2.573,2.567l3.125-3.106
	c0.196-0.194,0.512-0.194,0.707,0.002S-11.547,58.131-11.743,58.325z M-5,66.117c0,0.276-0.224,0.5-0.5,0.5h-3
	c-0.276,0-0.5-0.224-0.5-0.5s0.224-0.5,0.5-0.5h3C-5.224,65.617-5,65.841-5,66.117z M-11,66.117c0,0.276-0.224,0.5-0.5,0.5h-3
	c-0.276,0-0.5-0.224-0.5-0.5s0.224-0.5,0.5-0.5h3C-11.224,65.617-11,65.841-11,66.117z"/>
</svg>
