<?xml version="1.0" encoding="utf-8"?>
<!-- Generator: Adobe Illustrator 16.0.0, SVG Export Plug-In . SVG Version: 6.00 Build 0)  -->
<!DOCTYPE svg PUBLIC "-//W3C//DTD SVG 1.1//EN" "http://www.w3.org/Graphics/SVG/1.1/DTD/svg11.dtd">
<svg version="1.1" id="Layer_1" xmlns="http://www.w3.org/2000/svg" xmlns:xlink="http://www.w3.org/1999/xlink" x="0px" y="0px"
	 width="50px" height="50px" viewBox="-175.5 -245.5 50 50" enable-background="new -175.5 -245.5 50 50" xml:space="preserve">
<path d="M-136.249-229.197c-0.072-0.125-0.194-0.213-0.336-0.24c-3.454-0.688-7.16-0.015-10.045,1.796l-3.464-4.821
	c-0.188-0.261-0.624-0.261-0.812,0l-3.464,4.821c-2.885-1.81-6.59-2.481-10.045-1.796c-0.142,0.027-0.264,0.115-0.336,0.24
	c-0.072,0.125-0.086,0.275-0.04,0.412l6.203,18.1c0.01,0.029,0.038,0.045,0.053,0.071c0.472,1.56,4.384,2.273,8.036,2.273
	c3.651,0,7.563-0.714,8.035-2.273c0.015-0.026,0.043-0.042,0.053-0.071l6.203-18.1
	C-136.162-228.922-136.176-229.072-136.249-229.197z M-160.658-225.953c-0.055-0.164-0.02-0.345,0.091-0.478
	c0.111-0.134,0.282-0.202,0.454-0.175c1.627,0.23,3.171,0.819,4.464,1.702c0.228,0.156,0.287,0.467,0.131,0.695
	c-0.156,0.229-0.468,0.286-0.695,0.131c-0.952-0.649-2.056-1.123-3.23-1.389l2.341,7.039c0.087,0.262-0.055,0.545-0.317,0.633
	c-0.052,0.017-0.105,0.025-0.158,0.025c-0.209,0-0.405-0.133-0.475-0.343L-160.658-225.953z M-150.5-209.341
	c-4.674,0-7.084-1.117-7.084-1.594c0-0.478,2.41-1.595,7.084-1.595c4.673,0,7.083,1.117,7.083,1.595
	C-143.417-210.458-145.826-209.341-150.5-209.341z"/>
</svg>
