<?xml version="1.0" encoding="utf-8"?>
<!-- Generator: Adobe Illustrator 16.0.0, SVG Export Plug-In . SVG Version: 6.00 Build 0)  -->
<!DOCTYPE svg PUBLIC "-//W3C//DTD SVG 1.1//EN" "http://www.w3.org/Graphics/SVG/1.1/DTD/svg11.dtd">
<svg version="1.1" id="Layer_1" xmlns="http://www.w3.org/2000/svg" xmlns:xlink="http://www.w3.org/1999/xlink" x="0px" y="0px"
	 width="50px" height="50px" viewBox="104.5 -35.5 50 50" enable-background="new 104.5 -35.5 50 50" xml:space="preserve">
<path d="M141.328-19.682c0-1.085-0.883-1.969-1.969-1.969s-1.969,0.884-1.969,1.969c0,0.71,0.381,1.328,0.946,1.674l-3.765,3.746
	l-3.871-3.871c0.464-0.36,0.768-0.917,0.768-1.549c0-1.085-0.883-1.969-1.969-1.969s-1.969,0.884-1.969,1.969
	c0,0.632,0.304,1.188,0.768,1.549l-3.875,3.876l-3.822-3.811c0.599-0.338,1.008-0.973,1.008-1.708c0-1.085-0.883-1.969-1.969-1.969
	s-1.969,0.884-1.969,1.969c0,0.764,0.441,1.42,1.078,1.746v3.298v11.351v3.375c0,0.414,0.336,0.75,0.75,0.75h20
	c0.414,0,0.75-0.336,0.75-0.75v-3.375v-11.351v-3.204C140.887-18.262,141.328-18.918,141.328-19.682z M139.359-20.15
	c0.259,0,0.469,0.211,0.469,0.469c0,0.259-0.21,0.469-0.469,0.469s-0.469-0.21-0.469-0.469
	C138.891-19.939,139.101-20.15,139.359-20.15z M120.25-7.963l4.175-4.175l4.002,3.99l-4.036,4.017h-4.141V-7.963z M129.489-7.088
	l2.966,2.957h-5.938L129.489-7.088z M130.553-8.146l4.017-3.996l4.181,4.18v3.832h-4.171L130.553-8.146z M138.75-16.303v1.571v4.647
	l-3.117-3.117L138.75-16.303z M129.5-20.15c0.259,0,0.469,0.211,0.469,0.469c0,0.259-0.21,0.469-0.469,0.469
	s-0.469-0.21-0.469-0.469C129.031-19.939,129.241-20.15,129.5-20.15z M129.5-17.213l4.009,4.009l-4.019,3.999l-4.005-3.993
	L129.5-17.213z M120.25-10.084v-4.647V-16.3l3.112,3.104L120.25-10.084z M119.641-20.244c0.259,0,0.469,0.211,0.469,0.469
	c0,0.259-0.21,0.469-0.469,0.469s-0.469-0.21-0.469-0.469C119.172-20.033,119.382-20.244,119.641-20.244z M120.25-0.756v-1.875
	h4.303c0.044,0.008,0.09,0.012,0.135,0.012s0.091-0.004,0.135-0.012h13.928v1.875H120.25z"/>
</svg>
