<?xml version="1.0" encoding="utf-8"?>
<!-- Generator: Adobe Illustrator 16.0.0, SVG Export Plug-In . SVG Version: 6.00 Build 0)  -->
<!DOCTYPE svg PUBLIC "-//W3C//DTD SVG 1.1//EN" "http://www.w3.org/Graphics/SVG/1.1/DTD/svg11.dtd">
<svg version="1.1" id="Layer_1" xmlns="http://www.w3.org/2000/svg" xmlns:xlink="http://www.w3.org/1999/xlink" x="0px" y="0px"
	 width="50px" height="50px" viewBox="-245.5 -105.5 50 50" enable-background="new -245.5 -105.5 50 50" xml:space="preserve">
<path d="M-206.037-85.09c-0.269-0.203-0.639-0.201-0.905,0.003l-7.771,5.932l-5.101-11.524c-0.241-0.543-1.131-0.543-1.372,0
	l-5.16,11.657l-7.704-6.058c-0.266-0.209-0.639-0.214-0.909-0.014c-0.272,0.201-0.375,0.559-0.253,0.874l5.352,13.827
	c0.112,0.289,0.39,0.479,0.699,0.479h17.322c0.31,0,0.587-0.19,0.699-0.479l5.352-13.827
	C-205.667-84.533-205.769-84.889-206.037-85.09z M-212.353-71.414h-16.294l-1.146-2.962h6.534c0.423,1.117,1.496,1.917,2.76,1.917
	s2.336-0.8,2.76-1.917h6.534L-212.353-71.414z M-221.959-75.417c0-0.804,0.654-1.458,1.459-1.458s1.459,0.654,1.459,1.458
	c0,0.805-0.654,1.459-1.459,1.459S-221.959-74.613-221.959-75.417z M-210.626-75.875h-6.961c-0.222-1.413-1.438-2.5-2.913-2.5
	s-2.69,1.087-2.913,2.5h-6.961l-2.452-6.334l6.312,4.963c0.182,0.143,0.419,0.192,0.645,0.139c0.225-0.056,0.411-0.213,0.505-0.424
	l4.865-10.99l4.8,10.844c0.093,0.21,0.277,0.366,0.5,0.423c0.222,0.056,0.459,0.008,0.642-0.13l6.412-4.895L-210.626-75.875z"/>
</svg>
