<?xml version="1.0" encoding="utf-8"?>
<!-- Generator: Adobe Illustrator 16.0.0, SVG Export Plug-In . SVG Version: 6.00 Build 0)  -->
<!DOCTYPE svg PUBLIC "-//W3C//DTD SVG 1.1//EN" "http://www.w3.org/Graphics/SVG/1.1/DTD/svg11.dtd">
<svg version="1.1" id="Layer_1" xmlns="http://www.w3.org/2000/svg" xmlns:xlink="http://www.w3.org/1999/xlink" x="0px" y="0px"
	 width="50px" height="50px" viewBox="34.5 314.5 50 50" enable-background="new 34.5 314.5 50 50" xml:space="preserve">
<path d="M62.583,337.655c0-1.7-1.383-3.083-3.083-3.083s-3.083,1.383-3.083,3.083s1.383,3.084,3.083,3.084
	S62.583,339.355,62.583,337.655z M57.917,337.655c0-0.873,0.71-1.583,1.583-1.583s1.583,0.71,1.583,1.583s-0.71,1.584-1.583,1.584
	S57.917,338.528,57.917,337.655z M72.75,335.219c0-0.244-0.119-0.473-0.318-0.613c-0.199-0.14-0.453-0.173-0.686-0.093l-5.661,2.034
	l-6.011-7.148c-0.285-0.34-0.863-0.34-1.148,0l-6.011,7.148l-5.661-2.034c-0.23-0.08-0.486-0.047-0.686,0.093
	c-0.199,0.141-0.318,0.369-0.318,0.613v8.986c0,0.05,0.02,0.094,0.028,0.141c-0.016,0.074-0.028,0.149-0.028,0.228
	c0,3.001,11.894,3.088,13.25,3.088s13.25-0.087,13.25-3.088c0-0.078-0.013-0.153-0.028-0.228c0.009-0.047,0.028-0.091,0.028-0.141
	V335.219z M70.331,344.955c-1.622,0.564-5.25,1.206-10.831,1.206c-5.58,0-9.208-0.642-10.83-1.206
	c-0.388-0.135-0.664-0.266-0.821-0.382c0.45-0.333,1.854-0.782,4.183-1.118c1.886-0.271,4.375-0.47,7.469-0.47
	s5.584,0.198,7.469,0.47c2.329,0.336,3.732,0.785,4.183,1.118C70.994,344.689,70.719,344.82,70.331,344.955z M47.75,336.285
	l5.149,1.851c0.294,0.104,0.625,0.017,0.828-0.224l5.772-6.866l5.772,6.866c0.202,0.24,0.533,0.328,0.828,0.224l5.149-1.851v6.696
	c-3.241-1.442-10.693-1.496-11.75-1.496s-8.509,0.054-11.75,1.496V336.285z M72.595,347.382c0.182,0.372,0.027,0.821-0.345,1.003
	c-1.5,0.732-6.024,1.472-12.75,1.472c-6.627,0-11.308-0.89-12.701-1.449c-0.384-0.155-0.57-0.592-0.416-0.977
	c0.155-0.384,0.594-0.565,0.977-0.416c1.088,0.438,5.486,1.342,12.141,1.342c6.889,0,11.006-0.789,12.092-1.319
	C71.966,346.854,72.413,347.01,72.595,347.382z"/>
</svg>
