<?xml version="1.0" encoding="utf-8"?>
<!-- Generator: Adobe Illustrator 16.0.0, SVG Export Plug-In . SVG Version: 6.00 Build 0)  -->
<!DOCTYPE svg PUBLIC "-//W3C//DTD SVG 1.1//EN" "http://www.w3.org/Graphics/SVG/1.1/DTD/svg11.dtd">
<svg version="1.1" id="Layer_1" xmlns="http://www.w3.org/2000/svg" xmlns:xlink="http://www.w3.org/1999/xlink" x="0px" y="0px"
	 width="50px" height="50px" viewBox="314.5 244.5 50 50" enable-background="new 314.5 244.5 50 50" xml:space="preserve">
<path d="M339.28,264.484c0.229,0.154,0.291,0.465,0.137,0.695l-4.908,7.342c-0.096,0.143-0.254,0.221-0.416,0.221
	c-0.092,0-0.186-0.025-0.27-0.078l-3.466-2.217c-0.232-0.148-0.3-0.459-0.151-0.691s0.457-0.303,0.69-0.15l3.054,1.951l4.637-6.934
	C338.74,264.395,339.051,264.332,339.28,264.484z M355.446,263.914l-6.139,15.59c-0.012,0.029-0.041,0.045-0.057,0.07
	c-0.631,1.727-6.113,2.201-9.436,2.201s-8.807-0.475-9.438-2.201c-0.016-0.025-0.045-0.041-0.057-0.07l-6.139-15.59
	c-0.08-0.201-0.02-0.434,0.148-0.57c0.169-0.137,0.406-0.15,0.588-0.033l5.221,3.387l1.386-3.002
	c0.114-0.248,0.406-0.361,0.658-0.246l3.663,1.639l1.691-2.545c-0.823-0.674-1.302-1.67-1.302-2.748
	c0-1.973,1.604-3.578,3.578-3.578s3.578,1.605,3.578,3.578c0,1.078-0.479,2.074-1.302,2.748l1.762,2.65l3.578-1.738
	c0.122-0.057,0.262-0.064,0.387-0.02c0.127,0.045,0.229,0.139,0.286,0.26l1.36,2.945l5.25-3.332c0.182-0.117,0.419-0.1,0.586,0.037
	S355.526,263.713,355.446,263.914z M344.411,266.033l1.782,2.682l2.418-1.533l-1.202-2.604L344.411,266.033z M330.981,267.244
	l2.398,1.557l1.906-2.869l-3.061-1.367l-1.229,2.664C330.993,267.234,330.985,267.238,330.981,267.244z M348.315,279.234
	c-0.115-0.516-3.219-1.535-8.5-1.535c-5.282,0-8.387,1.02-8.502,1.543c0.123,0.529,3.149,1.533,8.502,1.533
	C345.167,280.775,348.192,279.771,348.315,279.234z M353.954,264.975l-7.639,4.848c-0.229,0.146-0.533,0.082-0.684-0.146
	l-4.643-6.982c-0.074-0.113-0.101-0.252-0.071-0.385c0.03-0.133,0.112-0.248,0.229-0.318c0.78-0.475,1.246-1.295,1.246-2.195
	c0-1.422-1.157-2.578-2.578-2.578s-2.578,1.156-2.578,2.578c0,0.9,0.466,1.721,1.246,2.195c0.116,0.07,0.198,0.186,0.229,0.318
	c0.029,0.133,0.003,0.271-0.071,0.385l-4.701,7.072c-0.151,0.229-0.458,0.291-0.688,0.143L325.685,265l4.324,10.982
	c0.465-0.352,1.188-0.656,2.191-0.918c0.264-0.074,0.541,0.09,0.61,0.357s-0.091,0.541-0.358,0.609
	c-1.541,0.402-1.976,0.805-2.049,0.953l0.5,1.268c1.59-1.201,6.053-1.553,8.912-1.553s7.32,0.352,8.91,1.553l0.497-1.262
	c-0.063-0.117-0.407-0.541-2.126-0.979c-0.268-0.066-0.43-0.34-0.361-0.607c0.066-0.268,0.342-0.432,0.607-0.361
	c1.049,0.268,1.799,0.58,2.275,0.943L353.954,264.975z M338.253,274.305c-1.052,0.037-2.072,0.111-3.031,0.223
	c-0.274,0.033-0.471,0.281-0.439,0.555c0.03,0.256,0.246,0.443,0.496,0.443c0.02,0,0.039-0.002,0.059-0.004
	c0.934-0.109,1.926-0.182,2.951-0.217c0.276-0.01,0.492-0.242,0.482-0.518S338.518,274.293,338.253,274.305z M344.321,274.518
	c-0.949-0.109-1.969-0.184-3.033-0.219c-0.277,0-0.507,0.207-0.516,0.484c-0.01,0.275,0.207,0.506,0.482,0.516
	c1.037,0.035,2.029,0.105,2.953,0.213c0.02,0.002,0.038,0.002,0.057,0.002c0.251,0,0.467-0.188,0.496-0.441
	C344.793,274.797,344.597,274.549,344.321,274.518z"/>
</svg>
