<?xml version="1.0" encoding="utf-8"?>
<!-- Generator: Adobe Illustrator 16.0.0, SVG Export Plug-In . SVG Version: 6.00 Build 0)  -->
<!DOCTYPE svg PUBLIC "-//W3C//DTD SVG 1.1//EN" "http://www.w3.org/Graphics/SVG/1.1/DTD/svg11.dtd">
<svg version="1.1" id="Layer_1" xmlns="http://www.w3.org/2000/svg" xmlns:xlink="http://www.w3.org/1999/xlink" x="0px" y="0px"
	 width="50px" height="50px" viewBox="314.5 174.5 50 50" enable-background="new 314.5 174.5 50 50" xml:space="preserve">
<path d="M352.021,193.426c-1.7,0-3.083,1.383-3.083,3.082c0,0.911,0.404,1.723,1.035,2.288l-3.888,1.397l-5.535-6.583
	c1.192-0.426,2.054-1.556,2.054-2.894c0-1.7-1.383-3.084-3.083-3.084s-3.083,1.384-3.083,3.084c0,1.326,0.846,2.448,2.021,2.883
	l-5.544,6.594l-3.888-1.397c0.631-0.565,1.035-1.377,1.035-2.288c0-1.699-1.383-3.082-3.083-3.082s-3.084,1.383-3.084,3.082
	c0,1.447,1.007,2.657,2.354,2.987v8.356c0,0.058,0.021,0.109,0.033,0.164c-0.021,0.085-0.033,0.173-0.033,0.264
	c0,3.001,11.894,3.088,13.25,3.088s13.25-0.087,13.25-3.088c0-0.091-0.012-0.179-0.033-0.264c0.013-0.055,0.033-0.106,0.033-0.164
	v-8.356c1.348-0.33,2.354-1.54,2.354-2.987C355.104,194.809,353.721,193.426,352.021,193.426z M337.938,190.717
	c0-0.873,0.71-1.584,1.583-1.584s1.583,0.711,1.583,1.584s-0.71,1.583-1.583,1.583S337.938,191.59,337.938,190.717z
	 M332.899,201.782c0.294,0.104,0.625,0.017,0.828-0.224l5.772-6.866l5.772,6.866c0.202,0.24,0.533,0.328,0.828,0.224l5.149-1.852
	v6.757c-3.241-1.443-10.693-1.496-11.75-1.496s-8.509,0.053-11.75,1.496v-6.757L332.899,201.782z M339.5,209.867
	c-5.778,0-9.458-0.688-10.99-1.266c-0.301-0.113-0.527-0.224-0.661-0.322c0.479-0.354,2.032-0.837,4.624-1.178
	c1.828-0.24,4.167-0.41,7.027-0.41s5.2,0.17,7.028,0.41c2.591,0.341,4.146,0.824,4.623,1.178c-0.134,0.099-0.359,0.209-0.661,0.322
	C348.959,209.18,345.279,209.867,339.5,209.867z M325.396,196.508c0-0.872,0.711-1.582,1.584-1.582s1.583,0.71,1.583,1.582
	c0,0.873-0.71,1.584-1.583,1.584S325.396,197.381,325.396,196.508z M352.021,198.092c-0.873,0-1.583-0.711-1.583-1.584
	c0-0.872,0.71-1.582,1.583-1.582s1.584,0.71,1.584,1.582C353.604,197.381,352.894,198.092,352.021,198.092z"/>
</svg>
