<?xml version="1.0" encoding="utf-8"?>
<!-- Generator: Adobe Illustrator 16.0.0, SVG Export Plug-In . SVG Version: 6.00 Build 0)  -->
<!DOCTYPE svg PUBLIC "-//W3C//DTD SVG 1.1//EN" "http://www.w3.org/Graphics/SVG/1.1/DTD/svg11.dtd">
<svg version="1.1" id="Layer_1" xmlns="http://www.w3.org/2000/svg" xmlns:xlink="http://www.w3.org/1999/xlink" x="0px" y="0px"
	 width="50px" height="50px" viewBox="244.5 34.5 50 50" enable-background="new 244.5 34.5 50 50" xml:space="preserve">
<path d="M281.328,52.386c0-1.086-0.883-1.969-1.969-1.969s-1.969,0.883-1.969,1.969c0,0.71,0.381,1.328,0.945,1.674l-3.764,3.746
	l-4.322-4.322v-2.91h1.5c0.414,0,0.75-0.336,0.75-0.75s-0.336-0.75-0.75-0.75h-1.5v-1.75c0-0.414-0.336-0.75-0.75-0.75
	s-0.75,0.336-0.75,0.75v1.75h-1.5c-0.414,0-0.75,0.336-0.75,0.75s0.336,0.75,0.75,0.75h1.5v2.91l-4.326,4.326L260.602,54
	c0.599-0.339,1.008-0.973,1.008-1.708c0-1.086-0.883-1.969-1.969-1.969s-1.969,0.883-1.969,1.969c0,0.764,0.441,1.42,1.078,1.746
	v14.648c0,0.414,0.336,0.75,0.75,0.75h5.055c0.044,0.008,0.089,0.012,0.133,0.012s0.089-0.004,0.133-0.012h14.68
	c0.414,0,0.75-0.336,0.75-0.75V54.132C280.887,53.806,281.328,53.149,281.328,52.386z M279.359,51.917
	c0.259,0,0.469,0.21,0.469,0.469s-0.21,0.469-0.469,0.469s-0.469-0.21-0.469-0.469S279.101,51.917,279.359,51.917z M278.75,55.765
	v6.219l-3.117-3.117L278.75,55.765z M273.509,58.863l-3.259,3.242v-6.501L273.509,58.863z M268.75,55.604v6.519l-3.265-3.254
	L268.75,55.604z M263.363,58.87l-3.113,3.113v-6.217L263.363,58.87z M259.641,51.823c0.259,0,0.469,0.21,0.469,0.469
	s-0.21,0.469-0.469,0.469s-0.469-0.21-0.469-0.469S259.382,51.823,259.641,51.823z M264.39,67.937h-4.14v-3.832l4.175-4.175
	l4.002,3.99L264.39,67.937z M268.75,65.714v2.223h-2.233L268.75,65.714z M270.25,67.937v-2.199l2.205,2.199H270.25z M274.58,67.937
	l-4.028-4.016l4.018-3.997l4.181,4.181v3.832H274.58z M280.25,71.677c0,0.414-0.336,0.75-0.75,0.75h-20
	c-0.414,0-0.75-0.336-0.75-0.75s0.336-0.75,0.75-0.75h20C279.914,70.927,280.25,71.263,280.25,71.677z"/>
</svg>
