<?xml version="1.0" encoding="utf-8"?>
<!-- Generator: Adobe Illustrator 16.0.0, SVG Export Plug-In . SVG Version: 6.00 Build 0)  -->
<!DOCTYPE svg PUBLIC "-//W3C//DTD SVG 1.1//EN" "http://www.w3.org/Graphics/SVG/1.1/DTD/svg11.dtd">
<svg version="1.1" id="Layer_1" xmlns="http://www.w3.org/2000/svg" xmlns:xlink="http://www.w3.org/1999/xlink" x="0px" y="0px"
	 width="50px" height="50px" viewBox="-315.5 104.5 50 50" enable-background="new -315.5 104.5 50 50" xml:space="preserve">
<path d="M-280.5,138.327h-20c-0.276,0-0.5-0.224-0.5-0.5s0.224-0.5,0.5-0.5h20c0.276,0,0.5,0.224,0.5,0.5
	S-280.224,138.327-280.5,138.327z M-295.311,136.577l14.811-0.012c0.276,0,0.5-0.224,0.5-0.5v-14.727
	c0-0.202-0.122-0.384-0.308-0.462c-0.186-0.075-0.401-0.034-0.544,0.107l-3.635,3.617c-0.19,0.189-0.197,0.495-0.016,0.692
	c0.168,0.184,0.368,0.482,0.368,0.866c0,0.885-1.009,1.604-2.25,1.604s-2.25-0.72-2.25-1.604c0-0.627,0.525-1.201,1.337-1.464
	c0.166-0.054,0.292-0.189,0.332-0.358c0.041-0.169-0.009-0.348-0.132-0.471l-3.048-3.048c-0.195-0.195-0.512-0.195-0.707,0
	l-3.048,3.048c-0.123,0.123-0.173,0.302-0.132,0.471c0.041,0.169,0.167,0.305,0.332,0.358c0.812,0.263,1.337,0.837,1.337,1.464
	c0,0.885-1.009,1.604-2.25,1.604s-2.25-0.72-2.25-1.604c0-0.384,0.198-0.681,0.365-0.863c0.181-0.197,0.173-0.502-0.016-0.691
	l-3.631-3.621c-0.143-0.142-0.358-0.184-0.544-0.107c-0.187,0.077-0.309,0.26-0.309,0.462v14.727c0,0.276,0.224,0.5,0.5,0.5h5.08
	c0.035,0.008,0.071,0.012,0.108,0.012H-295.311z M-300,122.544l2.47,2.463c-0.22,0.356-0.335,0.748-0.335,1.153
	c0,1.437,1.458,2.604,3.25,2.604s3.25-1.168,3.25-2.604c0-0.846-0.499-1.616-1.317-2.098l2.182-2.183l2.182,2.183
	c-0.819,0.481-1.317,1.252-1.317,2.098c0,1.437,1.458,2.604,3.25,2.604s3.25-1.168,3.25-2.604c0-0.407-0.116-0.8-0.338-1.157
	l2.473-2.461v13.023l-14.195,0.012c-0.034-0.008-0.07-0.012-0.106-0.012H-300V122.544z M-298,134.065v-4.358
	c0.928,0.682,2.11,1.058,3.385,1.058c0.276,0,0.5-0.224,0.5-0.5s-0.224-0.5-0.5-0.5c-1.428,0-2.704-0.558-3.498-1.53
	c-0.134-0.164-0.356-0.226-0.555-0.154c-0.199,0.07-0.332,0.26-0.332,0.471v5.515c0,0.276,0.224,0.5,0.5,0.5
	S-298,134.342-298,134.065z"/>
</svg>
