<?xml version="1.0" encoding="utf-8"?>
<!-- Generator: Adobe Illustrator 16.0.0, SVG Export Plug-In . SVG Version: 6.00 Build 0)  -->
<!DOCTYPE svg PUBLIC "-//W3C//DTD SVG 1.1//EN" "http://www.w3.org/Graphics/SVG/1.1/DTD/svg11.dtd">
<svg version="1.1" id="Layer_1" xmlns="http://www.w3.org/2000/svg" xmlns:xlink="http://www.w3.org/1999/xlink" x="0px" y="0px"
	 width="50px" height="50px" viewBox="-245.5 -315.5 50 50" enable-background="new -245.5 -315.5 50 50" xml:space="preserve">
<g>
	<path d="M-218.925-283.208h-3c-0.276,0-0.5,0.224-0.5,0.5s0.224,0.5,0.5,0.5h3c0.276,0,0.5-0.224,0.5-0.5
		S-218.648-283.208-218.925-283.208z"/>
	<path d="M-207.112-297.729c-0.072-0.125-0.194-0.213-0.336-0.241c-3.237-0.641-6.707-0.016-9.415,1.673l-3.23-4.497
		c-0.188-0.261-0.624-0.261-0.812,0l-3.23,4.497c-2.709-1.689-6.179-2.314-9.415-1.673c-0.142,0.028-0.264,0.116-0.336,0.241
		c-0.072,0.125-0.087,0.275-0.04,0.412l5.815,16.969c0.069,0.202,0.259,0.338,0.473,0.338h14.279c0.214,0,0.404-0.136,0.473-0.338
		l5.815-16.969C-207.025-297.454-207.04-297.604-207.112-297.729z M-212.972-283.188c-0.034-0.007-0.066-0.021-0.103-0.021h-2.851
		c-0.276,0-0.5,0.224-0.5,0.5s0.224,0.5,0.5,0.5h2.617l-0.41,1.197h-13.564l-0.41-1.197h2.768c0.276,0,0.5-0.224,0.5-0.5
		s-0.224-0.5-0.5-0.5h-3c-0.037,0-0.069,0.013-0.103,0.021l-4.764-13.9c2.982-0.446,6.106,0.25,8.5,1.883
		c0.224,0.152,0.529,0.099,0.688-0.121l3.104-4.319l3.104,4.319c0.159,0.22,0.464,0.273,0.688,0.121
		c2.393-1.633,5.518-2.329,8.5-1.883L-212.972-283.188z"/>
	<path d="M-229.508-295.315c-0.172-0.027-0.343,0.042-0.454,0.175c-0.111,0.133-0.146,0.314-0.091,0.478l2.445,7.352
		c0.07,0.21,0.265,0.342,0.475,0.342c0.052,0,0.105-0.008,0.158-0.025c0.262-0.087,0.404-0.37,0.317-0.632l-2.177-6.547
		c1.077,0.251,2.089,0.689,2.963,1.286c0.228,0.155,0.539,0.097,0.695-0.131c0.156-0.228,0.097-0.539-0.131-0.695
		C-226.526-294.544-227.978-295.098-229.508-295.315z"/>
</g>
</svg>
