<?xml version="1.0" encoding="utf-8"?>
<!-- Generator: Adobe Illustrator 16.0.0, SVG Export Plug-In . SVG Version: 6.00 Build 0)  -->
<!DOCTYPE svg PUBLIC "-//W3C//DTD SVG 1.1//EN" "http://www.w3.org/Graphics/SVG/1.1/DTD/svg11.dtd">
<svg version="1.1" id="Layer_1" xmlns="http://www.w3.org/2000/svg" xmlns:xlink="http://www.w3.org/1999/xlink" x="0px" y="0px"
	 width="50px" height="50px" viewBox="174.5 104.5 50 50" enable-background="new 174.5 104.5 50 50" xml:space="preserve">
<path d="M210,121.062c0-0.202-0.121-0.384-0.308-0.462c-0.188-0.077-0.401-0.035-0.545,0.107l-3.635,3.617
	c-0.19,0.189-0.197,0.495-0.016,0.692c0.168,0.184,0.368,0.482,0.368,0.866c0,0.87-1.03,1.604-2.25,1.604
	c-1.24,0-2.25-0.72-2.25-1.604c0-0.627,0.524-1.201,1.336-1.464c0.166-0.054,0.292-0.189,0.333-0.358s-0.01-0.348-0.133-0.471
	l-3.048-3.048c-0.195-0.195-0.512-0.195-0.707,0l-3.048,3.048c-0.123,0.123-0.174,0.302-0.133,0.471s0.167,0.305,0.333,0.358
	c0.812,0.263,1.337,0.837,1.337,1.464c0,0.87-1.03,1.604-2.25,1.604c-1.24,0-2.25-0.72-2.25-1.604c0-0.384,0.198-0.681,0.364-0.863
	c0.181-0.197,0.174-0.502-0.016-0.691l-3.631-3.621c-0.143-0.142-0.359-0.184-0.545-0.107c-0.187,0.077-0.309,0.26-0.309,0.462
	v14.727c0,0.039,0.014,0.074,0.022,0.111c-0.005,0.037-0.022,0.071-0.022,0.109c0,2.048,6.601,2.594,10.501,2.594
	c3.899,0,10.499-0.546,10.499-2.594c0-0.038-0.018-0.072-0.022-0.109c0.009-0.037,0.022-0.072,0.022-0.111V121.062z M191.1,128.274
	c0-0.169,0.106-0.32,0.266-0.377c0.158-0.057,0.338-0.007,0.444,0.124c0.814,0.996,2.118,1.566,3.576,1.566
	c0.221,0,0.4,0.18,0.4,0.4s-0.18,0.4-0.4,0.4c-1.328,0-2.553-0.415-3.485-1.16v2.113c0,0.221-0.18,0.4-0.4,0.4s-0.4-0.18-0.4-0.4
	V128.274z M199.501,137.604c-5.922,0-9.334-1.045-9.502-1.584c0.165-0.561,3.574-1.605,9.502-1.605c5.927,0,9.335,1.045,9.5,1.585
	C208.833,136.559,205.422,137.604,199.501,137.604z"/>
</svg>
