<?xml version="1.0" encoding="utf-8"?>
<!-- Generator: Adobe Illustrator 16.0.0, SVG Export Plug-In . SVG Version: 6.00 Build 0)  -->
<!DOCTYPE svg PUBLIC "-//W3C//DTD SVG 1.1//EN" "http://www.w3.org/Graphics/SVG/1.1/DTD/svg11.dtd">
<svg version="1.1" id="Layer_1" xmlns="http://www.w3.org/2000/svg" xmlns:xlink="http://www.w3.org/1999/xlink" x="0px" y="0px"
	 width="50px" height="50px" viewBox="-35.5 -35.5 50 50" enable-background="new -35.5 -35.5 50 50" xml:space="preserve">
<path d="M2-1.035H1.345v-2.25H2c0.552,0,1-0.448,1-1s-0.448-1-1-1h-25c-0.552,0-1,0.448-1,1s0.448,1,1,1h0.655v2.25H-23
	c-0.552,0-1,0.448-1,1s0.448,1,1,1H2c0.552,0,1-0.448,1-1S2.552-1.035,2-1.035z M0.345-1.035h-6.563v-2.25h6.563V-1.035z
	 M-7.218-1.035h-6.563v-2.25h6.563V-1.035z M-21.345-3.285h6.563v2.25h-6.563V-3.285z M2.432-16.504
	c-0.2-0.141-0.456-0.175-0.686-0.092l-5.662,2.035l-6.01-7.149c-0.285-0.34-0.863-0.34-1.148,0l-6.01,7.149l-5.662-2.035
	c-0.229-0.083-0.485-0.049-0.686,0.092c-0.2,0.14-0.318,0.369-0.318,0.613v8.987c0,0.414,0.336,0.75,0.75,0.75H2
	c0.414,0,0.75-0.336,0.75-0.75v-8.987C2.75-16.135,2.631-16.364,2.432-16.504z M-16.462-12.138c-0.045,0-0.091-0.008-0.135-0.023
	l-5.471-1.967c-0.208-0.075-0.316-0.304-0.241-0.512c0.074-0.208,0.306-0.316,0.512-0.241l5.208,1.873l5.85-6.958
	c0.142-0.17,0.395-0.191,0.563-0.049c0.169,0.142,0.191,0.395,0.049,0.563l-6.029,7.172C-16.233-12.188-16.346-12.138-16.462-12.138
	z M-8.621-12.374H-10v3.258c0,0.276-0.224,0.5-0.5,0.5S-11-8.84-11-9.116v-3.258h-1.379c-0.276,0-0.5-0.224-0.5-0.5
	s0.224-0.5,0.5-0.5H-11v-1.409c0-0.276,0.224-0.5,0.5-0.5s0.5,0.224,0.5,0.5v1.409h1.379c0.276,0,0.5,0.224,0.5,0.5
	S-8.345-12.374-8.621-12.374z"/>
</svg>
