<?xml version="1.0" encoding="utf-8"?>
<!-- Generator: Adobe Illustrator 16.0.0, SVG Export Plug-In . SVG Version: 6.00 Build 0)  -->
<!DOCTYPE svg PUBLIC "-//W3C//DTD SVG 1.1//EN" "http://www.w3.org/Graphics/SVG/1.1/DTD/svg11.dtd">
<svg version="1.1" id="Layer_1" xmlns="http://www.w3.org/2000/svg" xmlns:xlink="http://www.w3.org/1999/xlink" x="0px" y="0px"
	 width="50px" height="50px" viewBox="-245.5 -245.5 50 50" enable-background="new -245.5 -245.5 50 50" xml:space="preserve">
<path d="M-206.537-224.861c-0.072-0.125-0.194-0.213-0.336-0.241c-3.237-0.643-6.707-0.016-9.415,1.673l-3.23-4.497
	c-0.188-0.261-0.624-0.261-0.812,0l-3.23,4.497c-2.709-1.689-6.179-2.315-9.415-1.673c-0.142,0.028-0.264,0.116-0.336,0.241
	c-0.072,0.125-0.087,0.275-0.04,0.412l5.815,16.969c0.069,0.202,0.259,0.338,0.473,0.338h14.279c0.214,0,0.404-0.136,0.473-0.338
	l5.815-16.969C-206.45-224.586-206.464-224.736-206.537-224.861z M-229.386-222.272c0.111-0.133,0.282-0.201,0.454-0.175
	c1.53,0.217,2.982,0.771,4.198,1.602c0.228,0.156,0.287,0.467,0.131,0.695c-0.156,0.229-0.467,0.286-0.695,0.131
	c-0.874-0.597-1.886-1.035-2.963-1.286l2.177,6.547c0.087,0.262-0.055,0.545-0.317,0.632c-0.052,0.017-0.105,0.025-0.158,0.025
	c-0.209,0-0.405-0.132-0.475-0.342l-2.445-7.352C-229.532-221.958-229.497-222.139-229.386-222.272z M-224.349-209.34h-3
	c-0.276,0-0.5-0.224-0.5-0.5s0.224-0.5,0.5-0.5h3c0.276,0,0.5,0.224,0.5,0.5S-224.073-209.34-224.349-209.34z M-218.349-209.34h-3
	c-0.276,0-0.5-0.224-0.5-0.5s0.224-0.5,0.5-0.5h3c0.276,0,0.5,0.224,0.5,0.5S-218.073-209.34-218.349-209.34z M-212.499-209.34
	h-2.851c-0.276,0-0.5-0.224-0.5-0.5s0.224-0.5,0.5-0.5h2.851c0.276,0,0.5,0.224,0.5,0.5S-212.222-209.34-212.499-209.34z"/>
</svg>
