<?xml version="1.0" encoding="utf-8"?>
<!-- Generator: Adobe Illustrator 16.0.0, SVG Export Plug-In . SVG Version: 6.00 Build 0)  -->
<!DOCTYPE svg PUBLIC "-//W3C//DTD SVG 1.1//EN" "http://www.w3.org/Graphics/SVG/1.1/DTD/svg11.dtd">
<svg version="1.1" id="Layer_1" xmlns="http://www.w3.org/2000/svg" xmlns:xlink="http://www.w3.org/1999/xlink" x="0px" y="0px"
	 width="50px" height="50px" viewBox="34.5 -35.5 50 50" enable-background="new 34.5 -35.5 50 50" xml:space="preserve">
<path d="M71.328-19.682c0-1.085-0.883-1.969-1.969-1.969s-1.969,0.884-1.969,1.969c0,0.71,0.381,1.328,0.946,1.674l-3.765,3.746
	l-3.871-3.871c0.464-0.36,0.768-0.917,0.768-1.549c0-1.085-0.883-1.969-1.969-1.969s-1.969,0.884-1.969,1.969
	c0,0.632,0.304,1.188,0.768,1.549l-3.876,3.876l-3.821-3.811c0.599-0.338,1.008-0.973,1.008-1.708c0-1.085-0.883-1.969-1.969-1.969
	s-1.969,0.884-1.969,1.969c0,0.764,0.441,1.42,1.078,1.746v3.298v11.351v3.375c0,0.414,0.336,0.75,0.75,0.75h20
	c0.414,0,0.75-0.336,0.75-0.75v-3.375v-11.351v-3.204C70.887-18.262,71.328-18.918,71.328-19.682z M69.359-20.15
	c0.259,0,0.469,0.211,0.469,0.469c0,0.259-0.21,0.469-0.469,0.469s-0.469-0.21-0.469-0.469C68.891-19.939,69.101-20.15,69.359-20.15
	z M50.25-7.963l4.175-4.175l1.28,1.277L50.25-5.405V-7.963z M56.768-9.802l1.659,1.654l-4.036,4.017h-3.294L56.768-9.802z
	 M57.828-10.862l1.684-1.684l1.664,1.664L59.49-9.205L57.828-10.862z M59.489-7.088l2.966,2.957h-5.938L59.489-7.088z M60.553-8.146
	l1.684-1.675l5.69,5.69h-3.348L60.553-8.146z M68.75-5.429l-5.45-5.45l1.27-1.264l4.181,4.18V-5.429z M68.75-16.303v1.571v4.647
	l-3.117-3.117L68.75-16.303z M59.5-20.15c0.259,0,0.469,0.211,0.469,0.469c0,0.259-0.21,0.469-0.469,0.469s-0.469-0.21-0.469-0.469
	C59.031-19.939,59.241-20.15,59.5-20.15z M59.5-17.213l4.009,4.009l-1.27,1.264l-2.197-2.196c-0.293-0.293-0.768-0.293-1.061,0
	l-2.216,2.215l-1.28-1.276L59.5-17.213z M50.25-10.084v-4.647V-16.3l3.112,3.104L50.25-10.084z M49.641-20.244
	c0.259,0,0.469,0.211,0.469,0.469c0,0.259-0.21,0.469-0.469,0.469s-0.469-0.21-0.469-0.469
	C49.172-20.033,49.382-20.244,49.641-20.244z M50.25-0.756v-1.875h4.303c0.044,0.008,0.09,0.012,0.135,0.012
	s0.091-0.004,0.135-0.012H68.75v1.875H50.25z"/>
</svg>
