<?xml version="1.0" encoding="utf-8"?>
<!-- Generator: Adobe Illustrator 16.0.0, SVG Export Plug-In . SVG Version: 6.00 Build 0)  -->
<!DOCTYPE svg PUBLIC "-//W3C//DTD SVG 1.1//EN" "http://www.w3.org/Graphics/SVG/1.1/DTD/svg11.dtd">
<svg version="1.1" id="Layer_1" xmlns="http://www.w3.org/2000/svg" xmlns:xlink="http://www.w3.org/1999/xlink" x="0px" y="0px"
	 width="50px" height="50px" viewBox="-105.5 -105.5 50 50" enable-background="new -105.5 -105.5 50 50" xml:space="preserve">
<path d="M-78.656-78.5c0-1.017-0.827-1.844-1.844-1.844s-1.844,0.827-1.844,1.844s0.827,1.844,1.844,1.844
	S-78.656-77.483-78.656-78.5z M-80.5-78.156c-0.189,0-0.344-0.154-0.344-0.344s0.154-0.344,0.344-0.344s0.344,0.154,0.344,0.344
	S-80.311-78.156-80.5-78.156z M-65.719-86.304c-1.017,0-1.844,0.827-1.844,1.844c0,0.395,0.127,0.759,0.34,1.06l-7.455,5.791
	l-5.059-11.427c0.636-0.291,1.081-0.93,1.081-1.673c0-1.017-0.827-1.844-1.844-1.844s-1.844,0.827-1.844,1.844
	c0,0.744,0.445,1.382,1.081,1.673l-5.04,11.385l-7.473-5.75c0.212-0.3,0.339-0.664,0.339-1.058c0-1.017-0.827-1.844-1.844-1.844
	s-1.844,0.827-1.844,1.844s0.827,1.844,1.844,1.844c0.04,0,0.077-0.009,0.117-0.012l5.305,13.703
	c0.112,0.289,0.39,0.479,0.699,0.479h17.321c0.31,0,0.587-0.19,0.699-0.479l5.305-13.703c0.04,0.002,0.077,0.012,0.117,0.012
	c1.017,0,1.844-0.827,1.844-1.844S-64.702-86.304-65.719-86.304z M-80.5-91.054c0.189,0,0.344,0.154,0.344,0.344
	s-0.154,0.344-0.344,0.344s-0.344-0.154-0.344-0.344S-80.689-91.054-80.5-91.054z M-80.5-87.055l4.601,10.394l-4.536,3.523
	l-4.644-3.573L-80.5-87.055z M-95.625-84.46c0-0.189,0.154-0.344,0.344-0.344s0.344,0.154,0.344,0.344s-0.154,0.344-0.344,0.344
	S-95.625-84.271-95.625-84.46z M-86.928-76.24l-2.217,5.008l-3.701-9.562L-86.928-76.24z M-88.074-69.946l2.37-5.353l4.045,3.112
	l-2.885,2.241H-88.074z M-82.099-69.946l1.668-1.296l1.684,1.296H-82.099z M-76.48-70.094l-2.727-2.098l3.933-3.056l2.347,5.302
	h-3.408C-76.375-70-76.423-70.051-76.48-70.094z M-71.855-71.232l-2.197-4.964l5.89-4.575L-71.855-71.232z M-65.719-84.117
	c-0.189,0-0.344-0.154-0.344-0.344s0.154-0.344,0.344-0.344s0.344,0.154,0.344,0.344S-65.529-84.117-65.719-84.117z"/>
</svg>
