<?xml version="1.0" encoding="utf-8"?>
<!-- Generator: Adobe Illustrator 16.0.0, SVG Export Plug-In . SVG Version: 6.00 Build 0)  -->
<!DOCTYPE svg PUBLIC "-//W3C//DTD SVG 1.1//EN" "http://www.w3.org/Graphics/SVG/1.1/DTD/svg11.dtd">
<svg version="1.1" id="Layer_1" xmlns="http://www.w3.org/2000/svg" xmlns:xlink="http://www.w3.org/1999/xlink" x="0px" y="0px"
	 width="50px" height="50px" viewBox="-105.5 104.5 50 50" enable-background="new -105.5 104.5 50 50" xml:space="preserve">
<path d="M-80.5,127.601c-1.723,0-3.125,1.402-3.125,3.125s1.402,3.125,3.125,3.125s3.125-1.402,3.125-3.125
	S-78.777,127.601-80.5,127.601z M-80.5,132.351c-0.896,0-1.625-0.729-1.625-1.625s0.729-1.625,1.625-1.625s1.625,0.729,1.625,1.625
	S-79.604,132.351-80.5,132.351z M-65.02,123.88c-0.263-0.208-0.631-0.22-0.902-0.023l-8.406,5.988l-5.494-11.584
	c-0.248-0.523-1.107-0.523-1.355,0l-5.558,11.719l-8.333-6.117c-0.271-0.2-0.642-0.193-0.907,0.015
	c-0.265,0.208-0.359,0.566-0.23,0.877l5.733,13.827c0.026,0.064,0.071,0.113,0.111,0.166c1.098,1.859,6.511,2.385,9.861,2.385
	c3.324,0,8.683-0.517,9.838-2.342c0.054-0.061,0.102-0.129,0.134-0.209l5.733-13.827C-64.667,124.445-64.758,124.089-65.02,123.88z
	 M-80.5,139.632c-5.192,0-8.267-1.027-8.568-1.531c-0.002-0.008-0.002-0.016-0.004-0.023c0.283-0.586,3.361-1.621,8.572-1.621
	c5.237,0,8.323,1.046,8.579,1.545C-72.177,138.586-75.263,139.632-80.5,139.632z M-71.343,136.63
	c-1.884-1.285-6.281-1.674-9.157-1.674s-7.273,0.389-9.157,1.674l-4.134-9.969l6.9,5.064c0.181,0.133,0.412,0.177,0.627,0.123
	c0.217-0.055,0.398-0.204,0.494-0.406l5.27-11.11l5.2,10.965c0.095,0.2,0.274,0.349,0.489,0.404
	c0.215,0.057,0.443,0.014,0.624-0.115l7.006-4.991L-71.343,136.63z"/>
</svg>
