<?xml version="1.0" encoding="utf-8"?>
<!-- Generator: Adobe Illustrator 16.0.0, SVG Export Plug-In . SVG Version: 6.00 Build 0)  -->
<!DOCTYPE svg PUBLIC "-//W3C//DTD SVG 1.1//EN" "http://www.w3.org/Graphics/SVG/1.1/DTD/svg11.dtd">
<svg version="1.1" id="Layer_1" xmlns="http://www.w3.org/2000/svg" xmlns:xlink="http://www.w3.org/1999/xlink" x="0px" y="0px"
	 width="50px" height="50px" viewBox="-105.5 -245.5 50 50" enable-background="new -105.5 -245.5 50 50" xml:space="preserve">
<path d="M-70.659-210.194c0,0.414-0.336,0.75-0.75,0.75h-18.18c-0.414,0-0.75-0.336-0.75-0.75s0.336-0.75,0.75-0.75h18.18
	C-70.995-210.944-70.659-210.608-70.659-210.194z M-64.698-222.637l-6.139,9.743c-0.138,0.218-0.377,0.35-0.635,0.35h-18.055
	c-0.258,0-0.497-0.132-0.634-0.35l-6.141-9.743c-0.221-0.351-0.116-0.813,0.234-1.034c0.35-0.222,0.813-0.116,1.034,0.234
	l5.263,8.35l8.521-8.52v-3.115h-2.668c-0.414,0-0.75-0.336-0.75-0.75s0.336-0.75,0.75-0.75h2.668v-2.583
	c0-0.414,0.336-0.75,0.75-0.75s0.75,0.336,0.75,0.75v2.583h2.666c0.414,0,0.75,0.336,0.75,0.75s-0.336,0.75-0.75,0.75h-2.666v3.115
	l8.521,8.52l5.26-8.35c0.221-0.35,0.683-0.455,1.035-0.235C-64.583-223.451-64.478-222.988-64.698-222.637z M-79.749-221.486v7.442
	h7.443L-79.749-221.486z M-81.249-221.486l-7.443,7.442h7.443V-221.486z"/>
</svg>
