<?xml version="1.0" encoding="utf-8"?>
<!-- Generator: Adobe Illustrator 16.0.0, SVG Export Plug-In . SVG Version: 6.00 Build 0)  -->
<!DOCTYPE svg PUBLIC "-//W3C//DTD SVG 1.1//EN" "http://www.w3.org/Graphics/SVG/1.1/DTD/svg11.dtd">
<svg version="1.1" id="Layer_1" xmlns="http://www.w3.org/2000/svg" xmlns:xlink="http://www.w3.org/1999/xlink" x="0px" y="0px"
	 width="50px" height="50px" viewBox="-175.5 -35.5 50 50" enable-background="new -175.5 -35.5 50 50" xml:space="preserve">
<path d="M-134.804-16.528c-0.247-0.247-0.635-0.29-0.931-0.102l-8.313,5.276l-3.479-5.234c0.576-0.69,0.897-1.557,0.897-2.458
	c0-2.134-1.736-3.87-3.87-3.87s-3.87,1.736-3.87,3.87c0,0.901,0.321,1.768,0.897,2.458l-3.534,5.316l-8.252-5.354
	c-0.295-0.191-0.684-0.151-0.935,0.096c-0.25,0.247-0.295,0.636-0.108,0.934l6.14,9.743c0.138,0.218,0.377,0.35,0.635,0.35h18.055
	c0.258,0,0.497-0.132,0.635-0.35l6.14-9.743C-134.512-15.894-134.555-16.281-134.804-16.528z M-150.852-16.646l-4.313,6.569
	c-0.077,0.117-0.205,0.18-0.335,0.18c-0.075,0-0.151-0.021-0.219-0.065c-0.185-0.122-0.236-0.369-0.115-0.554l4.12-6.273
	l-0.408-0.347c-0.57-0.485-0.897-1.182-0.897-1.91c0-0.221,0.179-0.4,0.4-0.4s0.4,0.179,0.4,0.4c0,0.494,0.225,0.968,0.616,1.301
	l0.677,0.576C-150.773-17.04-150.741-16.815-150.852-16.646z M-141.41-0.083h-0.34v-2.25h0.34c0.552,0,1-0.448,1-1s-0.448-1-1-1
	h-18.18c-0.552,0-1,0.448-1,1s0.448,1,1,1h0.34v2.25h-0.34c-0.552,0-1,0.448-1,1s0.448,1,1,1h18.18c0.552,0,1-0.448,1-1
	S-140.858-0.083-141.41-0.083z M-142.75-0.083h-4.5v-2.25h4.5V-0.083z M-148.25-0.083h-4.5v-2.25h4.5V-0.083z M-158.25-2.333h4.5
	v2.25h-4.5V-2.333z"/>
</svg>
