<?xml version="1.0" encoding="utf-8"?>
<!-- Generator: Adobe Illustrator 16.0.0, SVG Export Plug-In . SVG Version: 6.00 Build 0)  -->
<!DOCTYPE svg PUBLIC "-//W3C//DTD SVG 1.1//EN" "http://www.w3.org/Graphics/SVG/1.1/DTD/svg11.dtd">
<svg version="1.1" id="Layer_1" xmlns="http://www.w3.org/2000/svg" xmlns:xlink="http://www.w3.org/1999/xlink" x="0px" y="0px"
	 width="50px" height="50px" viewBox="-175.5 314.5 50 50" enable-background="new -175.5 314.5 50 50" xml:space="preserve">
<path d="M-140.641,327.848c-1.085,0-1.969,0.883-1.969,1.969c0,0.711,0.381,1.328,0.946,1.674l-3.765,3.746l-3.871-3.871
	c0.463-0.359,0.768-0.916,0.768-1.549c0-1.086-0.883-1.969-1.969-1.969s-1.969,0.883-1.969,1.969c0,0.633,0.304,1.189,0.768,1.549
	l-3.876,3.877l-3.821-3.812c0.598-0.338,1.007-0.971,1.007-1.707c0-1.086-0.883-1.969-1.969-1.969s-1.969,0.883-1.969,1.969
	c0,0.764,0.441,1.42,1.078,1.746v14.648c0,0.207,0.084,0.395,0.221,0.531c1.146,1.873,6.945,2.402,10.529,2.402
	s9.383-0.529,10.529-2.402c0.136-0.137,0.221-0.324,0.221-0.531v-14.555c0.637-0.326,1.078-0.982,1.078-1.746
	C-138.672,328.73-139.555,327.848-140.641,327.848z M-140.641,329.348c0.258,0,0.469,0.211,0.469,0.469
	c0,0.26-0.21,0.469-0.469,0.469s-0.469-0.209-0.469-0.469C-141.109,329.559-140.899,329.348-140.641,329.348z M-150.5,329.348
	c0.258,0,0.469,0.211,0.469,0.469c0,0.26-0.21,0.469-0.469,0.469s-0.469-0.209-0.469-0.469
	C-150.969,329.559-150.758,329.348-150.5,329.348z M-156.106,336.832c0.293,0.291,0.768,0.293,1.06,0l4.546-4.547l4.54,4.541
	c0.293,0.293,0.767,0.293,1.059,0l3.651-3.631v11.068c-2.216-1.059-6.422-1.389-9.25-1.389s-7.034,0.33-9.25,1.389v-11.066
	L-156.106,336.832z M-141.284,345.963c-0.214,0.266-0.987,0.607-2.25,0.906c-1.586,0.375-3.947,0.682-6.966,0.682
	c-3.026,0-5.392-0.309-6.978-0.684c-1.256-0.299-2.024-0.639-2.238-0.904c0.143-0.178,0.536-0.387,1.149-0.596
	c1.472-0.502,4.239-0.992,8.066-0.992c3.831,0,6.599,0.492,8.069,0.992C-141.819,345.576-141.426,345.785-141.284,345.963z
	 M-160.359,329.254c0.258,0,0.469,0.211,0.469,0.469c0,0.26-0.21,0.469-0.469,0.469s-0.469-0.209-0.469-0.469
	C-160.828,329.465-160.618,329.254-160.359,329.254z M-139.928,348.709c0.216,0.354,0.104,0.814-0.249,1.031
	c-1.227,0.75-4.895,1.506-10.323,1.506c-5.345,0-9.135-0.906-10.269-1.477c-0.37-0.186-0.519-0.637-0.333-1.006
	c0.187-0.369,0.637-0.521,1.007-0.334c0.552,0.279,3.798,1.316,9.594,1.316c5.456,0,8.694-0.77,9.541-1.285
	C-140.606,348.242-140.145,348.355-139.928,348.709z"/>
</svg>
