<?xml version="1.0" encoding="utf-8"?>
<!-- Generator: Adobe Illustrator 16.0.0, SVG Export Plug-In . SVG Version: 6.00 Build 0)  -->
<!DOCTYPE svg PUBLIC "-//W3C//DTD SVG 1.1//EN" "http://www.w3.org/Graphics/SVG/1.1/DTD/svg11.dtd">
<svg version="1.1" id="Layer_1" xmlns="http://www.w3.org/2000/svg" xmlns:xlink="http://www.w3.org/1999/xlink" x="0px" y="0px"
	 width="50px" height="50px" viewBox="-105.5 174.5 50 50" enable-background="new -105.5 174.5 50 50" xml:space="preserve">
<path d="M-70.641,190.778c-1.085,0-1.969,0.883-1.969,1.969c0,0.71,0.381,1.328,0.947,1.675l-3.765,3.745l-4.322-4.322v-2.91h1.5
	c0.414,0,0.75-0.336,0.75-0.75s-0.336-0.75-0.75-0.75h-1.5v-1.75c0-0.414-0.336-0.75-0.75-0.75s-0.75,0.336-0.75,0.75v1.75h-1.5
	c-0.414,0-0.75,0.336-0.75,0.75s0.336,0.75,0.75,0.75h1.5v2.91l-4.327,4.327l-3.822-3.811c0.599-0.338,1.008-0.973,1.008-1.708
	c0-1.086-0.883-1.969-1.969-1.969s-1.969,0.883-1.969,1.969c0,0.764,0.441,1.42,1.078,1.746v14.647c0,0.111,0.028,0.216,0.072,0.311
	c0.669,2.124,6.905,2.708,10.678,2.708s10.009-0.584,10.678-2.708c0.044-0.095,0.072-0.199,0.072-0.311v-14.554
	c0.637-0.326,1.078-0.982,1.078-1.746C-68.672,191.661-69.555,190.778-70.641,190.778z M-70.641,192.278
	c0.258,0,0.469,0.21,0.469,0.469s-0.21,0.469-0.469,0.469s-0.469-0.21-0.469-0.469S-70.899,192.278-70.641,192.278z M-71.25,196.126
	v6.219l-3.117-3.117L-71.25,196.126z M-80.5,210.565c-3.25,0-5.734-0.355-7.312-0.769c-1.055-0.276-1.709-0.579-1.904-0.819
	c0.162-0.201,0.646-0.444,1.414-0.681c0.809-0.249,1.934-0.489,3.356-0.659c0.702-0.085,1.48-0.15,2.321-0.193
	c0.44-0.022,0.899-0.038,1.375-0.046c0.247-0.005,0.494-0.009,0.75-0.009s0.503,0.004,0.75,0.009
	c0.466,0.008,0.916,0.022,1.347,0.044c0.839,0.043,1.614,0.108,2.316,0.191c1.438,0.171,2.574,0.412,3.389,0.663
	c0.767,0.236,1.251,0.479,1.413,0.681c-0.194,0.24-0.848,0.543-1.903,0.819C-74.766,210.21-77.249,210.565-80.5,210.565z
	 M-89.75,204.466l4.175-4.175l4.002,3.99l-1.716,1.707c-2.361,0.161-4.9,0.545-6.461,1.29V204.466z M-80.511,205.341l0.556,0.555
	c-0.185-0.003-0.37-0.006-0.545-0.006c-0.182,0-0.376,0.003-0.569,0.006L-80.511,205.341z M-77.739,205.986l-1.709-1.704
	l4.017-3.997l4.181,4.181v2.812C-72.817,206.53-75.37,206.146-77.739,205.986z M-76.491,199.225l-3.259,3.243v-6.502
	L-76.491,199.225z M-81.25,195.966v6.52l-3.265-3.255L-81.25,195.966z M-86.638,199.232l-3.112,3.112v-6.216L-86.638,199.232z
	 M-90.359,192.185c0.258,0,0.469,0.21,0.469,0.469s-0.21,0.469-0.469,0.469s-0.469-0.21-0.469-0.469S-90.618,192.185-90.359,192.185
	z"/>
</svg>
