<?xml version="1.0" encoding="utf-8"?>
<!-- Generator: Adobe Illustrator 16.0.0, SVG Export Plug-In . SVG Version: 6.00 Build 0)  -->
<!DOCTYPE svg PUBLIC "-//W3C//DTD SVG 1.1//EN" "http://www.w3.org/Graphics/SVG/1.1/DTD/svg11.dtd">
<svg version="1.1" id="Layer_1" xmlns="http://www.w3.org/2000/svg" xmlns:xlink="http://www.w3.org/1999/xlink" x="0px" y="0px"
	 width="50px" height="50px" viewBox="244.5 104.5 50 50" enable-background="new 244.5 104.5 50 50" xml:space="preserve">
<g>
	<path d="M284.572,123.448c-1.191,0-2.161,0.968-2.161,2.158c0,0.577,0.231,1.1,0.603,1.488l-2.298,3.646l-10.038-7.396
		c0.59-0.385,0.981-1.049,0.981-1.804c0-1.19-0.968-2.159-2.158-2.159c-1.191,0-2.16,0.969-2.16,2.159
		c0,0.742,0.377,1.397,0.95,1.785l-10.03,7.376l-2.273-3.606c0.371-0.388,0.602-0.911,0.602-1.488c0-1.19-0.968-2.158-2.158-2.158
		c-1.191,0-2.161,0.968-2.161,2.158s0.97,2.159,2.161,2.159c0.066,0,0.128-0.014,0.193-0.02l5.738,9.104
		c0.021,0.034,0.06,0.051,0.086,0.081c0.422,2.548,8.146,2.631,9.052,2.631s8.629-0.083,9.052-2.631
		c0.026-0.03,0.064-0.047,0.087-0.082l5.737-9.104c0.065,0.006,0.129,0.02,0.196,0.02c1.19,0,2.158-0.969,2.158-2.159
		S285.763,123.448,284.572,123.448z M253.77,125.606c0-0.363,0.297-0.658,0.661-0.658c0.363,0,0.658,0.295,0.658,0.658
		s-0.295,0.659-0.658,0.659C254.066,126.266,253.77,125.97,253.77,125.606z M269.501,120.881c0.363,0,0.658,0.296,0.658,0.659
		c0,0.362-0.295,0.657-0.658,0.657c-0.364,0-0.66-0.295-0.66-0.657C268.841,121.177,269.137,120.881,269.501,120.881z
		 M269.5,138.062c-3.128,0-5.4-0.429-6.616-0.862c-0.473-0.168-0.801-0.337-0.936-0.481c0.292-0.312,1.41-0.731,3.191-1.019
		c1.176-0.189,2.634-0.322,4.36-0.322s3.185,0.133,4.36,0.322c1.781,0.287,2.899,0.707,3.191,1.019
		c-0.135,0.145-0.463,0.313-0.936,0.481C274.9,137.634,272.628,138.062,269.5,138.062z M277.779,135.399
		c-2.084-1.467-7.529-1.521-8.279-1.521s-6.194,0.055-8.279,1.521l-2.158-3.425l10.41-7.654l10.441,7.693L277.779,135.399z
		 M284.572,126.266c-0.364,0-0.661-0.296-0.661-0.659s0.297-0.658,0.661-0.658c0.363,0,0.658,0.295,0.658,0.658
		S284.936,126.266,284.572,126.266z"/>
	<path d="M266.966,130.618c0,1.396,1.138,2.533,2.535,2.533c1.396,0,2.533-1.137,2.533-2.533c0-1.397-1.137-2.534-2.533-2.534
		C268.104,128.084,266.966,129.221,266.966,130.618z M269.501,129.584c0.569,0,1.033,0.464,1.033,1.034
		c0,0.569-0.464,1.033-1.033,1.033c-0.57,0-1.035-0.464-1.035-1.033C268.466,130.048,268.931,129.584,269.501,129.584z"/>
</g>
</svg>
