<?xml version="1.0" encoding="utf-8"?>
<!-- Generator: Adobe Illustrator 16.0.0, SVG Export Plug-In . SVG Version: 6.00 Build 0)  -->
<!DOCTYPE svg PUBLIC "-//W3C//DTD SVG 1.1//EN" "http://www.w3.org/Graphics/SVG/1.1/DTD/svg11.dtd">
<svg version="1.1" id="Layer_1" xmlns="http://www.w3.org/2000/svg" xmlns:xlink="http://www.w3.org/1999/xlink" x="0px" y="0px"
	 width="50px" height="50px" viewBox="-315.5 -175.5 50 50" enable-background="new -315.5 -175.5 50 50" xml:space="preserve">
<path d="M-277.627-150.204c-0.331-0.245-0.801-0.178-1.049,0.155l-1.347,1.812c-0.224-5.22-4.264-9.468-9.401-9.992
	c0.376-0.312,0.622-0.776,0.622-1.303c0-0.936-0.762-1.697-1.698-1.697s-1.698,0.762-1.698,1.697c0,0.526,0.246,0.99,0.622,1.303
	c-5.1,0.521-9.117,4.711-9.396,9.877l-1.375-1.678c-0.262-0.32-0.735-0.367-1.055-0.104c-0.321,0.262-0.368,0.734-0.105,1.055
	l2.066,2.522c-0.489,0.065-0.873,0.468-0.873,0.975c0,0.553,0.448,1,1,1H-301v2.812h-0.312c-0.552,0-1,0.448-1,1
	c0,0.553,0.448,1,1,1h21.625c0.552,0,1-0.447,1-1c0-0.552-0.448-1-1-1H-280v-2.812h0.312c0.552,0,1-0.447,1-1
	c0-0.458-0.315-0.828-0.736-0.946l1.951-2.625C-277.225-149.487-277.294-149.957-277.627-150.204z M-282.687-147.587
	c0-0.385,0.313-0.698,0.698-0.698s0.698,0.313,0.698,0.698c0,0.384-0.313,0.697-0.698,0.697S-282.687-147.203-282.687-147.587z
	 M-281.09-149.021c-0.262-0.164-0.568-0.264-0.899-0.264c-0.936,0-1.698,0.762-1.698,1.698c0,0.377,0.128,0.722,0.336,1.004h-5.859
	c0.25-0.296,0.407-0.673,0.407-1.09c0-0.761-0.507-1.399-1.198-1.614v-7.973C-285.409-157.019-281.678-153.514-281.09-149.021z
	 M-290.5-148.371c0.385,0,0.698,0.313,0.698,0.698s-0.313,0.697-0.698,0.697s-0.698-0.312-0.698-0.697
	S-290.885-148.371-290.5-148.371z M-290.5-160.229c0.385,0,0.698,0.312,0.698,0.697s-0.313,0.697-0.698,0.697
	s-0.698-0.312-0.698-0.697S-290.885-160.229-290.5-160.229z M-291-157.26v7.973c-0.691,0.215-1.198,0.854-1.198,1.614
	c0,0.417,0.157,0.794,0.407,1.09h-5.859c0.208-0.282,0.336-0.627,0.336-1.004c0-0.937-0.762-1.698-1.698-1.698
	c-0.331,0-0.637,0.1-0.899,0.264C-299.322-153.514-295.591-157.019-291-157.26z M-299.011-146.89c-0.385,0-0.698-0.313-0.698-0.697
	c0-0.385,0.313-0.698,0.698-0.698s0.698,0.313,0.698,0.698C-298.313-147.203-298.626-146.89-299.011-146.89z M-281-141.771h-19
	v-2.812h19V-141.771z"/>
</svg>
