<?xml version="1.0" encoding="utf-8"?>
<!-- Generator: Adobe Illustrator 16.0.0, SVG Export Plug-In . SVG Version: 6.00 Build 0)  -->
<!DOCTYPE svg PUBLIC "-//W3C//DTD SVG 1.1//EN" "http://www.w3.org/Graphics/SVG/1.1/DTD/svg11.dtd">
<svg version="1.1" id="Layer_1" xmlns="http://www.w3.org/2000/svg" xmlns:xlink="http://www.w3.org/1999/xlink" x="0px" y="0px"
	 width="50px" height="50px" viewBox="-35.5 104.5 50 50" enable-background="new -35.5 104.5 50 50" xml:space="preserve">
<path d="M-9.548,132.505c0.008-0.275,0.236-0.485,0.515-0.484c1.05,0.032,2.07,0.099,3.03,0.198
	c0.275,0.028,0.475,0.273,0.446,0.549c-0.027,0.257-0.244,0.448-0.497,0.448c-0.017,0-0.034-0.001-0.052-0.003
	c-0.937-0.097-1.932-0.161-2.958-0.192C-9.339,133.012-9.557,132.781-9.548,132.505z M-15.54,132.78
	c0.027,0.257,0.244,0.447,0.497,0.447c0.018,0,0.036-0.001,0.054-0.003c0.925-0.099,1.92-0.166,2.957-0.2
	c0.276-0.01,0.492-0.24,0.483-0.517s-0.243-0.502-0.516-0.483c-1.061,0.035-2.081,0.104-3.03,0.206
	C-15.37,132.26-15.569,132.506-15.54,132.78z M-18.5,130.831c0.221,0,0.4-0.18,0.4-0.4v-2.114c0.933,0.745,2.157,1.16,3.486,1.16
	c0.221,0,0.4-0.18,0.4-0.4s-0.179-0.4-0.4-0.4c-1.459,0-2.763-0.57-3.576-1.566c-0.106-0.131-0.285-0.181-0.444-0.124
	s-0.266,0.208-0.266,0.377v3.068C-18.9,130.651-18.721,130.831-18.5,130.831z M0,136.7c0,0.039-0.014,0.074-0.022,0.111
	C-0.018,136.849,0,136.883,0,136.921c0,2.048-6.6,2.594-10.499,2.594c-3.9,0-10.501-0.546-10.501-2.594
	c0-0.038,0.018-0.072,0.022-0.109C-20.986,136.774-21,136.739-21,136.7v-16.549c0-0.202,0.122-0.385,0.308-0.462
	c0.188-0.076,0.402-0.034,0.545,0.107l3.631,3.62c0.189,0.189,0.197,0.493,0.017,0.691c-0.167,0.183-0.365,0.48-0.365,0.863
	c0,0.885,1.009,1.604,2.25,1.604c1.22,0,2.25-0.734,2.25-1.604c0-0.627-0.525-1.201-1.337-1.464
	c-0.166-0.054-0.292-0.189-0.332-0.358c-0.041-0.169,0.009-0.348,0.132-0.471l3.048-3.047c0.195-0.195,0.512-0.195,0.707,0
	l3.048,3.047c0.123,0.123,0.173,0.302,0.133,0.471c-0.041,0.169-0.167,0.305-0.333,0.358c-0.812,0.263-1.336,0.837-1.336,1.464
	c0,0.885,1.009,1.604,2.25,1.604c1.22,0,2.25-0.734,2.25-1.604c0-0.384-0.2-0.683-0.369-0.866c-0.181-0.197-0.174-0.503,0.016-0.692
	l3.635-3.616c0.143-0.142,0.359-0.183,0.544-0.107c0.187,0.078,0.308,0.26,0.308,0.462V136.7z M-20,121.355v12.017
	c0.464-0.243,1.083-0.46,1.881-0.649c0.269-0.067,0.538,0.102,0.602,0.371c0.064,0.269-0.102,0.538-0.371,0.602
	c-1.911,0.454-2.108,0.895-2.113,0.907v1.103c1.99-1.06,6.526-1.38,9.501-1.38c2.974,0,7.509,0.32,9.499,1.38v-1.102
	c-0.003-0.007-0.199-0.465-2.205-0.929c-0.269-0.062-0.437-0.331-0.375-0.6c0.062-0.27,0.333-0.437,0.6-0.375
	c0.914,0.211,1.543,0.438,1.979,0.662v-12.008l-2.473,2.46c0.223,0.357,0.338,0.751,0.338,1.157c0,1.437-1.458,2.604-3.25,2.604
	s-3.25-1.168-3.25-2.604c0-0.846,0.499-1.616,1.317-2.098l-2.182-2.182l-2.182,2.182c0.819,0.481,1.318,1.252,1.318,2.098
	c0,1.437-1.458,2.604-3.25,2.604s-3.25-1.168-3.25-2.604c0-0.405,0.115-0.797,0.334-1.152L-20,121.355z M-0.999,136.91
	c-0.165-0.54-3.573-1.585-9.5-1.585c-5.928,0-9.337,1.045-9.502,1.605c0.169,0.539,3.582,1.584,9.502,1.584
	C-4.58,138.515-1.168,137.47-0.999,136.91z"/>
</svg>
