<?xml version="1.0" encoding="utf-8"?>
<!-- Generator: Adobe Illustrator 16.0.0, SVG Export Plug-In . SVG Version: 6.00 Build 0)  -->
<!DOCTYPE svg PUBLIC "-//W3C//DTD SVG 1.1//EN" "http://www.w3.org/Graphics/SVG/1.1/DTD/svg11.dtd">
<svg version="1.1" id="Layer_1" xmlns="http://www.w3.org/2000/svg" xmlns:xlink="http://www.w3.org/1999/xlink" x="0px" y="0px"
	 width="50px" height="50px" viewBox="34.5 -315.5 50 50" enable-background="new 34.5 -315.5 50 50" xml:space="preserve">
<path d="M72.75-281.817c0,0.414-0.336,0.75-0.75,0.75H47c-0.414,0-0.75-0.336-0.75-0.75s0.336-0.75,0.75-0.75h25
	C72.414-282.567,72.75-282.231,72.75-281.817z M72.75-293.859v8.987c0,0.414-0.336,0.75-0.75,0.75H47c-0.414,0-0.75-0.336-0.75-0.75
	v-8.987c0-0.244,0.119-0.473,0.318-0.613s0.455-0.175,0.686-0.092l5.661,2.035l6.011-7.149c0.285-0.34,0.863-0.34,1.148,0
	l6.011,7.149l5.661-2.035c0.232-0.083,0.486-0.048,0.686,0.092S72.75-294.103,72.75-293.859z M71.25-292.792l-5.149,1.851
	c-0.295,0.108-0.626,0.018-0.828-0.223L59.5-298.03l-5.772,6.866c-0.203,0.241-0.534,0.33-0.828,0.223l-5.149-1.851v7.171h23.5
	V-292.792z"/>
</svg>
