<?xml version="1.0" encoding="utf-8"?>
<!-- Generator: Adobe Illustrator 16.0.0, SVG Export Plug-In . SVG Version: 6.00 Build 0)  -->
<!DOCTYPE svg PUBLIC "-//W3C//DTD SVG 1.1//EN" "http://www.w3.org/Graphics/SVG/1.1/DTD/svg11.dtd">
<svg version="1.1" id="Layer_1" xmlns="http://www.w3.org/2000/svg" xmlns:xlink="http://www.w3.org/1999/xlink" x="0px" y="0px"
	 width="50px" height="50px" viewBox="-175.5 34.5 50 50" enable-background="new -175.5 34.5 50 50" xml:space="preserve">
<path d="M-149.548,63.146c0.009-0.275,0.244-0.479,0.515-0.484c1.05,0.032,2.07,0.099,3.03,0.198
	c0.275,0.028,0.475,0.273,0.446,0.549c-0.027,0.257-0.244,0.448-0.497,0.448c-0.017,0-0.034-0.001-0.052-0.003
	c-0.937-0.097-1.932-0.161-2.958-0.192C-149.339,63.653-149.557,63.423-149.548,63.146z M-152.064,62.666
	c-1.057,0.034-2.077,0.104-3.031,0.205c-0.274,0.029-0.473,0.275-0.444,0.55c0.027,0.257,0.244,0.447,0.497,0.447
	c0.018,0,0.036-0.001,0.054-0.003c0.929-0.099,1.924-0.166,2.957-0.199c0.276-0.009,0.493-0.24,0.483-0.516
	C-151.558,62.874-151.823,62.663-152.064,62.666z M-158.5,62.021c0.276,0,0.5-0.224,0.5-0.5v-2.993l2.073,2.067
	c0.195,0.193,0.51,0.194,0.706,0l3.479-3.457c0.196-0.194,0.197-0.511,0.002-0.707c-0.195-0.197-0.511-0.196-0.707-0.002
	l-3.125,3.106l-2.573-2.567c-0.143-0.142-0.357-0.184-0.545-0.107c-0.187,0.077-0.308,0.26-0.308,0.462v4.198
	C-159,61.798-158.776,62.021-158.5,62.021z M-140,67.231c0,0.052-0.015,0.1-0.029,0.146c0.008,0.049,0.029,0.094,0.029,0.145
	c0,2.048-6.599,2.594-10.498,2.594c-3.9,0-10.502-0.546-10.502-2.594c0-0.051,0.021-0.096,0.029-0.145
	c-0.015-0.047-0.029-0.095-0.029-0.146V52.505c0-0.202,0.122-0.385,0.308-0.462c0.188-0.076,0.401-0.034,0.545,0.107l4.57,4.558
	l2.204-2.205c-0.438-0.602-0.674-1.322-0.674-2.072c0-1.956,1.591-3.547,3.547-3.547s3.547,1.591,3.547,3.547
	c0,0.751-0.237,1.471-0.675,2.073l2.2,2.199l4.576-4.553c0.144-0.142,0.36-0.183,0.544-0.107c0.187,0.078,0.308,0.26,0.308,0.462
	V67.231z M-160,53.71v10.297c0.461-0.239,1.08-0.453,1.881-0.644c0.265-0.064,0.538,0.102,0.602,0.37s-0.102,0.539-0.371,0.603
	c-1.911,0.455-2.108,0.895-2.113,0.907v1.063c1.99-1.06,6.527-1.38,9.502-1.38c2.973,0,7.508,0.32,9.498,1.38v-1.063
	c-0.003-0.008-0.199-0.465-2.204-0.928c-0.269-0.062-0.437-0.33-0.375-0.6c0.062-0.269,0.333-0.437,0.6-0.375
	c0.914,0.211,1.543,0.437,1.979,0.661V53.708l-4.077,4.056c-0.195,0.194-0.511,0.194-0.706-0.001l-2.875-2.875
	c-0.192-0.192-0.196-0.504-0.007-0.7c0.459-0.478,0.712-1.102,0.712-1.757c0-1.404-1.143-2.547-2.547-2.547
	s-2.547,1.143-2.547,2.547c0,0.655,0.252,1.279,0.711,1.758c0.188,0.196,0.185,0.507-0.007,0.699l-2.88,2.881
	c-0.195,0.195-0.511,0.194-0.707,0.001L-160,53.71z M-140.999,67.512c-0.165-0.54-3.573-1.585-9.499-1.585
	c-5.929,0-9.338,1.045-9.503,1.605c0.168,0.539,3.58,1.584,9.503,1.584C-144.578,69.116-141.167,68.071-140.999,67.512z"/>
</svg>
