<?xml version="1.0" encoding="utf-8"?>
<!-- Generator: Adobe Illustrator 16.0.0, SVG Export Plug-In . SVG Version: 6.00 Build 0)  -->
<!DOCTYPE svg PUBLIC "-//W3C//DTD SVG 1.1//EN" "http://www.w3.org/Graphics/SVG/1.1/DTD/svg11.dtd">
<svg version="1.1" id="Layer_1" xmlns="http://www.w3.org/2000/svg" xmlns:xlink="http://www.w3.org/1999/xlink" x="0px" y="0px"
	 width="50px" height="50px" viewBox="174.5 34.5 50 50" enable-background="new 174.5 34.5 50 50" xml:space="preserve">
<path d="M209.692,50.877c-0.188-0.076-0.401-0.034-0.545,0.107l-4.576,4.553l-4.718-4.718c-0.195-0.195-0.512-0.195-0.707,0
	l-4.724,4.723l-4.569-4.558c-0.143-0.142-0.358-0.183-0.545-0.107c-0.187,0.077-0.309,0.26-0.309,0.462v14.727
	c0,0.276,0.224,0.5,0.5,0.5h5.08c0.034,0.008,0.07,0.012,0.107,0.012c0.001,0,0.001,0,0.002,0l14.811-0.012
	c0.276,0,0.5-0.224,0.5-0.5V51.339C210,51.137,209.879,50.955,209.692,50.877z M194.07,56.604c0.195,0.193,0.512,0.194,0.707-0.001
	l4.723-4.723l4.717,4.717c0.195,0.195,0.511,0.194,0.706,0.001L209,52.542v10.535h-19V52.544L194.07,56.604z M194.806,65.577
	c-0.035-0.008-0.07-0.012-0.106-0.012H190v-1.488h19v1.488L194.806,65.577z M191,60.806v-4.648c0-0.202,0.122-0.385,0.309-0.462
	c0.187-0.076,0.402-0.034,0.545,0.107l2.572,2.565l2.854-2.854c0.195-0.195,0.512-0.195,0.707,0s0.195,0.512,0,0.707l-3.207,3.207
	c-0.195,0.195-0.512,0.194-0.707,0.001L192,57.362v3.443c0,0.276-0.224,0.5-0.5,0.5S191,61.082,191,60.806z M210,67.827
	c0,0.276-0.224,0.5-0.5,0.5h-20c-0.276,0-0.5-0.224-0.5-0.5s0.224-0.5,0.5-0.5h20C209.776,67.327,210,67.551,210,67.827z"/>
</svg>
