<?xml version="1.0" encoding="utf-8"?>
<!-- Generator: Adobe Illustrator 16.0.0, SVG Export Plug-In . SVG Version: 6.00 Build 0)  -->
<!DOCTYPE svg PUBLIC "-//W3C//DTD SVG 1.1//EN" "http://www.w3.org/Graphics/SVG/1.1/DTD/svg11.dtd">
<svg version="1.1" id="Layer_1" xmlns="http://www.w3.org/2000/svg" xmlns:xlink="http://www.w3.org/1999/xlink" x="0px" y="0px"
	 width="50px" height="50px" viewBox="-35.5 104.5 50 50" enable-background="new -35.5 104.5 50 50" xml:space="preserve">
<path d="M5.064,123.742c-0.261-0.21-0.629-0.219-0.902-0.026l-8.459,5.993l-5.527-11.589c-0.248-0.521-1.105-0.521-1.354,0
	l-5.591,11.724l-8.386-6.121c-0.272-0.199-0.643-0.192-0.907,0.017c-0.264,0.208-0.357,0.567-0.228,0.878l5.756,13.805
	c0.409,2.237,6.419,2.849,10.033,2.849s9.624-0.611,10.033-2.849l5.756-13.805C5.417,124.308,5.326,123.951,5.064,123.742z
	 M-10.5,139.771c-3.343,0-5.805-0.426-7.218-0.864c-0.801-0.248-1.269-0.5-1.361-0.681c0.102-0.232,0.655-0.536,1.605-0.819
	c0.788-0.234,1.852-0.453,3.169-0.604c0.854-0.099,1.809-0.169,2.87-0.195c0.304-0.008,0.615-0.012,0.936-0.012
	c0.152,0,0.295,0.004,0.444,0.006c0.993,0.011,1.904,0.06,2.729,0.135c1.652,0.151,2.957,0.404,3.87,0.671
	c0.835,0.243,1.342,0.494,1.496,0.684l0.031,0.063c-0.109,0.216-0.591,0.491-1.417,0.753C-4.772,139.358-7.211,139.771-10.5,139.771
	z M-18.058,136.034l1.866-3.913l4.123,3.01C-14.059,135.219-16.352,135.483-18.058,136.034z M-9.332,135.116l4.449-3.152l1.941,4.07
	C-4.766,135.445-7.256,135.186-9.332,135.116z M-10.5,120.186l4.962,10.404l-5.18,3.67l-4.817-3.517L-10.5,120.186z
	 M-17.425,131.222l-2.393,5.017l-4.054-9.723L-17.425,131.222z M-1.183,136.238l-2.458-5.154l6.54-4.634L-1.183,136.238z"/>
</svg>
