<?xml version="1.0" encoding="utf-8"?>
<!-- Generator: Adobe Illustrator 16.0.0, SVG Export Plug-In . SVG Version: 6.00 Build 0)  -->
<!DOCTYPE svg PUBLIC "-//W3C//DTD SVG 1.1//EN" "http://www.w3.org/Graphics/SVG/1.1/DTD/svg11.dtd">
<svg version="1.1" id="Layer_1" xmlns="http://www.w3.org/2000/svg" xmlns:xlink="http://www.w3.org/1999/xlink" x="0px" y="0px"
	 width="50px" height="50px" viewBox="174.5 -35.5 50 50" enable-background="new 174.5 -35.5 50 50" xml:space="preserve">
<path d="M211.328-19.682c0-1.085-0.883-1.969-1.969-1.969s-1.969,0.884-1.969,1.969c0,0.71,0.381,1.328,0.945,1.674l-3.765,3.746
	l-3.87-3.871c0.464-0.36,0.768-0.917,0.768-1.549c0-1.085-0.883-1.969-1.969-1.969s-1.969,0.884-1.969,1.969
	c0,0.632,0.304,1.188,0.768,1.549l-3.876,3.876l-3.821-3.811c0.599-0.338,1.008-0.973,1.008-1.708c0-1.085-0.883-1.969-1.969-1.969
	s-1.969,0.884-1.969,1.969c0,0.764,0.441,1.42,1.078,1.746v3.298v11.351v3.375c0,0.414,0.336,0.75,0.75,0.75h20
	c0.414,0,0.75-0.336,0.75-0.75v-3.375v-11.351v-3.204C210.887-18.262,211.328-18.918,211.328-19.682z M209.359-20.15
	c0.259,0,0.469,0.211,0.469,0.469c0,0.259-0.21,0.469-0.469,0.469s-0.469-0.21-0.469-0.469
	C208.891-19.939,209.101-20.15,209.359-20.15z M199.5-20.15c0.259,0,0.469,0.211,0.469,0.469c0,0.259-0.21,0.469-0.469,0.469
	s-0.469-0.21-0.469-0.469C199.031-19.939,199.241-20.15,199.5-20.15z M194.954-12.667l4.546-4.546l4.54,4.541
	c0.293,0.292,0.767,0.293,1.06,0.001l3.65-3.632v1.571v10.601l-13.919,0.012c-0.043-0.008-0.087-0.012-0.132-0.012h-4.449v-10.601
	V-16.3l3.645,3.634C194.188-12.373,194.662-12.374,194.954-12.667z M189.641-20.244c0.259,0,0.469,0.211,0.469,0.469
	c0,0.259-0.21,0.469-0.469,0.469s-0.469-0.21-0.469-0.469C189.172-20.033,189.382-20.244,189.641-20.244z M190.25-0.756v-1.875
	h4.303c0.044,0.008,0.089,0.012,0.135,0.012c0.001,0,0.002,0,0.003,0l14.06-0.012v1.875H190.25z"/>
</svg>
