<?xml version="1.0" encoding="utf-8"?>
<!-- Generator: Adobe Illustrator 16.0.0, SVG Export Plug-In . SVG Version: 6.00 Build 0)  -->
<!DOCTYPE svg PUBLIC "-//W3C//DTD SVG 1.1//EN" "http://www.w3.org/Graphics/SVG/1.1/DTD/svg11.dtd">
<svg version="1.1" id="Layer_1" xmlns="http://www.w3.org/2000/svg" xmlns:xlink="http://www.w3.org/1999/xlink" x="0px" y="0px"
	 width="50px" height="50px" viewBox="34.5 174.5 50 50" enable-background="new 34.5 174.5 50 50" xml:space="preserve">
<path d="M69.692,190.877c-0.188-0.076-0.401-0.034-0.545,0.107l-4.576,4.553l-4.718-4.718c-0.195-0.195-0.512-0.195-0.707,0
	l-4.724,4.723l-4.569-4.558c-0.144-0.142-0.358-0.183-0.545-0.107c-0.187,0.077-0.309,0.26-0.309,0.462v14.727
	c0,0.276,0.224,0.5,0.5,0.5h5.08c0.034,0.008,0.07,0.012,0.107,0.012c0.001,0,0.001,0,0.002,0l14.811-0.012
	c0.276,0,0.5-0.224,0.5-0.5v-14.727C70,191.137,69.879,190.955,69.692,190.877z M57.986,196.222l-3.207,3.207
	c-0.195,0.195-0.512,0.194-0.707,0.001L52,197.362v3.443c0,0.276-0.224,0.5-0.5,0.5s-0.5-0.224-0.5-0.5v-4.648
	c0-0.202,0.122-0.385,0.309-0.462c0.187-0.075,0.402-0.034,0.545,0.107l2.572,2.565l2.854-2.854c0.195-0.195,0.512-0.195,0.707,0
	S58.182,196.026,57.986,196.222z M69.5,208.327h-20c-0.276,0-0.5-0.224-0.5-0.5s0.224-0.5,0.5-0.5h20c0.276,0,0.5,0.224,0.5,0.5
	S69.776,208.327,69.5,208.327z"/>
</svg>
