<?xml version="1.0" encoding="utf-8"?>
<!-- Generator: Adobe Illustrator 16.0.0, SVG Export Plug-In . SVG Version: 6.00 Build 0)  -->
<!DOCTYPE svg PUBLIC "-//W3C//DTD SVG 1.1//EN" "http://www.w3.org/Graphics/SVG/1.1/DTD/svg11.dtd">
<svg version="1.1" id="Layer_1" xmlns="http://www.w3.org/2000/svg" xmlns:xlink="http://www.w3.org/1999/xlink" x="0px" y="0px"
	 width="50px" height="50px" viewBox="34.5 -105.5 50 50" enable-background="new 34.5 -105.5 50 50" xml:space="preserve">
<path d="M56.919-88.422c0-1.424,1.159-2.583,2.584-2.583c1.424,0,2.582,1.159,2.582,2.583s-1.158,2.583-2.582,2.583
	C58.078-85.839,56.919-86.998,56.919-88.422z M68.705-72.797c-0.017,0.068-0.051,0.127-0.092,0.18c0,0.01,0.005,0.019,0.005,0.028
	c0,2.052-5.961,2.594-9.113,2.594c-3.153,0-9.117-0.542-9.117-2.594c0-0.01,0.005-0.019,0.005-0.028
	c-0.041-0.053-0.075-0.112-0.092-0.18L46.76-86.964c-0.065-0.262,0.09-0.529,0.351-0.603c0.136-0.043,0.192-0.062,0.251-0.076
	c0.826-0.207,1.679-0.312,2.53-0.312c3.483,0,6.809,1.784,9.054,4.702c-0.94,1.634-1.584,3.738-1.632,6.446
	c-0.005,0.276,0.215,0.504,0.491,0.509c0.003,0,0.006,0,0.009,0c0.272,0,0.495-0.218,0.5-0.491c0.061-3.422,1.125-5.774,2.502-7.414
	c2.836-3.056,6.91-4.422,10.832-3.44c0.056,0.014,0.109,0.031,0.164,0.049c0.261,0.073,0.498,0.366,0.433,0.628L68.705-72.797z
	 M56.356-82.172c0.098,0.136,0.251,0.208,0.406,0.208c0.102,0,0.204-0.031,0.292-0.094c0.225-0.161,0.275-0.474,0.114-0.698
	c-2.686-3.733-8.07-3.65-8.293-3.646c-0.276,0.007-0.495,0.236-0.488,0.512c0.007,0.276,0.258,0.504,0.512,0.488
	C48.953-85.406,53.975-85.483,56.356-82.172z M67.618-72.588c0-0.477-2.761-1.595-8.113-1.595c-5.355,0-8.117,1.118-8.117,1.595
	c0,0.477,2.762,1.594,8.117,1.594C64.857-70.995,67.618-72.112,67.618-72.588z"/>
</svg>
