<?xml version="1.0" encoding="utf-8"?>
<!-- Generator: Adobe Illustrator 16.0.0, SVG Export Plug-In . SVG Version: 6.00 Build 0)  -->
<!DOCTYPE svg PUBLIC "-//W3C//DTD SVG 1.1//EN" "http://www.w3.org/Graphics/SVG/1.1/DTD/svg11.dtd">
<svg version="1.1" id="Layer_1" xmlns="http://www.w3.org/2000/svg" xmlns:xlink="http://www.w3.org/1999/xlink" x="0px" y="0px"
	 width="50px" height="50px" viewBox="-35.5 -175.5 50 50" enable-background="new -35.5 -175.5 50 50" xml:space="preserve">
<path d="M2.224-150.011c-0.222-0.164-0.534-0.118-0.7,0.103L0-147.857v-0.098c0-5.357-4.036-9.783-9.226-10.415
	c0.238-0.292,0.384-0.661,0.377-1.066c-0.016-0.896-0.756-1.624-1.679-1.624h0c-0.91,0.016-1.638,0.77-1.623,1.681
	c0.007,0.383,0.152,0.73,0.379,1.008c-5.176,0.629-9.204,5.033-9.226,10.372l-1.541-1.881c-0.174-0.213-0.491-0.245-0.704-0.07
	c-0.213,0.175-0.245,0.49-0.07,0.704l2.042,2.493h-0.042c-0.552,0-1,0.448-1,1s0.448,1,1,1H-21v2.812h-0.312c-0.552,0-1,0.448-1,1
	s0.448,1,1,1H0.312c0.552,0,1-0.448,1-1s-0.448-1-1-1H0v-2.812h0.312c0.552,0,1-0.448,1-1c0-0.518-0.398-0.928-0.902-0.98
	l1.917-2.579C2.492-149.533,2.446-149.846,2.224-150.011z M-11-146.753h-8.019l8.019-6.596V-146.753z M-11-144.753v2.812h-4.375
	v-2.812H-11z M-10-141.94v-2.812h4.375v2.812H-10z M-10-146.753v-6.596l8.019,6.596H-10z M-1-147.955v0.714l-9-7.403v-2.786
	C-4.995-157.167-1-153.024-1-147.955z M-11.151-159.396c-0.006-0.36,0.281-0.658,0.652-0.664c0.353,0,0.645,0.288,0.651,0.641
	c0.006,0.359-0.281,0.656-0.64,0.662l-0.007,0.301c-0.001,0-0.002,0-0.004,0h0v-0.301
	C-10.853-158.756-11.145-159.043-11.151-159.396z M-11-157.43v2.786l-9,7.403v-0.714C-20-153.024-16.005-157.167-11-157.43z
	 M-20-144.753h3.625v2.812H-20V-144.753z M-1-141.94h-3.625v-2.812H-1V-141.94z"/>
</svg>
