<?xml version="1.0" encoding="utf-8"?>
<!-- Generator: Adobe Illustrator 16.0.0, SVG Export Plug-In . SVG Version: 6.00 Build 0)  -->
<!DOCTYPE svg PUBLIC "-//W3C//DTD SVG 1.1//EN" "http://www.w3.org/Graphics/SVG/1.1/DTD/svg11.dtd">
<svg version="1.1" id="Layer_1" xmlns="http://www.w3.org/2000/svg" xmlns:xlink="http://www.w3.org/1999/xlink" x="0px" y="0px"
	 width="50px" height="50px" viewBox="34.5 104.5 50 50" enable-background="new 34.5 104.5 50 50" xml:space="preserve">
<path d="M61.404,130.619c0-1.05-0.854-1.904-1.904-1.904s-1.904,0.854-1.904,1.904c0,1.049,0.854,1.902,1.904,1.902
	S61.404,131.668,61.404,130.619z M59.5,131.021c-0.223,0-0.404-0.181-0.404-0.402c0-0.223,0.182-0.404,0.404-0.404
	s0.404,0.182,0.404,0.404C59.904,130.841,59.723,131.021,59.5,131.021z M75.091,122.428c-1.05,0-1.904,0.854-1.904,1.903
	c0,0.422,0.143,0.809,0.376,1.125l-7.938,6.166l-5.372-12.137c0.677-0.291,1.152-0.964,1.152-1.747c0-1.05-0.854-1.903-1.904-1.903
	s-1.904,0.854-1.904,1.903c0,0.783,0.476,1.456,1.152,1.747l-5.353,12.092l-7.957-6.122c0.232-0.316,0.375-0.702,0.375-1.124
	c0-1.05-0.854-1.903-1.904-1.903s-1.903,0.854-1.903,1.903s0.854,1.903,1.903,1.903c0.051,0,0.1-0.011,0.149-0.015l5.372,13.876
	c0.033,2.422,6.338,3.069,10.069,3.069s10.036-0.647,10.069-3.069l5.372-13.876c0.05,0.004,0.099,0.015,0.149,0.015
	c1.05,0,1.903-0.854,1.903-1.903S76.141,122.428,75.091,122.428z M43.506,124.331c0-0.223,0.181-0.403,0.403-0.403
	s0.404,0.181,0.404,0.403s-0.182,0.403-0.404,0.403S43.506,124.554,43.506,124.331z M59.5,141.665c-2.333,0-4.236-0.208-5.656-0.482
	c-1.357-0.263-2.271-0.586-2.686-0.847c-0.124-0.079-0.204-0.151-0.237-0.216c0.053-0.119,0.229-0.259,0.512-0.404
	c0.022-0.011,0.046-0.021,0.069-0.033c0.853-0.415,2.606-0.873,5.136-1.08c0.789-0.064,1.653-0.104,2.588-0.109
	c0.093-0.001,0.181-0.004,0.274-0.004c0.146,0,0.284,0.004,0.427,0.005c0.95,0.011,1.825,0.056,2.621,0.125
	c2.472,0.216,4.18,0.663,4.995,1.043l0.009,0.021h0.037c0.271,0.131,0.439,0.252,0.49,0.352c-0.034,0.078-0.123,0.165-0.258,0.257
	c-0.425,0.289-1.342,0.624-2.701,0.892C63.705,141.461,61.812,141.665,59.5,141.665z M52.271,137.823l1.724-3.893l4.018,3.091
	C56.131,137.101,53.96,137.335,52.271,137.823z M61.111,137.027l3.918-3.044l1.7,3.84C65.076,137.346,62.963,137.111,61.111,137.027
	z M59.5,117.335c0.223,0,0.404,0.181,0.404,0.403s-0.182,0.403-0.404,0.403s-0.404-0.181-0.404-0.403S59.277,117.335,59.5,117.335z
	 M59.5,121.493l4.903,11.077l-4.835,3.756l-4.949-3.808L59.5,121.493z M52.771,132.989l-2.393,5.402l-3.993-10.315L52.771,132.989z
	 M68.621,138.392l-2.371-5.355l6.355-4.938L68.621,138.392z M75.091,124.734c-0.223,0-0.404-0.181-0.404-0.403
	s0.182-0.403,0.404-0.403s0.403,0.181,0.403,0.403S75.313,124.734,75.091,124.734z"/>
</svg>
