<?xml version="1.0" encoding="utf-8"?>
<!-- Generator: Adobe Illustrator 16.0.0, SVG Export Plug-In . SVG Version: 6.00 Build 0)  -->
<!DOCTYPE svg PUBLIC "-//W3C//DTD SVG 1.1//EN" "http://www.w3.org/Graphics/SVG/1.1/DTD/svg11.dtd">
<svg version="1.1" id="Layer_1" xmlns="http://www.w3.org/2000/svg" xmlns:xlink="http://www.w3.org/1999/xlink" x="0px" y="0px"
	 width="50px" height="50px" viewBox="-315.5 -245.5 50 50" enable-background="new -315.5 -245.5 50 50" xml:space="preserve">
<path d="M-282.574-209.359c0,0.276-0.224,0.5-0.5,0.5h-14.851c-0.276,0-0.5-0.224-0.5-0.5s0.224-0.5,0.5-0.5h14.851
	C-282.798-209.859-282.574-209.636-282.574-209.359z M-277.072-228.469l-5.815,16.969c-0.069,0.202-0.259,0.338-0.473,0.338h-14.279
	c-0.214,0-0.404-0.136-0.473-0.338l-5.815-16.969c-0.047-0.137-0.032-0.287,0.04-0.412c0.072-0.125,0.194-0.213,0.336-0.241
	c3.237-0.643,6.707-0.016,9.415,1.673l3.23-4.497c0.188-0.261,0.624-0.261,0.812,0l3.23,4.497c2.708-1.689,6.179-2.315,9.415-1.673
	c0.142,0.028,0.264,0.116,0.336,0.241C-277.04-228.755-277.025-228.605-277.072-228.469z M-295.31-224.865
	c-1.216-0.831-2.668-1.384-4.198-1.602c-0.173-0.026-0.343,0.042-0.454,0.175c-0.111,0.133-0.146,0.314-0.091,0.478l2.445,7.352
	c0.07,0.21,0.265,0.342,0.475,0.342c0.052,0,0.105-0.008,0.158-0.025c0.262-0.087,0.404-0.37,0.317-0.632l-2.177-6.547
	c1.077,0.251,2.089,0.689,2.963,1.286c0.227,0.154,0.538,0.097,0.695-0.131C-295.022-224.398-295.082-224.709-295.31-224.865z"/>
</svg>
