<?xml version="1.0" encoding="utf-8"?>
<!-- Generator: Adobe Illustrator 16.0.0, SVG Export Plug-In . SVG Version: 6.00 Build 0)  -->
<!DOCTYPE svg PUBLIC "-//W3C//DTD SVG 1.1//EN" "http://www.w3.org/Graphics/SVG/1.1/DTD/svg11.dtd">
<svg version="1.1" id="Layer_1" xmlns="http://www.w3.org/2000/svg" xmlns:xlink="http://www.w3.org/1999/xlink" x="0px" y="0px"
	 width="50px" height="50px" viewBox="-175.5 314.5 50 50" enable-background="new -175.5 314.5 50 50" xml:space="preserve">
<path d="M-134.178,332.846c-0.175-0.131-0.413-0.133-0.59-0.007l-8.048,5.734c-0.187,0.133-0.259,0.375-0.176,0.588
	c0.077,0.199,0.116,0.398,0.116,0.594c0,0.896-0.729,1.625-1.625,1.625s-1.625-0.729-1.625-1.625c0-0.858,0.675-1.567,1.537-1.614
	c0.166-0.009,0.317-0.1,0.402-0.243s0.094-0.319,0.022-0.47l-4.875-10.28c-0.166-0.35-0.738-0.35-0.904,0l-4.879,10.288
	c-0.069,0.147-0.063,0.32,0.019,0.462c0.081,0.143,0.227,0.235,0.39,0.25c0.844,0.074,1.479,0.766,1.479,1.607
	c0,0.896-0.729,1.625-1.625,1.625s-1.625-0.729-1.625-1.625c0-0.16,0.031-0.33,0.095-0.521c0.069-0.206-0.002-0.434-0.178-0.562
	l-7.94-5.829c-0.177-0.129-0.418-0.13-0.593,0.001c-0.176,0.13-0.247,0.359-0.176,0.566l5.733,16.509
	c0.004,0.01,0.015,0.015,0.019,0.024c0.176,1.98,6.409,2.511,9.734,2.511c3.324,0,9.557-0.53,9.732-2.511
	c0.004-0.01,0.015-0.015,0.019-0.024l5.733-16.509C-133.934,333.204-134.004,332.977-134.178,332.846z M-152.182,336.536
	l2.239-4.722c0.12-0.25,0.422-0.354,0.666-0.238c0.25,0.119,0.356,0.417,0.238,0.666l-2.09,4.405
	c0.772,0.847,1.194,1.937,1.194,3.107c0,0.276-0.224,0.5-0.5,0.5s-0.5-0.224-0.5-0.5c0-1.017-0.404-1.954-1.138-2.64
	C-152.229,336.967-152.274,336.732-152.182,336.536z M-149.489,351.454c-5.484,0-8.658-1.054-8.751-1.592
	c0.087-0.542,3.256-1.598,8.751-1.598s8.662,1.056,8.749,1.594C-140.833,350.4-144.006,351.454-149.489,351.454z"/>
</svg>
