<?xml version="1.0" encoding="utf-8"?>
<!-- Generator: Adobe Illustrator 16.0.0, SVG Export Plug-In . SVG Version: 6.00 Build 0)  -->
<!DOCTYPE svg PUBLIC "-//W3C//DTD SVG 1.1//EN" "http://www.w3.org/Graphics/SVG/1.1/DTD/svg11.dtd">
<svg version="1.1" id="Layer_1" xmlns="http://www.w3.org/2000/svg" xmlns:xlink="http://www.w3.org/1999/xlink" x="0px" y="0px"
	 width="50px" height="50px" viewBox="174.5 244.5 50 50" enable-background="new 174.5 244.5 50 50" xml:space="preserve">
<path d="M199.498,267.459c0.001,0,0.001,0,0.002,0c0.309,0,0.586,0.189,0.698,0.477l0.058,0.148c0.64-0.29,1.088-0.932,1.088-1.678
	c0-1.017-0.827-1.844-1.844-1.844s-1.844,0.827-1.844,1.844c0,0.747,0.448,1.389,1.088,1.678l0.057-0.146
	C198.912,267.65,199.188,267.46,199.498,267.459z M199.5,266.062c0.189,0,0.344,0.154,0.344,0.344s-0.154,0.344-0.344,0.344
	s-0.344-0.154-0.344-0.344S199.311,266.062,199.5,266.062z"/>
<path d="M214.281,261.108c-1.017,0-1.844,0.827-1.844,1.844c0,0.395,0.127,0.759,0.34,1.06l-7.456,5.792l-5.059-11.428
	c0.636-0.291,1.081-0.93,1.081-1.674c0-1.017-0.827-1.844-1.844-1.844s-1.844,0.827-1.844,1.844c0,0.744,0.445,1.383,1.081,1.674
	l-5.04,11.385l-7.474-5.75c0.212-0.3,0.339-0.664,0.339-1.059c0-1.017-0.827-1.844-1.844-1.844s-1.844,0.827-1.844,1.844
	s0.827,1.844,1.844,1.844c0.04,0,0.077-0.01,0.116-0.012l5.306,13.703c0.047,0.123,0.129,0.223,0.227,0.303
	c0.001,0.008,0.002,0.016,0.004,0.022v3.317c0,0.276,0.152,0.53,0.396,0.661c0.974,0.522,4.205,1.351,8.733,1.351
	c4.607,0,7.733-0.695,8.788-1.384c0.212-0.139,0.34-0.375,0.34-0.628v-3.312c0.002-0.01,0.004-0.02,0.005-0.028
	c0.098-0.08,0.18-0.18,0.227-0.303l5.306-13.703c0.039,0.002,0.076,0.012,0.116,0.012c1.017,0,1.844-0.827,1.844-1.844
	S215.298,261.108,214.281,261.108z M184.375,262.952c0-0.189,0.154-0.344,0.344-0.344s0.344,0.154,0.344,0.344
	s-0.154,0.344-0.344,0.344S184.375,263.142,184.375,262.952z M199.505,270.574l1.126,2.873l-1.066,0.828l-1.148-0.884
	L199.505,270.574z M201.529,275.743c-0.021-0.001-0.042-0.003-0.062-0.004l-0.674-0.519l0.408-0.316L201.529,275.743z
	 M191.871,278.55v-0.021c0.31-0.324,1.477-0.765,3.361-1.055c0.014-0.002,0.026-0.005,0.041-0.007h0.183l0.034-0.027
	c0.438-0.062,0.915-0.112,1.423-0.155c0.42-0.035,0.86-0.062,1.327-0.081c0.407-0.016,0.819-0.029,1.26-0.029
	c0.495,0,0.963,0.014,1.415,0.033c0.43,0.019,0.83,0.048,1.22,0.081c0.544,0.046,1.059,0.102,1.521,0.17
	c0.003,0.003,0.007,0.006,0.009,0.009h0.062c0.034,0.005,0.062,0.012,0.095,0.017c1.85,0.289,2.999,0.723,3.306,1.044v0.023
	c-0.121,0.126-0.37,0.271-0.745,0.416c-1.177,0.459-3.56,0.936-6.883,0.936c-3.322,0-5.705-0.477-6.883-0.936
	C192.242,278.82,191.992,278.677,191.871,278.55z M198.341,275.227l-0.646,0.502c-0.06,0.003-0.124,0.009-0.186,0.012l0.344-0.89
	L198.341,275.227z M195.846,275.885c-1.217,0.138-2.514,0.364-3.549,0.743l1.999-4.514l2.317,1.783L195.846,275.885z
	 M203.198,275.89l-0.763-1.945l2.291-1.779l1.977,4.463C205.681,276.254,204.401,276.028,203.198,275.89z M199.5,256.358
	c0.189,0,0.344,0.154,0.344,0.344s-0.154,0.344-0.344,0.344s-0.344-0.154-0.344-0.344S199.311,256.358,199.5,256.358z
	 M199.5,260.357l4.602,10.394l-2.236,1.737l-1.609-4.108l-0.058-0.148c-0.112-0.287-0.39-0.477-0.698-0.477
	c-0.001,0-0.001,0-0.002,0c-0.31,0.001-0.586,0.191-0.697,0.479l-0.057,0.146l-1.567,4.059l-2.256-1.736L199.5,260.357z
	 M193.072,271.173l-2.217,5.008l-3.702-9.562L193.072,271.173z M207.128,281.676c-1.039,0.438-3.612,0.966-7.628,0.966
	c-3.784,0-6.52-0.604-7.629-1.005v-1.368c2.433,1.086,6.947,1.134,7.629,1.134s5.195-0.048,7.628-1.134V281.676z M208.145,276.181
	l-2.197-4.964l5.891-4.575L208.145,276.181z M214.281,263.296c-0.189,0-0.344-0.154-0.344-0.344s0.154-0.344,0.344-0.344
	s0.344,0.154,0.344,0.344S214.471,263.296,214.281,263.296z"/>
</svg>
