<?xml version="1.0" encoding="utf-8"?>
<!-- Generator: Adobe Illustrator 16.0.0, SVG Export Plug-In . SVG Version: 6.00 Build 0)  -->
<!DOCTYPE svg PUBLIC "-//W3C//DTD SVG 1.1//EN" "http://www.w3.org/Graphics/SVG/1.1/DTD/svg11.dtd">
<svg version="1.1" id="Layer_1" xmlns="http://www.w3.org/2000/svg" xmlns:xlink="http://www.w3.org/1999/xlink" x="0px" y="0px"
	 width="50px" height="50px" viewBox="244.5 -175.5 50 50" enable-background="new 244.5 -175.5 50 50" xml:space="preserve">
<path d="M278.591-141.319c0.553,0,1-0.448,1-1s-0.447-1-1-1h-18.18c-0.553,0-1,0.448-1,1s0.447,1,1,1h0.34v2.25h-0.34
	c-0.553,0-1,0.448-1,1s0.447,1,1,1h18.18c0.553,0,1-0.448,1-1s-0.447-1-1-1h-0.34v-2.25H278.591z M271.751-141.319v2.25h-4.5v-2.25
	H271.751z M261.751-141.319h4.5v2.25h-4.5V-141.319z M277.251-139.069h-4.5v-2.25h4.5V-139.069z M285.2-156.008
	c-0.467-0.292-1.085-0.154-1.379,0.313l-5.094,8.085l-8.227-8.226v-2.762h2.416c0.553,0,1-0.448,1-1s-0.447-1-1-1h-2.416v-2.333
	c0-0.552-0.447-1-1-1s-1,0.448-1,1v2.333h-2.418c-0.553,0-1,0.448-1,1s0.447,1,1,1h2.418v2.762l-8.227,8.226l-5.096-8.085
	c-0.293-0.467-0.91-0.605-1.379-0.313c-0.467,0.294-0.607,0.912-0.312,1.379l6.141,9.743c0.183,0.291,0.502,0.467,0.846,0.467
	h18.055c0.344,0,0.663-0.176,0.846-0.467l6.139-9.743C285.808-155.096,285.667-155.714,285.2-156.008z M277.091-146.419h-6.59
	v-6.589L277.091-146.419z M268.501-146.419h-6.59l6.59-6.589V-146.419z"/>
</svg>
