<?xml version="1.0" encoding="utf-8"?>
<!-- Generator: Adobe Illustrator 16.0.0, SVG Export Plug-In . SVG Version: 6.00 Build 0)  -->
<!DOCTYPE svg PUBLIC "-//W3C//DTD SVG 1.1//EN" "http://www.w3.org/Graphics/SVG/1.1/DTD/svg11.dtd">
<svg version="1.1" id="Layer_1" xmlns="http://www.w3.org/2000/svg" xmlns:xlink="http://www.w3.org/1999/xlink" x="0px" y="0px"
	 width="50px" height="50px" viewBox="314.5 -245.5 50 50" enable-background="new 314.5 -245.5 50 50" xml:space="preserve">
<path d="M356-227.429c-1.376,0-2.495,1.12-2.495,2.496c0,0.539,0.176,1.036,0.469,1.444l-4.718,2.994l-1.24-2.685
	c-0.174-0.378-0.621-0.539-0.994-0.367l-3.123,1.436c-0.111,0.052-0.197,0.131-0.269,0.222l-3.224-4.851
	c0.928-0.364,1.589-1.263,1.589-2.318c0-1.376-1.119-2.496-2.495-2.496s-2.495,1.12-2.495,2.496c0,1.056,0.661,1.954,1.589,2.318
	l-3.224,4.851c-0.071-0.091-0.157-0.17-0.269-0.222l-3.123-1.436c-0.374-0.17-0.82-0.01-0.994,0.367l-1.266,2.739l-4.694-3.046
	c0.294-0.409,0.471-0.906,0.471-1.447c0-1.376-1.119-2.496-2.495-2.496s-2.495,1.12-2.495,2.496s1.119,2.495,2.495,2.495
	c0.262,0,0.509-0.052,0.746-0.127l6.092,9.668c0.138,0.218,0.377,0.351,0.635,0.351h18.055c0.258,0,0.497-0.133,0.635-0.351
	l6.092-9.668c0.237,0.075,0.484,0.127,0.746,0.127c1.376,0,2.495-1.119,2.495-2.495S357.376-227.429,356-227.429z M344.525-220.747
	l2.442-1.123l1.011,2.187l-2.027,1.286l-1.544-2.322C344.447-220.73,344.487-220.729,344.525-220.747z M339.5-230.054
	c0.549,0,0.995,0.447,0.995,0.996s-0.446,0.995-0.995,0.995s-0.995-0.446-0.995-0.995S338.951-230.054,339.5-230.054z
	 M332.032-221.87l2.442,1.123c0.038,0.018,0.078,0.018,0.118,0.027l-1.599,2.405l-2.004-1.301L332.032-221.87z M322.005-224.933
	c0-0.549,0.446-0.996,0.995-0.996s0.995,0.447,0.995,0.996s-0.446,0.995-0.995,0.995S322.005-224.384,322.005-224.933z
	 M348.113-214.046h-17.227l-4.102-6.509l6.015,3.902c0.346,0.224,0.806,0.128,1.033-0.215l5.667-8.525l5.608,8.438
	c0.226,0.34,0.682,0.438,1.027,0.218l6.121-3.885L348.113-214.046z M356-223.938c-0.549,0-0.995-0.446-0.995-0.995
	s0.446-0.996,0.995-0.996s0.995,0.447,0.995,0.996S356.549-223.938,356-223.938z M349.34-210.196c0,0.414-0.336,0.75-0.75,0.75
	h-18.18c-0.414,0-0.75-0.336-0.75-0.75s0.336-0.75,0.75-0.75h18.18C349.004-210.946,349.34-210.61,349.34-210.196z"/>
</svg>
