<?xml version="1.0" encoding="utf-8"?>
<!-- Generator: Adobe Illustrator 16.0.0, SVG Export Plug-In . SVG Version: 6.00 Build 0)  -->
<!DOCTYPE svg PUBLIC "-//W3C//DTD SVG 1.1//EN" "http://www.w3.org/Graphics/SVG/1.1/DTD/svg11.dtd">
<svg version="1.1" id="Layer_1" xmlns="http://www.w3.org/2000/svg" xmlns:xlink="http://www.w3.org/1999/xlink" x="0px" y="0px"
	 width="50px" height="50px" viewBox="174.5 174.5 50 50" enable-background="new 174.5 174.5 50 50" xml:space="preserve">
<path d="M209.5,208.327h-20c-0.276,0-0.5-0.224-0.5-0.5s0.224-0.5,0.5-0.5h20c0.276,0,0.5,0.224,0.5,0.5
	S209.776,208.327,209.5,208.327z M210,204.059v2.007c0,0.276-0.224,0.5-0.5,0.5l-14.811,0.012c-0.001,0-0.001,0-0.002,0
	c-0.037,0-0.073-0.004-0.107-0.012h-5.08c-0.276,0-0.5-0.224-0.5-0.5v-1.988h2.906c0.276,0,0.5-0.224,0.5-0.5s-0.224-0.5-0.5-0.5
	H189v-11.738c0-0.202,0.122-0.385,0.309-0.462c0.187-0.075,0.402-0.034,0.545,0.107l4.569,4.558l4.724-4.723
	c0.195-0.195,0.512-0.195,0.707,0l4.718,4.718l4.576-4.553c0.144-0.142,0.356-0.184,0.545-0.107c0.187,0.078,0.308,0.26,0.308,0.462
	v11.757c-0.031-0.006-0.061-0.019-0.094-0.019h-3c-0.276,0-0.5,0.224-0.5,0.5s0.224,0.5,0.5,0.5h3
	C209.939,204.077,209.969,204.064,210,204.059z M194.072,199.431c0.195,0.193,0.512,0.194,0.707-0.001l3.207-3.208
	c0.195-0.195,0.195-0.512,0-0.707s-0.512-0.195-0.707,0l-2.854,2.854l-2.571-2.565c-0.143-0.142-0.358-0.184-0.545-0.107
	c-0.187,0.077-0.309,0.26-0.309,0.462v4.647c0,0.276,0.224,0.5,0.5,0.5s0.5-0.224,0.5-0.5v-3.442L194.072,199.431z M198.406,203.577
	c0-0.276-0.224-0.5-0.5-0.5h-3c-0.276,0-0.5,0.224-0.5,0.5s0.224,0.5,0.5,0.5h3C198.183,204.077,198.406,203.854,198.406,203.577z
	 M204.406,203.577c0-0.276-0.224-0.5-0.5-0.5h-3c-0.276,0-0.5,0.224-0.5,0.5s0.224,0.5,0.5,0.5h3
	C204.183,204.077,204.406,203.854,204.406,203.577z"/>
</svg>
