<?xml version="1.0" encoding="utf-8"?>
<!-- Generator: Adobe Illustrator 16.0.0, SVG Export Plug-In . SVG Version: 6.00 Build 0)  -->
<!DOCTYPE svg PUBLIC "-//W3C//DTD SVG 1.1//EN" "http://www.w3.org/Graphics/SVG/1.1/DTD/svg11.dtd">
<svg version="1.1" id="Layer_1" xmlns="http://www.w3.org/2000/svg" xmlns:xlink="http://www.w3.org/1999/xlink" x="0px" y="0px"
	 width="50px" height="50px" viewBox="244.5 -315.5 50 50" enable-background="new 244.5 -315.5 50 50" xml:space="preserve">
<path d="M282.75-281.817c0,0.414-0.336,0.75-0.75,0.75h-25c-0.414,0-0.75-0.336-0.75-0.75s0.336-0.75,0.75-0.75h25
	C282.414-282.567,282.75-282.231,282.75-281.817z M282.75-293.859v8.987c0,0.414-0.336,0.75-0.75,0.75h-25
	c-0.414,0-0.75-0.336-0.75-0.75v-8.987c0-0.244,0.119-0.473,0.318-0.613s0.454-0.175,0.686-0.092l2.371,0.853l1.359-2.942
	c0.173-0.376,0.62-0.537,0.994-0.367l3.123,1.436c0.093,0.043,0.172,0.103,0.237,0.173l3.587-4.266c0.285-0.34,0.863-0.34,1.148,0
	l3.587,4.266c0.065-0.071,0.145-0.13,0.237-0.173l3.123-1.436c0.373-0.171,0.821-0.009,0.994,0.367l1.359,2.942l2.371-0.853
	c0.233-0.083,0.487-0.048,0.686,0.092C282.631-294.332,282.75-294.103,282.75-293.859z M274.624-294.267l1.461,1.738l1.873-0.673
	l-0.99-2.143L274.624-294.267z M261.042-293.203l1.873,0.673l1.461-1.738l-2.344-1.079L261.042-293.203z M281.25-292.792
	l-5.149,1.851c-0.294,0.108-0.626,0.018-0.828-0.223l-5.772-6.866l-5.772,6.866c-0.203,0.241-0.533,0.33-0.828,0.223l-5.149-1.851
	v7.171h23.5V-292.792z"/>
</svg>
