<?xml version="1.0" encoding="utf-8"?>
<!-- Generator: Adobe Illustrator 16.0.0, SVG Export Plug-In . SVG Version: 6.00 Build 0)  -->
<!DOCTYPE svg PUBLIC "-//W3C//DTD SVG 1.1//EN" "http://www.w3.org/Graphics/SVG/1.1/DTD/svg11.dtd">
<svg version="1.1" id="Layer_1" xmlns="http://www.w3.org/2000/svg" xmlns:xlink="http://www.w3.org/1999/xlink" x="0px" y="0px"
	 width="50px" height="50px" viewBox="314.5 -245.5 50 50" enable-background="new 314.5 -245.5 50 50" xml:space="preserve">
<path d="M352.894-227.5c-0.07-0.13-0.195-0.222-0.342-0.251c-2.633-0.524-5.444-0.21-7.872,0.866
	c-0.191,0.085-0.311,0.282-0.296,0.491c0.015,0.21,0.159,0.388,0.36,0.446c0.96,0.276,1.631,1.161,1.631,2.15
	c0,1.241-1.01,2.25-2.25,2.25s-2.25-1.009-2.25-2.25c0-0.728,0.358-1.415,0.959-1.837c0.109-0.077,0.184-0.194,0.206-0.326
	c0.022-0.132-0.009-0.267-0.087-0.375l-3.047-4.24c-0.188-0.261-0.625-0.261-0.812,0l-3.047,4.24
	c-0.078,0.108-0.109,0.244-0.087,0.375c0.022,0.131,0.097,0.249,0.206,0.326c0.601,0.422,0.959,1.109,0.959,1.837
	c0,1.241-1.01,2.25-2.25,2.25s-2.25-1.009-2.25-2.25c0-0.99,0.671-1.874,1.631-2.15c0.201-0.058,0.346-0.236,0.36-0.446
	c0.015-0.209-0.104-0.406-0.296-0.491c-2.428-1.077-5.242-1.39-7.872-0.866c-0.146,0.029-0.271,0.121-0.342,0.251
	c-0.071,0.13-0.081,0.285-0.026,0.423l4.65,11.767c0.331-0.708,1.354-1.281,3.078-1.704c0.271-0.064,0.539,0.1,0.604,0.367
	c0.066,0.269-0.098,0.539-0.366,0.605c-2.006,0.491-2.445,1.068-2.445,1.25c0,0.266-0.209,0.479-0.471,0.494l0.729,1.843
	c0.38,1.526,4.134,2.226,7.641,2.226s7.261-0.7,7.641-2.226l5.779-14.622C352.975-227.214,352.965-227.37,352.894-227.5z
	 M340.909-217.58c0.276,0.013,0.489,0.247,0.477,0.522c-0.012,0.275-0.213,0.51-0.521,0.477c-0.456-0.021-0.937-0.027-1.403-0.031
	c-0.686,0-1.37,0.024-2.037,0.072c-0.013,0.001-0.024,0.001-0.037,0.001c-0.26,0-0.479-0.201-0.498-0.464
	c-0.02-0.275,0.188-0.515,0.463-0.534c0.705-0.051,1.438-0.084,2.149-0.075C339.98-217.611,340.451-217.601,340.909-217.58z
	 M334.875-220.446c1.848,0,3.35-1.503,3.35-3.35c0-0.768-0.27-1.52-0.76-2.118c-0.114-0.14-0.121-0.34-0.016-0.487l1.726-2.401
	c0.13-0.18,0.381-0.22,0.559-0.091c0.18,0.129,0.221,0.379,0.092,0.558l-1.554,2.162c0.487,0.695,0.754,1.528,0.754,2.377
	c0,2.288-1.862,4.15-4.15,4.15c-0.221,0-0.4-0.179-0.4-0.4S334.654-220.446,334.875-220.446z M339.5-211.229
	c-4.406,0-6.679-1.039-6.679-1.481c0-0.443,2.272-1.482,6.679-1.482s6.679,1.039,6.679,1.482
	C346.179-212.268,343.906-211.229,339.5-211.229z M347.941-215.07c-0.098,0.099-0.228,0.149-0.356,0.149
	c-0.127,0-0.254-0.048-0.351-0.144c-0.439-0.432-1.521-0.843-2.969-1.127c-0.271-0.053-0.447-0.316-0.394-0.587
	c0.053-0.272,0.312-0.449,0.587-0.395c1.173,0.23,2.729,0.66,3.477,1.397C348.133-215.584,348.135-215.267,347.941-215.07z"/>
</svg>
