<?xml version="1.0" encoding="utf-8"?>
<!-- Generator: Adobe Illustrator 16.0.0, SVG Export Plug-In . SVG Version: 6.00 Build 0)  -->
<!DOCTYPE svg PUBLIC "-//W3C//DTD SVG 1.1//EN" "http://www.w3.org/Graphics/SVG/1.1/DTD/svg11.dtd">
<svg version="1.1" id="Layer_1" xmlns="http://www.w3.org/2000/svg" xmlns:xlink="http://www.w3.org/1999/xlink" x="0px" y="0px"
	 width="50px" height="50px" viewBox="34.5 104.5 50 50" enable-background="new 34.5 104.5 50 50" xml:space="preserve">
<path d="M69.5,138.327h-20c-0.276,0-0.5-0.224-0.5-0.5s0.224-0.5,0.5-0.5h20c0.276,0,0.5,0.224,0.5,0.5S69.776,138.327,69.5,138.327
	z M70,121.339v14.727c0,0.276-0.224,0.5-0.5,0.5l-14.811,0.012c-0.001,0-0.001,0-0.002,0c-0.037,0-0.073-0.004-0.107-0.012H49.5
	c-0.276,0-0.5-0.224-0.5-0.5v-14.727c0-0.202,0.122-0.385,0.309-0.462c0.187-0.076,0.402-0.034,0.545,0.107l3.631,3.621
	c0.188,0.189,0.196,0.493,0.016,0.691c-0.166,0.183-0.365,0.481-0.365,0.864c0,0.884,1.01,1.604,2.25,1.604s2.25-0.72,2.25-1.604
	c0-0.628-0.524-1.202-1.337-1.464c-0.166-0.053-0.292-0.188-0.333-0.358c-0.041-0.169,0.01-0.348,0.133-0.471l3.049-3.049
	c0.094-0.094,0.221-0.146,0.354-0.146s0.26,0.053,0.354,0.146l3.047,3.049c0.123,0.123,0.174,0.302,0.133,0.471
	c-0.041,0.17-0.167,0.306-0.333,0.358c-0.812,0.262-1.336,0.836-1.336,1.464c0,0.884,1.01,1.604,2.25,1.604s2.25-0.72,2.25-1.604
	c0-0.385-0.2-0.684-0.368-0.867c-0.182-0.197-0.175-0.503,0.016-0.692l3.636-3.617c0.144-0.142,0.356-0.185,0.545-0.107
	C69.879,120.955,70,121.137,70,121.339z M55.885,130.265c0-0.276-0.224-0.5-0.5-0.5c-1.407,0-2.715-0.571-3.498-1.529
	c-0.134-0.163-0.358-0.226-0.555-0.154c-0.199,0.07-0.332,0.26-0.332,0.471v5.514c0,0.276,0.224,0.5,0.5,0.5s0.5-0.224,0.5-0.5
	v-4.357c0.928,0.681,2.109,1.057,3.385,1.057C55.661,130.765,55.885,130.541,55.885,130.265z"/>
</svg>
