<?xml version="1.0" encoding="utf-8"?>
<!-- Generator: Adobe Illustrator 16.0.0, SVG Export Plug-In . SVG Version: 6.00 Build 0)  -->
<!DOCTYPE svg PUBLIC "-//W3C//DTD SVG 1.1//EN" "http://www.w3.org/Graphics/SVG/1.1/DTD/svg11.dtd">
<svg version="1.1" id="Layer_1" xmlns="http://www.w3.org/2000/svg" xmlns:xlink="http://www.w3.org/1999/xlink" x="0px" y="0px"
	 width="50px" height="50px" viewBox="244.5 314.5 50 50" enable-background="new 244.5 314.5 50 50" xml:space="preserve">
<path d="M282.021,332.324c-1.7,0-3.083,1.383-3.083,3.084c0,1.141,0.63,2.127,1.554,2.66l-3.817,1.373l-5.898-7.016
	c1.075-0.482,1.828-1.557,1.828-2.809c0-1.701-1.383-3.084-3.083-3.084s-3.083,1.383-3.083,3.084c0,1.24,0.74,2.305,1.8,2.793
	l-5.911,7.031l-3.818-1.373c0.924-0.533,1.555-1.52,1.555-2.66c0-1.701-1.384-3.084-3.084-3.084c-1.699,0-3.082,1.383-3.082,3.084
	c0,1.447,1.007,2.656,2.354,2.986v8.789v0.127c0,0.02,0.01,0.037,0.011,0.055c0.002,0.025-0.005,0.049,0,0.074
	c0.006,0.035,0.024,0.062,0.034,0.094c0.012,0.037,0.022,0.072,0.038,0.105c0.025,0.051,0.06,0.098,0.095,0.141
	c0.017,0.02,0.024,0.045,0.042,0.062c1.604,2.355,11.781,2.43,13.03,2.43s11.426-0.074,13.03-2.43
	c0.018-0.018,0.025-0.043,0.042-0.062c0.035-0.043,0.069-0.09,0.095-0.141c0.016-0.033,0.026-0.068,0.038-0.105
	c0.01-0.031,0.028-0.059,0.034-0.094c0.005-0.025-0.002-0.049,0-0.074c0.001-0.018,0.011-0.035,0.011-0.055v-0.127v-8.789
	c1.348-0.33,2.354-1.539,2.354-2.986C285.104,333.707,283.721,332.324,282.021,332.324z M269.5,348.771
	c-3.953,0-6.924-0.322-8.899-0.711c-1.479-0.291-2.402-0.619-2.752-0.877c0.25-0.184,0.796-0.404,1.627-0.623
	c0.874-0.229,2.065-0.453,3.574-0.627c1.735-0.201,3.886-0.338,6.45-0.338s4.715,0.137,6.45,0.338
	c1.509,0.174,2.701,0.398,3.575,0.627c0.831,0.219,1.376,0.439,1.626,0.623c-0.349,0.258-1.272,0.586-2.751,0.877
	C276.425,348.449,273.454,348.771,269.5,348.771z M276.344,344.48l-4.626-1.664l4.48-1.609l3.184,3.787
	C278.449,344.771,277.401,344.605,276.344,344.48z M270.894,344.115c-0.676-0.016-1.174-0.02-1.394-0.02s-0.718,0.004-1.394,0.02
	l1.394-0.5L270.894,344.115z M262.656,344.48c-1.058,0.125-2.105,0.291-3.038,0.514l3.184-3.787l4.48,1.609L262.656,344.48z
	 M281.25,339.391v5.494l-3.547-4.219L281.25,339.391z M267.938,329.617c0-0.873,0.71-1.584,1.583-1.584s1.583,0.711,1.583,1.584
	c0,0.871-0.71,1.582-1.583,1.582S267.938,330.488,267.938,329.617z M269.5,333.238l5.669,6.744l-5.669,2.037l-5.669-2.037
	L269.5,333.238z M261.297,340.666l-3.547,4.219v-5.494L261.297,340.666z M255.396,335.408c0-0.873,0.71-1.584,1.582-1.584
	c0.873,0,1.584,0.711,1.584,1.584s-0.711,1.582-1.584,1.582C256.106,336.99,255.396,336.281,255.396,335.408z M282.021,336.99
	c-0.873,0-1.583-0.709-1.583-1.582s0.71-1.584,1.583-1.584s1.583,0.711,1.583,1.584S282.894,336.99,282.021,336.99z
	 M282.595,349.992c0.182,0.373,0.027,0.822-0.345,1.004c-1.5,0.732-6.024,1.471-12.75,1.471c-6.627,0-11.308-0.889-12.701-1.449
	c-0.384-0.154-0.57-0.592-0.416-0.977c0.156-0.383,0.596-0.566,0.977-0.416c1.088,0.439,5.486,1.342,12.141,1.342
	c6.889,0,11.006-0.789,12.092-1.318C281.966,349.465,282.413,349.619,282.595,349.992z"/>
</svg>
