<?xml version="1.0" encoding="utf-8"?>
<!-- Generator: Adobe Illustrator 16.0.0, SVG Export Plug-In . SVG Version: 6.00 Build 0)  -->
<!DOCTYPE svg PUBLIC "-//W3C//DTD SVG 1.1//EN" "http://www.w3.org/Graphics/SVG/1.1/DTD/svg11.dtd">
<svg version="1.1" id="Layer_1" xmlns="http://www.w3.org/2000/svg" xmlns:xlink="http://www.w3.org/1999/xlink" x="0px" y="0px"
	 width="50px" height="50px" viewBox="-315.5 34.5 50 50" enable-background="new -315.5 34.5 50 50" xml:space="preserve">
<path d="M-276.037,53.529c-0.269-0.202-0.639-0.2-0.905,0.004l-7.771,5.933l-5.101-11.525c-0.24-0.543-1.131-0.543-1.372,0
	l-5.16,11.656l-7.704-6.058c-0.266-0.208-0.638-0.214-0.909-0.013c-0.272,0.2-0.375,0.559-0.253,0.873l5.352,13.828
	c0.111,0.289,0.39,0.479,0.699,0.479h17.322c0.31,0,0.588-0.19,0.699-0.479l5.352-13.828
	C-275.667,54.086-275.769,53.73-276.037,53.529z M-282.353,67.207h-16.294l-4.179-10.798l6.312,4.964
	c0.181,0.142,0.418,0.195,0.645,0.138c0.225-0.056,0.411-0.212,0.505-0.424l4.865-10.99l4.8,10.846
	c0.093,0.21,0.277,0.366,0.5,0.423c0.221,0.058,0.459,0.009,0.641-0.131l6.412-4.895L-282.353,67.207z M-281.167,70.717
	c0,0.414-0.336,0.75-0.75,0.75h-17.167c-0.414,0-0.75-0.336-0.75-0.75s0.336-0.75,0.75-0.75h17.167
	C-281.502,69.967-281.167,70.303-281.167,70.717z"/>
</svg>
