<?xml version="1.0" encoding="utf-8"?>
<!-- Generator: Adobe Illustrator 16.0.0, SVG Export Plug-In . SVG Version: 6.00 Build 0)  -->
<!DOCTYPE svg PUBLIC "-//W3C//DTD SVG 1.1//EN" "http://www.w3.org/Graphics/SVG/1.1/DTD/svg11.dtd">
<svg version="1.1" id="Layer_1" xmlns="http://www.w3.org/2000/svg" xmlns:xlink="http://www.w3.org/1999/xlink" x="0px" y="0px"
	 width="50px" height="50px" viewBox="104.5 -245.5 50 50" enable-background="new 104.5 -245.5 50 50" xml:space="preserve">
<path d="M142.894-226.591c-0.07-0.13-0.195-0.222-0.342-0.251c-2.634-0.524-5.445-0.21-7.872,0.866
	c-0.191,0.085-0.311,0.282-0.296,0.491c0.015,0.21,0.159,0.388,0.36,0.446c0.96,0.276,1.631,1.161,1.631,2.15
	c0,1.241-1.01,2.25-2.25,2.25s-2.25-1.009-2.25-2.25c0-0.728,0.358-1.415,0.959-1.837c0.109-0.077,0.184-0.194,0.206-0.326
	c0.022-0.132-0.009-0.267-0.087-0.375l-3.047-4.24c-0.188-0.261-0.625-0.261-0.812,0l-3.047,4.24
	c-0.078,0.108-0.109,0.244-0.087,0.375c0.022,0.131,0.097,0.249,0.206,0.326c0.601,0.422,0.959,1.109,0.959,1.837
	c0,1.241-1.01,2.25-2.25,2.25s-2.25-1.009-2.25-2.25c0-0.99,0.671-1.874,1.631-2.15c0.201-0.058,0.346-0.236,0.36-0.446
	c0.015-0.209-0.104-0.406-0.296-0.491c-2.429-1.077-5.24-1.39-7.872-0.866c-0.146,0.029-0.271,0.121-0.342,0.251
	c-0.071,0.13-0.081,0.285-0.026,0.423l5.815,14.714c0.075,0.191,0.26,0.316,0.465,0.316h14.279c0.205,0,0.39-0.125,0.465-0.316
	l5.815-14.714C142.975-226.306,142.965-226.461,142.894-226.591z M125.25-213.585h-3c-0.276,0-0.5-0.224-0.5-0.5s0.224-0.5,0.5-0.5
	h3c0.276,0,0.5,0.224,0.5,0.5S125.526-213.585,125.25-213.585z M124.709-218.888c-0.138,0-0.25-0.112-0.25-0.25
	s0.112-0.25,0.25-0.25c1.93,0,3.5-1.57,3.5-3.5c0-0.803-0.282-1.588-0.794-2.212c-0.071-0.088-0.076-0.212-0.01-0.305l1.726-2.401
	c0.081-0.113,0.238-0.137,0.349-0.057c0.112,0.081,0.138,0.237,0.058,0.349l-1.616,2.249c0.51,0.687,0.788,1.524,0.788,2.377
	C128.709-220.683,126.915-218.888,124.709-218.888z M131.25-213.585h-3c-0.276,0-0.5-0.224-0.5-0.5s0.224-0.5,0.5-0.5h3
	c0.276,0,0.5,0.224,0.5,0.5S131.526-213.585,131.25-213.585z M136.75-213.585h-2.5c-0.276,0-0.5-0.224-0.5-0.5s0.224-0.5,0.5-0.5
	h2.5c0.276,0,0.5,0.224,0.5,0.5S137.026-213.585,136.75-213.585z"/>
</svg>
