<?xml version="1.0" encoding="utf-8"?>
<!-- Generator: Adobe Illustrator 16.0.0, SVG Export Plug-In . SVG Version: 6.00 Build 0)  -->
<!DOCTYPE svg PUBLIC "-//W3C//DTD SVG 1.1//EN" "http://www.w3.org/Graphics/SVG/1.1/DTD/svg11.dtd">
<svg version="1.1" id="Layer_1" xmlns="http://www.w3.org/2000/svg" xmlns:xlink="http://www.w3.org/1999/xlink" x="0px" y="0px"
	 width="50px" height="50px" viewBox="-245.5 -35.5 50 50" enable-background="new -245.5 -35.5 50 50" xml:space="preserve">
<path d="M-207.627-10.517c-0.331-0.245-0.801-0.178-1.049,0.155l-1.347,1.812c-0.222-5.174-4.2-9.371-9.272-9.955
	c0.189-0.252,0.306-0.562,0.306-0.902c0-0.834-0.676-1.51-1.51-1.51s-1.51,0.676-1.51,1.51c0,0.34,0.116,0.649,0.306,0.902
	c-5.035,0.58-8.991,4.719-9.267,9.84l-1.375-1.678c-0.262-0.32-0.735-0.368-1.055-0.104c-0.321,0.262-0.368,0.734-0.105,1.055
	l2.066,2.522c-0.489,0.065-0.873,0.468-0.873,0.975c0,0.553,0.448,1,1,1H-231v2.812h-0.312c-0.552,0-1,0.448-1,1
	c0,0.553,0.448,1,1,1h21.625c0.552,0,1-0.447,1-1c0-0.552-0.448-1-1-1H-210v-2.812h0.312c0.552,0,1-0.447,1-1
	c0-0.458-0.315-0.828-0.736-0.946l1.951-2.625C-207.225-9.8-207.294-10.27-207.627-10.517z M-226.375-2.083H-230v-2.812h3.625
	V-2.083z M-221-2.083h-4.375v-2.812H-221V-2.083z M-220.99-16.107c-4.147,0-7.521,3.373-7.521,7.521c0,0.276-0.224,0.5-0.5,0.5
	s-0.5-0.224-0.5-0.5c0-4.698,3.822-8.521,8.521-8.521c0.276,0,0.5,0.224,0.5,0.5S-220.713-16.107-220.99-16.107z M-215.625-2.083
	H-220v-2.812h4.375V-2.083z M-211-2.083h-3.625v-2.812H-211V-2.083z"/>
</svg>
