<?xml version="1.0" encoding="utf-8"?>
<!-- Generator: Adobe Illustrator 16.0.0, SVG Export Plug-In . SVG Version: 6.00 Build 0)  -->
<!DOCTYPE svg PUBLIC "-//W3C//DTD SVG 1.1//EN" "http://www.w3.org/Graphics/SVG/1.1/DTD/svg11.dtd">
<svg version="1.1" id="Layer_1" xmlns="http://www.w3.org/2000/svg" xmlns:xlink="http://www.w3.org/1999/xlink" x="0px" y="0px"
	 width="50px" height="50px" viewBox="-35.5 -35.5 50 50" enable-background="new -35.5 -35.5 50 50" xml:space="preserve">
<path d="M1.328-16.125c0-1.085-0.883-1.969-1.969-1.969s-1.969,0.883-1.969,1.969c0,0.71,0.381,1.328,0.946,1.674l-3.765,3.746
	l-4.322-4.322v-2.91h1.5c0.414,0,0.75-0.336,0.75-0.75s-0.336-0.75-0.75-0.75h-1.5v-1.75c0-0.414-0.336-0.75-0.75-0.75
	s-0.75,0.336-0.75,0.75v1.75h-1.5c-0.414,0-0.75,0.336-0.75,0.75s0.336,0.75,0.75,0.75h1.5v2.91l-4.327,4.327l-3.821-3.811
	c0.598-0.338,1.008-0.973,1.008-1.708c0-1.085-0.883-1.969-1.969-1.969s-1.969,0.883-1.969,1.969c0,0.763,0.441,1.419,1.078,1.746
	V0.175c0,0.414,0.336,0.75,0.75,0.75h5.053c0.044,0.008,0.089,0.012,0.135,0.012c0.001,0,0.001,0,0.002,0L-0.5,0.925
	c0.414,0,0.75-0.336,0.75-0.75v-14.555C0.887-14.706,1.328-15.362,1.328-16.125z M-0.641-16.594c0.258,0,0.469,0.21,0.469,0.469
	s-0.21,0.469-0.469,0.469s-0.469-0.21-0.469-0.469S-0.899-16.594-0.641-16.594z M-5.96-9.116c0.292,0.292,0.767,0.293,1.059,0.001
	l3.651-3.632v10.885l-8.5-8.5v-2.545L-5.96-9.116z M-9.75-8.24l7.666,7.666L-9.75-0.567V-8.24z M-15.046-9.11l3.796-3.796v2.545
	l-8.5,8.5v-10.882l3.644,3.634C-15.813-8.817-15.339-8.818-15.046-9.11z M-20.359-16.688c0.258,0,0.469,0.21,0.469,0.469
	s-0.21,0.469-0.469,0.469s-0.469-0.21-0.469-0.469S-20.618-16.688-20.359-16.688z M-15.301-0.575h-3.614l7.665-7.665v7.673
	l-3.918,0.003C-15.211-0.571-15.256-0.575-15.301-0.575z"/>
</svg>
