<?xml version="1.0" encoding="utf-8"?>
<!-- Generator: Adobe Illustrator 16.0.0, SVG Export Plug-In . SVG Version: 6.00 Build 0)  -->
<!DOCTYPE svg PUBLIC "-//W3C//DTD SVG 1.1//EN" "http://www.w3.org/Graphics/SVG/1.1/DTD/svg11.dtd">
<svg version="1.1" id="Layer_1" xmlns="http://www.w3.org/2000/svg" xmlns:xlink="http://www.w3.org/1999/xlink" x="0px" y="0px"
	 width="50px" height="50px" viewBox="244.5 244.5 50 50" enable-background="new 244.5 244.5 50 50" xml:space="preserve">
<path d="M284.572,262.335c-1.191,0-2.161,0.968-2.161,2.158c0,0.577,0.231,1.1,0.603,1.488l-2.298,3.646l-10.038-7.396
	c0.59-0.385,0.981-1.049,0.981-1.804c0-1.19-0.968-2.159-2.158-2.159c-1.191,0-2.16,0.969-2.16,2.159
	c0,0.742,0.377,1.397,0.95,1.785l-10.03,7.376l-2.273-3.606c0.371-0.388,0.602-0.911,0.602-1.488c0-1.19-0.968-2.158-2.158-2.158
	c-1.191,0-2.161,0.968-2.161,2.158s0.97,2.159,2.161,2.159c0.066,0,0.128-0.014,0.193-0.02l5.738,9.104
	c0.002,0.004,0.007,0.005,0.009,0.009v2.975c0,0.276,0.152,0.53,0.396,0.661c0.974,0.522,4.205,1.351,8.733,1.351
	c4.607,0,7.733-0.695,8.788-1.384c0.212-0.139,0.34-0.375,0.34-0.628v-2.975c0.003-0.004,0.008-0.006,0.011-0.01l5.737-9.104
	c0.065,0.006,0.129,0.02,0.196,0.02c1.19,0,2.158-0.969,2.158-2.159S285.763,262.335,284.572,262.335z M253.77,264.493
	c0-0.363,0.297-0.658,0.661-0.658c0.363,0,0.658,0.295,0.658,0.658s-0.295,0.659-0.658,0.659
	C254.066,265.152,253.77,264.856,253.77,264.493z M269.501,259.768c0.363,0,0.658,0.296,0.658,0.659
	c0,0.362-0.295,0.657-0.658,0.657c-0.364,0-0.66-0.295-0.66-0.657C268.841,260.063,269.137,259.768,269.501,259.768z
	 M277.128,275.118v0.023c-0.275,0.287-1.243,0.662-2.769,0.945c-1.257,0.233-2.881,0.406-4.859,0.406
	c-1.978,0-3.602-0.173-4.858-0.406c-1.527-0.284-2.496-0.659-2.771-0.946v-0.021c0.152-0.16,0.533-0.348,1.087-0.532
	c1.262-0.421,3.495-0.822,6.542-0.822s5.281,0.401,6.542,0.822C276.595,274.771,276.976,274.958,277.128,275.118z M277.128,278.267
	c-1.039,0.438-3.612,0.966-7.628,0.966c-3.784,0-6.52-0.604-7.629-1.005v-1.368c2.433,1.086,6.947,1.134,7.629,1.134
	s5.195-0.048,7.628-1.134V278.267z M278.011,273.92c-1.973-1.596-7.733-1.655-8.511-1.655s-6.537,0.06-8.51,1.654l-1.928-3.059
	l10.41-7.654l10.441,7.693L278.011,273.92z M284.572,265.152c-0.364,0-0.661-0.296-0.661-0.659s0.297-0.658,0.661-0.658
	c0.363,0,0.658,0.295,0.658,0.658S284.936,265.152,284.572,265.152z M266.965,269.213c0,1.396,1.138,2.533,2.535,2.533
	c1.396,0,2.533-1.137,2.533-2.533c0-1.397-1.137-2.534-2.533-2.534C268.103,266.679,266.965,267.815,266.965,269.213z
	 M269.5,268.179c0.569,0,1.033,0.464,1.033,1.034c0,0.569-0.464,1.033-1.033,1.033c-0.57,0-1.035-0.464-1.035-1.033
	C268.465,268.643,268.93,268.179,269.5,268.179z"/>
</svg>
