<?xml version="1.0" encoding="utf-8"?>
<!-- Generator: Adobe Illustrator 16.0.0, SVG Export Plug-In . SVG Version: 6.00 Build 0)  -->
<!DOCTYPE svg PUBLIC "-//W3C//DTD SVG 1.1//EN" "http://www.w3.org/Graphics/SVG/1.1/DTD/svg11.dtd">
<svg version="1.1" id="Layer_1" xmlns="http://www.w3.org/2000/svg" xmlns:xlink="http://www.w3.org/1999/xlink" x="0px" y="0px"
	 width="50px" height="50px" viewBox="-315.5 -35.5 50 50" enable-background="new -315.5 -35.5 50 50" xml:space="preserve">
<path d="M-277.627-10.517c-0.331-0.245-0.801-0.178-1.049,0.155l-1.347,1.812c-0.222-5.171-4.193-9.381-9.26-9.97
	c0.183-0.25,0.293-0.555,0.293-0.888c0-0.834-0.676-1.51-1.51-1.51s-1.51,0.676-1.51,1.51c0,0.332,0.111,0.637,0.292,0.887
	c-5.031,0.584-8.978,4.737-9.253,9.855l-1.375-1.678c-0.262-0.32-0.735-0.368-1.055-0.104c-0.321,0.262-0.368,0.734-0.105,1.055
	l2.066,2.522c-0.489,0.065-0.873,0.468-0.873,0.975c0,0.553,0.448,1,1,1H-301v2.812h-0.312c-0.552,0-1,0.448-1,1
	c0,0.553,0.448,1,1,1h21.625c0.552,0,1-0.447,1-1c0-0.552-0.448-1-1-1H-280v-2.812h0.312c0.552,0,1-0.447,1-1
	c0-0.458-0.315-0.828-0.736-0.946l1.951-2.625C-277.225-9.8-277.294-10.27-277.627-10.517z M-290.99-17.107
	c0.276,0,0.5,0.224,0.5,0.5s-0.224,0.5-0.5,0.5c-4.147,0-7.521,3.373-7.521,7.521c0,0.276-0.224,0.5-0.5,0.5s-0.5-0.224-0.5-0.5
	C-299.51-13.285-295.688-17.107-290.99-17.107z M-281-2.083h-19v-2.812h19V-2.083z"/>
</svg>
