<?xml version="1.0" encoding="utf-8"?>
<!-- Generator: Adobe Illustrator 16.0.0, SVG Export Plug-In . SVG Version: 6.00 Build 0)  -->
<!DOCTYPE svg PUBLIC "-//W3C//DTD SVG 1.1//EN" "http://www.w3.org/Graphics/SVG/1.1/DTD/svg11.dtd">
<svg version="1.1" id="Layer_1" xmlns="http://www.w3.org/2000/svg" xmlns:xlink="http://www.w3.org/1999/xlink" x="0px" y="0px"
	 width="50px" height="50px" viewBox="244.5 104.5 50 50" enable-background="new 244.5 104.5 50 50" xml:space="preserve">
<path d="M280,134.668c-0.184-0.621-3.929-1.774-10.499-1.774c-6.571,0-10.317,1.153-10.501,1.774v2.032
	c0,0.039,0.014,0.074,0.022,0.111c-0.005,0.037-0.022,0.071-0.022,0.109c0,2.048,6.601,2.594,10.501,2.594
	c3.899,0,10.499-0.546,10.499-2.594c0-0.038-0.018-0.072-0.022-0.109c0.009-0.037,0.022-0.072,0.022-0.111V134.668z
	 M269.501,138.515c-5.92,0-9.333-1.045-9.502-1.584c0.165-0.561,3.574-1.605,9.502-1.605c5.927,0,9.335,1.045,9.5,1.585
	C278.832,137.47,275.42,138.515,269.501,138.515z M269.501,131.894c3.095,0,8.317,0.358,10.499,1.558v-13.3
	c0-0.202-0.121-0.384-0.308-0.462c-0.189-0.077-0.401-0.034-0.545,0.107l-3.635,3.616c-0.19,0.189-0.197,0.495-0.016,0.692
	c0.168,0.184,0.368,0.482,0.368,0.866c0,0.87-1.03,1.604-2.25,1.604c-1.24,0-2.25-0.72-2.25-1.604c0-0.627,0.524-1.201,1.336-1.464
	c0.166-0.054,0.292-0.189,0.333-0.358s-0.01-0.348-0.133-0.471l-3.048-3.047c-0.195-0.195-0.512-0.195-0.707,0l-3.048,3.047
	c-0.123,0.123-0.174,0.302-0.133,0.471s0.167,0.305,0.333,0.358c0.812,0.263,1.337,0.837,1.337,1.464c0,0.87-1.03,1.604-2.25,1.604
	c-1.24,0-2.25-0.72-2.25-1.604c0-0.383,0.198-0.681,0.364-0.863c0.181-0.198,0.173-0.502-0.016-0.691l-3.631-3.62
	c-0.143-0.142-0.358-0.184-0.545-0.107c-0.187,0.077-0.309,0.26-0.309,0.462v13.301
	C261.182,132.252,266.405,131.894,269.501,131.894z M261.1,127.362c0-0.169,0.106-0.32,0.266-0.377
	c0.16-0.057,0.338-0.007,0.444,0.124c0.813,0.996,2.117,1.566,3.576,1.566c0.221,0,0.4,0.18,0.4,0.4s-0.18,0.4-0.4,0.4
	c-1.329,0-2.553-0.415-3.485-1.16v2.114c0,0.221-0.18,0.4-0.4,0.4s-0.4-0.18-0.4-0.4V127.362z"/>
</svg>
