<?xml version="1.0" encoding="utf-8"?>
<!-- Generator: Adobe Illustrator 16.0.0, SVG Export Plug-In . SVG Version: 6.00 Build 0)  -->
<!DOCTYPE svg PUBLIC "-//W3C//DTD SVG 1.1//EN" "http://www.w3.org/Graphics/SVG/1.1/DTD/svg11.dtd">
<svg version="1.1" id="Layer_1" xmlns="http://www.w3.org/2000/svg" xmlns:xlink="http://www.w3.org/1999/xlink" x="0px" y="0px"
	 width="50px" height="50px" viewBox="34.5 34.5 50 50" enable-background="new 34.5 34.5 50 50" xml:space="preserve">
<path d="M74.281,51.99c-1.017,0-1.844,0.826-1.844,1.844c0,0.395,0.127,0.758,0.34,1.059l-7.455,5.791l-5.059-11.426
	c0.635-0.293,1.08-0.93,1.08-1.674c0-1.018-0.827-1.844-1.844-1.844s-1.844,0.826-1.844,1.844c0,0.744,0.445,1.381,1.08,1.674
	l-5.039,11.385l-7.473-5.75c0.211-0.301,0.338-0.664,0.338-1.059c0-1.018-0.827-1.844-1.844-1.844s-1.844,0.826-1.844,1.844
	c0,1.016,0.827,1.844,1.844,1.844c0.04,0,0.078-0.01,0.117-0.012l5.305,13.703c0.111,0.289,0.389,0.479,0.699,0.479h17.32
	c0.311,0,0.588-0.189,0.699-0.479l5.305-13.703c0.039,0.002,0.077,0.012,0.117,0.012c1.017,0,1.844-0.828,1.844-1.844
	C76.125,52.816,75.298,51.99,74.281,51.99z M59.5,47.24c0.189,0,0.344,0.154,0.344,0.344s-0.154,0.344-0.344,0.344
	s-0.344-0.154-0.344-0.344S59.311,47.24,59.5,47.24z M59.5,51.238l4.602,10.395l-2.269,1.762l-1.611-4.115
	c0.659-0.281,1.122-0.936,1.122-1.695c0-1.018-0.827-1.844-1.844-1.844s-1.844,0.826-1.844,1.844c0,0.732,0.433,1.361,1.053,1.658
	l-1.564,4.053l-2.224-1.711L59.5,51.238z M63.773,68.348l-1.369-3.496l2.322-1.805l2.348,5.301H63.773z M58.34,66.107l-0.963,0.748
	l0.443-1.148L58.34,66.107z M51.926,68.348l2.37-5.352l2.284,1.758l-1.388,3.594H51.926z M59.5,57.928
	c-0.189,0-0.344-0.154-0.344-0.344s0.154-0.344,0.344-0.344s0.344,0.154,0.344,0.344S59.689,57.928,59.5,57.928z M60.598,64.354
	l-1.033,0.803l-1.18-0.908l1.078-2.793L60.598,64.354z M61.168,65.811l0.326,0.83l-0.701-0.539L61.168,65.811z M44.375,53.834
	c0-0.189,0.154-0.344,0.344-0.344s0.344,0.154,0.344,0.344s-0.154,0.344-0.344,0.344S44.375,54.023,44.375,53.834z M53.072,62.055
	l-2.217,5.008L47.154,57.5L53.072,62.055z M57.901,68.348l1.667-1.295l1.684,1.295H57.901z M68.145,67.062l-2.197-4.965l5.891-4.576
	L68.145,67.062z M74.281,54.178c-0.189,0-0.344-0.154-0.344-0.344s0.154-0.344,0.344-0.344s0.344,0.154,0.344,0.344
	S74.471,54.178,74.281,54.178z M68.834,72.51c0,0.414-0.336,0.75-0.75,0.75H50.916c-0.414,0-0.75-0.336-0.75-0.75
	s0.336-0.75,0.75-0.75h17.168C68.498,71.76,68.834,72.096,68.834,72.51z"/>
</svg>
