<?xml version="1.0" encoding="utf-8"?>
<!-- Generator: Adobe Illustrator 16.0.0, SVG Export Plug-In . SVG Version: 6.00 Build 0)  -->
<!DOCTYPE svg PUBLIC "-//W3C//DTD SVG 1.1//EN" "http://www.w3.org/Graphics/SVG/1.1/DTD/svg11.dtd">
<svg version="1.1" id="Layer_1" xmlns="http://www.w3.org/2000/svg" xmlns:xlink="http://www.w3.org/1999/xlink" x="0px" y="0px"
	 width="50px" height="50px" viewBox="-245.5 34.5 50 50" enable-background="new -245.5 34.5 50 50" xml:space="preserve">
<path d="M-229,63.284v-5.96c0-0.202,0.122-0.385,0.308-0.462c0.188-0.075,0.402-0.033,0.545,0.107l2.573,2.566l3.125-3.106
	c0.195-0.194,0.512-0.195,0.707,0.002c0.195,0.196,0.194,0.513-0.002,0.707l-3.479,3.458c-0.195,0.194-0.51,0.193-0.706,0
	L-228,58.529v4.755c0,0.276-0.224,0.5-0.5,0.5S-229,63.561-229,63.284z M-210,67.231c0,0.052-0.015,0.1-0.03,0.146
	c0.008,0.049,0.03,0.094,0.03,0.145c0,2.048-6.599,2.594-10.498,2.594c-3.9,0-10.502-0.546-10.502-2.594
	c0-0.051,0.021-0.096,0.03-0.145c-0.015-0.047-0.03-0.095-0.03-0.146V52.505c0-0.202,0.122-0.385,0.308-0.462
	c0.188-0.076,0.402-0.034,0.545,0.107l4.57,4.558l2.204-2.203c-0.438-0.603-0.674-1.324-0.674-2.074
	c0-1.956,1.591-3.547,3.547-3.547s3.547,1.591,3.547,3.547c0,0.75-0.237,1.471-0.675,2.073l2.2,2.199l4.576-4.553
	c0.144-0.142,0.36-0.183,0.544-0.107c0.187,0.078,0.308,0.26,0.308,0.462V67.231z M-230,53.71v12.598
	c1.99-1.059,6.527-1.379,9.502-1.379c2.973,0,7.508,0.32,9.498,1.379v-12.6l-4.077,4.056c-0.195,0.194-0.511,0.194-0.706-0.001
	l-2.875-2.874c-0.192-0.192-0.196-0.503-0.007-0.699c0.459-0.479,0.712-1.104,0.712-1.759c0-1.404-1.143-2.547-2.547-2.547
	s-2.547,1.143-2.547,2.547c0,0.655,0.253,1.28,0.712,1.76c0.188,0.196,0.185,0.507-0.008,0.699l-2.88,2.879
	c-0.195,0.195-0.511,0.194-0.707,0.001L-230,53.71z M-210.999,67.512c-0.166-0.539-3.575-1.583-9.499-1.583
	c-5.927,0-9.337,1.044-9.503,1.604c0.167,0.54,3.578,1.584,9.503,1.584C-214.576,69.116-211.166,68.072-210.999,67.512z"/>
</svg>
