<?xml version="1.0" encoding="utf-8"?>
<!-- Generator: Adobe Illustrator 16.0.0, SVG Export Plug-In . SVG Version: 6.00 Build 0)  -->
<!DOCTYPE svg PUBLIC "-//W3C//DTD SVG 1.1//EN" "http://www.w3.org/Graphics/SVG/1.1/DTD/svg11.dtd">
<svg version="1.1" id="Layer_1" xmlns="http://www.w3.org/2000/svg" xmlns:xlink="http://www.w3.org/1999/xlink" x="0px" y="0px"
	 width="50px" height="50px" viewBox="34.5 -175.5 50 50" enable-background="new 34.5 -175.5 50 50" xml:space="preserve">
<path d="M67.653-139.027H51.347c-0.276,0-0.5-0.224-0.5-0.5s0.224-0.5,0.5-0.5h16.307c0.276,0,0.5,0.224,0.5,0.5
	S67.93-139.027,67.653-139.027z M73.979-155.434l-4.35,11.239h-2.365c-0.276,0-0.5,0.224-0.5,0.5s0.224,0.5,0.5,0.5h1.979
	l-0.615,1.589c-0.074,0.192-0.26,0.319-0.466,0.319H50.839c-0.206,0-0.392-0.127-0.466-0.319l-0.615-1.589h2.506
	c0.276,0,0.5-0.224,0.5-0.5s-0.224-0.5-0.5-0.5h-2.893l-4.35-11.239c-0.082-0.21-0.013-0.449,0.169-0.583
	c0.18-0.133,0.431-0.131,0.605,0.009l7.957,6.256l5.29-11.951c0.16-0.361,0.754-0.362,0.914,0l5.229,11.814l8.022-6.125
	c0.18-0.135,0.425-0.137,0.604-0.002C73.992-155.88,74.06-155.643,73.979-155.434z M58.764-143.694c0-0.276-0.224-0.5-0.5-0.5h-3
	c-0.276,0-0.5,0.224-0.5,0.5s0.224,0.5,0.5,0.5h3C58.54-143.194,58.764-143.418,58.764-143.694z M59.166-157.975
	c-0.2-0.09-0.438-0.003-0.53,0.199l-4.446,9.77l-5.443-4.253c-0.174-0.136-0.425-0.105-0.562,0.069
	c-0.136,0.174-0.104,0.425,0.069,0.562l5.843,4.565c0.071,0.055,0.158,0.084,0.246,0.084c0.032,0,0.063-0.004,0.095-0.011
	c0.119-0.029,0.219-0.111,0.27-0.223l4.657-10.232C59.456-157.646,59.367-157.883,59.166-157.975z M64.764-143.694
	c0-0.276-0.224-0.5-0.5-0.5h-3c-0.276,0-0.5,0.224-0.5,0.5s0.224,0.5,0.5,0.5h3C64.54-143.194,64.764-143.418,64.764-143.694z"/>
</svg>
