<?xml version="1.0" encoding="utf-8"?>
<!-- Generator: Adobe Illustrator 16.0.0, SVG Export Plug-In . SVG Version: 6.00 Build 0)  -->
<!DOCTYPE svg PUBLIC "-//W3C//DTD SVG 1.1//EN" "http://www.w3.org/Graphics/SVG/1.1/DTD/svg11.dtd">
<svg version="1.1" id="Layer_1" xmlns="http://www.w3.org/2000/svg" xmlns:xlink="http://www.w3.org/1999/xlink" x="0px" y="0px"
	 width="50px" height="50px" viewBox="-315.5 -35.5 50 50" enable-background="new -315.5 -35.5 50 50" xml:space="preserve">
<path d="M-278.672-18c0-1.085-0.883-1.969-1.969-1.969s-1.969,0.883-1.969,1.969c0,0.71,0.381,1.328,0.946,1.674l-3.765,3.746
	l-3.871-3.871c0.463-0.361,0.768-0.917,0.768-1.549c0-1.085-0.883-1.969-1.969-1.969s-1.969,0.883-1.969,1.969
	c0,0.631,0.304,1.188,0.768,1.549l-3.875,3.875l-3.822-3.811c0.599-0.338,1.008-0.973,1.008-1.708c0-1.085-0.883-1.969-1.969-1.969
	s-1.969,0.883-1.969,1.969c0,0.763,0.441,1.419,1.078,1.746V-1.7c0,0.414,0.336,0.75,0.75,0.75h5.052
	c0.045,0.008,0.09,0.012,0.135,0.012s0.09-0.004,0.135-0.012h14.677c0.414,0,0.75-0.336,0.75-0.75v-14.555
	C-279.113-16.581-278.672-17.237-278.672-18z M-280.641-18.469c0.258,0,0.469,0.21,0.469,0.469s-0.21,0.469-0.469,0.469
	s-0.469-0.21-0.469-0.469S-280.899-18.469-280.641-18.469z M-281.25-14.621v6.219l-3.117-3.117L-281.25-14.621z M-286.701-9.198
	l1.27-1.264l4.181,4.181v2.534L-286.701-9.198z M-290.5-18.469c0.258,0,0.469,0.21,0.469,0.469s-0.21,0.469-0.469,0.469
	s-0.469-0.21-0.469-0.469S-290.758-18.469-290.5-18.469z M-290.5-15.531l4.009,4.009l-1.27,1.264l-2.197-2.197
	c-0.293-0.293-0.768-0.293-1.061,0l-2.215,2.215l-1.281-1.276L-290.5-15.531z M-288.824-9.201l-1.686,1.677l-1.662-1.657
	l1.684-1.684L-288.824-9.201z M-299.75-6.281l4.175-4.175l1.28,1.277l-5.455,5.455V-6.281z M-299.75-8.402v-6.216l3.112,3.104
	L-299.75-8.402z M-300.359-18.562c0.258,0,0.469,0.21,0.469,0.469s-0.21,0.469-0.469,0.469s-0.469-0.21-0.469-0.469
	S-300.618-18.562-300.359-18.562z M-295.61-2.45h-3.293l5.67-5.67l1.66,1.654L-295.61-2.45z M-293.483-2.45l2.972-2.957l2.966,2.957
	H-293.483z M-289.448-6.465l1.684-1.675l5.69,5.69h-3.348L-289.448-6.465z"/>
</svg>
