<?xml version="1.0" encoding="utf-8"?>
<!-- Generator: Adobe Illustrator 16.0.0, SVG Export Plug-In . SVG Version: 6.00 Build 0)  -->
<!DOCTYPE svg PUBLIC "-//W3C//DTD SVG 1.1//EN" "http://www.w3.org/Graphics/SVG/1.1/DTD/svg11.dtd">
<svg version="1.1" id="Layer_1" xmlns="http://www.w3.org/2000/svg" xmlns:xlink="http://www.w3.org/1999/xlink" x="0px" y="0px"
	 width="50px" height="50px" viewBox="244.5 244.5 50 50" enable-background="new 244.5 244.5 50 50" xml:space="preserve">
<path d="M269.28,264.484c0.229,0.154,0.291,0.465,0.137,0.695l-4.908,7.342c-0.096,0.143-0.254,0.221-0.416,0.221
	c-0.092,0-0.186-0.025-0.27-0.078l-3.466-2.217c-0.232-0.148-0.3-0.459-0.151-0.691s0.457-0.303,0.69-0.15l3.054,1.951l4.637-6.934
	C268.739,264.395,269.05,264.332,269.28,264.484z M285.446,263.914l-6.139,15.59c-0.012,0.029-0.041,0.045-0.057,0.07
	c-0.631,1.727-6.113,2.201-9.436,2.201s-8.807-0.475-9.438-2.201c-0.016-0.025-0.045-0.041-0.057-0.07l-6.139-15.59
	c-0.08-0.201-0.02-0.434,0.148-0.57c0.169-0.137,0.406-0.15,0.588-0.033l5.221,3.387l1.386-3.002
	c0.114-0.248,0.405-0.361,0.658-0.246l3.663,1.639l1.691-2.545c-0.823-0.674-1.302-1.67-1.302-2.748
	c0-1.973,1.604-3.578,3.578-3.578s3.578,1.605,3.578,3.578c0,1.078-0.479,2.074-1.302,2.748l1.762,2.65l3.578-1.738
	c0.121-0.057,0.262-0.064,0.387-0.02c0.127,0.045,0.229,0.139,0.286,0.26l1.36,2.945l5.25-3.332c0.182-0.117,0.419-0.1,0.586,0.037
	S285.526,263.713,285.446,263.914z M274.411,266.033l1.782,2.682l2.418-1.533l-1.202-2.604L274.411,266.033z M260.981,267.244
	l2.398,1.557l1.906-2.869l-3.061-1.367l-1.229,2.664C260.993,267.234,260.985,267.238,260.981,267.244z M279.226,276.984
	c-0.154-0.543-3.346-1.709-9.41-1.709c-6.066,0-9.258,1.166-9.412,1.709l0.5,1.268c1.59-1.201,6.053-1.553,8.912-1.553
	s7.32,0.352,8.91,1.553L279.226,276.984z M278.315,279.234c-0.115-0.516-3.219-1.535-8.5-1.535c-5.282,0-8.387,1.02-8.502,1.543
	c0.123,0.529,3.149,1.533,8.502,1.533C275.167,280.775,278.192,279.771,278.315,279.234z M283.954,264.975l-7.639,4.848
	c-0.229,0.146-0.533,0.082-0.684-0.146l-4.643-6.982c-0.074-0.113-0.101-0.252-0.071-0.385c0.03-0.133,0.112-0.248,0.229-0.318
	c0.78-0.475,1.246-1.295,1.246-2.195c0-1.422-1.157-2.578-2.578-2.578s-2.578,1.156-2.578,2.578c0,0.9,0.466,1.721,1.246,2.195
	c0.116,0.07,0.198,0.186,0.229,0.318c0.029,0.133,0.003,0.271-0.071,0.385l-4.701,7.072c-0.151,0.229-0.459,0.291-0.688,0.143
	L255.685,265l4.328,10.99c1.761-1.328,6.854-1.715,9.803-1.715c2.948,0,8.04,0.387,9.801,1.715L283.954,264.975z"/>
</svg>
