<?xml version="1.0" encoding="utf-8"?>
<!-- Generator: Adobe Illustrator 16.0.0, SVG Export Plug-In . SVG Version: 6.00 Build 0)  -->
<!DOCTYPE svg PUBLIC "-//W3C//DTD SVG 1.1//EN" "http://www.w3.org/Graphics/SVG/1.1/DTD/svg11.dtd">
<svg version="1.1" id="Layer_1" xmlns="http://www.w3.org/2000/svg" xmlns:xlink="http://www.w3.org/1999/xlink" x="0px" y="0px"
	 width="50px" height="50px" viewBox="-175.5 244.5 50 50" enable-background="new -175.5 244.5 50 50" xml:space="preserve">
<path d="M-150.048,262.084l-2.089,4.406c0.773,0.846,1.195,1.936,1.195,3.107c0,0.275-0.224,0.5-0.5,0.5s-0.5-0.225-0.5-0.5
	c0-1.018-0.404-1.955-1.138-2.641c-0.159-0.148-0.204-0.383-0.11-0.578l2.239-4.723c0.119-0.248,0.416-0.354,0.666-0.238
	C-150.036,261.537-149.93,261.836-150.048,262.084z M-135.015,263.252l-5.733,16.51c-0.003,0.01-0.014,0.014-0.018,0.023
	c-0.174,1.98-6.408,2.512-9.733,2.512c-3.325,0-9.561-0.531-9.735-2.512c-0.004-0.01-0.014-0.014-0.018-0.023l-5.733-16.51
	c-0.072-0.207-0.001-0.436,0.175-0.566c0.177-0.129,0.417-0.129,0.593,0l7.941,5.828c0.176,0.129,0.248,0.357,0.178,0.564
	c-0.064,0.188-0.095,0.357-0.095,0.52c0,0.896,0.729,1.625,1.625,1.625s1.625-0.729,1.625-1.625c0-0.842-0.637-1.533-1.48-1.607
	c-0.163-0.016-0.309-0.107-0.39-0.25c-0.081-0.143-0.088-0.314-0.018-0.463l4.879-10.287c0.083-0.176,0.258-0.287,0.452-0.287
	s0.369,0.111,0.452,0.287l4.875,10.279c0.071,0.15,0.063,0.326-0.022,0.471c-0.085,0.143-0.236,0.234-0.403,0.242
	c-0.862,0.047-1.537,0.756-1.537,1.615c0,0.896,0.729,1.625,1.625,1.625s1.625-0.729,1.625-1.625c0-0.197-0.039-0.396-0.116-0.594
	c-0.083-0.213-0.011-0.455,0.176-0.588l8.048-5.734c0.177-0.127,0.415-0.125,0.59,0.006
	C-135.013,262.818-134.943,263.047-135.015,263.252z M-141.75,279.701c-0.087-0.539-3.254-1.594-8.749-1.594
	c-5.496,0-8.664,1.055-8.751,1.598c0.093,0.537,3.267,1.592,8.751,1.592C-145.016,281.297-141.843,280.242-141.75,279.701z
	 M-136.474,264.406l-6.478,4.615c0.044,0.191,0.067,0.383,0.067,0.576c0,1.447-1.178,2.625-2.625,2.625s-2.625-1.178-2.625-2.625
	c0-1.146,0.742-2.129,1.784-2.479l-4.148-8.748l-4.16,8.771c1.014,0.367,1.717,1.326,1.717,2.455c0,1.447-1.178,2.625-2.625,2.625
	s-2.625-1.178-2.625-2.625c0-0.158,0.016-0.316,0.049-0.48l-6.37-4.676l4.934,14.209c1.683-1.191,6.181-1.543,9.08-1.543
	c2.898,0,7.396,0.352,9.078,1.543L-136.474,264.406z"/>
</svg>
