<?xml version="1.0" encoding="utf-8"?>
<!-- Generator: Adobe Illustrator 16.0.0, SVG Export Plug-In . SVG Version: 6.00 Build 0)  -->
<!DOCTYPE svg PUBLIC "-//W3C//DTD SVG 1.1//EN" "http://www.w3.org/Graphics/SVG/1.1/DTD/svg11.dtd">
<svg version="1.1" id="Layer_1" xmlns="http://www.w3.org/2000/svg" xmlns:xlink="http://www.w3.org/1999/xlink" x="0px" y="0px"
	 width="50px" height="50px" viewBox="34.5 244.5 50 50" enable-background="new 34.5 244.5 50 50" xml:space="preserve">
<path d="M75.308,264.18c-0.167-0.143-0.408-0.162-0.594-0.043l-5.25,3.332l-1.36-2.945c-0.057-0.121-0.159-0.215-0.286-0.26
	c-0.125-0.045-0.265-0.037-0.387,0.02l-3.578,1.738l-1.762-2.65c0.823-0.674,1.302-1.67,1.302-2.748
	c0-1.973-1.604-3.578-3.578-3.578s-3.578,1.605-3.578,3.578c0,1.078,0.479,2.074,1.302,2.748l-1.691,2.545l-3.663-1.639
	c-0.251-0.115-0.544-0.002-0.658,0.246l-1.386,3.002l-5.221-3.387c-0.184-0.119-0.428-0.104-0.596,0.039
	c-0.168,0.145-0.223,0.381-0.133,0.584l6.14,13.877c0.08,0.182,0.259,0.299,0.457,0.299h18.055c0.198,0,0.377-0.117,0.457-0.299
	l6.14-13.877C75.528,264.561,75.475,264.324,75.308,264.18z M67.409,265.406l1.202,2.604l-2.418,1.533l-1.782-2.682L67.409,265.406z
	 M50.996,268.057l1.229-2.664l3.061,1.367l-1.906,2.869l-2.398-1.557C50.985,268.066,50.993,268.062,50.996,268.057z
	 M68.517,277.938H51.112l-5.328-12.045l7.467,4.844c0.229,0.148,0.536,0.086,0.688-0.143l4.701-7.072
	c0.074-0.113,0.101-0.252,0.071-0.385c-0.03-0.133-0.112-0.248-0.229-0.318c-0.78-0.475-1.246-1.295-1.246-2.195
	c0-1.422,1.157-2.578,2.578-2.578s2.578,1.156,2.578,2.578c0,0.9-0.466,1.721-1.246,2.195c-0.116,0.07-0.198,0.186-0.229,0.318
	c-0.029,0.133-0.003,0.271,0.071,0.385l4.643,6.982c0.15,0.229,0.455,0.293,0.684,0.146l7.541-4.785L68.517,277.938z M59.28,265.312
	c0.229,0.154,0.291,0.465,0.137,0.695l-4.908,7.342c-0.096,0.143-0.254,0.221-0.416,0.221c-0.092,0-0.186-0.025-0.27-0.078
	l-3.466-2.217c-0.232-0.148-0.3-0.459-0.151-0.691s0.457-0.303,0.69-0.15l3.054,1.951l4.637-6.934
	C58.739,265.223,59.051,265.16,59.28,265.312z M69.064,280.447c0,0.277-0.224,0.5-0.5,0.5h-17.5c-0.276,0-0.5-0.223-0.5-0.5
	c0-0.275,0.224-0.5,0.5-0.5h17.5C68.841,279.947,69.064,280.172,69.064,280.447z"/>
</svg>
