<?xml version="1.0" encoding="utf-8"?>
<!-- Generator: Adobe Illustrator 16.0.0, SVG Export Plug-In . SVG Version: 6.00 Build 0)  -->
<!DOCTYPE svg PUBLIC "-//W3C//DTD SVG 1.1//EN" "http://www.w3.org/Graphics/SVG/1.1/DTD/svg11.dtd">
<svg version="1.1" id="Layer_1" xmlns="http://www.w3.org/2000/svg" xmlns:xlink="http://www.w3.org/1999/xlink" x="0px" y="0px"
	 width="50px" height="50px" viewBox="314.5 104.5 50 50" enable-background="new 314.5 104.5 50 50" xml:space="preserve">
<path d="M350,134.964c-0.049,0.03-0.102,0.056-0.161,0.067c-0.033,0.007-0.066,0.01-0.099,0.01c-0.233,0-0.442-0.165-0.489-0.402
	c-0.049-0.11-0.55-0.501-2.227-0.864c-0.271-0.058-0.441-0.324-0.383-0.594c0.059-0.269,0.32-0.443,0.594-0.383
	c1.736,0.376,2.453,0.806,2.765,1.185v-13.831c0-0.202-0.121-0.384-0.308-0.462c-0.188-0.077-0.401-0.034-0.545,0.107l-3.635,3.616
	c-0.19,0.189-0.197,0.495-0.016,0.692c0.168,0.184,0.368,0.482,0.368,0.866c0,0.87-1.03,1.604-2.25,1.604
	c-1.24,0-2.25-0.72-2.25-1.604c0-0.627,0.524-1.201,1.336-1.464c0.166-0.054,0.292-0.189,0.333-0.358s-0.01-0.348-0.133-0.471
	l-3.048-3.047c-0.195-0.195-0.512-0.195-0.707,0l-3.048,3.047c-0.123,0.123-0.174,0.302-0.133,0.471s0.167,0.305,0.333,0.358
	c0.812,0.263,1.337,0.837,1.337,1.464c0,0.87-1.03,1.604-2.25,1.604c-1.24,0-2.25-0.72-2.25-1.604c0-0.383,0.198-0.681,0.364-0.863
	c0.181-0.198,0.173-0.502-0.016-0.691l-3.631-3.62c-0.143-0.142-0.359-0.184-0.545-0.107c-0.187,0.077-0.309,0.26-0.309,0.462V136.7
	c0,0.039,0.014,0.074,0.022,0.111c-0.005,0.037-0.022,0.071-0.022,0.109c0,2.048,6.601,2.594,10.501,2.594
	c3.899,0,10.499-0.546,10.499-2.594c0-0.038-0.018-0.072-0.022-0.109c0.009-0.037,0.022-0.072,0.022-0.111V134.964z
	 M341.182,132.161c1.048,0.03,2.066,0.093,3.028,0.186c0.275,0.027,0.477,0.271,0.45,0.546c-0.025,0.259-0.243,0.452-0.497,0.452
	c-0.017,0-0.033-0.001-0.049-0.002c-0.939-0.092-1.937-0.152-2.962-0.182c-0.275-0.008-0.493-0.238-0.485-0.515
	C340.675,132.371,340.905,132.176,341.182,132.161z M338.152,132.163c0.283,0.012,0.507,0.209,0.515,0.485s-0.209,0.506-0.485,0.515
	c-1.026,0.03-2.022,0.093-2.959,0.187c-0.017,0.002-0.034,0.003-0.051,0.003c-0.253,0-0.471-0.192-0.496-0.45
	c-0.028-0.274,0.173-0.52,0.447-0.547C336.083,132.259,337.103,132.194,338.152,132.163z M331.1,127.362
	c0-0.169,0.106-0.32,0.266-0.377c0.16-0.057,0.338-0.007,0.444,0.124c0.813,0.996,2.117,1.566,3.576,1.566c0.221,0,0.4,0.18,0.4,0.4
	s-0.18,0.4-0.4,0.4c-1.329,0-2.553-0.415-3.485-1.16v2.114c0,0.221-0.18,0.4-0.4,0.4s-0.4-0.18-0.4-0.4V127.362z M329.167,134.62
	c0-0.788,0.932-1.361,2.932-1.806c0.271-0.058,0.537,0.111,0.597,0.38c0.06,0.27-0.11,0.537-0.38,0.597
	c-1.619,0.359-2.104,0.74-2.152,0.856c0,0.276-0.222,0.486-0.498,0.486S329.167,134.896,329.167,134.62z M339.501,138.515
	c-5.92,0-9.333-1.045-9.502-1.584c0.165-0.561,3.574-1.605,9.502-1.605c5.927,0,9.335,1.045,9.5,1.585
	C348.832,137.47,345.42,138.515,339.501,138.515z"/>
</svg>
