<?xml version="1.0" encoding="utf-8"?>
<!-- Generator: Adobe Illustrator 16.0.0, SVG Export Plug-In . SVG Version: 6.00 Build 0)  -->
<!DOCTYPE svg PUBLIC "-//W3C//DTD SVG 1.1//EN" "http://www.w3.org/Graphics/SVG/1.1/DTD/svg11.dtd">
<svg version="1.1" id="Layer_1" xmlns="http://www.w3.org/2000/svg" xmlns:xlink="http://www.w3.org/1999/xlink" x="0px" y="0px"
	 width="50px" height="50px" viewBox="-105.5 -35.5 50 50" enable-background="new -105.5 -35.5 50 50" xml:space="preserve">
<path d="M-68.672-16.125c0-1.085-0.883-1.969-1.969-1.969s-1.969,0.883-1.969,1.969c0,0.71,0.381,1.328,0.946,1.674l-3.765,3.746
	l-4.322-4.322v-2.91h1.5c0.414,0,0.75-0.336,0.75-0.75s-0.336-0.75-0.75-0.75h-1.5v-1.75c0-0.414-0.336-0.75-0.75-0.75
	s-0.75,0.336-0.75,0.75v1.75h-1.5c-0.414,0-0.75,0.336-0.75,0.75s0.336,0.75,0.75,0.75h1.5v2.91l-4.327,4.327l-3.822-3.811
	c0.599-0.338,1.008-0.973,1.008-1.708c0-1.085-0.883-1.969-1.969-1.969s-1.969,0.883-1.969,1.969c0,0.763,0.441,1.419,1.078,1.746
	V0.175c0,0.414,0.336,0.75,0.75,0.75h5.052c0.045,0.008,0.09,0.012,0.135,0.012s0.09-0.004,0.135-0.012H-70.5
	c0.414,0,0.75-0.336,0.75-0.75v-14.555C-69.113-14.706-68.672-15.362-68.672-16.125z M-70.641-16.594
	c0.258,0,0.469,0.21,0.469,0.469s-0.21,0.469-0.469,0.469s-0.469-0.21-0.469-0.469S-70.899-16.594-70.641-16.594z M-71.25-12.746
	v6.219l-3.117-3.117L-71.25-12.746z M-76.491-9.647l-3.259,3.243v-6.501L-76.491-9.647z M-81.25-12.906v6.52l-3.265-3.255
	L-81.25-12.906z M-86.638-9.64l-3.112,3.112v-6.216L-86.638-9.64z M-90.359-16.688c0.258,0,0.469,0.21,0.469,0.469
	s-0.21,0.469-0.469,0.469s-0.469-0.21-0.469-0.469S-90.618-16.688-90.359-16.688z M-85.61-0.575h-4.14v-3.832l4.175-4.175
	l4.002,3.99L-85.61-0.575z M-81.25-2.797v2.222h-2.233L-81.25-2.797z M-79.75-0.575v-2.198l2.205,2.198H-79.75z M-75.421-0.575
	l-4.027-4.015l4.017-3.997l4.181,4.181v3.832H-75.421z"/>
</svg>
