<?xml version="1.0" encoding="utf-8"?>
<!-- Generator: Adobe Illustrator 16.0.0, SVG Export Plug-In . SVG Version: 6.00 Build 0)  -->
<!DOCTYPE svg PUBLIC "-//W3C//DTD SVG 1.1//EN" "http://www.w3.org/Graphics/SVG/1.1/DTD/svg11.dtd">
<svg version="1.1" id="Layer_1" xmlns="http://www.w3.org/2000/svg" xmlns:xlink="http://www.w3.org/1999/xlink" x="0px" y="0px"
	 width="50px" height="50px" viewBox="-315.5 174.5 50 50" enable-background="new -315.5 174.5 50 50" xml:space="preserve">
<path d="M-280.308,192.354c-0.185-0.075-0.4-0.034-0.544,0.107l-4.576,4.553l-2.199-2.2c0.438-0.603,0.675-1.323,0.675-2.072
	c0-1.956-1.591-3.547-3.547-3.547s-3.547,1.591-3.547,3.547c0,0.75,0.237,1.471,0.674,2.073l-2.204,2.204l-4.57-4.558
	c-0.143-0.142-0.357-0.184-0.545-0.107c-0.187,0.077-0.308,0.26-0.308,0.462v14.727c0,0.276,0.224,0.5,0.5,0.5h5.08
	c0.035,0.008,0.071,0.012,0.108,0.012h0.001l14.811-0.012c0.276,0,0.5-0.224,0.5-0.5v-14.727
	C-280,192.614-280.122,192.433-280.308,192.354z M-291.744,197.45l-3.478,3.457c-0.195,0.194-0.51,0.194-0.706,0L-298,198.84v4.756
	c0,0.276-0.224,0.5-0.5,0.5s-0.5-0.224-0.5-0.5v-5.961c0-0.202,0.122-0.385,0.309-0.462c0.187-0.076,0.402-0.033,0.544,0.107
	l2.573,2.566l3.125-3.105c0.195-0.194,0.512-0.195,0.707,0.002C-291.547,196.939-291.548,197.256-291.744,197.45z M-280,209.305
	c0,0.276-0.224,0.5-0.5,0.5h-20c-0.276,0-0.5-0.224-0.5-0.5s0.224-0.5,0.5-0.5h20C-280.224,208.805-280,209.028-280,209.305z"/>
</svg>
