<?xml version="1.0" encoding="utf-8"?>
<!-- Generator: Adobe Illustrator 16.0.0, SVG Export Plug-In . SVG Version: 6.00 Build 0)  -->
<!DOCTYPE svg PUBLIC "-//W3C//DTD SVG 1.1//EN" "http://www.w3.org/Graphics/SVG/1.1/DTD/svg11.dtd">
<svg version="1.1" id="Layer_1" xmlns="http://www.w3.org/2000/svg" xmlns:xlink="http://www.w3.org/1999/xlink" x="0px" y="0px"
	 width="50px" height="50px" viewBox="34.5 -175.5 50 50" enable-background="new 34.5 -175.5 50 50" xml:space="preserve">
<path d="M75.196-155.981c-0.248-0.247-0.635-0.291-0.932-0.102l-8.312,5.276l-5.555-8.356c0.792-0.347,1.348-1.137,1.348-2.055
	c0-1.238-1.007-2.245-2.245-2.245s-2.245,1.007-2.245,2.245c0,0.918,0.556,1.708,1.348,2.055l-5.609,8.438l-8.252-5.354
	c-0.294-0.19-0.683-0.152-0.935,0.096c-0.251,0.247-0.296,0.636-0.108,0.934l6.14,9.743c0.138,0.218,0.377,0.35,0.635,0.35h18.055
	c0.258,0,0.497-0.132,0.635-0.35l6.14-9.743C75.488-155.347,75.445-155.734,75.196-155.981z M59.5-161.964
	c0.411,0,0.745,0.334,0.745,0.745s-0.334,0.745-0.745,0.745s-0.745-0.334-0.745-0.745S59.089-161.964,59.5-161.964z M46.785-152.965
	l5.378,3.489l-1.632,2.455L46.785-152.965z M51.957-146.457l1.465-2.203l3.396,2.203H51.957z M54.253-149.91l5.247-7.894l5.186,7.8
	l-5.347,3.394L54.253-149.91z M65.516-148.754l1.527,2.297h-5.146L65.516-148.754z M68.469-147.021l-1.686-2.537l5.474-3.474
	L68.469-147.021z M68.59-141.786c0.553,0,1-0.448,1-1s-0.447-1-1-1H50.41c-0.553,0-1,0.448-1,1s0.447,1,1,1h0.34v2.25h-0.34
	c-0.553,0-1,0.448-1,1s0.447,1,1,1h18.18c0.553,0,1-0.448,1-1s-0.447-1-1-1h-0.34v-2.25H68.59z M61.75-141.786v2.25h-4.5v-2.25
	H61.75z M51.75-141.786h4.5v2.25h-4.5V-141.786z M67.25-139.536h-4.5v-2.25h4.5V-139.536z"/>
</svg>
