<?xml version="1.0" encoding="utf-8"?>
<!-- Generator: Adobe Illustrator 16.0.0, SVG Export Plug-In . SVG Version: 6.00 Build 0)  -->
<!DOCTYPE svg PUBLIC "-//W3C//DTD SVG 1.1//EN" "http://www.w3.org/Graphics/SVG/1.1/DTD/svg11.dtd">
<svg version="1.1" id="Layer_1" xmlns="http://www.w3.org/2000/svg" xmlns:xlink="http://www.w3.org/1999/xlink" x="0px" y="0px"
	 width="50px" height="50px" viewBox="104.5 314.5 50 50" enable-background="new 104.5 314.5 50 50" xml:space="preserve">
<path d="M144.993,335.689c-0.165-0.144-0.407-0.162-0.594-0.043l-5.25,3.331l-1.36-2.944c-0.057-0.122-0.159-0.216-0.286-0.261
	c-0.127-0.046-0.266-0.038-0.387,0.021l-3.579,1.737l-1.761-2.649c0.823-0.675,1.302-1.67,1.302-2.748
	c0-1.974-1.605-3.579-3.578-3.579s-3.578,1.605-3.578,3.579c0,1.078,0.479,2.073,1.302,2.748l-1.691,2.545l-3.663-1.639
	c-0.25-0.114-0.542-0.003-0.658,0.246l-1.387,3.002l-5.219-3.387c-0.186-0.12-0.428-0.104-0.597,0.039s-0.223,0.381-0.133,0.583
	l6.14,13.878c0.08,0.181,0.259,0.298,0.457,0.298h18.055c0.198,0,0.377-0.117,0.457-0.298l6.14-13.878
	C145.213,336.069,145.16,335.833,144.993,335.689z M120.682,339.565l1.23-2.664l3.06,1.368l-1.906,2.868l-2.398-1.556
	C120.671,339.575,120.679,339.572,120.682,339.565z M122.329,347.457h-3c-0.276,0-0.5-0.224-0.5-0.5s0.224-0.5,0.5-0.5h3
	c0.276,0,0.5,0.224,0.5,0.5S122.605,347.457,122.329,347.457z M128.329,347.457h-3c-0.276,0-0.5-0.224-0.5-0.5s0.224-0.5,0.5-0.5h3
	c0.276,0,0.5,0.224,0.5,0.5S128.605,347.457,128.329,347.457z M129.104,337.517l-4.909,7.342c-0.097,0.144-0.255,0.222-0.416,0.222
	c-0.093,0-0.186-0.025-0.27-0.079l-3.466-2.217c-0.232-0.148-0.301-0.458-0.151-0.69c0.148-0.234,0.458-0.3,0.69-0.151l3.053,1.952
	l4.637-6.935c0.154-0.229,0.464-0.29,0.694-0.138C129.195,336.977,129.257,337.287,129.104,337.517z M134.329,347.457h-3
	c-0.276,0-0.5-0.224-0.5-0.5s0.224-0.5,0.5-0.5h3c0.276,0,0.5,0.224,0.5,0.5S134.605,347.457,134.329,347.457z M134.097,338.371
	l2.998-1.455l1.202,2.603l-2.418,1.534L134.097,338.371z M139.751,347.457h-2.422c-0.276,0-0.5-0.224-0.5-0.5s0.224-0.5,0.5-0.5
	h2.422c0.276,0,0.5,0.224,0.5,0.5S140.027,347.457,139.751,347.457z"/>
</svg>
