<?xml version="1.0" encoding="utf-8"?>
<!-- Generator: Adobe Illustrator 16.0.0, SVG Export Plug-In . SVG Version: 6.00 Build 0)  -->
<!DOCTYPE svg PUBLIC "-//W3C//DTD SVG 1.1//EN" "http://www.w3.org/Graphics/SVG/1.1/DTD/svg11.dtd">
<svg version="1.1" id="Layer_1" xmlns="http://www.w3.org/2000/svg" xmlns:xlink="http://www.w3.org/1999/xlink" x="0px" y="0px"
	 width="50px" height="50px" viewBox="-175.5 174.5 50 50" enable-background="new -175.5 174.5 50 50" xml:space="preserve">
<path d="M-139.591,196.592c0-0.202-0.122-0.384-0.308-0.462c-0.185-0.075-0.4-0.034-0.544,0.107l-4.576,4.553l-2.2-2.199
	c0.438-0.603,0.675-1.322,0.675-2.073c0-1.956-1.591-3.547-3.547-3.547s-3.547,1.591-3.547,3.547c0,0.75,0.237,1.471,0.674,2.073
	l-2.204,2.204l-4.57-4.558c-0.144-0.142-0.357-0.184-0.545-0.107c-0.187,0.077-0.308,0.26-0.308,0.462v12.73
	c0-0.799,0.943-1.411,2.882-1.871c0.271-0.067,0.539,0.102,0.602,0.371c0.064,0.269-0.102,0.538-0.371,0.602
	c-1.931,0.459-2.113,0.904-2.114,0.908c0,0.276-0.224,0.495-0.5,0.495c-0.276,0-0.5-0.229-0.5-0.505v1.996
	c0,0.052,0.015,0.1,0.029,0.146c-0.008,0.049-0.029,0.094-0.029,0.145c0,2.048,6.602,2.594,10.502,2.594
	c3.899,0,10.498-0.546,10.498-2.594c0-0.051-0.021-0.096-0.029-0.145c0.015-0.047,0.029-0.095,0.029-0.146V196.592z
	 M-148.623,206.75c1.05,0.032,2.07,0.099,3.03,0.198c0.275,0.028,0.475,0.273,0.446,0.549c-0.027,0.257-0.244,0.448-0.497,0.448
	c-0.017,0-0.034-0.001-0.052-0.003c-0.937-0.097-1.932-0.161-2.958-0.192c-0.276-0.009-0.493-0.239-0.485-0.516
	C-149.129,206.959-148.895,206.771-148.623,206.75z M-157.591,202.615v2.994c0,0.276-0.224,0.5-0.5,0.5s-0.5-0.224-0.5-0.5v-4.199
	c0-0.202,0.122-0.385,0.308-0.462c0.188-0.075,0.402-0.034,0.545,0.107l2.573,2.567l3.125-3.106
	c0.196-0.194,0.512-0.194,0.707,0.002s0.194,0.513-0.002,0.707l-3.479,3.457c-0.195,0.194-0.51,0.193-0.706,0L-157.591,202.615z
	 M-151.14,207.239c0.009,0.275-0.208,0.507-0.483,0.516c-1.033,0.033-2.027,0.101-2.957,0.199c-0.018,0.002-0.036,0.003-0.054,0.003
	c-0.252,0-0.469-0.19-0.497-0.447c-0.029-0.274,0.169-0.521,0.444-0.55c0.954-0.102,1.974-0.171,3.031-0.205
	C-151.414,206.742-151.148,206.963-151.14,207.239z M-150.089,213.203c-5.925,0-9.336-1.044-9.503-1.584
	c0.165-0.56,3.574-1.604,9.503-1.604c5.926,0,9.334,1.045,9.499,1.584C-140.757,212.159-144.167,213.203-150.089,213.203z
	 M-139.999,209.719c-0.034,0.008-0.069,0.011-0.103,0.011c-0.232,0-0.439-0.162-0.489-0.397c-0.001-0.004-0.19-0.464-2.205-0.929
	c-0.269-0.062-0.437-0.331-0.375-0.6c0.062-0.27,0.329-0.438,0.6-0.375c2.451,0.566,2.862,1.241,2.958,1.698
	C-139.555,209.397-139.728,209.662-139.999,209.719z"/>
</svg>
