<?xml version="1.0" encoding="utf-8"?>
<!-- Generator: Adobe Illustrator 16.0.0, SVG Export Plug-In . SVG Version: 6.00 Build 0)  -->
<!DOCTYPE svg PUBLIC "-//W3C//DTD SVG 1.1//EN" "http://www.w3.org/Graphics/SVG/1.1/DTD/svg11.dtd">
<svg version="1.1" id="Layer_1" xmlns="http://www.w3.org/2000/svg" xmlns:xlink="http://www.w3.org/1999/xlink" x="0px" y="0px"
	 width="50px" height="50px" viewBox="-105.5 104.5 50 50" enable-background="new -105.5 104.5 50 50" xml:space="preserve">
<path d="M-88.9,130.431v-3.068c0-0.169,0.106-0.32,0.266-0.377s0.337-0.007,0.444,0.124c0.813,0.996,2.117,1.566,3.576,1.566
	c0.221,0,0.4,0.18,0.4,0.4s-0.179,0.4-0.4,0.4c-1.329,0-2.553-0.415-3.486-1.16v2.114c0,0.221-0.179,0.4-0.4,0.4
	S-88.9,130.651-88.9,130.431z M-70,120.151V136.7c0,0.039-0.014,0.074-0.022,0.111c0.004,0.037,0.022,0.071,0.022,0.109
	c0,2.048-6.6,2.594-10.499,2.594c-3.9,0-10.501-0.546-10.501-2.594c0-0.038,0.018-0.072,0.022-0.109
	C-90.986,136.774-91,136.739-91,136.7v-16.549c0-0.202,0.122-0.385,0.308-0.462c0.188-0.076,0.402-0.034,0.545,0.107l3.631,3.62
	c0.189,0.189,0.197,0.493,0.017,0.691c-0.167,0.183-0.365,0.48-0.365,0.863c0,0.885,1.009,1.604,2.25,1.604
	c1.22,0,2.25-0.734,2.25-1.604c0-0.627-0.525-1.201-1.337-1.464c-0.166-0.054-0.292-0.189-0.332-0.358
	c-0.041-0.169,0.009-0.348,0.132-0.471l3.048-3.047c0.195-0.195,0.512-0.195,0.707,0l3.048,3.047
	c0.123,0.123,0.173,0.302,0.133,0.471c-0.041,0.169-0.167,0.305-0.333,0.358c-0.812,0.263-1.336,0.837-1.336,1.464
	c0,0.885,1.009,1.604,2.25,1.604c1.22,0,2.25-0.734,2.25-1.604c0-0.384-0.2-0.683-0.369-0.866c-0.181-0.197-0.174-0.503,0.016-0.692
	l3.635-3.616c0.144-0.142,0.359-0.183,0.544-0.107C-70.122,119.768-70,119.949-70,120.151z M-71,135.705v-1.11
	c-0.164-0.551-3.572-1.596-9.499-1.596c-5.923,0-9.33,1.043-9.501,1.604v1.103c1.99-1.06,6.526-1.38,9.501-1.38
	C-77.525,134.325-72.99,134.646-71,135.705z M-90,121.355v12.023c1.99-1.06,6.526-1.38,9.501-1.38c2.974,0,7.509,0.32,9.499,1.38
	v-12.024l-2.473,2.46c0.223,0.357,0.338,0.751,0.338,1.157c0,1.437-1.458,2.604-3.25,2.604s-3.25-1.168-3.25-2.604
	c0-0.846,0.499-1.616,1.317-2.098l-2.182-2.182l-2.182,2.182c0.819,0.481,1.318,1.252,1.318,2.098c0,1.437-1.458,2.604-3.25,2.604
	s-3.25-1.168-3.25-2.604c0-0.405,0.115-0.797,0.334-1.152L-90,121.355z M-70.999,136.91c-0.165-0.54-3.573-1.585-9.5-1.585
	c-5.928,0-9.337,1.045-9.502,1.605c0.169,0.539,3.582,1.584,9.502,1.584C-74.58,138.515-71.168,137.47-70.999,136.91z"/>
</svg>
