<?xml version="1.0" encoding="utf-8"?>
<!-- Generator: Adobe Illustrator 16.0.0, SVG Export Plug-In . SVG Version: 6.00 Build 0)  -->
<!DOCTYPE svg PUBLIC "-//W3C//DTD SVG 1.1//EN" "http://www.w3.org/Graphics/SVG/1.1/DTD/svg11.dtd">
<svg version="1.1" id="Layer_1" xmlns="http://www.w3.org/2000/svg" xmlns:xlink="http://www.w3.org/1999/xlink" x="0px" y="0px"
	 width="50px" height="50px" viewBox="-245.5 314.5 50 50" enable-background="new -245.5 314.5 50 50" xml:space="preserve">
<path d="M-204.178,333.945c-0.176-0.131-0.413-0.133-0.59-0.007l-8.048,5.734c-0.187,0.133-0.259,0.375-0.176,0.588
	c0.077,0.199,0.116,0.398,0.116,0.594c0,0.896-0.729,1.625-1.625,1.625s-1.625-0.729-1.625-1.625c0-0.858,0.675-1.567,1.537-1.614
	c0.166-0.009,0.317-0.1,0.402-0.243s0.094-0.319,0.022-0.47l-4.875-10.28c-0.166-0.35-0.738-0.35-0.904,0l-4.879,10.288
	c-0.069,0.147-0.063,0.32,0.019,0.462c0.081,0.143,0.227,0.235,0.39,0.25c0.844,0.074,1.479,0.766,1.479,1.607
	c0,0.896-0.729,1.625-1.625,1.625s-1.625-0.729-1.625-1.625c0-0.16,0.031-0.33,0.095-0.521c0.069-0.206-0.002-0.434-0.178-0.562
	l-7.94-5.829c-0.177-0.129-0.418-0.13-0.593,0.001c-0.176,0.13-0.247,0.359-0.176,0.566l5.733,16.509
	c0.07,0.201,0.26,0.336,0.473,0.336h18.559c0.213,0,0.402-0.135,0.473-0.336l5.733-16.509
	C-203.934,334.304-204.004,334.076-204.178,333.945z M-226.74,348.531h-3c-0.276,0-0.5-0.224-0.5-0.5s0.224-0.5,0.5-0.5h3
	c0.276,0,0.5,0.224,0.5,0.5S-226.464,348.531-226.74,348.531z M-220.74,348.531h-3c-0.276,0-0.5-0.224-0.5-0.5s0.224-0.5,0.5-0.5h3
	c0.276,0,0.5,0.224,0.5,0.5S-220.464,348.531-220.74,348.531z M-219.038,333.342l-2.09,4.405c0.772,0.847,1.194,1.937,1.194,3.107
	c0,0.276-0.224,0.5-0.5,0.5s-0.5-0.224-0.5-0.5c0-1.017-0.404-1.954-1.138-2.64c-0.158-0.148-0.203-0.383-0.11-0.579l2.239-4.722
	c0.119-0.25,0.421-0.354,0.666-0.238C-219.026,332.795-218.92,333.093-219.038,333.342z M-214.74,348.531h-3
	c-0.276,0-0.5-0.224-0.5-0.5s0.224-0.5,0.5-0.5h3c0.276,0,0.5,0.224,0.5,0.5S-214.464,348.531-214.74,348.531z M-209.24,348.531
	h-2.5c-0.276,0-0.5-0.224-0.5-0.5s0.224-0.5,0.5-0.5h2.5c0.276,0,0.5,0.224,0.5,0.5S-208.964,348.531-209.24,348.531z"/>
</svg>
