<?xml version="1.0" encoding="utf-8"?>
<!-- Generator: Adobe Illustrator 16.0.0, SVG Export Plug-In . SVG Version: 6.00 Build 0)  -->
<!DOCTYPE svg PUBLIC "-//W3C//DTD SVG 1.1//EN" "http://www.w3.org/Graphics/SVG/1.1/DTD/svg11.dtd">
<svg version="1.1" id="Layer_1" xmlns="http://www.w3.org/2000/svg" xmlns:xlink="http://www.w3.org/1999/xlink" x="0px" y="0px"
	 width="50px" height="50px" viewBox="-35.5 244.5 50 50" enable-background="new -35.5 244.5 50 50" xml:space="preserve">
<path d="M5.064,261.971c-0.261-0.21-0.629-0.219-0.902-0.026l-8.459,5.993l-5.527-11.589c-0.248-0.521-1.105-0.521-1.354,0
	l-5.591,11.724l-8.386-6.121c-0.272-0.198-0.643-0.192-0.907,0.017c-0.264,0.208-0.357,0.567-0.228,0.878l5.76,13.814
	c-0.018,0.088-0.044,0.173-0.044,0.266c0,0.125,0.027,0.242,0.059,0.358v3.612c0,0.275,0.151,0.529,0.394,0.66
	c1.065,0.574,4.618,1.485,9.619,1.485c5.082,0,8.52-0.763,9.674-1.519c0.211-0.138,0.339-0.374,0.339-0.627v-3.609
	c0.033-0.117,0.06-0.235,0.06-0.361c0-0.093-0.026-0.178-0.044-0.266l5.76-13.814C5.417,262.536,5.326,262.18,5.064,261.971z
	 M-19.013,277.05v-0.175c0.453-0.524,2.854-1.314,6.812-1.497c0.54-0.024,1.105-0.04,1.702-0.04c0.404,0,0.79,0.008,1.168,0.02
	c1.045,0.032,1.989,0.106,2.828,0.208c0.183,0.021,0.361,0.045,0.534,0.069c2.27,0.32,3.65,0.829,3.983,1.166v0.176
	c-0.044,0.051-0.104,0.104-0.184,0.158c-0.859,0.591-3.782,1.379-8.329,1.379c-4.712,0-7.675-0.846-8.41-1.379
	C-18.95,277.105-18.986,277.077-19.013,277.05z M-12.723,273.909c-1.941,0.12-4.073,0.407-5.625,0.961l2.155-4.521l4.183,3.054
	L-12.723,273.909z M-8.812,273.88l-0.628-0.458l4.558-3.229l2.23,4.678C-4.349,274.265-6.737,273.979-8.812,273.88z M-10.5,258.414
	l4.962,10.404l-5.18,3.67l-4.817-3.516L-10.5,258.414z M-17.425,269.45l-2.393,5.017l-4.054-9.723L-17.425,269.45z M-1.987,280.446
	c-1.129,0.493-4.003,1.096-8.513,1.096c-4.255,0-7.313-0.689-8.513-1.135v-1.697c2.117,0.993,5.931,1.304,8.513,1.304
	c2.582,0,6.396-0.311,8.513-1.304V280.446z M-1.183,274.467l-2.458-5.154l6.54-4.634L-1.183,274.467z"/>
</svg>
