<?xml version="1.0" encoding="utf-8"?>
<!-- Generator: Adobe Illustrator 16.0.0, SVG Export Plug-In . SVG Version: 6.00 Build 0)  -->
<!DOCTYPE svg PUBLIC "-//W3C//DTD SVG 1.1//EN" "http://www.w3.org/Graphics/SVG/1.1/DTD/svg11.dtd">
<svg version="1.1" id="Layer_1" xmlns="http://www.w3.org/2000/svg" xmlns:xlink="http://www.w3.org/1999/xlink" x="0px" y="0px"
	 width="50px" height="50px" viewBox="244.5 174.5 50 50" enable-background="new 244.5 174.5 50 50" xml:space="preserve">
<path d="M280,191.081c0-0.202-0.121-0.384-0.308-0.462c-0.188-0.077-0.401-0.035-0.545,0.107l-4.576,4.553l-4.718-4.718
	c-0.195-0.195-0.512-0.195-0.707,0l-4.724,4.723l-4.569-4.558c-0.144-0.142-0.358-0.184-0.545-0.107
	c-0.187,0.077-0.309,0.26-0.309,0.462v14.727c0,0.033,0.013,0.062,0.019,0.093c-0.003,0.031-0.019,0.06-0.019,0.092
	c0,2.048,6.601,2.594,10.501,2.594c3.899,0,10.499-0.546,10.499-2.594c0-0.032-0.016-0.061-0.019-0.092
	c0.006-0.031,0.019-0.06,0.019-0.093V191.081z M261,195.9c0-0.202,0.122-0.385,0.309-0.462c0.186-0.075,0.402-0.033,0.545,0.107
	l2.571,2.565l2.854-2.854c0.195-0.195,0.512-0.195,0.707,0s0.195,0.512,0,0.707l-3.207,3.208c-0.195,0.195-0.512,0.194-0.707,0.001
	L262,197.105v3.442c0,0.276-0.224,0.5-0.5,0.5s-0.5-0.224-0.5-0.5V195.9z M269.501,207.586c-5.924,0-9.335-1.044-9.502-1.584
	c0.166-0.56,3.576-1.604,9.502-1.604c5.925,0,9.334,1.044,9.5,1.583C278.834,206.542,275.424,207.586,269.501,207.586z"/>
</svg>
