<?xml version="1.0" encoding="utf-8"?>
<!-- Generator: Adobe Illustrator 16.0.0, SVG Export Plug-In . SVG Version: 6.00 Build 0)  -->
<!DOCTYPE svg PUBLIC "-//W3C//DTD SVG 1.1//EN" "http://www.w3.org/Graphics/SVG/1.1/DTD/svg11.dtd">
<svg version="1.1" id="Layer_1" xmlns="http://www.w3.org/2000/svg" xmlns:xlink="http://www.w3.org/1999/xlink" x="0px" y="0px"
	 width="50px" height="50px" viewBox="-35.5 -315.5 50 50" enable-background="new -35.5 -315.5 50 50" xml:space="preserve">
<path d="M3.751-299.197c-0.072-0.125-0.194-0.213-0.336-0.241c-3.454-0.687-7.159-0.013-10.045,1.796l-3.464-4.822
	c-0.188-0.261-0.624-0.261-0.812,0l-3.464,4.822c-2.885-1.809-6.591-2.481-10.045-1.796c-0.142,0.028-0.264,0.116-0.336,0.241
	c-0.072,0.125-0.086,0.275-0.04,0.412l6.203,18.1c0.01,0.029,0.038,0.045,0.053,0.071c0.472,1.559,4.384,2.273,8.036,2.273
	c3.651,0,7.563-0.714,8.035-2.273c0.015-0.026,0.043-0.042,0.053-0.071l6.203-18.1C3.838-298.922,3.824-299.072,3.751-299.197z
	 M-10.5-279.341c-3.201,0-5.312-0.523-6.343-1.006c-0.474-0.222-0.741-0.437-0.741-0.587c0-0.11,0.143-0.256,0.397-0.413
	c0.85-0.522,3.091-1.182,6.687-1.182c3.595,0,5.836,0.66,6.686,1.182c0.255,0.157,0.397,0.303,0.397,0.413
	c0,0.15-0.267,0.365-0.741,0.587C-5.188-279.864-7.299-279.341-10.5-279.341z M-2.35-283.949c-0.739-0.605-2.014-0.984-3.051-1.201
	c-0.268-0.057-0.536,0.116-0.592,0.387c-0.057,0.27,0.116,0.535,0.387,0.592c1.738,0.364,2.598,0.854,2.823,1.191
	c0.02,0.03,0.052,0.045,0.077,0.069l-0.313,0.914c-1.291-1.044-4.47-1.533-7.48-1.533c-3.011,0-6.19,0.488-7.481,1.533l-0.29-0.845
	c0.003-0.182,0.446-0.75,2.451-1.235c0.269-0.064,0.434-0.335,0.369-0.603c-0.064-0.269-0.338-0.436-0.603-0.369
	c-1.198,0.289-2.062,0.664-2.595,1.103l-5.007-14.611c3.199-0.489,6.56,0.254,9.13,2.008c0.224,0.152,0.529,0.099,0.688-0.121
	l3.337-4.645l3.337,4.645c0.158,0.22,0.464,0.273,0.688,0.121c2.57-1.754,5.929-2.498,9.13-2.008L-2.35-283.949z M-15.649-294.903
	c0.228,0.156,0.287,0.467,0.131,0.695c-0.156,0.229-0.467,0.287-0.695,0.131c-0.952-0.649-2.056-1.123-3.23-1.389l2.341,7.04
	c0.087,0.262-0.055,0.545-0.317,0.632c-0.052,0.017-0.105,0.025-0.158,0.025c-0.209,0-0.405-0.132-0.475-0.342l-2.608-7.842
	c-0.055-0.164-0.02-0.345,0.091-0.478s0.281-0.2,0.454-0.175C-18.486-296.375-16.942-295.786-15.649-294.903z M-8.476-285.06
	c-0.015,0.275-0.246,0.489-0.526,0.473c-1.112-0.058-2.324-0.051-3.439,0.026c-0.011,0-0.023,0.001-0.034,0.001
	c-0.261,0-0.48-0.202-0.499-0.466c-0.019-0.275,0.189-0.514,0.465-0.533c1.154-0.078,2.408-0.086,3.559-0.027
	C-8.674-285.571-8.462-285.335-8.476-285.06z"/>
</svg>
