<?xml version="1.0" encoding="utf-8"?>
<!-- Generator: Adobe Illustrator 16.0.0, SVG Export Plug-In . SVG Version: 6.00 Build 0)  -->
<!DOCTYPE svg PUBLIC "-//W3C//DTD SVG 1.1//EN" "http://www.w3.org/Graphics/SVG/1.1/DTD/svg11.dtd">
<svg version="1.1" id="Layer_1" xmlns="http://www.w3.org/2000/svg" xmlns:xlink="http://www.w3.org/1999/xlink" x="0px" y="0px"
	 width="50px" height="50px" viewBox="314.5 -315.5 50 50" enable-background="new 314.5 -315.5 50 50" xml:space="preserve">
<path d="M352.894-297.5c-0.07-0.13-0.195-0.222-0.342-0.251c-2.633-0.523-5.444-0.21-7.872,0.866
	c-0.191,0.085-0.311,0.282-0.296,0.491c0.015,0.21,0.159,0.389,0.36,0.446c0.96,0.276,1.631,1.161,1.631,2.15
	c0,1.241-1.01,2.25-2.25,2.25s-2.25-1.009-2.25-2.25c0-0.728,0.358-1.414,0.959-1.837c0.109-0.077,0.184-0.194,0.206-0.325
	c0.022-0.132-0.009-0.268-0.087-0.376l-3.047-4.24c-0.188-0.261-0.625-0.261-0.812,0l-3.047,4.24
	c-0.078,0.108-0.109,0.244-0.087,0.376c0.022,0.131,0.097,0.248,0.206,0.325c0.601,0.423,0.959,1.109,0.959,1.837
	c0,1.241-1.01,2.25-2.25,2.25s-2.25-1.009-2.25-2.25c0-0.989,0.671-1.874,1.631-2.15c0.201-0.058,0.346-0.236,0.36-0.446
	c0.015-0.209-0.104-0.406-0.296-0.491c-2.428-1.076-5.242-1.39-7.872-0.866c-0.146,0.029-0.271,0.121-0.342,0.251
	c-0.071,0.13-0.081,0.285-0.026,0.423l5.779,14.622l0.036,0.092c0,0.001,0.001,0.001,0.001,0.002
	c0.51,1.459,4.171,2.132,7.604,2.132s7.094-0.673,7.604-2.132c0-0.001,0.001-0.001,0.001-0.002l0.036-0.092l5.779-14.622
	C352.975-297.215,352.965-297.37,352.894-297.5z M346.179-282.711c0,0.166-0.321,0.416-0.955,0.664
	c-1.054,0.412-2.973,0.817-5.724,0.817s-4.67-0.405-5.724-0.817c-0.634-0.248-0.955-0.498-0.955-0.664
	c0-0.091,0.119-0.209,0.308-0.336c0.734-0.492,2.865-1.146,6.371-1.146s5.637,0.654,6.371,1.146
	C346.06-282.92,346.179-282.802,346.179-282.711z M346.578-283.751c-1.244-0.983-4.241-1.442-7.078-1.442s-5.834,0.459-7.078,1.442
	l-0.361-0.914c0.026-0.061,0.041-0.127,0.041-0.196c0-0.139,0.368-0.635,2.006-1.078c0.267-0.071,0.424-0.346,0.352-0.612
	c-0.071-0.267-0.342-0.428-0.613-0.353c-1.06,0.287-1.806,0.642-2.253,1.057l-4.356-11.024c1.895-0.279,3.861-0.101,5.666,0.508
	c-0.785,0.602-1.277,1.546-1.277,2.567c0,1.792,1.458,3.25,3.25,3.25s3.25-1.458,3.25-3.25c0-0.884-0.364-1.725-0.994-2.332
	l2.369-3.297l2.369,3.297c-0.63,0.607-0.994,1.448-0.994,2.332c0,1.792,1.458,3.25,3.25,3.25s3.25-1.458,3.25-3.25
	c0-1.021-0.492-1.966-1.277-2.567c1.804-0.608,3.77-0.787,5.666-0.508L346.578-283.751z M334.875-288.547
	c-1.513,0-2.953-0.655-3.952-1.798c-0.183-0.208-0.161-0.523,0.047-0.705c0.207-0.182,0.523-0.162,0.705,0.047
	c0.81,0.926,1.976,1.456,3.2,1.456c1.983,0,3.686-1.349,4.139-3.279c0.062-0.268,0.328-0.434,0.601-0.372
	c0.269,0.062,0.436,0.332,0.372,0.601C339.427-290.212,337.325-288.547,334.875-288.547z M346.311-285.987
	c-0.075,0.201-0.266,0.325-0.469,0.325c-0.058,0-0.117-0.01-0.175-0.031c-0.727-0.271-1.698-0.491-2.812-0.64
	c-0.274-0.036-0.467-0.287-0.431-0.562c0.037-0.274,0.306-0.463,0.562-0.43c1.187,0.158,2.234,0.397,3.03,0.693
	C346.275-286.534,346.406-286.246,346.311-285.987z M340.43-287.03c-0.005,0.276-0.225,0.484-0.509,0.491l-0.421-0.004
	c-0.863,0-1.712,0.039-2.521,0.115c-0.016,0.002-0.031,0.003-0.048,0.003c-0.255,0-0.473-0.194-0.497-0.453
	c-0.025-0.275,0.176-0.519,0.451-0.545c0.84-0.079,1.72-0.12,2.615-0.12l0.438,0.004C340.215-287.534,340.435-287.307,340.43-287.03
	z"/>
</svg>
