<?xml version="1.0" encoding="utf-8"?>
<!-- Generator: Adobe Illustrator 16.0.0, SVG Export Plug-In . SVG Version: 6.00 Build 0)  -->
<!DOCTYPE svg PUBLIC "-//W3C//DTD SVG 1.1//EN" "http://www.w3.org/Graphics/SVG/1.1/DTD/svg11.dtd">
<svg version="1.1" id="Layer_1" xmlns="http://www.w3.org/2000/svg" xmlns:xlink="http://www.w3.org/1999/xlink" x="0px" y="0px"
	 width="50px" height="50px" viewBox="-35.5 314.5 50 50" enable-background="new -35.5 314.5 50 50" xml:space="preserve">
<path d="M-0.641,330.612c-1.085,0-1.969,0.883-1.969,1.969c0,0.71,0.381,1.328,0.947,1.675l-3.766,3.745l-4.322-4.322v-2.91h1.5
	c0.414,0,0.75-0.336,0.75-0.75s-0.336-0.75-0.75-0.75h-1.5v-1.75c0-0.414-0.336-0.75-0.75-0.75s-0.75,0.336-0.75,0.75v1.75h-1.5
	c-0.414,0-0.75,0.336-0.75,0.75s0.336,0.75,0.75,0.75h1.5v2.91l-4.327,4.327l-3.822-3.811c0.599-0.338,1.008-0.973,1.008-1.708
	c0-1.086-0.883-1.969-1.969-1.969s-1.969,0.883-1.969,1.969c0,0.764,0.441,1.42,1.078,1.746v14.647c0,0.048,0.019,0.09,0.027,0.135
	c-0.004,0.044-0.022,0.083-0.022,0.128c0,2.438,6.754,3.088,10.745,3.088s10.745-0.65,10.745-3.088c0-0.045-0.018-0.084-0.022-0.128
	c0.009-0.045,0.027-0.087,0.027-0.135v-14.554c0.637-0.326,1.078-0.982,1.078-1.746C1.328,331.495,0.445,330.612-0.641,330.612z
	 M-0.641,332.112c0.258,0,0.469,0.21,0.469,0.469s-0.21,0.469-0.469,0.469s-0.469-0.21-0.469-0.469S-0.899,332.112-0.641,332.112z
	 M-5.96,339.591c0.292,0.293,0.767,0.292,1.059,0.001l3.651-3.632v10.885l-8.5-8.499V335.8L-5.96,339.591z M-10.5,350.731
	c-4.104,0-6.994-0.565-8.368-1.101c-0.442-0.172-0.73-0.341-0.848-0.487c0.241-0.298,1.179-0.692,2.727-1.013
	c1.42-0.295,3.358-0.525,5.739-0.566c0.247-0.005,0.494-0.009,0.75-0.009s0.503,0.004,0.75,0.009
	c2.388,0.041,4.329,0.273,5.75,0.568c1.541,0.32,2.476,0.713,2.716,1.011c-0.118,0.146-0.407,0.316-0.851,0.488
	C-3.511,350.167-6.399,350.731-10.5,350.731z M-9.75,346.063v-5.597l6.251,6.25C-5.449,346.285-7.819,346.101-9.75,346.063z
	 M-11.25,346.063c-1.931,0.037-4.301,0.222-6.251,0.653l6.251-6.25V346.063z M-16.105,339.597c0.292,0.291,0.767,0.292,1.06-0.001
	l3.796-3.796v2.546l-8.5,8.499v-10.882L-16.105,339.597z M-20.359,332.019c0.258,0,0.469,0.21,0.469,0.469s-0.21,0.469-0.469,0.469
	s-0.469-0.21-0.469-0.469S-20.618,332.019-20.359,332.019z"/>
</svg>
