<?xml version="1.0" encoding="utf-8"?>
<!-- Generator: Adobe Illustrator 16.0.0, SVG Export Plug-In . SVG Version: 6.00 Build 0)  -->
<!DOCTYPE svg PUBLIC "-//W3C//DTD SVG 1.1//EN" "http://www.w3.org/Graphics/SVG/1.1/DTD/svg11.dtd">
<svg version="1.1" id="Layer_1" xmlns="http://www.w3.org/2000/svg" xmlns:xlink="http://www.w3.org/1999/xlink" x="0px" y="0px"
	 width="50px" height="50px" viewBox="-315.5 314.5 50 50" enable-background="new -315.5 314.5 50 50" xml:space="preserve">
<path d="M-280.178,352.334h-18.625c-0.276,0-0.5-0.224-0.5-0.5s0.224-0.5,0.5-0.5h18.625c0.276,0,0.5,0.224,0.5,0.5
	S-279.901,352.334-280.178,352.334z M-274.005,333.53l-5.733,16.509c-0.07,0.201-0.26,0.336-0.473,0.336h-18.559
	c-0.213,0-0.402-0.135-0.473-0.336l-5.733-16.509c-0.071-0.207,0-0.437,0.176-0.566c0.175-0.13,0.416-0.131,0.593-0.001l7.94,5.829
	c0.176,0.129,0.247,0.356,0.178,0.562c-0.063,0.19-0.095,0.36-0.095,0.521c0,0.896,0.729,1.625,1.625,1.625s1.625-0.729,1.625-1.625
	c0-0.842-0.636-1.533-1.479-1.607c-0.163-0.015-0.309-0.107-0.39-0.25c-0.082-0.142-0.088-0.314-0.019-0.462l4.879-10.288
	c0.166-0.35,0.738-0.35,0.904,0l4.875,10.28c0.071,0.15,0.062,0.326-0.022,0.47s-0.236,0.234-0.402,0.243
	c-0.862,0.047-1.537,0.756-1.537,1.614c0,0.896,0.729,1.625,1.625,1.625s1.625-0.729,1.625-1.625c0-0.195-0.039-0.395-0.116-0.594
	c-0.083-0.213-0.011-0.455,0.176-0.588l8.048-5.734c0.177-0.126,0.415-0.124,0.59,0.007
	C-274.004,333.097-273.934,333.324-274.005,333.53z M-289.276,331.696c-0.245-0.115-0.547-0.013-0.666,0.238l-2.239,4.722
	c-0.093,0.196-0.048,0.431,0.11,0.579c0.733,0.686,1.138,1.623,1.138,2.64c0,0.276,0.224,0.5,0.5,0.5s0.5-0.224,0.5-0.5
	c0-1.171-0.422-2.261-1.194-3.107l2.09-4.405C-288.92,332.113-289.026,331.815-289.276,331.696z"/>
</svg>
