<?xml version="1.0" encoding="utf-8"?>
<!-- Generator: Adobe Illustrator 16.0.0, SVG Export Plug-In . SVG Version: 6.00 Build 0)  -->
<!DOCTYPE svg PUBLIC "-//W3C//DTD SVG 1.1//EN" "http://www.w3.org/Graphics/SVG/1.1/DTD/svg11.dtd">
<svg version="1.1" id="Layer_1" xmlns="http://www.w3.org/2000/svg" xmlns:xlink="http://www.w3.org/1999/xlink" x="0px" y="0px"
	 width="50px" height="50px" viewBox="104.5 314.5 50 50" enable-background="new 104.5 314.5 50 50" xml:space="preserve">
<path d="M145.104,336.678c0-1.699-1.383-3.082-3.083-3.082s-3.083,1.383-3.083,3.082c0,1.41,0.957,2.59,2.252,2.955l-3.12,1.562
	l-7.44-7.439c1.152-0.447,1.975-1.561,1.975-2.869c0-1.699-1.383-3.084-3.083-3.084s-3.083,1.385-3.083,3.084
	c0,1.297,0.807,2.404,1.943,2.859l-7.45,7.449l-3.12-1.562c1.295-0.365,2.252-1.545,2.252-2.955c0-1.699-1.384-3.082-3.084-3.082
	c-1.699,0-3.082,1.383-3.082,3.082c0,1.484,1.055,2.727,2.453,3.02c-0.063,0.111-0.1,0.238-0.1,0.369v5.848v0.273v0.104
	c0,0.383,0.292,0.688,0.663,0.732c2.512,1.912,11.423,1.979,12.587,1.979s10.075-0.066,12.587-1.979
	c0.371-0.045,0.663-0.35,0.663-0.732v-0.104v-0.273v-5.848c0-0.131-0.036-0.258-0.1-0.369
	C144.049,339.404,145.104,338.162,145.104,336.678z M141.25,341.281v3.041c-0.029-0.014-0.062-0.025-0.094-0.039l-1.969-1.969
	L141.25,341.281z M129.5,347.502c-3.061,0-5.532-0.193-7.41-0.461c-1.977-0.281-3.286-0.645-3.931-0.953
	c-0.126-0.061-0.236-0.119-0.311-0.174c0.154-0.115,0.419-0.242,0.794-0.373h0.064l0.031-0.031c1.052-0.355,2.898-0.736,5.521-0.969
	c0.907-0.08,1.903-0.141,2.996-0.178c0.485-0.016,0.992-0.025,1.515-0.031c0.242-0.002,0.479-0.006,0.729-0.006
	c0.264,0,0.516,0.004,0.771,0.006c0.508,0.006,1.001,0.016,1.474,0.031c1.093,0.037,2.089,0.098,2.996,0.178
	c2.623,0.232,4.47,0.613,5.521,0.969l0.031,0.031h0.064c0.375,0.131,0.641,0.258,0.794,0.373c-0.074,0.055-0.185,0.113-0.311,0.174
	c-0.644,0.309-1.953,0.672-3.93,0.953C135.033,347.309,132.562,347.502,129.5,347.502z M136.656,341.904l-2.233,1.117
	c-1.691-0.131-3.229-0.176-4.152-0.189v-7.314L136.656,341.904z M127.938,330.887c0-0.873,0.71-1.584,1.583-1.584
	s1.583,0.711,1.583,1.584s-0.71,1.584-1.583,1.584S127.938,331.76,127.938,330.887z M128.771,335.477v7.355
	c-0.918,0.014-2.477,0.057-4.193,0.189l-2.233-1.117L128.771,335.477z M119.812,342.314l-1.969,1.969
	c-0.031,0.014-0.064,0.025-0.094,0.039v-3.041L119.812,342.314z M115.396,336.678c0-0.871,0.71-1.582,1.582-1.582
	c0.873,0,1.584,0.711,1.584,1.582c0,0.873-0.711,1.584-1.584,1.584C116.106,338.262,115.396,337.551,115.396,336.678z
	 M142.021,338.262c-0.873,0-1.583-0.711-1.583-1.584c0-0.871,0.71-1.582,1.583-1.582s1.583,0.711,1.583,1.582
	C143.604,337.551,142.894,338.262,142.021,338.262z M142.595,348.723c0.182,0.371,0.027,0.82-0.345,1.002
	c-1.5,0.732-6.024,1.473-12.75,1.473c-6.627,0-11.308-0.891-12.701-1.449c-0.384-0.156-0.57-0.592-0.416-0.977
	c0.156-0.385,0.595-0.566,0.977-0.416c1.088,0.438,5.486,1.342,12.141,1.342c6.889,0,11.006-0.789,12.092-1.32
	C141.967,348.195,142.412,348.35,142.595,348.723z"/>
</svg>
