<?xml version="1.0" encoding="utf-8"?>
<!-- Generator: Adobe Illustrator 16.0.0, SVG Export Plug-In . SVG Version: 6.00 Build 0)  -->
<!DOCTYPE svg PUBLIC "-//W3C//DTD SVG 1.1//EN" "http://www.w3.org/Graphics/SVG/1.1/DTD/svg11.dtd">
<svg version="1.1" id="Layer_1" xmlns="http://www.w3.org/2000/svg" xmlns:xlink="http://www.w3.org/1999/xlink" x="0px" y="0px"
	 width="50px" height="50px" viewBox="-35.5 -105.5 50 50" enable-background="new -35.5 -105.5 50 50" xml:space="preserve">
<path d="M4.281-86.304c-1.017,0-1.844,0.827-1.844,1.844c0,0.395,0.127,0.759,0.34,1.06l-7.455,5.791l-5.059-11.427
	c0.636-0.291,1.081-0.93,1.081-1.673c0-1.017-0.827-1.844-1.844-1.844s-1.844,0.827-1.844,1.844c0,0.744,0.445,1.382,1.081,1.673
	l-5.04,11.385l-7.473-5.75c0.212-0.3,0.339-0.664,0.339-1.058c0-1.017-0.827-1.844-1.844-1.844s-1.844,0.827-1.844,1.844
	s0.827,1.844,1.844,1.844c0.04,0,0.077-0.009,0.117-0.012l5.305,13.703c0.112,0.289,0.39,0.479,0.699,0.479h17.321
	c0.31,0,0.587-0.19,0.699-0.479l5.305-13.703c0.04,0.002,0.077,0.012,0.117,0.012c1.017,0,1.844-0.827,1.844-1.844
	S5.298-86.304,4.281-86.304z M-10.5-91.054c0.189,0,0.344,0.154,0.344,0.344s-0.154,0.344-0.344,0.344s-0.344-0.154-0.344-0.344
	S-10.689-91.054-10.5-91.054z M-10.5-87.055l4.601,10.394l-2.236,1.736l-1.609-4.108c0.639-0.29,1.087-0.931,1.087-1.677
	c0-1.017-0.827-1.844-1.844-1.844s-1.844,0.827-1.844,1.844c0,0.747,0.448,1.388,1.088,1.678l-1.567,4.058l-2.256-1.736
	L-10.5-87.055z M-6.185-69.946l-1.38-3.522l2.291-1.78l2.347,5.302H-6.185z M-11.659-72.187l-0.904,0.703l0.416-1.078
	L-11.659-72.187z M-18.074-69.946l2.37-5.353l2.317,1.783l-1.379,3.57H-18.074z M-10.5-80.367c-0.189,0-0.344-0.154-0.344-0.344
	s0.154-0.344,0.344-0.344s0.344,0.154,0.344,0.344S-10.311-80.367-10.5-80.367z M-10.495-76.839l1.125,2.874l-1.065,0.828
	l-1.148-0.884L-10.495-76.839z M-8.799-72.509l0.353,0.901l-0.76-0.585L-8.799-72.509z M-25.625-84.46
	c0-0.189,0.154-0.344,0.344-0.344s0.344,0.154,0.344,0.344s-0.154,0.344-0.344,0.344S-25.625-84.271-25.625-84.46z M-16.928-76.24
	l-2.217,5.008l-3.701-9.562L-16.928-76.24z M-12.099-69.946l1.668-1.296l1.684,1.296H-12.099z M-1.855-71.232l-2.197-4.964
	l5.89-4.575L-1.855-71.232z M4.281-84.117c-0.189,0-0.344-0.154-0.344-0.344s0.154-0.344,0.344-0.344s0.344,0.154,0.344,0.344
	S4.471-84.117,4.281-84.117z"/>
</svg>
