<?xml version="1.0" encoding="utf-8"?>
<!-- Generator: Adobe Illustrator 16.0.0, SVG Export Plug-In . SVG Version: 6.00 Build 0)  -->
<!DOCTYPE svg PUBLIC "-//W3C//DTD SVG 1.1//EN" "http://www.w3.org/Graphics/SVG/1.1/DTD/svg11.dtd">
<svg version="1.1" id="Layer_1" xmlns="http://www.w3.org/2000/svg" xmlns:xlink="http://www.w3.org/1999/xlink" x="0px" y="0px"
	 width="50px" height="50px" viewBox="174.5 -315.5 50 50" enable-background="new 174.5 -315.5 50 50" xml:space="preserve">
<path d="M202.875-291.834c0,0.414-0.336,0.75-0.75,0.75h-1.875v4.5c0,0.414-0.336,0.75-0.75,0.75s-0.75-0.336-0.75-0.75v-4.5h-1.875
	c-0.414,0-0.75-0.336-0.75-0.75s0.336-0.75,0.75-0.75h1.875v-1.917c0-0.414,0.336-0.75,0.75-0.75s0.75,0.336,0.75,0.75v1.917h1.875
	C202.539-292.584,202.875-292.249,202.875-291.834z M212-282.072h-25c-0.414,0-0.75,0.336-0.75,0.75s0.336,0.75,0.75,0.75h25
	c0.414,0,0.75-0.336,0.75-0.75S212.414-282.072,212-282.072z M212.75-294.354v9.978c0,0.414-0.336,0.75-0.75,0.75h-25
	c-0.414,0-0.75-0.336-0.75-0.75v-9.978c0-0.244,0.119-0.473,0.318-0.613c0.199-0.141,0.454-0.175,0.686-0.092l5.661,2.035
	l6.011-7.149c0.285-0.34,0.863-0.34,1.148,0l6.011,7.149l5.661-2.035c0.233-0.083,0.486-0.048,0.686,0.092
	C212.631-294.827,212.75-294.598,212.75-294.354z M211.25-293.288l-5.149,1.851c-0.295,0.107-0.626,0.018-0.828-0.223l-5.772-6.866
	l-5.772,6.866c-0.203,0.24-0.534,0.329-0.828,0.223l-5.149-1.851v8.161h23.5V-293.288z"/>
</svg>
