<?xml version="1.0" encoding="utf-8"?>
<!-- Generator: Adobe Illustrator 16.0.0, SVG Export Plug-In . SVG Version: 6.00 Build 0)  -->
<!DOCTYPE svg PUBLIC "-//W3C//DTD SVG 1.1//EN" "http://www.w3.org/Graphics/SVG/1.1/DTD/svg11.dtd">
<svg version="1.1" id="Layer_1" xmlns="http://www.w3.org/2000/svg" xmlns:xlink="http://www.w3.org/1999/xlink" x="0px" y="0px"
	 width="50px" height="50px" viewBox="-175.5 -35.5 50 50" enable-background="new -175.5 -35.5 50 50" xml:space="preserve">
<path d="M-138.672-18c0-1.085-0.883-1.969-1.969-1.969s-1.969,0.883-1.969,1.969c0,0.71,0.381,1.328,0.946,1.674l-3.765,3.746
	l-3.871-3.871c0.463-0.361,0.768-0.917,0.768-1.549c0-1.085-0.883-1.969-1.969-1.969s-1.969,0.883-1.969,1.969
	c0,0.631,0.304,1.188,0.768,1.549l-3.876,3.875l-3.821-3.811c0.598-0.338,1.008-0.973,1.008-1.708c0-1.085-0.883-1.969-1.969-1.969
	s-1.969,0.883-1.969,1.969c0,0.763,0.441,1.419,1.078,1.746V-1.7c0,0.414,0.336,0.75,0.75,0.75h5.053
	c0.044,0.008,0.089,0.012,0.135,0.012c0.001,0,0.001,0,0.002,0l14.81-0.012c0.414,0,0.75-0.336,0.75-0.75v-14.555
	C-139.113-16.581-138.672-17.237-138.672-18z M-140.641-18.469c0.258,0,0.469,0.21,0.469,0.469s-0.21,0.469-0.469,0.469
	s-0.469-0.21-0.469-0.469S-140.899-18.469-140.641-18.469z M-150.5-18.469c0.258,0,0.469,0.21,0.469,0.469s-0.21,0.469-0.469,0.469
	s-0.469-0.21-0.469-0.469S-150.758-18.469-150.5-18.469z M-160.359-18.562c0.258,0,0.469,0.21,0.469,0.469s-0.21,0.469-0.469,0.469
	s-0.469-0.21-0.469-0.469S-160.618-18.562-160.359-18.562z M-141.25-2.45l-13.918,0.012c-0.043-0.008-0.087-0.012-0.132-0.012
	h-4.449v-12.168l3.644,3.634c0.293,0.292,0.768,0.292,1.06-0.001l4.546-4.546l4.54,4.541c0.292,0.292,0.767,0.293,1.059,0.001
	l3.651-3.632V-2.45z"/>
</svg>
