<?xml version="1.0" encoding="utf-8"?>
<!-- Generator: Adobe Illustrator 16.0.0, SVG Export Plug-In . SVG Version: 6.00 Build 0)  -->
<!DOCTYPE svg PUBLIC "-//W3C//DTD SVG 1.1//EN" "http://www.w3.org/Graphics/SVG/1.1/DTD/svg11.dtd">
<svg version="1.1" id="Layer_1" xmlns="http://www.w3.org/2000/svg" xmlns:xlink="http://www.w3.org/1999/xlink" x="0px" y="0px"
	 width="50px" height="50px" viewBox="34.5 314.5 50 50" enable-background="new 34.5 314.5 50 50" xml:space="preserve">
<path d="M74.993,334.684c-0.166-0.143-0.408-0.162-0.594-0.043l-5.25,3.332l-1.36-2.945c-0.057-0.121-0.159-0.215-0.286-0.26
	c-0.128-0.047-0.265-0.039-0.387,0.02l-3.579,1.738l-1.761-2.65c0.823-0.674,1.302-1.67,1.302-2.748
	c0-1.973-1.605-3.578-3.578-3.578s-3.578,1.605-3.578,3.578c0,1.078,0.479,2.074,1.302,2.748l-1.691,2.545l-3.663-1.639
	c-0.249-0.113-0.542-0.002-0.658,0.246l-1.387,3.002l-5.219-3.387c-0.185-0.119-0.429-0.104-0.597,0.039
	c-0.169,0.145-0.223,0.381-0.133,0.584l6.14,13.877c0.08,0.182,0.259,0.299,0.457,0.299h18.055c0.198,0,0.377-0.117,0.457-0.299
	l6.14-13.877C75.213,335.064,75.16,334.828,74.993,334.684z M50.682,338.561l1.23-2.664l3.06,1.367l-1.906,2.869l-2.398-1.557
	C50.671,338.57,50.679,338.566,50.682,338.561z M59.104,336.512l-4.908,7.342c-0.097,0.143-0.255,0.221-0.416,0.221
	c-0.093,0-0.186-0.025-0.27-0.078l-3.467-2.217c-0.232-0.148-0.301-0.459-0.151-0.691c0.148-0.234,0.458-0.299,0.69-0.15
	l3.054,1.951l4.636-6.934c0.154-0.229,0.464-0.291,0.694-0.139C59.195,335.971,59.257,336.281,59.104,336.512z M65.879,340.047
	l-1.782-2.682l2.998-1.455l1.202,2.604L65.879,340.047z M68.25,351.451h-17.5c-0.276,0-0.5-0.223-0.5-0.5c0-0.275,0.224-0.5,0.5-0.5
	h17.5c0.276,0,0.5,0.225,0.5,0.5C68.75,351.229,68.526,351.451,68.25,351.451z"/>
</svg>
