<?xml version="1.0" encoding="utf-8"?>
<!-- Generator: Adobe Illustrator 16.0.0, SVG Export Plug-In . SVG Version: 6.00 Build 0)  -->
<!DOCTYPE svg PUBLIC "-//W3C//DTD SVG 1.1//EN" "http://www.w3.org/Graphics/SVG/1.1/DTD/svg11.dtd">
<svg version="1.1" id="Layer_1" xmlns="http://www.w3.org/2000/svg" xmlns:xlink="http://www.w3.org/1999/xlink" x="0px" y="0px"
	 width="50px" height="50px" viewBox="-315.5 -315.5 50 50" enable-background="new -315.5 -315.5 50 50" xml:space="preserve">
<path d="M-274.896-292.667c0-1.7-1.383-3.083-3.083-3.083s-3.083,1.383-3.083,3.083c0,1.44,0.996,2.643,2.333,2.98v5.478h-11v-11.27
	c1.337-0.337,2.333-1.54,2.333-2.98c0-1.7-1.383-3.083-3.083-3.083s-3.083,1.383-3.083,3.083c0,1.44,0.996,2.643,2.333,2.98v11.27
	h-11v-5.491c1.315-0.352,2.292-1.542,2.292-2.967c0-1.7-1.383-3.083-3.083-3.083s-3.083,1.383-3.083,3.083
	c0,1.456,1.016,2.671,2.375,2.993v6.215c0,0.414,0.336,0.75,0.75,0.75h25c0.414,0,0.75-0.336,0.75-0.75v-6.228
	C-275.893-290.023-274.896-291.227-274.896-292.667z M-292.062-298.458c0-0.873,0.71-1.583,1.583-1.583s1.583,0.71,1.583,1.583
	s-0.71,1.583-1.583,1.583S-292.062-297.585-292.062-298.458z M-304.604-292.667c0-0.873,0.71-1.583,1.583-1.583
	s1.583,0.71,1.583,1.583s-0.71,1.583-1.583,1.583S-304.604-291.793-304.604-292.667z M-277.979-291.083
	c-0.873,0-1.583-0.71-1.583-1.583s0.71-1.583,1.583-1.583s1.583,0.71,1.583,1.583S-277.106-291.083-277.979-291.083z
	 M-277.25-280.208c0,0.414-0.336,0.75-0.75,0.75h-25c-0.414,0-0.75-0.336-0.75-0.75s0.336-0.75,0.75-0.75h25
	C-277.586-280.958-277.25-280.623-277.25-280.208z"/>
</svg>
