<?xml version="1.0" encoding="utf-8"?>
<!-- Generator: Adobe Illustrator 16.0.0, SVG Export Plug-In . SVG Version: 6.00 Build 0)  -->
<!DOCTYPE svg PUBLIC "-//W3C//DTD SVG 1.1//EN" "http://www.w3.org/Graphics/SVG/1.1/DTD/svg11.dtd">
<svg version="1.1" id="Layer_1" xmlns="http://www.w3.org/2000/svg" xmlns:xlink="http://www.w3.org/1999/xlink" x="0px" y="0px"
	 width="50px" height="50px" viewBox="-35.5 34.5 50 50" enable-background="new -35.5 34.5 50 50" xml:space="preserve">
<path d="M1.328,50.511c0-1.086-0.883-1.969-1.969-1.969s-1.969,0.883-1.969,1.969c0,0.71,0.381,1.328,0.945,1.674l-3.764,3.746
	l-3.871-3.871c0.464-0.36,0.768-0.917,0.768-1.549c0-1.086-0.883-1.969-1.969-1.969s-1.969,0.883-1.969,1.969
	c0,0.632,0.304,1.188,0.768,1.549l-3.875,3.875l-3.822-3.81c0.599-0.339,1.008-0.973,1.008-1.708c0-1.086-0.883-1.969-1.969-1.969
	s-1.969,0.883-1.969,1.969c0,0.764,0.441,1.42,1.078,1.746v14.648c0,0.414,0.336,0.75,0.75,0.75h5.055
	c0.044,0.008,0.089,0.012,0.133,0.012s0.089-0.004,0.133-0.012H-0.5c0.414,0,0.75-0.336,0.75-0.75V52.257
	C0.887,51.931,1.328,51.274,1.328,50.511z M-0.641,50.042c0.259,0,0.469,0.21,0.469,0.469s-0.21,0.469-0.469,0.469
	s-0.469-0.21-0.469-0.469S-0.899,50.042-0.641,50.042z M-1.25,53.89v6.219l-3.117-3.117L-1.25,53.89z M-6.707,59.318l1.276-1.27
	l4.181,4.181v2.546L-6.707,59.318z M-10.5,50.042c0.259,0,0.469,0.21,0.469,0.469s-0.21,0.469-0.469,0.469s-0.469-0.21-0.469-0.469
	S-10.759,50.042-10.5,50.042z M-10.5,52.979l4.009,4.009l-1.276,1.27l-2.202-2.203c-0.281-0.281-0.779-0.281-1.061,0l-2.21,2.21
	l-1.274-1.271L-10.5,52.979z M-8.83,59.315l-1.68,1.671l-1.668-1.663l1.678-1.678L-8.83,59.315z M-19.75,62.229l4.175-4.175
	l1.274,1.271l-5.449,5.45V62.229z M-19.75,60.108v-6.217l3.113,3.104L-19.75,60.108z M-20.359,49.948
	c0.259,0,0.469,0.21,0.469,0.469s-0.21,0.469-0.469,0.469s-0.469-0.21-0.469-0.469S-20.618,49.948-20.359,49.948z M-15.61,66.062
	h-3.305l5.677-5.677l1.665,1.66L-15.61,66.062z M-13.483,66.062l2.973-2.958l2.966,2.958H-13.483z M-9.448,62.046l1.679-1.67
	l5.685,5.686H-5.42L-9.448,62.046z M0.25,69.802c0,0.414-0.336,0.75-0.75,0.75h-20c-0.414,0-0.75-0.336-0.75-0.75
	s0.336-0.75,0.75-0.75h20C-0.086,69.052,0.25,69.388,0.25,69.802z"/>
</svg>
