<?xml version="1.0" encoding="utf-8"?>
<!-- Generator: Adobe Illustrator 16.0.0, SVG Export Plug-In . SVG Version: 6.00 Build 0)  -->
<!DOCTYPE svg PUBLIC "-//W3C//DTD SVG 1.1//EN" "http://www.w3.org/Graphics/SVG/1.1/DTD/svg11.dtd">
<svg version="1.1" id="Layer_1" xmlns="http://www.w3.org/2000/svg" xmlns:xlink="http://www.w3.org/1999/xlink" x="0px" y="0px"
	 width="50px" height="50px" viewBox="-35.5 -245.5 50 50" enable-background="new -35.5 -245.5 50 50" xml:space="preserve">
<path d="M5.501-227.06c-1.238,0-2.246,1.007-2.246,2.245c0,0.613,0.248,1.168,0.648,1.574l-2.484,3.942l-10.887-8.021
	c0.717-0.375,1.213-1.118,1.213-1.982c0-1.238-1.007-2.245-2.244-2.245c-1.238,0-2.246,1.007-2.246,2.245
	c0,0.85,0.48,1.581,1.178,1.963l-10.877,8l-2.458-3.901c0.4-0.405,0.648-0.961,0.648-1.574c0-1.238-1.007-2.245-2.244-2.245
	c-1.238,0-2.246,1.007-2.246,2.245s1.008,2.245,2.246,2.245c0.079,0,0.154-0.015,0.231-0.023l6.107,9.69
	c0.137,0.218,0.376,0.35,0.634,0.35h18.055c0.258,0,0.497-0.132,0.635-0.35l6.105-9.69c0.078,0.009,0.153,0.023,0.233,0.023
	c1.237,0,2.244-1.007,2.244-2.245S6.738-227.06,5.501-227.06z M-10.499-230.047c0.41,0,0.744,0.334,0.744,0.745
	s-0.334,0.745-0.744,0.745c-0.412,0-0.746-0.334-0.746-0.745S-10.911-230.047-10.499-230.047z M-27.245-224.814
	c0-0.411,0.334-0.745,0.746-0.745c0.41,0,0.744,0.334,0.744,0.745s-0.334,0.745-0.744,0.745
	C-26.911-224.069-27.245-224.403-27.245-224.814z M-10.499-220.819c-0.412,0-0.746-0.334-0.746-0.745s0.334-0.745,0.746-0.745
	c0.41,0,0.744,0.334,0.744,0.745S-10.089-220.819-10.499-220.819z M-3.825-214.053h-13.348l6.674-4.229L-3.825-214.053z
	 M-1.64-214.442l-7.979-5.058c0.801-0.344,1.364-1.139,1.364-2.064c0-1.238-1.007-2.245-2.244-2.245
	c-1.238,0-2.246,1.007-2.246,2.245c0,0.926,0.563,1.722,1.365,2.064l-7.979,5.058l-2.284-3.625l11.112-8.172l11.148,8.214
	L-1.64-214.442z M5.501-224.069c-0.412,0-0.746-0.334-0.746-0.745s0.334-0.745,0.746-0.745c0.41,0,0.744,0.334,0.744,0.745
	S5.911-224.069,5.501-224.069z M-0.659-210.203c0,0.414-0.336,0.75-0.75,0.75h-18.18c-0.414,0-0.75-0.336-0.75-0.75
	s0.336-0.75,0.75-0.75h18.18C-0.995-210.953-0.659-210.617-0.659-210.203z"/>
</svg>
