<?xml version="1.0" encoding="utf-8"?>
<!-- Generator: Adobe Illustrator 16.0.0, SVG Export Plug-In . SVG Version: 6.00 Build 0)  -->
<!DOCTYPE svg PUBLIC "-//W3C//DTD SVG 1.1//EN" "http://www.w3.org/Graphics/SVG/1.1/DTD/svg11.dtd">
<svg version="1.1" id="Layer_1" xmlns="http://www.w3.org/2000/svg" xmlns:xlink="http://www.w3.org/1999/xlink" x="0px" y="0px"
	 width="50px" height="50px" viewBox="-315.5 34.5 50 50" enable-background="new -315.5 34.5 50 50" xml:space="preserve">
<path d="M-280.308,53.229c-0.186-0.075-0.4-0.034-0.544,0.107l-4.576,4.553l-2.199-2.2c0.438-0.602,0.675-1.322,0.675-2.072
	c0-1.956-1.591-3.547-3.547-3.547s-3.547,1.591-3.547,3.547c0,0.75,0.237,1.471,0.674,2.073l-2.204,2.204l-4.57-4.558
	c-0.143-0.142-0.357-0.184-0.545-0.107c-0.187,0.077-0.308,0.26-0.308,0.462v14.727c0,0.276,0.224,0.5,0.5,0.5h5.08
	c0.035,0.008,0.071,0.012,0.108,0.012h0.001l14.811-0.012c0.276,0,0.5-0.224,0.5-0.5V53.691
	C-280,53.489-280.122,53.308-280.308,53.229z M-281,67.918l-14.195,0.012c-0.034-0.008-0.07-0.012-0.106-0.012H-300V54.896
	l4.071,4.06c0.195,0.193,0.511,0.194,0.707-0.001l2.88-2.88c0.192-0.192,0.196-0.503,0.008-0.699
	c-0.459-0.479-0.712-1.104-0.712-1.759c0-1.404,1.143-2.547,2.547-2.547s2.547,1.143,2.547,2.547c0,0.654-0.253,1.278-0.712,1.758
	c-0.188,0.196-0.185,0.507,0.007,0.699l2.875,2.875c0.195,0.195,0.511,0.195,0.706,0.001l4.077-4.056V67.918z M-291.742,57.618
	c0.195,0.196,0.194,0.513-0.002,0.707l-3.478,3.457c-0.195,0.194-0.51,0.193-0.706,0L-298,59.715v4.756c0,0.276-0.224,0.5-0.5,0.5
	s-0.5-0.224-0.5-0.5V58.51c0-0.202,0.122-0.385,0.308-0.462c0.188-0.076,0.402-0.033,0.545,0.107l2.573,2.567l3.125-3.106
	C-292.253,57.422-291.937,57.421-291.742,57.618z"/>
</svg>
