<?xml version="1.0" encoding="utf-8"?>
<!-- Generator: Adobe Illustrator 16.0.0, SVG Export Plug-In . SVG Version: 6.00 Build 0)  -->
<!DOCTYPE svg PUBLIC "-//W3C//DTD SVG 1.1//EN" "http://www.w3.org/Graphics/SVG/1.1/DTD/svg11.dtd">
<svg version="1.1" id="Layer_1" xmlns="http://www.w3.org/2000/svg" xmlns:xlink="http://www.w3.org/1999/xlink" x="0px" y="0px"
	 width="50px" height="50px" viewBox="-245.5 -105.5 50 50" enable-background="new -245.5 -105.5 50 50" xml:space="preserve">
<path d="M-208-71.067h-25c-0.414,0-0.75-0.336-0.75-0.75s0.336-0.75,0.75-0.75h25c0.414,0,0.75,0.336,0.75,0.75
	S-207.586-71.067-208-71.067z M-207.25-83.859v8.987c0,0.414-0.336,0.75-0.75,0.75h-25c-0.414,0-0.75-0.336-0.75-0.75v-8.987
	c0-0.244,0.119-0.473,0.318-0.613c0.2-0.141,0.456-0.175,0.686-0.092l5.662,2.035l6.01-7.149c0.285-0.34,0.863-0.34,1.148,0
	l6.01,7.149l5.662-2.035c0.23-0.083,0.485-0.048,0.686,0.092C-207.369-84.332-207.25-84.103-207.25-83.859z M-226.156-80.249
	l6.029-7.172c0.142-0.169,0.12-0.421-0.049-0.563c-0.168-0.143-0.422-0.122-0.563,0.049l-5.85,6.958l-5.208-1.873
	c-0.208-0.076-0.437,0.033-0.512,0.241s0.033,0.437,0.241,0.512l5.471,1.967c0.044,0.016,0.09,0.023,0.135,0.023
	C-226.346-80.106-226.233-80.157-226.156-80.249z M-218.121-80.842c0-0.276-0.224-0.5-0.5-0.5H-220v-1.409
	c0-0.276-0.224-0.5-0.5-0.5s-0.5,0.224-0.5,0.5v1.409h-1.379c-0.276,0-0.5,0.224-0.5,0.5s0.224,0.5,0.5,0.5H-221v3.258
	c0,0.276,0.224,0.5,0.5,0.5s0.5-0.224,0.5-0.5v-3.258h1.379C-218.345-80.342-218.121-80.566-218.121-80.842z"/>
</svg>
