<?xml version="1.0" encoding="utf-8"?>
<!-- Generator: Adobe Illustrator 16.0.0, SVG Export Plug-In . SVG Version: 6.00 Build 0)  -->
<!DOCTYPE svg PUBLIC "-//W3C//DTD SVG 1.1//EN" "http://www.w3.org/Graphics/SVG/1.1/DTD/svg11.dtd">
<svg version="1.1" id="Layer_1" xmlns="http://www.w3.org/2000/svg" xmlns:xlink="http://www.w3.org/1999/xlink" x="0px" y="0px"
	 width="50px" height="50px" viewBox="314.5 -105.5 50 50" enable-background="new 314.5 -105.5 50 50" xml:space="preserve">
<path d="M353.963-86.583c-0.27-0.203-0.638-0.201-0.905,0.003l-7.771,5.932l-5.102-11.523c-0.24-0.543-1.131-0.543-1.371,0
	l-5.16,11.656l-7.703-6.058c-0.265-0.208-0.638-0.214-0.91-0.014c-0.271,0.201-0.375,0.559-0.253,0.874l5.337,13.789v2.753
	c0,0.414,0.336,0.75,0.75,0.75h17.25c0.414,0,0.75-0.336,0.75-0.75v-2.753l5.337-13.789
	C354.333-86.026,354.231-86.382,353.963-86.583z M336.74-75.868c0.423,1.117,1.496,1.917,2.76,1.917s2.337-0.8,2.76-1.917h6.534
	l-1.146,2.962h-16.295l-1.146-2.962H336.74z M338.041-76.91c0-0.805,0.654-1.459,1.459-1.459s1.459,0.654,1.459,1.459
	s-0.654,1.459-1.459,1.459S338.041-76.105,338.041-76.91z M347.375-69.921h-15.75v-1.312h15.75V-69.921z M349.374-77.368h-6.961
	c-0.223-1.413-1.438-2.501-2.913-2.501s-2.69,1.088-2.913,2.501h-6.961l-2.452-6.335l6.312,4.963
	c0.183,0.144,0.42,0.193,0.645,0.139c0.226-0.056,0.411-0.213,0.505-0.424l4.865-10.99l4.801,10.845
	c0.093,0.21,0.276,0.365,0.499,0.423c0.222,0.056,0.459,0.009,0.642-0.131l6.411-4.895L349.374-77.368z"/>
</svg>
