<?xml version="1.0" encoding="utf-8"?>
<!-- Generator: Adobe Illustrator 16.0.0, SVG Export Plug-In . SVG Version: 6.00 Build 0)  -->
<!DOCTYPE svg PUBLIC "-//W3C//DTD SVG 1.1//EN" "http://www.w3.org/Graphics/SVG/1.1/DTD/svg11.dtd">
<svg version="1.1" id="Layer_1" xmlns="http://www.w3.org/2000/svg" xmlns:xlink="http://www.w3.org/1999/xlink" x="0px" y="0px"
	 width="50px" height="50px" viewBox="174.5 314.5 50 50" enable-background="new 174.5 314.5 50 50" xml:space="preserve">
<path d="M212.021,331.765c-1.7,0-3.083,1.383-3.083,3.083c0,1.183,0.677,2.199,1.655,2.716l-4.541,3.284l-5.474-7.894
	c1.179-0.434,2.025-1.558,2.025-2.885c0-1.7-1.383-3.083-3.083-3.083s-3.083,1.383-3.083,3.083c0,1.314,0.83,2.432,1.991,2.875
	l-5.48,7.903l-4.541-3.284c0.979-0.517,1.655-1.533,1.655-2.716c0-1.7-1.383-3.083-3.083-3.083s-3.084,1.383-3.084,3.083
	c0,1.447,1.007,2.656,2.354,2.986v8.625c0,0.037,0.016,0.068,0.021,0.104c-0.009,0.056-0.021,0.11-0.021,0.168
	c0,3.001,11.894,3.088,13.25,3.088s13.25-0.087,13.25-3.088c0-0.058-0.013-0.112-0.021-0.168c0.006-0.035,0.021-0.066,0.021-0.104
	v-8.625c1.348-0.33,2.354-1.539,2.354-2.986C215.104,333.147,213.721,331.765,212.021,331.765z M211.25,338.939v6.199
	c-1.641-0.73-4.357-1.104-6.78-1.296L211.25,338.939z M199.5,348.318c-5.264,0-8.787-0.571-10.532-1.109
	c-0.548-0.169-0.925-0.335-1.119-0.479c0.408-0.302,1.597-0.699,3.549-1.021c1.324-0.219,3.007-0.399,5.029-0.494
	c0.772-0.036,1.595-0.06,2.468-0.066c0.202-0.002,0.398-0.006,0.605-0.006s0.403,0.004,0.605,0.006
	c0.873,0.007,1.696,0.03,2.468,0.066c2.022,0.095,3.706,0.275,5.029,0.494c1.953,0.322,3.141,0.72,3.549,1.021
	c-0.194,0.144-0.571,0.31-1.118,0.479C208.288,347.747,204.765,348.318,199.5,348.318z M197.938,330.069
	c0-0.873,0.71-1.583,1.583-1.583s1.583,0.71,1.583,1.583s-0.71,1.584-1.583,1.584S197.938,330.942,197.938,330.069z M199.5,334.032
	l5.336,7.695l-2.73,1.974c-1.287-0.053-2.27-0.059-2.605-0.059s-1.318,0.006-2.605,0.059l-2.73-1.974L199.5,334.032z
	 M194.53,343.843c-2.423,0.191-5.14,0.565-6.78,1.296v-6.199L194.53,343.843z M185.396,334.848c0-0.873,0.711-1.583,1.584-1.583
	s1.583,0.71,1.583,1.583s-0.71,1.583-1.583,1.583S185.396,335.721,185.396,334.848z M212.021,336.431
	c-0.873,0-1.583-0.71-1.583-1.583s0.71-1.583,1.583-1.583s1.584,0.71,1.584,1.583S212.894,336.431,212.021,336.431z
	 M212.595,349.539c0.182,0.372,0.027,0.821-0.345,1.003c-1.5,0.732-6.024,1.472-12.75,1.472c-6.627,0-11.308-0.89-12.701-1.449
	c-0.384-0.155-0.57-0.592-0.416-0.977c0.155-0.384,0.595-0.566,0.977-0.416c1.088,0.438,5.486,1.342,12.141,1.342
	c6.889,0,11.006-0.789,12.092-1.319C211.965,349.011,212.413,349.166,212.595,349.539z"/>
</svg>
