<?xml version="1.0" encoding="utf-8"?>
<!-- Generator: Adobe Illustrator 16.0.0, SVG Export Plug-In . SVG Version: 6.00 Build 0)  -->
<!DOCTYPE svg PUBLIC "-//W3C//DTD SVG 1.1//EN" "http://www.w3.org/Graphics/SVG/1.1/DTD/svg11.dtd">
<svg version="1.1" id="Layer_1" xmlns="http://www.w3.org/2000/svg" xmlns:xlink="http://www.w3.org/1999/xlink" x="0px" y="0px"
	 width="50px" height="50px" viewBox="-35.5 -245.5 50 50" enable-background="new -35.5 -245.5 50 50" xml:space="preserve">
<path d="M3.751-229.197c-0.072-0.125-0.194-0.213-0.336-0.24c-3.454-0.688-7.159-0.015-10.045,1.796l-3.464-4.821
	c-0.188-0.261-0.624-0.261-0.812,0l-3.464,4.821c-2.885-1.81-6.591-2.481-10.045-1.796c-0.142,0.027-0.264,0.115-0.336,0.24
	c-0.072,0.125-0.086,0.275-0.04,0.412l6.203,18.1c0.01,0.029,0.038,0.045,0.053,0.071c0.472,1.56,4.384,2.273,8.036,2.273
	c3.651,0,7.563-0.714,8.035-2.273c0.015-0.026,0.043-0.042,0.053-0.071l6.203-18.1C3.838-228.922,3.824-229.072,3.751-229.197z
	 M-12.508-215.559c1.154-0.078,2.408-0.086,3.559-0.026c0.275,0.015,0.487,0.25,0.473,0.525c-0.015,0.275-0.246,0.49-0.526,0.474
	c-1.112-0.059-2.324-0.051-3.439,0.025c-0.011,0.001-0.023,0.001-0.034,0.001c-0.261,0-0.48-0.202-0.499-0.466
	C-12.992-215.301-12.784-215.539-12.508-215.559z M-20.567-226.431c0.111-0.134,0.281-0.202,0.454-0.175
	c1.627,0.23,3.171,0.819,4.464,1.702c0.228,0.156,0.287,0.467,0.131,0.695c-0.156,0.229-0.467,0.286-0.695,0.131
	c-0.952-0.649-2.056-1.123-3.23-1.389l2.341,7.039c0.087,0.262-0.055,0.545-0.317,0.633c-0.052,0.017-0.105,0.025-0.158,0.025
	c-0.209,0-0.405-0.133-0.475-0.343l-2.608-7.842C-20.713-226.117-20.678-226.298-20.567-226.431z M-18.771-212.34
	c-0.276,0-0.5-0.224-0.5-0.5c0-0.937,1.112-1.701,3.217-2.209c0.265-0.065,0.539,0.101,0.603,0.369
	c0.065,0.268-0.1,0.538-0.369,0.603c-2.011,0.486-2.452,1.058-2.452,1.237C-18.271-212.563-18.495-212.34-18.771-212.34z
	 M-10.5-209.341c-4.674,0-7.084-1.117-7.084-1.594c0-0.478,2.41-1.595,7.084-1.595c4.673,0,7.083,1.117,7.083,1.595
	C-3.417-210.458-5.826-209.341-10.5-209.341z M-2.09-212.843c-0.085,0.058-0.182,0.085-0.277,0.085c-0.161,0-0.32-0.078-0.416-0.223
	c-0.226-0.337-1.085-0.827-2.823-1.191c-0.271-0.057-0.443-0.321-0.387-0.592c0.056-0.271,0.324-0.444,0.592-0.387
	c1.257,0.264,2.876,0.758,3.449,1.614C-1.798-213.307-1.86-212.996-2.09-212.843z"/>
</svg>
