<?xml version="1.0" encoding="utf-8"?>
<!-- Generator: Adobe Illustrator 16.0.0, SVG Export Plug-In . SVG Version: 6.00 Build 0)  -->
<!DOCTYPE svg PUBLIC "-//W3C//DTD SVG 1.1//EN" "http://www.w3.org/Graphics/SVG/1.1/DTD/svg11.dtd">
<svg version="1.1" id="Layer_1" xmlns="http://www.w3.org/2000/svg" xmlns:xlink="http://www.w3.org/1999/xlink" x="0px" y="0px"
	 width="50px" height="50px" viewBox="244.5 -105.5 50 50" enable-background="new 244.5 -105.5 50 50" xml:space="preserve">
<path d="M283.963-86.565c-0.27-0.203-0.638-0.201-0.905,0.003l-7.771,5.932l-5.102-11.524c-0.24-0.543-1.131-0.543-1.371,0
	l-5.16,11.657l-7.703-6.058c-0.265-0.209-0.638-0.215-0.91-0.014c-0.271,0.201-0.375,0.559-0.253,0.874l5.337,13.789v2.717
	c0,0.414,0.336,0.75,0.75,0.75h17.25c0.414,0,0.75-0.336,0.75-0.75v-2.717l5.337-13.789
	C284.333-86.008,284.231-86.363,283.963-86.565z M277.375-69.939h-15.75v-1.312h15.75V-69.939z M277.647-72.888h-16.295
	l-4.179-10.796l6.312,4.963c0.183,0.143,0.422,0.192,0.645,0.139c0.226-0.056,0.411-0.213,0.505-0.424l4.865-10.99l4.801,10.844
	c0.093,0.21,0.276,0.366,0.499,0.423c0.223,0.057,0.46,0.009,0.642-0.13l6.411-4.895L277.647-72.888z"/>
</svg>
