<?xml version="1.0" encoding="utf-8"?>
<!-- Generator: Adobe Illustrator 16.0.0, SVG Export Plug-In . SVG Version: 6.00 Build 0)  -->
<!DOCTYPE svg PUBLIC "-//W3C//DTD SVG 1.1//EN" "http://www.w3.org/Graphics/SVG/1.1/DTD/svg11.dtd">
<svg version="1.1" id="Layer_1" xmlns="http://www.w3.org/2000/svg" xmlns:xlink="http://www.w3.org/1999/xlink" x="0px" y="0px"
	 width="50px" height="50px" viewBox="-105.5 34.5 50 50" enable-background="new -105.5 34.5 50 50" xml:space="preserve">
<path d="M-89,61.521v-4.198c0-0.202,0.122-0.385,0.308-0.462c0.188-0.076,0.402-0.034,0.545,0.107l2.573,2.567l3.125-3.106
	c0.195-0.194,0.512-0.195,0.707,0.002c0.195,0.196,0.194,0.513-0.002,0.707l-3.479,3.457c-0.195,0.194-0.51,0.193-0.706,0
	L-88,58.528v2.993c0,0.276-0.224,0.5-0.5,0.5S-89,61.798-89,61.521z M-70,52.505v14.727c0,0.052-0.015,0.1-0.029,0.146
	C-70.021,67.427-70,67.472-70,67.522c0,2.048-6.599,2.594-10.498,2.594c-3.9,0-10.502-0.546-10.502-2.594
	c0-0.051,0.021-0.096,0.029-0.145C-90.985,67.331-91,67.283-91,67.231V52.505c0-0.202,0.122-0.385,0.308-0.462
	c0.188-0.076,0.402-0.034,0.545,0.107l4.57,4.558l2.204-2.205c-0.438-0.602-0.674-1.322-0.674-2.072
	c0-1.956,1.591-3.547,3.547-3.547s3.547,1.591,3.547,3.547c0,0.751-0.237,1.471-0.675,2.073l2.2,2.199l4.576-4.553
	c0.144-0.142,0.36-0.183,0.544-0.107C-70.122,52.121-70,52.303-70,52.505z M-71,66.307v-1.071c-0.164-0.55-3.572-1.595-9.499-1.595
	c-5.922,0-9.33,1.043-9.501,1.603v1.063c1.99-1.06,6.527-1.38,9.502-1.38C-77.525,64.927-72.99,65.247-71,66.307z M-90,53.71v10.311
	c1.99-1.06,6.526-1.38,9.501-1.38c2.974,0,7.509,0.32,9.499,1.38V53.708l-4.077,4.056c-0.195,0.194-0.511,0.194-0.706-0.001
	l-2.875-2.875c-0.192-0.192-0.196-0.504-0.007-0.7c0.459-0.478,0.712-1.102,0.712-1.757c0-1.404-1.143-2.547-2.547-2.547
	s-2.547,1.143-2.547,2.547c0,0.655,0.252,1.279,0.711,1.758c0.188,0.196,0.185,0.507-0.007,0.699l-2.88,2.881
	c-0.195,0.195-0.511,0.194-0.707,0.001L-90,53.71z M-70.999,67.512c-0.165-0.54-3.573-1.585-9.499-1.585
	c-5.929,0-9.338,1.045-9.503,1.605c0.168,0.539,3.58,1.584,9.503,1.584C-74.578,69.116-71.167,68.071-70.999,67.512z"/>
</svg>
