<?xml version="1.0" encoding="utf-8"?>
<!-- Generator: Adobe Illustrator 16.0.0, SVG Export Plug-In . SVG Version: 6.00 Build 0)  -->
<!DOCTYPE svg PUBLIC "-//W3C//DTD SVG 1.1//EN" "http://www.w3.org/Graphics/SVG/1.1/DTD/svg11.dtd">
<svg version="1.1" id="Layer_1" xmlns="http://www.w3.org/2000/svg" xmlns:xlink="http://www.w3.org/1999/xlink" x="0px" y="0px"
	 width="50px" height="50px" viewBox="34.5 174.5 50 50" enable-background="new 34.5 174.5 50 50" xml:space="preserve">
<path d="M62.583,198.836c0-1.7-1.383-3.083-3.083-3.083s-3.083,1.383-3.083,3.083s1.383,3.084,3.083,3.084
	S62.583,200.536,62.583,198.836z M57.917,198.836c0-0.873,0.71-1.583,1.583-1.583s1.583,0.71,1.583,1.583s-0.71,1.584-1.583,1.584
	S57.917,199.709,57.917,198.836z M72.75,196.316c0-0.244-0.119-0.473-0.318-0.613c-0.199-0.14-0.453-0.174-0.686-0.093l-5.661,2.034
	l-6.011-7.148c-0.285-0.34-0.863-0.34-1.148,0l-6.011,7.148l-5.661-2.034c-0.23-0.081-0.486-0.047-0.686,0.093
	c-0.199,0.141-0.318,0.369-0.318,0.613v8.986c0,0.05,0.02,0.094,0.028,0.141c-0.016,0.074-0.028,0.149-0.028,0.228
	c0,3.001,11.894,3.088,13.25,3.088s13.25-0.087,13.25-3.088c0-0.078-0.013-0.153-0.028-0.228c0.009-0.047,0.028-0.091,0.028-0.141
	V196.316z M70.331,206.053c-1.622,0.564-5.25,1.206-10.831,1.206c-5.58,0-9.208-0.642-10.83-1.206
	c-0.388-0.135-0.664-0.266-0.821-0.382c0.45-0.333,1.854-0.782,4.183-1.118c1.886-0.271,4.375-0.47,7.469-0.47
	s5.584,0.198,7.469,0.47c2.329,0.336,3.732,0.785,4.183,1.118C70.994,205.787,70.719,205.918,70.331,206.053z M47.75,197.383
	l5.149,1.851c0.294,0.104,0.625,0.017,0.828-0.224l5.772-6.866l5.772,6.866c0.202,0.241,0.533,0.328,0.828,0.224l5.149-1.851v6.696
	c-3.241-1.442-10.693-1.496-11.75-1.496s-8.509,0.054-11.75,1.496V197.383z"/>
</svg>
