<?xml version="1.0" encoding="utf-8"?>
<!-- Generator: Adobe Illustrator 16.0.0, SVG Export Plug-In . SVG Version: 6.00 Build 0)  -->
<!DOCTYPE svg PUBLIC "-//W3C//DTD SVG 1.1//EN" "http://www.w3.org/Graphics/SVG/1.1/DTD/svg11.dtd">
<svg version="1.1" id="Layer_1" xmlns="http://www.w3.org/2000/svg" xmlns:xlink="http://www.w3.org/1999/xlink" x="0px" y="0px"
	 width="50px" height="50px" viewBox="104.5 104.5 50 50" enable-background="new 104.5 104.5 50 50" xml:space="preserve">
<path d="M113.819,119.864l0.051,0.131c0.015-0.02,0.024-0.042,0.041-0.061L113.819,119.864z"/>
<path d="M144.281,122.25c-1.017,0-1.844,0.827-1.844,1.844c0,0.395,0.127,0.759,0.34,1.06l-7.456,5.792l-5.059-11.428
	c0.636-0.291,1.081-0.93,1.081-1.674c0-1.017-0.827-1.844-1.844-1.844s-1.844,0.827-1.844,1.844c0,0.744,0.445,1.383,1.081,1.674
	l-5.04,11.385l-7.474-5.75c0.212-0.301,0.339-0.664,0.339-1.059c0-1.017-0.827-1.844-1.844-1.844s-1.844,0.827-1.844,1.844
	s0.827,1.844,1.844,1.844c0.04,0,0.077-0.01,0.116-0.012l5.665,14.73l-0.01-0.066c0.812,2.336,8.131,2.41,9.01,2.41
	c0.864,0,7.951-0.072,8.962-2.295l-0.024,0.123l5.728-14.902c0.039,0.002,0.076,0.012,0.116,0.012c1.017,0,1.844-0.827,1.844-1.844
	S145.298,122.25,144.281,122.25z M137.052,140.156c-0.483,0.518-3.21,1.344-7.552,1.344s-7.068-0.826-7.552-1.344
	c0.014-0.015,0.049-0.032,0.066-0.048c0.266-0.23,0.947-0.508,1.992-0.75c0.326-0.075,0.684-0.146,1.08-0.211
	c0.055-0.009,0.101-0.02,0.156-0.028c0.197-0.03,0.417-0.056,0.63-0.083c0.1-0.013,0.199-0.025,0.303-0.037
	c0.178-0.021,0.351-0.041,0.538-0.058c0.836-0.077,1.762-0.126,2.786-0.126c1.044,0,1.988,0.05,2.837,0.129
	c0.241,0.022,0.46,0.052,0.686,0.079c0.053,0.007,0.106,0.013,0.158,0.02c0.194,0.025,0.396,0.048,0.576,0.076
	c0.082,0.013,0.15,0.027,0.229,0.041c0.366,0.062,0.701,0.128,1.007,0.198c1.045,0.242,1.727,0.52,1.992,0.75
	C137.003,140.124,137.038,140.142,137.052,140.156z M114.375,124.094c0-0.107,0.053-0.2,0.131-0.264
	c0.06-0.048,0.131-0.08,0.213-0.08c0.189,0,0.344,0.154,0.344,0.344c0,0.05-0.012,0.098-0.031,0.141
	c-0.055,0.119-0.173,0.203-0.312,0.203C114.529,124.438,114.375,124.283,114.375,124.094z M124.921,131.844l4.579-10.345
	l4.602,10.394l0.312,0.707l0.312,0.707l2.26,5.104c-0.996-0.431-2.313-0.695-3.582-0.853l-0.969-2.473l-0.285-0.729l-0.285-0.728
	l-1.608-4.109c0.639-0.289,1.087-0.931,1.087-1.677c0-1.017-0.827-1.844-1.844-1.844s-1.844,0.827-1.844,1.844
	c0,0.747,0.448,1.388,1.088,1.678l-1.567,4.059l-0.281,0.729l-0.282,0.729l-0.971,2.514c-1.283,0.157-2.621,0.422-3.629,0.858
	l2.282-5.155l0.312-0.706L124.921,131.844z M129.156,117.844c0-0.189,0.154-0.344,0.344-0.344s0.344,0.154,0.344,0.344
	c0,0.133-0.078,0.244-0.188,0.302c-0.047,0.024-0.099,0.042-0.155,0.042s-0.108-0.018-0.155-0.042
	C129.234,118.088,129.156,117.977,129.156,117.844z M141.838,127.783l-3.693,9.539l-2.197-4.964L141.838,127.783z M130.846,137.349
	c-0.602-0.026-1.054-0.032-1.273-0.033l-0.003-0.002l-0.003,0.002c-0.019,0-0.052,0-0.066,0c-0.175,0-0.606,0.003-1.19,0.025
	c-0.295,0.012-0.638,0.031-0.999,0.056l0.126-0.326l0.416-1.078l0.282-0.729l0.281-0.729l1.089-2.817l1.126,2.873l0.285,0.729
	l0.285,0.729l0.354,0.902l0.177,0.45C131.413,137.377,131.115,137.36,130.846,137.349z M129.156,127.844
	c0-0.189,0.154-0.344,0.344-0.344s0.344,0.154,0.344,0.344c0,0.111-0.057,0.206-0.139,0.269c-0.059,0.044-0.127,0.075-0.205,0.075
	c-0.08,0-0.151-0.032-0.21-0.079C129.211,128.046,129.156,127.953,129.156,127.844z M120.855,137.322l-3.702-9.562l5.919,4.554
	L120.855,137.322z M143.966,124.229c-0.018-0.042-0.028-0.087-0.028-0.136c0-0.189,0.154-0.344,0.344-0.344
	c0.078,0,0.147,0.031,0.205,0.075c0.082,0.063,0.139,0.157,0.139,0.269c0,0.189-0.154,0.344-0.344,0.344
	C144.141,124.438,144.019,124.352,143.966,124.229z M113.911,123.372c-0.017,0.019-0.026,0.041-0.041,0.061l-0.051-0.131
	L113.911,123.372z"/>
</svg>
