<?xml version="1.0" encoding="utf-8"?>
<!-- Generator: Adobe Illustrator 16.0.0, SVG Export Plug-In . SVG Version: 6.00 Build 0)  -->
<!DOCTYPE svg PUBLIC "-//W3C//DTD SVG 1.1//EN" "http://www.w3.org/Graphics/SVG/1.1/DTD/svg11.dtd">
<svg version="1.1" id="Layer_1" xmlns="http://www.w3.org/2000/svg" xmlns:xlink="http://www.w3.org/1999/xlink" x="0px" y="0px"
	 width="50px" height="50px" viewBox="314.5 -105.5 50 50" enable-background="new 314.5 -105.5 50 50" xml:space="preserve">
<path d="M349.692-88.993c-0.188-0.077-0.401-0.036-0.545,0.107l-4.576,4.553l-2.642-2.642c0.453-0.555,0.705-1.248,0.705-1.965
	c0-1.729-1.406-3.135-3.135-3.135s-3.135,1.406-3.135,3.135c0,0.717,0.252,1.41,0.705,1.965l-2.647,2.647l-4.569-4.558
	c-0.143-0.142-0.358-0.184-0.545-0.108c-0.187,0.078-0.309,0.26-0.309,0.462v14.726c0,0.14,0.058,0.265,0.149,0.355
	c0.962,1.823,7.015,2.328,10.351,2.328s9.389-0.505,10.351-2.328c0.092-0.09,0.149-0.216,0.149-0.355v-14.726
	C350-88.733,349.879-88.915,349.692-88.993z M339.5-72.122c-6.265,0-9.495-1.288-9.495-1.838s3.23-1.838,9.495-1.838
	s9.495,1.288,9.495,1.838S345.765-72.122,339.5-72.122z M349.858-71.083c0.144,0.236,0.069,0.543-0.166,0.688
	c-1.197,0.731-4.813,1.469-10.192,1.469c-5.302,0-9.043-0.889-10.156-1.449c-0.247-0.125-0.346-0.425-0.222-0.671
	c0.124-0.248,0.424-0.346,0.671-0.222c0.87,0.438,4.388,1.342,9.707,1.342c5.507,0,8.801-0.791,9.671-1.322
	C349.404-71.394,349.713-71.319,349.858-71.083z"/>
</svg>
