<?xml version="1.0" encoding="utf-8"?>
<!-- Generator: Adobe Illustrator 16.0.0, SVG Export Plug-In . SVG Version: 6.00 Build 0)  -->
<!DOCTYPE svg PUBLIC "-//W3C//DTD SVG 1.1//EN" "http://www.w3.org/Graphics/SVG/1.1/DTD/svg11.dtd">
<svg version="1.1" id="Layer_1" xmlns="http://www.w3.org/2000/svg" xmlns:xlink="http://www.w3.org/1999/xlink" x="0px" y="0px"
	 width="50px" height="50px" viewBox="174.5 174.5 50 50" enable-background="new 174.5 174.5 50 50" xml:space="preserve">
<path d="M212.021,193.369c-1.7,0-3.083,1.383-3.083,3.083c0,1.183,0.677,2.199,1.655,2.716l-4.541,3.284l-5.936-8.56
	c-0.058-0.083-0.139-0.138-0.222-0.187c1.522-0.187,2.709-1.474,2.709-3.046c0-1.7-1.383-3.083-3.083-3.083
	s-3.083,1.383-3.083,3.083c0,1.56,1.168,2.84,2.673,3.042c-0.086,0.05-0.168,0.106-0.227,0.19l-5.936,8.56l-4.541-3.284
	c0.979-0.517,1.655-1.533,1.655-2.716c0-1.7-1.383-3.083-3.083-3.083s-3.084,1.383-3.084,3.083c0,1.447,1.007,2.656,2.354,2.986
	v8.625c0,0.037,0.016,0.068,0.021,0.104c-0.009,0.056-0.021,0.11-0.021,0.168c0,3.001,11.894,3.088,13.25,3.088
	s13.25-0.087,13.25-3.088c0-0.058-0.013-0.112-0.021-0.168c0.006-0.035,0.021-0.066,0.021-0.104v-8.625
	c1.348-0.33,2.354-1.539,2.354-2.986C215.104,194.752,213.721,193.369,212.021,193.369z M211.25,200.544v6.199
	c-1.641-0.73-4.357-1.104-6.78-1.296L211.25,200.544z M199.5,209.923c-5.264,0-8.787-0.571-10.532-1.109
	c-0.548-0.169-0.925-0.335-1.119-0.479c0.408-0.302,1.597-0.699,3.549-1.021c1.324-0.219,3.007-0.399,5.029-0.494
	c0.772-0.036,1.595-0.06,2.468-0.066c0.202-0.002,0.398-0.006,0.605-0.006s0.403,0.004,0.605,0.006
	c0.873,0.007,1.696,0.03,2.468,0.066c2.022,0.095,3.706,0.275,5.029,0.494c1.953,0.322,3.141,0.72,3.549,1.021
	c-0.194,0.144-0.571,0.31-1.118,0.479C208.288,209.352,204.765,209.923,199.5,209.923z M197.938,190.66
	c0-0.873,0.71-1.583,1.583-1.583s1.583,0.71,1.583,1.583s-0.71,1.584-1.583,1.584S197.938,191.533,197.938,190.66z M199.5,195.637
	l5.336,7.695l-2.73,1.974c-1.287-0.053-2.27-0.059-2.605-0.059s-1.318,0.006-2.605,0.059l-2.73-1.974L199.5,195.637z
	 M194.53,205.447c-2.423,0.191-5.14,0.565-6.78,1.296v-6.199L194.53,205.447z M185.396,196.452c0-0.873,0.711-1.583,1.584-1.583
	s1.583,0.71,1.583,1.583s-0.71,1.583-1.583,1.583S185.396,197.325,185.396,196.452z M212.021,198.035
	c-0.873,0-1.583-0.71-1.583-1.583s0.71-1.583,1.583-1.583s1.584,0.71,1.584,1.583S212.894,198.035,212.021,198.035z"/>
</svg>
