<?xml version="1.0" encoding="utf-8"?>
<!-- Generator: Adobe Illustrator 16.0.0, SVG Export Plug-In . SVG Version: 6.00 Build 0)  -->
<!DOCTYPE svg PUBLIC "-//W3C//DTD SVG 1.1//EN" "http://www.w3.org/Graphics/SVG/1.1/DTD/svg11.dtd">
<svg version="1.1" id="Layer_1" xmlns="http://www.w3.org/2000/svg" xmlns:xlink="http://www.w3.org/1999/xlink" x="0px" y="0px"
	 width="50px" height="50px" viewBox="-35.5 174.5 50 50" enable-background="new -35.5 174.5 50 50" xml:space="preserve">
<path d="M-0.308,193.229c-0.186-0.075-0.401-0.034-0.544,0.107l-4.576,4.553l-2.2-2.199c0.438-0.603,0.675-1.323,0.675-2.073
	c0-1.956-1.591-3.547-3.547-3.547s-3.547,1.591-3.547,3.547c0,0.75,0.237,1.472,0.674,2.074l-2.204,2.203l-4.57-4.558
	c-0.143-0.142-0.357-0.183-0.545-0.107c-0.187,0.077-0.308,0.26-0.308,0.462v12.426c0-0.276,0.224-0.5,0.5-0.5h3
	c0.276,0,0.5,0.224,0.5,0.5s-0.224,0.5-0.5,0.5h-3c-0.276,0-0.5-0.224-0.5-0.5v2.301c0,0.276,0.224,0.5,0.5,0.5h5.08
	c0.035,0.008,0.071,0.012,0.108,0.012h0.001l14.811-0.012c0.276,0,0.5-0.224,0.5-0.5v-2.301c0,0.276-0.224,0.5-0.5,0.5h-2
	c-0.276,0-0.5-0.224-0.5-0.5s0.224-0.5,0.5-0.5h2c0.276,0,0.5,0.224,0.5,0.5v-12.426C0,193.489-0.122,193.308-0.308,193.229z
	 M-15.927,201.783L-18,199.716v4.118c0,0.276-0.224,0.5-0.5,0.5s-0.5-0.224-0.5-0.5v-5.323c0-0.202,0.122-0.385,0.308-0.462
	c0.188-0.076,0.402-0.033,0.545,0.107l2.573,2.566l3.125-3.106c0.196-0.195,0.512-0.195,0.707,0.002
	c0.195,0.196,0.194,0.513-0.002,0.707l-3.479,3.458C-15.417,201.978-15.732,201.978-15.927,201.783z M-11.5,206.617h-3
	c-0.276,0-0.5-0.224-0.5-0.5s0.224-0.5,0.5-0.5h3c0.276,0,0.5,0.224,0.5,0.5S-11.224,206.617-11.5,206.617z M-5.5,206.617h-3
	c-0.276,0-0.5-0.224-0.5-0.5s0.224-0.5,0.5-0.5h3c0.276,0,0.5,0.224,0.5,0.5S-5.224,206.617-5.5,206.617z"/>
</svg>
