<?xml version="1.0" encoding="utf-8"?>
<!-- Generator: Adobe Illustrator 16.0.0, SVG Export Plug-In . SVG Version: 6.00 Build 0)  -->
<!DOCTYPE svg PUBLIC "-//W3C//DTD SVG 1.1//EN" "http://www.w3.org/Graphics/SVG/1.1/DTD/svg11.dtd">
<svg version="1.1" id="Layer_1" xmlns="http://www.w3.org/2000/svg" xmlns:xlink="http://www.w3.org/1999/xlink" x="0px" y="0px"
	 width="50px" height="50px" viewBox="-315.5 -105.5 50 50" enable-background="new -315.5 -105.5 50 50" xml:space="preserve">
<path d="M-276.037-85.09c-0.269-0.203-0.639-0.201-0.905,0.003l-7.771,5.932l-5.101-11.524c-0.241-0.543-1.131-0.543-1.372,0
	l-5.16,11.657l-7.704-6.058c-0.265-0.209-0.638-0.215-0.909-0.014c-0.272,0.201-0.375,0.559-0.253,0.874l5.352,13.827
	c0.112,0.289,0.39,0.479,0.699,0.479h17.322c0.31,0,0.587-0.19,0.699-0.479l5.352-13.827
	C-275.667-84.533-275.769-84.889-276.037-85.09z M-282.353-71.414h-16.294l-4.179-10.796l6.312,4.963
	c0.182,0.143,0.418,0.193,0.645,0.139c0.225-0.056,0.411-0.213,0.505-0.424l4.865-10.99l4.8,10.844
	c0.093,0.21,0.277,0.366,0.5,0.423c0.224,0.056,0.459,0.008,0.642-0.13l6.412-4.895L-282.353-71.414z"/>
</svg>
