<?xml version="1.0" encoding="utf-8"?>
<!-- Generator: Adobe Illustrator 16.0.0, SVG Export Plug-In . SVG Version: 6.00 Build 0)  -->
<!DOCTYPE svg PUBLIC "-//W3C//DTD SVG 1.1//EN" "http://www.w3.org/Graphics/SVG/1.1/DTD/svg11.dtd">
<svg version="1.1" id="Layer_1" xmlns="http://www.w3.org/2000/svg" xmlns:xlink="http://www.w3.org/1999/xlink" x="0px" y="0px"
	 width="50px" height="50px" viewBox="-105.5 244.5 50 50" enable-background="new -105.5 244.5 50 50" xml:space="preserve">
<path d="M-80.5,266.086c-1.723,0-3.125,1.402-3.125,3.125s1.402,3.125,3.125,3.125s3.125-1.402,3.125-3.125
	S-78.777,266.086-80.5,266.086z M-80.5,270.836c-0.896,0-1.625-0.729-1.625-1.625s0.729-1.625,1.625-1.625s1.625,0.729,1.625,1.625
	S-79.604,270.836-80.5,270.836z M-65.02,262.365c-0.263-0.209-0.631-0.219-0.902-0.023l-8.406,5.988l-5.494-11.584
	c-0.248-0.523-1.107-0.523-1.355,0l-5.558,11.719l-8.333-6.117c-0.271-0.199-0.643-0.193-0.907,0.016
	c-0.265,0.207-0.359,0.566-0.23,0.877l5.692,13.729v3.531c0,0.275,0.151,0.529,0.394,0.66c1.065,0.574,4.618,1.486,9.619,1.486
	c5.082,0,8.52-0.764,9.674-1.52c0.211-0.137,0.339-0.373,0.339-0.627v-3.531l5.693-13.729
	C-64.667,262.932-64.758,262.574-65.02,262.365z M-71.987,276.58c-0.516,0.598-3.544,1.537-8.513,1.537
	c-4.971,0-7.999-0.941-8.513-1.463v-0.176c0.515-0.596,3.542-1.537,8.513-1.537c4.969,0,7.997,0.941,8.513,1.463V276.58z
	 M-80.5,281.146c-4.255,0-7.313-0.689-8.513-1.135v-1.697c2.116,0.992,5.931,1.303,8.513,1.303c2.582,0,6.396-0.311,8.513-1.303
	v1.736C-73.116,280.543-75.99,281.146-80.5,281.146z M-71.343,275.115c-1.883-1.285-6.281-1.674-9.157-1.674
	s-7.274,0.389-9.157,1.674l-4.134-9.969l6.9,5.064c0.181,0.135,0.412,0.176,0.627,0.123c0.217-0.055,0.398-0.203,0.494-0.406
	l5.27-11.109l5.2,10.965c0.095,0.199,0.274,0.348,0.489,0.404c0.215,0.057,0.443,0.014,0.624-0.115l7.006-4.992L-71.343,275.115z"/>
</svg>
