<?xml version="1.0" encoding="utf-8"?>
<!-- Generator: Adobe Illustrator 16.0.0, SVG Export Plug-In . SVG Version: 6.00 Build 0)  -->
<!DOCTYPE svg PUBLIC "-//W3C//DTD SVG 1.1//EN" "http://www.w3.org/Graphics/SVG/1.1/DTD/svg11.dtd">
<svg version="1.1" id="Layer_1" xmlns="http://www.w3.org/2000/svg" xmlns:xlink="http://www.w3.org/1999/xlink" x="0px" y="0px"
	 width="50px" height="50px" viewBox="174.5 -105.5 50 50" enable-background="new 174.5 -105.5 50 50" xml:space="preserve">
<path d="M213.963-86.489c-0.27-0.203-0.638-0.201-0.905,0.003l-7.771,5.932l-5.102-11.524c-0.24-0.543-1.131-0.543-1.371,0
	l-5.16,11.657l-7.703-6.058c-0.266-0.209-0.639-0.215-0.91-0.014s-0.375,0.559-0.253,0.874l5.337,13.789v2.565
	c0,0.414,0.336,0.75,0.75,0.75h17.25c0.414,0,0.75-0.336,0.75-0.75v-2.565l5.337-13.789
	C214.333-85.932,214.231-86.288,213.963-86.489z M199.5-89.922l4.562,10.303l-4.764,3.636l-4.428-3.482L199.5-89.922z
	 M197.637-72.827l1.647-1.258l1.6,1.258H197.637z M195.165-72.827h-3.232l2.312-5.222l3.822,3.006L195.165-72.827z M203.308-72.827
	c-0.01-0.009-0.021-0.019-0.031-0.027l-2.761-2.171l4.17-3.183l2.382,5.381H203.308z M193.027-79.005l-2.173,4.907l-3.681-9.511
	L193.027-79.005z M191.625-70.015v-1.298h15.75v1.298H191.625z M208.146-74.098l-2.234-5.046l5.941-4.535L208.146-74.098z"/>
</svg>
