<?xml version="1.0" encoding="utf-8"?>
<!-- Generator: Adobe Illustrator 16.0.0, SVG Export Plug-In . SVG Version: 6.00 Build 0)  -->
<!DOCTYPE svg PUBLIC "-//W3C//DTD SVG 1.1//EN" "http://www.w3.org/Graphics/SVG/1.1/DTD/svg11.dtd">
<svg version="1.1" id="Layer_1" xmlns="http://www.w3.org/2000/svg" xmlns:xlink="http://www.w3.org/1999/xlink" x="0px" y="0px"
	 width="50px" height="50px" viewBox="104.5 174.5 50 50" enable-background="new 104.5 174.5 50 50" xml:space="preserve">
<path d="M140,191.08c0-0.202-0.121-0.384-0.308-0.462c-0.188-0.077-0.401-0.034-0.545,0.107l-4.576,4.553l-4.718-4.718
	c-0.195-0.195-0.512-0.195-0.707,0l-4.724,4.723l-4.569-4.558c-0.143-0.141-0.358-0.184-0.545-0.107
	c-0.187,0.077-0.309,0.26-0.309,0.462v12.912c0-0.799,0.942-1.412,2.881-1.872c0.266-0.067,0.538,0.102,0.602,0.371
	c0.064,0.269-0.103,0.538-0.371,0.602c-1.93,0.459-2.111,0.905-2.112,0.909c0,0.276-0.224,0.495-0.5,0.495
	c-0.275,0-0.499-0.229-0.499-0.505v1.814c0,0.033,0.013,0.062,0.019,0.094c-0.003,0.031-0.019,0.06-0.019,0.092
	c0,2.048,6.601,2.594,10.501,2.594c3.899,0,10.499-0.546,10.499-2.594c0-0.032-0.016-0.061-0.019-0.092
	c0.006-0.031,0.019-0.061,0.019-0.094V191.08z M130.967,201.418c1.05,0.032,2.069,0.099,3.03,0.198
	c0.274,0.028,0.474,0.273,0.445,0.549c-0.026,0.257-0.243,0.448-0.496,0.448c-0.018,0-0.035-0.001-0.053-0.003
	c-0.937-0.097-1.932-0.161-2.958-0.192c-0.275-0.009-0.492-0.239-0.484-0.516C130.46,201.627,130.648,201.393,130.967,201.418z
	 M128.452,201.905c0.009,0.276-0.207,0.507-0.483,0.517c-1.037,0.034-2.032,0.102-2.958,0.2c-0.018,0.002-0.035,0.003-0.054,0.003
	c-0.252,0-0.469-0.19-0.496-0.447c-0.029-0.274,0.169-0.521,0.444-0.55c0.949-0.102,1.969-0.171,3.03-0.206c0.006,0,0.012,0,0.017,0
	C128.221,201.422,128.443,201.635,128.452,201.905z M122,197.104v3.443c0,0.276-0.224,0.5-0.5,0.5s-0.5-0.224-0.5-0.5v-4.648
	c0-0.202,0.122-0.385,0.309-0.462c0.186-0.076,0.402-0.034,0.545,0.107l2.572,2.565l2.854-2.854c0.195-0.195,0.512-0.195,0.707,0
	s0.195,0.512,0,0.707l-3.207,3.207c-0.195,0.195-0.512,0.194-0.707,0.001L122,197.104z M129.501,207.586
	c-5.922,0-9.334-1.045-9.502-1.584c0.165-0.561,3.574-1.605,9.502-1.605c5.927,0,9.335,1.045,9.5,1.585
	C138.833,206.541,135.422,207.586,129.501,207.586z M139.594,204.388c-0.035,0.007-0.07,0.011-0.104,0.011
	c-0.23,0-0.438-0.161-0.488-0.396c-0.001-0.004-0.19-0.464-2.205-0.93c-0.27-0.062-0.438-0.331-0.375-0.6s0.335-0.438,0.6-0.375
	c2.451,0.566,2.862,1.24,2.959,1.697C140.036,204.065,139.863,204.331,139.594,204.388z"/>
</svg>
