<?xml version="1.0" encoding="utf-8"?>
<!-- Generator: Adobe Illustrator 16.0.0, SVG Export Plug-In . SVG Version: 6.00 Build 0)  -->
<!DOCTYPE svg PUBLIC "-//W3C//DTD SVG 1.1//EN" "http://www.w3.org/Graphics/SVG/1.1/DTD/svg11.dtd">
<svg version="1.1" id="Layer_1" xmlns="http://www.w3.org/2000/svg" xmlns:xlink="http://www.w3.org/1999/xlink" x="0px" y="0px"
	 width="50px" height="50px" viewBox="-105.5 -315.5 50 50" enable-background="new -105.5 -315.5 50 50" xml:space="preserve">
<path d="M-64.896-293.917c0-1.7-1.383-3.083-3.083-3.083s-3.083,1.383-3.083,3.083c0,1.142,0.63,2.128,1.555,2.662l-3.818,1.373
	l-5.899-7.016c1.075-0.482,1.828-1.558,1.828-2.81c0-1.7-1.383-3.083-3.083-3.083s-3.083,1.383-3.083,3.083
	c0,1.241,0.741,2.306,1.8,2.794l-5.912,7.031l-3.818-1.373c0.924-0.533,1.555-1.52,1.555-2.662c0-1.7-1.383-3.083-3.083-3.083
	s-3.083,1.383-3.083,3.083c0,1.448,1.006,2.657,2.354,2.987v8.917c0,0.021,0.01,0.038,0.012,0.057c0.001,0.024-0.005,0.047,0,0.072
	c0.006,0.033,0.023,0.06,0.033,0.091c0.012,0.038,0.022,0.074,0.04,0.109c0.025,0.05,0.057,0.094,0.092,0.137
	c0.022,0.028,0.042,0.057,0.068,0.081c0.044,0.042,0.096,0.072,0.15,0.101c0.027,0.015,0.05,0.035,0.079,0.046
	c0.086,0.034,0.179,0.056,0.276,0.056h25c0.098,0,0.19-0.021,0.276-0.056c0.029-0.012,0.052-0.031,0.079-0.046
	c0.054-0.029,0.105-0.06,0.15-0.101c0.026-0.024,0.045-0.053,0.068-0.081c0.035-0.043,0.067-0.086,0.092-0.137
	c0.018-0.035,0.028-0.072,0.04-0.109c0.01-0.031,0.027-0.059,0.033-0.091c0.004-0.024-0.002-0.047,0-0.072
	c0.002-0.02,0.012-0.037,0.012-0.057v-8.917C-65.902-291.26-64.896-292.469-64.896-293.917z M-68.75-289.934v5.494l-3.547-4.219
	L-68.75-289.934z M-69.919-283.5l-8.364-3.006l4.481-1.611L-69.919-283.5z M-80.479-301.292c0.873,0,1.583,0.71,1.583,1.583
	s-0.71,1.583-1.583,1.583s-1.583-0.71-1.583-1.583S-81.353-301.292-80.479-301.292z M-80.5-296.084l5.669,6.743l-5.669,2.038
	l-5.669-2.038L-80.5-296.084z M-82.717-286.506l-8.364,3.006l3.883-4.618L-82.717-286.506z M-92.25-284.44v-5.494l3.547,1.275
	L-92.25-284.44z M-94.604-293.917c0-0.873,0.71-1.583,1.583-1.583s1.583,0.71,1.583,1.583s-0.71,1.583-1.583,1.583
	S-94.604-293.043-94.604-293.917z M-88.696-282.763l8.196-2.946l8.196,2.946H-88.696z M-67.979-292.333
	c-0.873,0-1.583-0.71-1.583-1.583s0.71-1.583,1.583-1.583s1.583,0.71,1.583,1.583S-67.106-292.333-67.979-292.333z M-67.25-278.958
	c0,0.414-0.336,0.75-0.75,0.75h-25c-0.414,0-0.75-0.336-0.75-0.75s0.336-0.75,0.75-0.75h25
	C-67.586-279.708-67.25-279.373-67.25-278.958z"/>
</svg>
