<?xml version="1.0" encoding="utf-8"?>
<!-- Generator: Adobe Illustrator 16.0.0, SVG Export Plug-In . SVG Version: 6.00 Build 0)  -->
<!DOCTYPE svg PUBLIC "-//W3C//DTD SVG 1.1//EN" "http://www.w3.org/Graphics/SVG/1.1/DTD/svg11.dtd">
<svg version="1.1" id="Layer_1" xmlns="http://www.w3.org/2000/svg" xmlns:xlink="http://www.w3.org/1999/xlink" x="0px" y="0px"
	 width="50px" height="50px" viewBox="-315.5 104.5 50 50" enable-background="new -315.5 104.5 50 50" xml:space="preserve">
<path d="M-280.291,124.617c-1.404-0.976-3.195-1.037-4.661-0.197c-1.81-1.002-4.064-0.65-5.547,0.662
	c-1.487-1.312-3.747-1.663-5.548-0.662c-1.449-0.832-3.25-0.785-4.661,0.197c-1.568,1.085-2.542,3.125-2.542,5.324
	c0,0.627,0.08,1.25,0.225,1.79c0.245,1.386,1.079,3.449,2.548,6.309c0.002,0.004,0.006,0.005,0.008,0.009
	c0.804,2.028,6.497,2.591,9.969,2.591c3.469,0,9.155-0.562,9.966-2.586c0.003-0.006,0.009-0.008,0.012-0.014
	c1.448-2.819,2.306-4.941,2.537-6.25c0.156-0.598,0.235-1.22,0.235-1.849C-277.75,127.743-278.724,125.703-280.291,124.617z
	 M-291.079,126.635l0.581,0.711l0.581-0.711c1.061-1.3,2.968-1.78,4.452-0.794c1.183,0.79,1.917,2.313,1.917,3.977
	c0,0.481-0.063,0.96-0.203,1.482c-0.154,0.832-0.619,2.054-1.352,3.592c-1.818-0.312-3.833-0.428-5.398-0.428
	c-1.564,0-3.578,0.116-5.396,0.427c-0.736-1.549-1.205-2.787-1.365-3.651c-0.127-0.468-0.191-0.947-0.191-1.425
	c0-1.663,0.735-3.186,1.919-3.974C-294.061,124.859-292.138,125.34-291.079,126.635z M-301.75,129.941
	c0-1.714,0.727-3.282,1.896-4.092c0.772-0.536,1.677-0.661,2.504-0.391c-1.006,1.119-1.602,2.688-1.602,4.355
	c0,0.61,0.082,1.222,0.229,1.757c0.164,0.895,0.611,2.118,1.318,3.641c-0.945,0.248-1.755,0.568-2.322,0.977
	c-1.024-2.099-1.641-3.693-1.835-4.778C-301.687,130.934-301.75,130.439-301.75,129.941z M-299.073,137.604
	c0-0.005-0.003-0.009-0.003-0.014c0.131-0.286,0.939-0.681,2.338-1.01c0.344,0.68,0.725,1.401,1.155,2.179
	C-297.684,138.412-298.899,137.909-299.073,137.604z M-293.73,138.994c-0.553-0.972-1.042-1.873-1.472-2.705
	c1.282-0.193,2.855-0.325,4.702-0.325c1.848,0,3.422,0.132,4.705,0.322c-0.43,0.832-0.92,1.733-1.474,2.707
	c-0.962,0.09-2.037,0.146-3.23,0.146C-291.693,139.14-292.769,139.083-293.73,138.994z M-285.415,138.754
	c0.431-0.78,0.813-1.503,1.158-2.184c1.402,0.319,2.209,0.694,2.335,0.938C-282.078,137.866-283.297,138.396-285.415,138.754z
	 M-279.449,131.469c-0.185,1.035-0.8,2.623-1.824,4.721c-0.566-0.408-1.376-0.729-2.32-0.977c0.703-1.511,1.146-2.717,1.304-3.58
	c0.161-0.591,0.242-1.202,0.242-1.815c0-1.666-0.595-3.234-1.599-4.355c0.835-0.275,1.728-0.15,2.501,0.388
	c1.169,0.811,1.896,2.379,1.896,4.092C-279.25,130.442-279.313,130.938-279.449,131.469z M-290.5,123.967
	c1.545,0,2.803-1.258,2.803-2.804s-1.257-2.803-2.803-2.803s-2.803,1.257-2.803,2.803S-292.045,123.967-290.5,123.967z
	 M-290.5,119.86c0.718,0,1.303,0.584,1.303,1.303s-0.584,1.304-1.303,1.304s-1.303-0.585-1.303-1.304S-291.218,119.86-290.5,119.86z
	"/>
</svg>
