<?xml version="1.0" encoding="utf-8"?>
<!-- Generator: Adobe Illustrator 16.0.0, SVG Export Plug-In . SVG Version: 6.00 Build 0)  -->
<!DOCTYPE svg PUBLIC "-//W3C//DTD SVG 1.1//EN" "http://www.w3.org/Graphics/SVG/1.1/DTD/svg11.dtd">
<svg version="1.1" id="Layer_1" xmlns="http://www.w3.org/2000/svg" xmlns:xlink="http://www.w3.org/1999/xlink" x="0px" y="0px"
	 width="50px" height="50px" viewBox="314.5 -175.5 50 50" enable-background="new 314.5 -175.5 50 50" xml:space="preserve">
<path d="M355.501-159.218c-1.238,0-2.246,1.008-2.246,2.245c0,0.613,0.248,1.169,0.648,1.574l-2.484,3.942l-11.03-8.128
	c0.797-0.345,1.356-1.138,1.356-2.06c0-1.238-1.007-2.245-2.244-2.245c-1.238,0-2.246,1.007-2.246,2.245
	c0,0.907,0.545,1.688,1.322,2.04l-11.021,8.106l-2.458-3.901c0.399-0.405,0.647-0.961,0.647-1.574c0-1.237-1.007-2.245-2.244-2.245
	c-1.238,0-2.246,1.008-2.246,2.245c0,1.238,1.008,2.245,2.246,2.245c0.079,0,0.154-0.016,0.23-0.023l6.107,9.69
	c0.138,0.218,0.377,0.35,0.635,0.35h18.055c0.258,0,0.497-0.132,0.635-0.35l6.105-9.69c0.077,0.008,0.152,0.023,0.232,0.023
	c1.237,0,2.244-1.007,2.244-2.245C357.745-158.21,356.738-159.218,355.501-159.218z M339.501-162.389
	c0.41,0,0.744,0.334,0.744,0.745c0,0.41-0.334,0.745-0.744,0.745c-0.411,0-0.746-0.335-0.746-0.745
	C338.755-162.055,339.09-162.389,339.501-162.389z M322.755-156.973c0-0.41,0.335-0.745,0.746-0.745c0.41,0,0.744,0.335,0.744,0.745
	c0,0.411-0.334,0.745-0.744,0.745C323.09-156.228,322.755-156.562,322.755-156.973z M339.501-152.978
	c-0.411,0-0.746-0.334-0.746-0.745c0-0.41,0.335-0.745,0.746-0.745c0.41,0,0.744,0.335,0.744,0.745
	C340.245-153.312,339.911-152.978,339.501-152.978z M346.174-146.211h-13.346l6.673-4.229L346.174-146.211z M348.36-146.601
	l-7.979-5.058c0.801-0.344,1.363-1.139,1.363-2.064c0-1.237-1.007-2.245-2.244-2.245c-1.238,0-2.246,1.008-2.246,2.245
	c0,0.926,0.563,1.722,1.365,2.064l-7.979,5.058l-2.284-3.625l11.112-8.172l11.147,8.215L348.36-146.601z M355.501-156.228
	c-0.411,0-0.746-0.334-0.746-0.745c0-0.41,0.335-0.745,0.746-0.745c0.41,0,0.744,0.335,0.744,0.745
	C356.245-156.562,355.911-156.228,355.501-156.228z M348.591-139.111h-0.34v-2.5h0.34c0.414,0,0.75-0.336,0.75-0.75
	s-0.336-0.75-0.75-0.75h-18.18c-0.414,0-0.75,0.336-0.75,0.75s0.336,0.75,0.75,0.75h0.34v2.5h-0.34c-0.553,0-1,0.448-1,1
	c0,0.553,0.447,1,1,1h18.18c0.553,0,1-0.447,1-1C349.591-138.663,349.144-139.111,348.591-139.111z M347.251-139.111h-4.5v-2.5h4.5
	V-139.111z M341.751-139.111h-4.5v-2.5h4.5V-139.111z M331.751-141.611h4.5v2.5h-4.5V-141.611z"/>
</svg>
