<?xml version="1.0" encoding="utf-8"?>
<!-- Generator: Adobe Illustrator 16.0.0, SVG Export Plug-In . SVG Version: 6.00 Build 0)  -->
<!DOCTYPE svg PUBLIC "-//W3C//DTD SVG 1.1//EN" "http://www.w3.org/Graphics/SVG/1.1/DTD/svg11.dtd">
<svg version="1.1" id="Layer_1" xmlns="http://www.w3.org/2000/svg" xmlns:xlink="http://www.w3.org/1999/xlink" x="0px" y="0px"
	 width="50px" height="50px" viewBox="-175.5 34.5 50 50" enable-background="new -175.5 34.5 50 50" xml:space="preserve">
<path d="M-136.037,53.196c-0.269-0.203-0.639-0.2-0.905,0.004l-7.77,5.932l-5.102-11.524c-0.241-0.543-1.131-0.543-1.372,0
	l-5.16,11.656l-7.703-6.058c-0.267-0.208-0.639-0.214-0.91-0.013c-0.272,0.2-0.375,0.559-0.253,0.873l5.352,13.828
	c0.111,0.289,0.39,0.479,0.699,0.479h17.322c0.31,0,0.588-0.19,0.699-0.479l5.352-13.828
	C-135.667,53.753-135.769,53.397-136.037,53.196z M-150.5,49.764l4.561,10.304l-4.763,3.636l-4.427-3.482L-150.5,49.764z
	 M-156.973,60.68l-2.172,4.907l-3.681-9.511L-156.973,60.68z M-158.074,66.874l2.319-5.237l3.822,3.006l-2.923,2.231H-158.074z
	 M-152.384,66.874l1.668-1.273l1.619,1.273H-152.384z M-146.724,66.831l-2.761-2.171l4.169-3.183l2.389,5.396h-3.749
	C-146.69,66.859-146.707,66.845-146.724,66.831z M-141.855,65.587l-2.233-5.046l5.941-4.535L-141.855,65.587z M-141.167,71.05
	c0,0.414-0.336,0.75-0.75,0.75h-17.167c-0.414,0-0.75-0.336-0.75-0.75s0.336-0.75,0.75-0.75h17.167
	C-141.502,70.3-141.167,70.636-141.167,71.05z"/>
</svg>
