<?xml version="1.0" encoding="utf-8"?>
<!-- Generator: Adobe Illustrator 16.0.0, SVG Export Plug-In . SVG Version: 6.00 Build 0)  -->
<!DOCTYPE svg PUBLIC "-//W3C//DTD SVG 1.1//EN" "http://www.w3.org/Graphics/SVG/1.1/DTD/svg11.dtd">
<svg version="1.1" id="Layer_1" xmlns="http://www.w3.org/2000/svg" xmlns:xlink="http://www.w3.org/1999/xlink" x="0px" y="0px"
	 width="50px" height="50px" viewBox="174.5 244.5 50 50" enable-background="new 174.5 244.5 50 50" xml:space="preserve">
<path d="M199.28,265.341c0.229,0.154,0.291,0.465,0.137,0.694l-4.908,7.342c-0.096,0.144-0.254,0.222-0.416,0.222
	c-0.092,0-0.186-0.025-0.27-0.079l-3.466-2.217c-0.232-0.148-0.3-0.458-0.151-0.69c0.148-0.233,0.457-0.303,0.69-0.151l3.054,1.952
	l4.637-6.935C198.739,265.25,199.052,265.188,199.28,265.341z M215.438,264.789l-6.14,13.878c-0.011,0.024-0.035,0.036-0.05,0.058
	c-0.641,1.723-6.115,2.195-9.434,2.195s-8.795-0.473-9.436-2.195c-0.015-0.021-0.039-0.033-0.05-0.058l-6.14-13.878
	c-0.09-0.202-0.035-0.439,0.133-0.583c0.169-0.143,0.412-0.158,0.596-0.039l5.221,3.387l1.386-3.002
	c0.115-0.248,0.405-0.361,0.658-0.246l3.663,1.639l1.691-2.545c-0.823-0.675-1.302-1.67-1.302-2.748
	c0-1.974,1.604-3.579,3.578-3.579s3.578,1.605,3.578,3.579c0,1.078-0.479,2.073-1.302,2.748l1.762,2.649l3.578-1.737
	c0.122-0.058,0.262-0.064,0.387-0.021c0.127,0.045,0.229,0.139,0.286,0.261l1.36,2.944l5.25-3.331
	c0.187-0.119,0.426-0.101,0.594,0.043C215.475,264.352,215.528,264.588,215.438,264.789z M204.411,266.89l1.782,2.682l2.418-1.534
	l-1.202-2.603L204.411,266.89z M190.981,268.101l2.398,1.556l1.906-2.868l-3.061-1.368l-1.229,2.664
	C190.993,268.091,190.985,268.094,190.981,268.101z M208.315,278.378c-0.115-0.515-3.219-1.534-8.5-1.534
	c-5.282,0-8.387,1.02-8.502,1.543c0.123,0.529,3.149,1.533,8.502,1.533C205.167,279.92,208.192,278.916,208.315,278.378z
	 M213.856,265.893l-7.541,4.785c-0.229,0.146-0.533,0.082-0.684-0.146l-4.643-6.982c-0.074-0.113-0.101-0.252-0.071-0.385
	c0.03-0.133,0.112-0.248,0.229-0.318c0.78-0.476,1.246-1.296,1.246-2.195c0-1.422-1.157-2.579-2.578-2.579s-2.578,1.157-2.578,2.579
	c0,0.899,0.466,1.72,1.246,2.195c0.116,0.07,0.198,0.186,0.229,0.318c0.029,0.133,0.003,0.271-0.071,0.385l-4.701,7.071
	c-0.151,0.229-0.457,0.291-0.688,0.144l-7.467-4.845l5.088,11.501c1.561-1.22,6.064-1.577,8.943-1.577s7.381,0.357,8.941,1.576
	L213.856,265.893z"/>
</svg>
