<?xml version="1.0" encoding="utf-8"?>
<!-- Generator: Adobe Illustrator 16.0.0, SVG Export Plug-In . SVG Version: 6.00 Build 0)  -->
<!DOCTYPE svg PUBLIC "-//W3C//DTD SVG 1.1//EN" "http://www.w3.org/Graphics/SVG/1.1/DTD/svg11.dtd">
<svg version="1.1" id="Layer_1" xmlns="http://www.w3.org/2000/svg" xmlns:xlink="http://www.w3.org/1999/xlink" x="0px" y="0px"
	 width="50px" height="50px" viewBox="314.5 -35.5 50 50" enable-background="new 314.5 -35.5 50 50" xml:space="preserve">
<path d="M348.59,2.042h-0.34v-2.25h0.34c0.553,0,1-0.448,1-1s-0.447-1-1-1h-18.18c-0.553,0-1,0.448-1,1s0.447,1,1,1h0.34v2.25h-0.34
	c-0.553,0-1,0.448-1,1s0.447,1,1,1h18.18c0.553,0,1-0.448,1-1S349.143,2.042,348.59,2.042z M347.25,2.042h-4.5v-2.25h4.5V2.042z
	 M341.75,2.042h-4.5v-2.25h4.5V2.042z M331.75-0.208h4.5v2.25h-4.5V-0.208z M350.102-6.959l-1.166,3.013
	c-0.074,0.192-0.26,0.319-0.466,0.319h-17.94c-0.206,0-0.392-0.127-0.466-0.319l-1.166-3.013h7.987c0.013,0,0.023-0.006,0.035-0.007
	c0.339,1.11,1.36,1.925,2.58,1.925s2.241-0.815,2.58-1.925c0.012,0.001,0.022,0.007,0.035,0.007H350.102z M341.209-7.75
	c0-0.942-0.767-1.709-1.709-1.709s-1.709,0.767-1.709,1.709s0.767,1.709,1.709,1.709S341.209-6.808,341.209-7.75z M354.479-18.267
	l-3.989,10.308h-8.302c-0.108-1.395-1.265-2.5-2.688-2.5s-2.579,1.105-2.688,2.5h-8.302l-3.989-10.308
	c-0.082-0.21-0.013-0.449,0.169-0.583c0.18-0.134,0.43-0.131,0.605,0.009l8.259,6.494l5.488-12.398
	c0.08-0.181,0.259-0.297,0.457-0.297s0.377,0.117,0.457,0.298l5.425,12.257l8.327-6.357c0.179-0.136,0.425-0.136,0.604-0.002
	C354.492-18.713,354.56-18.476,354.479-18.267z M339.148-20.879c-0.199-0.091-0.438-0.002-0.53,0.199l-4.612,10.135l-5.652-4.416
	c-0.175-0.136-0.425-0.105-0.562,0.069c-0.136,0.174-0.104,0.425,0.069,0.562l6.052,4.729c0.071,0.055,0.158,0.084,0.246,0.084
	c0.032,0,0.063-0.004,0.095-0.011c0.119-0.029,0.219-0.111,0.27-0.223l4.823-10.598C339.438-20.55,339.35-20.788,339.148-20.879z"/>
</svg>
