<?xml version="1.0" encoding="utf-8"?>
<!-- Generator: Adobe Illustrator 16.0.0, SVG Export Plug-In . SVG Version: 6.00 Build 0)  -->
<!DOCTYPE svg PUBLIC "-//W3C//DTD SVG 1.1//EN" "http://www.w3.org/Graphics/SVG/1.1/DTD/svg11.dtd">
<svg version="1.1" id="Layer_1" xmlns="http://www.w3.org/2000/svg" xmlns:xlink="http://www.w3.org/1999/xlink" x="0px" y="0px"
	 width="50px" height="50px" viewBox="104.5 244.5 50 50" enable-background="new 104.5 244.5 50 50" xml:space="preserve">
<path d="M144.281,261.108c-1.017,0-1.844,0.827-1.844,1.844c0,0.395,0.127,0.759,0.34,1.06l-7.456,5.792l-5.059-11.428
	c0.636-0.291,1.081-0.93,1.081-1.674c0-1.017-0.827-1.844-1.844-1.844s-1.844,0.827-1.844,1.844c0,0.744,0.445,1.383,1.081,1.674
	l-5.04,11.385l-7.474-5.75c0.212-0.3,0.339-0.664,0.339-1.059c0-1.017-0.827-1.844-1.844-1.844s-1.844,0.827-1.844,1.844
	s0.827,1.844,1.844,1.844c0.04,0,0.077-0.01,0.116-0.012l5.306,13.703c0.047,0.123,0.129,0.223,0.227,0.303
	c0.001,0.008,0.002,0.016,0.004,0.022v3.317c0,0.276,0.152,0.53,0.396,0.661c0.974,0.522,4.205,1.351,8.733,1.351
	c4.607,0,7.733-0.695,8.788-1.384c0.212-0.139,0.34-0.375,0.34-0.628v-3.312c0.002-0.01,0.004-0.02,0.005-0.028
	c0.098-0.08,0.18-0.18,0.227-0.303l5.306-13.703c0.039,0.002,0.076,0.012,0.116,0.012c1.017,0,1.844-0.827,1.844-1.844
	S145.298,261.108,144.281,261.108z M144.281,263.296c-0.189,0-0.344-0.154-0.344-0.344s0.154-0.344,0.344-0.344
	s0.344,0.154,0.344,0.344S144.471,263.296,144.281,263.296z M129.5,256.358c0.189,0,0.344,0.154,0.344,0.344
	s-0.154,0.344-0.344,0.344s-0.344-0.154-0.344-0.344S129.311,256.358,129.5,256.358z M134.102,270.751l-2.236,1.737l-1.609-4.108
	c0.64-0.29,1.088-0.932,1.088-1.678c0-1.017-0.827-1.844-1.844-1.844s-1.844,0.827-1.844,1.844c0,0.747,0.448,1.389,1.088,1.678
	l-1.567,4.059l-2.256-1.736l4.579-10.345L134.102,270.751z M141.838,266.642l-3.693,9.539l-2.197-4.964L141.838,266.642z
	 M129.156,266.702c0-0.189,0.154-0.344,0.344-0.344s0.344,0.154,0.344,0.344s-0.154,0.344-0.344,0.344
	S129.156,266.892,129.156,266.702z M129.505,270.574l1.126,2.873l-1.066,0.828l-1.148-0.884L129.505,270.574z M131.529,275.743
	c-0.021-0.001-0.042-0.003-0.062-0.004l-0.674-0.519l0.408-0.316L131.529,275.743z M129.5,275.674c-0.097,0-0.286,0.002-0.521,0.006
	l0.588-0.456l0.598,0.459C129.849,275.675,129.617,275.674,129.5,275.674z M128.341,275.227l-0.646,0.502
	c-0.06,0.003-0.124,0.009-0.186,0.012l0.344-0.89L128.341,275.227z M133.198,275.89l-0.763-1.945l2.291-1.779l1.977,4.463
	C135.681,276.254,134.401,276.028,133.198,275.89z M125.846,275.885c-1.217,0.138-2.514,0.364-3.549,0.743l1.999-4.514l2.317,1.783
	L125.846,275.885z M121.871,278.55v-0.021c0.091-0.096,0.277-0.202,0.515-0.312c0.173-0.079,0.382-0.159,0.629-0.239
	c0.562-0.184,1.294-0.361,2.218-0.504c0.014-0.002,0.026-0.005,0.041-0.007h0.183l0.034-0.027c0.188-0.026,0.387-0.049,0.587-0.072
	c0.268-0.031,0.545-0.059,0.836-0.083l-0.001,0.001l0.002-0.001c0.42-0.035,0.86-0.062,1.326-0.081
	c0.407-0.016,0.819-0.029,1.26-0.029c0.495,0,0.963,0.014,1.415,0.033c0.43,0.019,0.83,0.048,1.22,0.081
	c0.041,0.003,0.086,0.005,0.127,0.009c0.249,0.022,0.48,0.049,0.712,0.076s0.469,0.054,0.683,0.085
	c0.003,0.003,0.007,0.006,0.009,0.009h0.062c0.034,0.005,0.062,0.012,0.095,0.017c0.897,0.141,1.612,0.314,2.164,0.494
	c0.246,0.08,0.456,0.16,0.628,0.239c0.237,0.109,0.423,0.215,0.514,0.311v0.023c-0.121,0.126-0.37,0.271-0.745,0.416
	c-1.177,0.459-3.56,0.936-6.883,0.936c-3.322,0-5.705-0.477-6.883-0.936C122.242,278.82,121.992,278.677,121.871,278.55z
	 M120.855,276.181l-3.702-9.562l5.919,4.554L120.855,276.181z M137.128,281.676c-1.039,0.438-3.612,0.966-7.628,0.966
	c-3.784,0-6.52-0.604-7.629-1.005v-1.368c2.433,1.086,6.947,1.134,7.629,1.134s5.195-0.048,7.628-1.134V281.676z"/>
</svg>
