<?xml version="1.0" encoding="utf-8"?>
<!-- Generator: Adobe Illustrator 16.0.0, SVG Export Plug-In . SVG Version: 6.00 Build 0)  -->
<!DOCTYPE svg PUBLIC "-//W3C//DTD SVG 1.1//EN" "http://www.w3.org/Graphics/SVG/1.1/DTD/svg11.dtd">
<svg version="1.1" id="Layer_1" xmlns="http://www.w3.org/2000/svg" xmlns:xlink="http://www.w3.org/1999/xlink" x="0px" y="0px"
	 width="50px" height="50px" viewBox="34.5 -245.5 50 50" enable-background="new 34.5 -245.5 50 50" xml:space="preserve">
<path d="M67.25-210.487c0,0.276-0.224,0.5-0.5,0.5h-14.5c-0.276,0-0.5-0.224-0.5-0.5s0.224-0.5,0.5-0.5h14.5
	C67.026-210.987,67.25-210.763,67.25-210.487z M72.92-227.32l-5.815,14.714c-0.075,0.191-0.26,0.316-0.465,0.316H52.36
	c-0.205,0-0.39-0.125-0.465-0.316L46.08-227.32c-0.055-0.138-0.045-0.293,0.026-0.423c0.07-0.13,0.195-0.222,0.342-0.251
	c2.631-0.523,5.444-0.21,7.872,0.866c0.191,0.085,0.311,0.281,0.296,0.491s-0.158,0.388-0.36,0.446
	c-0.96,0.276-1.631,1.161-1.631,2.15c0,1.241,1.01,2.25,2.25,2.25s2.25-1.009,2.25-2.25c0-0.728-0.358-1.415-0.96-1.837
	c-0.108-0.077-0.183-0.194-0.205-0.326c-0.022-0.131,0.009-0.267,0.087-0.375l3.047-4.24c0.188-0.261,0.625-0.261,0.812,0
	l3.047,4.24c0.078,0.108,0.109,0.244,0.087,0.375c-0.022,0.132-0.097,0.249-0.205,0.326c-0.602,0.423-0.96,1.11-0.96,1.837
	c0,1.241,1.01,2.25,2.25,2.25s2.25-1.009,2.25-2.25c0-0.99-0.671-1.874-1.631-2.15c-0.202-0.058-0.346-0.236-0.36-0.446
	s0.104-0.406,0.296-0.491c2.428-1.076,5.239-1.389,7.872-0.866c0.146,0.029,0.271,0.121,0.342,0.251
	C72.965-227.613,72.975-227.458,72.92-227.32z M59.729-228.767c-0.11-0.08-0.269-0.056-0.349,0.057l-1.726,2.401
	c-0.066,0.092-0.062,0.217,0.01,0.305c0.512,0.624,0.794,1.41,0.794,2.212c0,1.93-1.57,3.5-3.5,3.5c-0.138,0-0.25,0.112-0.25,0.25
	s0.112,0.25,0.25,0.25c2.206,0,4-1.794,4-4c0-0.854-0.278-1.69-0.788-2.377l1.616-2.249
	C59.867-228.53,59.842-228.686,59.729-228.767z"/>
</svg>
