<?xml version="1.0" encoding="utf-8"?>
<!-- Generator: Adobe Illustrator 16.0.0, SVG Export Plug-In . SVG Version: 6.00 Build 0)  -->
<!DOCTYPE svg PUBLIC "-//W3C//DTD SVG 1.1//EN" "http://www.w3.org/Graphics/SVG/1.1/DTD/svg11.dtd">
<svg version="1.1" id="Layer_1" xmlns="http://www.w3.org/2000/svg" xmlns:xlink="http://www.w3.org/1999/xlink" x="0px" y="0px"
	 width="50px" height="50px" viewBox="174.5 -245.5 50 50" enable-background="new 174.5 -245.5 50 50" xml:space="preserve">
<path d="M212.894-227.5c-0.07-0.13-0.195-0.222-0.342-0.251c-2.633-0.524-5.444-0.21-7.872,0.866
	c-0.191,0.085-0.311,0.282-0.296,0.491c0.015,0.21,0.159,0.388,0.36,0.446c0.96,0.276,1.631,1.161,1.631,2.15
	c0,1.241-1.01,2.25-2.25,2.25s-2.25-1.009-2.25-2.25c0-0.728,0.358-1.415,0.959-1.837c0.109-0.077,0.184-0.194,0.206-0.326
	c0.022-0.132-0.009-0.267-0.087-0.375l-3.047-4.24c-0.188-0.261-0.625-0.261-0.812,0l-3.047,4.24
	c-0.078,0.108-0.109,0.244-0.087,0.375c0.022,0.131,0.097,0.249,0.206,0.326c0.601,0.422,0.959,1.109,0.959,1.837
	c0,1.241-1.01,2.25-2.25,2.25s-2.25-1.009-2.25-2.25c0-0.99,0.671-1.874,1.631-2.15c0.201-0.058,0.346-0.236,0.36-0.446
	c0.015-0.209-0.104-0.406-0.296-0.491c-2.428-1.077-5.241-1.39-7.872-0.866c-0.146,0.029-0.271,0.121-0.342,0.251
	c-0.071,0.13-0.081,0.285-0.026,0.423l5.779,14.622c0.38,1.526,4.134,2.226,7.641,2.226s7.261-0.7,7.641-2.226l5.779-14.622
	C212.975-227.214,212.965-227.37,212.894-227.5z M194.709-220.296c1.93,0,3.5-1.57,3.5-3.5c0-0.803-0.282-1.588-0.794-2.212
	c-0.071-0.088-0.076-0.212-0.01-0.305l1.726-2.401c0.081-0.113,0.238-0.137,0.349-0.057c0.112,0.081,0.138,0.237,0.058,0.349
	l-1.616,2.249c0.51,0.687,0.788,1.524,0.788,2.377c0,2.206-1.794,4-4,4c-0.138,0-0.25-0.112-0.25-0.25
	S194.571-220.296,194.709-220.296z M199.5-211.229c-4.406,0-6.679-1.039-6.679-1.481c0-0.443,2.272-1.482,6.679-1.482
	s6.679,1.039,6.679,1.482C206.179-212.268,203.906-211.229,199.5-211.229z"/>
</svg>
