<?xml version="1.0" encoding="utf-8"?>
<!-- Generator: Adobe Illustrator 16.0.0, SVG Export Plug-In . SVG Version: 6.00 Build 0)  -->
<!DOCTYPE svg PUBLIC "-//W3C//DTD SVG 1.1//EN" "http://www.w3.org/Graphics/SVG/1.1/DTD/svg11.dtd">
<svg version="1.1" id="Layer_1" xmlns="http://www.w3.org/2000/svg" xmlns:xlink="http://www.w3.org/1999/xlink" x="0px" y="0px"
	 width="50px" height="50px" viewBox="-315.5 -245.5 50 50" enable-background="new -315.5 -245.5 50 50" xml:space="preserve">
<g>
	<path d="M-281.41-211.134h-18.18c-0.414,0-0.75,0.336-0.75,0.75s0.336,0.75,0.75,0.75h18.18c0.414,0,0.75-0.336,0.75-0.75
		S-280.996-211.134-281.41-211.134z"/>
	<path d="M-274.933-223.862c-0.35-0.22-0.814-0.115-1.035,0.235l-5.918,9.394h-3.632l2.586-4.881
		c0.194-0.366,0.055-0.82-0.312-1.014c-0.364-0.194-0.82-0.054-1.014,0.312l-2.958,5.583h-2.535v-9.972
		c1.637-0.346,2.87-1.8,2.87-3.54c0-1.997-1.624-3.621-3.619-3.621c-1.997,0-3.621,1.625-3.621,3.621
		c0,1.738,1.233,3.192,2.87,3.539v9.973h-2.284l-3.225-5.521c-0.208-0.358-0.668-0.479-1.026-0.269
		c-0.357,0.208-0.478,0.668-0.269,1.026l2.782,4.764h-3.841l-5.92-9.394c-0.221-0.35-0.685-0.456-1.034-0.234
		c-0.351,0.221-0.456,0.684-0.234,1.034l6.141,9.744c0.137,0.218,0.376,0.35,0.634,0.35h5.562h7.201h5.292
		c0.258,0,0.497-0.132,0.635-0.35l6.139-9.744C-274.478-223.178-274.583-223.641-274.933-223.862z M-292.62-227.745
		c0-1.169,0.952-2.121,2.121-2.121c1.168,0,2.119,0.952,2.119,2.121c0,1.169-0.951,2.12-2.119,2.12
		C-291.668-225.625-292.62-226.576-292.62-227.745z"/>
</g>
</svg>
