<?xml version="1.0" encoding="utf-8"?>
<!-- Generator: Adobe Illustrator 16.0.0, SVG Export Plug-In . SVG Version: 6.00 Build 0)  -->
<!DOCTYPE svg PUBLIC "-//W3C//DTD SVG 1.1//EN" "http://www.w3.org/Graphics/SVG/1.1/DTD/svg11.dtd">
<svg version="1.1" id="Layer_1" xmlns="http://www.w3.org/2000/svg" xmlns:xlink="http://www.w3.org/1999/xlink" x="0px" y="0px"
	 width="50px" height="50px" viewBox="244.5 34.5 50 50" enable-background="new 244.5 34.5 50 50" xml:space="preserve">
<path d="M261,60.547v-4.648c0-0.201,0.122-0.385,0.309-0.461s0.402-0.035,0.545,0.107l2.572,2.564l2.854-2.854
	c0.195-0.195,0.512-0.195,0.707,0s0.195,0.512,0,0.707l-3.207,3.207c-0.195,0.195-0.512,0.195-0.707,0.002L262,57.104v3.443
	c0,0.277-0.224,0.5-0.5,0.5S261,60.824,261,60.547z M280,65.807c0,0.033-0.013,0.062-0.019,0.094
	c0.003,0.031,0.019,0.059,0.019,0.092c0,2.047-6.6,2.594-10.499,2.594c-3.9,0-10.501-0.547-10.501-2.594
	c0-0.033,0.016-0.061,0.019-0.092C259.013,65.869,259,65.84,259,65.807V51.08c0-0.201,0.122-0.385,0.309-0.461
	s0.402-0.035,0.545,0.107l4.569,4.557l4.724-4.723c0.195-0.195,0.512-0.195,0.707,0l4.718,4.719l4.576-4.553
	c0.143-0.143,0.356-0.184,0.545-0.107c0.187,0.078,0.308,0.26,0.308,0.461V65.807z M260,52.285v12.492
	c1.99-1.061,6.526-1.381,9.501-1.381c2.974,0,7.509,0.32,9.499,1.381V52.283l-4.077,4.057c-0.195,0.193-0.511,0.193-0.706-0.002
	l-4.717-4.717l-4.723,4.723c-0.195,0.195-0.512,0.195-0.707,0.002L260,52.285z M279.001,65.98c-0.166-0.539-3.575-1.584-9.5-1.584
	c-5.926,0-9.336,1.045-9.502,1.605c0.168,0.539,3.58,1.584,9.502,1.584C275.422,67.586,278.833,66.541,279.001,65.98z"/>
</svg>
