<?xml version="1.0" encoding="utf-8"?>
<!-- Generator: Adobe Illustrator 16.0.0, SVG Export Plug-In . SVG Version: 6.00 Build 0)  -->
<!DOCTYPE svg PUBLIC "-//W3C//DTD SVG 1.1//EN" "http://www.w3.org/Graphics/SVG/1.1/DTD/svg11.dtd">
<svg version="1.1" id="Layer_1" xmlns="http://www.w3.org/2000/svg" xmlns:xlink="http://www.w3.org/1999/xlink" x="0px" y="0px"
	 width="50px" height="50px" viewBox="174.5 -245.5 50 50" enable-background="new 174.5 -245.5 50 50" xml:space="preserve">
<path d="M209.34-210.363c0,0.414-0.336,0.75-0.75,0.75h-18.18c-0.414,0-0.75-0.336-0.75-0.75s0.336-0.75,0.75-0.75h18.18
	C209.004-211.113,209.34-210.777,209.34-210.363z M215.302-222.807l-6.14,9.744c-0.138,0.218-0.377,0.35-0.635,0.35h-18.055
	c-0.258,0-0.497-0.132-0.635-0.35l-6.14-9.744c-0.188-0.298-0.143-0.687,0.108-0.934c0.252-0.247,0.641-0.285,0.935-0.096
	l4.631,3.004l8.824-6.489c-0.567-0.407-0.941-1.069-0.941-1.82c0-1.238,1.007-2.245,2.245-2.245s2.245,1.007,2.245,2.245
	c0,0.762-0.384,1.435-0.965,1.841l8.764,6.458l4.721-2.997c0.297-0.188,0.684-0.146,0.932,0.103
	C215.445-223.49,215.488-223.104,215.302-222.807z M198.755-229.142c0,0.411,0.334,0.745,0.745,0.745s0.745-0.334,0.745-0.745
	s-0.334-0.745-0.745-0.745S198.755-229.553,198.755-229.142z M190.717-219.959l4.139,2.685l3.764-2.386
	c-0.802-0.343-1.364-1.139-1.364-2.064c0-1.238,1.007-2.245,2.245-2.245s2.245,1.007,2.245,2.245c0,0.926-0.563,1.722-1.364,2.064
	l3.652,2.314l4.151-2.635l-8.71-6.419L190.717-219.959z M200.245-221.725c0-0.411-0.334-0.745-0.745-0.745s-0.745,0.334-0.745,0.745
	s0.334,0.745,0.745,0.745S200.245-221.313,200.245-221.725z M190.641-214.603l2.82-1.788l-6.676-4.331L190.641-214.603z
	 M196.818-214.213l-1.973-1.279l-2.02,1.279H196.818z M199.339-214.366l3.294-2.091l-3.133-1.985l-3.26,2.066L199.339-214.366z
	 M201.896-214.213h4.277l-2.141-1.356L201.896-214.213z M212.257-220.788l-6.823,4.331l2.926,1.854L212.257-220.788z"/>
</svg>
