<?xml version="1.0" encoding="utf-8"?>
<!-- Generator: Adobe Illustrator 16.0.0, SVG Export Plug-In . SVG Version: 6.00 Build 0)  -->
<!DOCTYPE svg PUBLIC "-//W3C//DTD SVG 1.1//EN" "http://www.w3.org/Graphics/SVG/1.1/DTD/svg11.dtd">
<svg version="1.1" id="Layer_1" xmlns="http://www.w3.org/2000/svg" xmlns:xlink="http://www.w3.org/1999/xlink" x="0px" y="0px"
	 width="50px" height="50px" viewBox="-175.5 104.5 50 50" enable-background="new -175.5 104.5 50 50" xml:space="preserve">
<path d="M-158.9,131.342v-3.067c0-0.169,0.106-0.32,0.266-0.377s0.337-0.007,0.444,0.124c0.814,0.996,2.118,1.566,3.576,1.566
	c0.221,0,0.4,0.18,0.4,0.4s-0.179,0.4-0.4,0.4c-1.328,0-2.553-0.415-3.486-1.16v2.113c0,0.221-0.179,0.4-0.4,0.4
	S-158.9,131.562-158.9,131.342z M-140,135.789c0,0.039-0.014,0.074-0.022,0.111c0.004,0.037,0.022,0.071,0.022,0.109
	c0,2.048-6.6,2.594-10.499,2.594c-3.9,0-10.501-0.546-10.501-2.594c0-0.038,0.018-0.072,0.022-0.109
	c-0.009-0.037-0.022-0.072-0.022-0.111v-14.727c0-0.202,0.122-0.385,0.309-0.462c0.186-0.076,0.402-0.034,0.544,0.107l3.631,3.621
	c0.189,0.189,0.197,0.494,0.016,0.691c-0.166,0.183-0.364,0.479-0.364,0.863c0,0.885,1.009,1.604,2.25,1.604
	c1.22,0,2.25-0.734,2.25-1.604c0-0.627-0.525-1.201-1.337-1.464c-0.166-0.054-0.292-0.189-0.332-0.358
	c-0.041-0.169,0.009-0.348,0.132-0.471l3.048-3.048c0.195-0.195,0.512-0.195,0.707,0l3.048,3.048
	c0.123,0.123,0.173,0.302,0.133,0.471c-0.041,0.169-0.167,0.305-0.333,0.358c-0.812,0.263-1.336,0.837-1.336,1.464
	c0,0.885,1.009,1.604,2.25,1.604c1.22,0,2.25-0.734,2.25-1.604c0-0.384-0.2-0.683-0.369-0.866c-0.181-0.197-0.174-0.503,0.016-0.692
	l3.635-3.617c0.144-0.142,0.359-0.183,0.544-0.107c0.187,0.078,0.308,0.26,0.308,0.462V135.789z M-160,122.268v12.526
	c1.99-1.06,6.526-1.38,9.501-1.38c2.974,0,7.509,0.32,9.499,1.38v-12.528l-2.473,2.461c0.223,0.357,0.338,0.751,0.338,1.157
	c0,1.437-1.458,2.604-3.25,2.604s-3.25-1.168-3.25-2.604c0-0.846,0.499-1.616,1.317-2.098l-2.183-2.183l-2.182,2.183
	c0.819,0.481,1.318,1.252,1.318,2.098c0,1.437-1.458,2.604-3.25,2.604s-3.25-1.168-3.25-2.604c0-0.405,0.114-0.797,0.334-1.153
	L-160,122.268z M-140.999,135.999c-0.165-0.54-3.573-1.585-9.5-1.585c-5.928,0-9.337,1.045-9.502,1.605
	c0.168,0.539,3.58,1.584,9.502,1.584C-144.578,137.604-141.167,136.559-140.999,135.999z"/>
</svg>
