<?xml version="1.0" encoding="utf-8"?>
<!-- Generator: Adobe Illustrator 16.0.0, SVG Export Plug-In . SVG Version: 6.00 Build 0)  -->
<!DOCTYPE svg PUBLIC "-//W3C//DTD SVG 1.1//EN" "http://www.w3.org/Graphics/SVG/1.1/DTD/svg11.dtd">
<svg version="1.1" id="Layer_1" xmlns="http://www.w3.org/2000/svg" xmlns:xlink="http://www.w3.org/1999/xlink" x="0px" y="0px"
	 width="50px" height="50px" viewBox="-175.5 -175.5 50 50" enable-background="new -175.5 -175.5 50 50" xml:space="preserve">
<path d="M-137.505-147.657c0-0.911-0.741-1.652-1.651-1.652c-0.332,0-0.641,0.101-0.9,0.27c-0.501-4.861-4.334-8.742-9.17-9.33
	c0.238-0.292,0.384-0.661,0.377-1.066c-0.016-0.896-0.756-1.624-1.679-1.624h0c-0.91,0.016-1.638,0.77-1.623,1.681
	c0.007,0.383,0.152,0.73,0.379,1.008c-4.836,0.588-8.67,4.469-9.172,9.331c-0.259-0.169-0.568-0.27-0.9-0.27
	c-0.911,0-1.651,0.741-1.651,1.652c0,0.769,0.532,1.412,1.245,1.594c-0.033,0.099-0.062,0.2-0.062,0.31c0,0.552,0.448,1,1,1H-161
	v2.812h-0.312c-0.552,0-1,0.448-1,1s0.448,1,1,1h21.625c0.552,0,1-0.448,1-1s-0.448-1-1-1H-140v-2.812h0.312c0.552,0,1-0.448,1-1
	c0-0.11-0.03-0.211-0.062-0.31C-138.037-146.245-137.505-146.888-137.505-147.657z M-141-147.955v1.202h-9v-6.696h1.917
	c0.276,0,0.5-0.224,0.5-0.5s-0.224-0.5-0.5-0.5H-150v-2.98C-144.995-157.167-141-153.024-141-147.955z M-151-144.753v2.812h-4.375
	v-2.812H-151z M-150-141.94v-2.812h4.375v2.812H-150z M-151.151-159.396c-0.006-0.36,0.281-0.658,0.652-0.664
	c0.353,0,0.645,0.288,0.651,0.641c0.006,0.359-0.281,0.656-0.64,0.662l-0.007,0.301c-0.001,0-0.002,0-0.004,0h0v-0.301
	C-150.853-158.756-151.145-159.043-151.151-159.396z M-151-157.43v2.98h-1.917c-0.276,0-0.5,0.224-0.5,0.5s0.224,0.5,0.5,0.5H-151
	v6.696h-9v-1.202C-160-153.024-156.005-157.167-151-157.43z M-162.495-147.657c0-0.36,0.292-0.652,0.651-0.652
	s0.651,0.292,0.651,0.652c0,0.359-0.292,0.651-0.651,0.651S-162.495-147.298-162.495-147.657z M-160-144.753h3.625v2.812H-160
	V-144.753z M-141-141.94h-3.625v-2.812H-141V-141.94z M-139.156-147.006c-0.359,0-0.651-0.292-0.651-0.651
	c0-0.36,0.292-0.652,0.651-0.652s0.651,0.292,0.651,0.652C-138.505-147.298-138.797-147.006-139.156-147.006z"/>
</svg>
