<?xml version="1.0" encoding="utf-8"?>
<!-- Generator: Adobe Illustrator 16.0.0, SVG Export Plug-In . SVG Version: 6.00 Build 0)  -->
<!DOCTYPE svg PUBLIC "-//W3C//DTD SVG 1.1//EN" "http://www.w3.org/Graphics/SVG/1.1/DTD/svg11.dtd">
<svg version="1.1" id="Layer_1" xmlns="http://www.w3.org/2000/svg" xmlns:xlink="http://www.w3.org/1999/xlink" x="0px" y="0px"
	 width="50px" height="50px" viewBox="-245.5 244.5 50 50" enable-background="new -245.5 244.5 50 50" xml:space="preserve">
<path d="M-207.75,267.948c0-2.198-0.974-4.238-2.541-5.324c-1.404-0.977-3.195-1.036-4.661-0.197
	c-1.528-0.846-3.368-0.724-4.798,0.128v-2.232h1.099c0.414,0,0.75-0.336,0.75-0.75s-0.336-0.75-0.75-0.75h-1.099v-0.747
	c0-0.414-0.336-0.75-0.75-0.75s-0.75,0.336-0.75,0.75v0.747h-1.099c-0.414,0-0.75,0.336-0.75,0.75s0.336,0.75,0.75,0.75h1.099v2.231
	c-1.435-0.852-3.276-0.972-4.797-0.126c-1.45-0.832-3.25-0.787-4.661,0.196c-1.568,1.085-2.542,3.125-2.542,5.324
	c0,0.627,0.08,1.25,0.225,1.79c0.243,1.374,1.066,3.416,2.512,6.237v3.554c0,0.275,0.151,0.529,0.394,0.66
	c1.065,0.574,4.618,1.485,9.619,1.485c5.082,0,8.52-0.763,9.674-1.519c0.211-0.138,0.339-0.374,0.339-0.627v-3.552
	c1.426-2.783,2.273-4.883,2.502-6.181C-207.829,269.199-207.75,268.577-207.75,267.948z M-221.079,264.642
	c0.143,0.175,0.355,0.275,0.581,0.275h0c0.225,0,0.438-0.102,0.581-0.275c1.062-1.3,2.968-1.78,4.452-0.794
	c1.183,0.79,1.917,2.313,1.917,3.977c0,0.481-0.063,0.96-0.203,1.482c-0.154,0.832-0.619,2.054-1.352,3.591
	c-1.818-0.311-3.833-0.427-5.397-0.427c-1.564,0-3.578,0.116-5.396,0.427c-0.736-1.549-1.205-2.787-1.365-3.651
	c-0.127-0.468-0.191-0.947-0.191-1.425c0-1.663,0.735-3.186,1.919-3.974C-224.062,262.866-222.138,263.347-221.079,264.642z
	 M-211.987,275.609c-0.305,0.353-1.487,0.823-3.427,1.151c0.431-0.78,0.813-1.504,1.158-2.185c1.256,0.287,2.031,0.616,2.269,0.857
	V275.609z M-217.27,277c-0.962,0.09-2.037,0.146-3.23,0.146c-1.193,0-2.269-0.057-3.23-0.146c-0.553-0.972-1.042-1.873-1.472-2.705
	c1.282-0.193,2.855-0.325,4.702-0.325c1.848,0,3.421,0.132,4.704,0.322C-216.226,275.125-216.716,276.026-217.27,277z
	 M-229.013,275.508c0.238-0.275,1.015-0.625,2.275-0.921c0.344,0.68,0.725,1.401,1.155,2.179c-1.943-0.32-3.125-0.774-3.43-1.083
	V275.508z M-231.75,267.948c0-1.714,0.727-3.282,1.896-4.092c0.771-0.536,1.677-0.661,2.504-0.391
	c-1.005,1.119-1.602,2.688-1.602,4.355c0,0.61,0.082,1.222,0.229,1.757c0.165,0.895,0.611,2.118,1.318,3.641
	c-0.945,0.248-1.755,0.568-2.322,0.977c-1.024-2.099-1.641-3.693-1.835-4.778C-231.687,268.94-231.75,268.446-231.75,267.948z
	 M-220.5,280.175c-4.255,0-7.313-0.689-8.513-1.135v-1.697c2.117,0.993,5.931,1.304,8.513,1.304c2.582,0,6.396-0.311,8.513-1.304
	v1.736C-213.116,279.572-215.99,280.175-220.5,280.175z M-209.449,269.476c-0.185,1.035-0.8,2.623-1.824,4.72
	c-0.566-0.407-1.376-0.729-2.32-0.976c0.703-1.511,1.146-2.717,1.304-3.58c0.161-0.591,0.242-1.202,0.242-1.815
	c0-1.666-0.595-3.234-1.599-4.355c0.835-0.275,1.728-0.15,2.501,0.388c1.169,0.811,1.896,2.379,1.896,4.092
	C-209.25,268.449-209.313,268.944-209.449,269.476z"/>
</svg>
