<?xml version="1.0" encoding="utf-8"?>
<!-- Generator: Adobe Illustrator 16.0.0, SVG Export Plug-In . SVG Version: 6.00 Build 0)  -->
<!DOCTYPE svg PUBLIC "-//W3C//DTD SVG 1.1//EN" "http://www.w3.org/Graphics/SVG/1.1/DTD/svg11.dtd">
<svg version="1.1" id="Layer_1" xmlns="http://www.w3.org/2000/svg" xmlns:xlink="http://www.w3.org/1999/xlink" x="0px" y="0px"
	 width="50px" height="50px" viewBox="-105.5 -105.5 50 50" enable-background="new -105.5 -105.5 50 50" xml:space="preserve">
<path d="M-67.25-83.437c0-0.244-0.119-0.473-0.318-0.613c-0.2-0.141-0.456-0.175-0.686-0.092l-5.662,2.035l-6.01-7.149
	c-0.285-0.34-0.863-0.34-1.148,0l-6.01,7.149l-5.662-2.035c-0.23-0.083-0.485-0.049-0.686,0.092c-0.2,0.141-0.318,0.369-0.318,0.613
	v8.987c0,0.056,0.02,0.105,0.031,0.157c-0.019,0.067-0.031,0.137-0.031,0.209c0,2.521,11.896,2.594,13.252,2.594
	c1.356,0,13.248-0.073,13.248-2.594c0-0.072-0.012-0.142-0.031-0.209c0.012-0.052,0.031-0.102,0.031-0.157V-83.437z M-92.309-82.186
	c0.075-0.208,0.304-0.316,0.512-0.241l5.208,1.872l5.85-6.958c0.142-0.17,0.395-0.191,0.563-0.049
	c0.169,0.142,0.191,0.395,0.049,0.563l-6.029,7.172c-0.078,0.092-0.19,0.143-0.306,0.143c-0.045,0-0.091-0.008-0.135-0.023
	l-5.471-1.967C-92.276-81.749-92.384-81.978-92.309-82.186z M-80.498-72.489c-7.709,0-11.724-1.026-12.226-1.595
	c0.501-0.567,4.515-1.594,12.226-1.594c7.709,0,11.722,1.026,12.222,1.594C-68.778-73.516-72.792-72.489-80.498-72.489z"/>
</svg>
