<?xml version="1.0" encoding="utf-8"?>
<!-- Generator: Adobe Illustrator 16.0.0, SVG Export Plug-In . SVG Version: 6.00 Build 0)  -->
<!DOCTYPE svg PUBLIC "-//W3C//DTD SVG 1.1//EN" "http://www.w3.org/Graphics/SVG/1.1/DTD/svg11.dtd">
<svg version="1.1" id="Layer_1" xmlns="http://www.w3.org/2000/svg" xmlns:xlink="http://www.w3.org/1999/xlink" x="0px" y="0px"
	 width="50px" height="50px" viewBox="104.5 -175.5 50 50" enable-background="new 104.5 -175.5 50 50" xml:space="preserve">
<path d="M138.702-141.131c0,0.276-0.224,0.5-0.5,0.5h-17.4c-0.276,0-0.5-0.224-0.5-0.5s0.224-0.5,0.5-0.5h17.4
	C138.479-141.631,138.702-141.408,138.702-141.131z M142.244-157.174l-3.539,14.167c-0.056,0.223-0.256,0.379-0.485,0.379h-10.242
	h-7.014h-0.178c-0.229,0-0.43-0.156-0.485-0.379l-3.541-14.167c-0.065-0.262,0.09-0.529,0.351-0.603
	c0.136-0.043,0.192-0.062,0.251-0.076c0.826-0.207,1.679-0.312,2.53-0.312c2.195,0,4.327,0.711,6.166,1.966l3.047-3.986
	c0.189-0.247,0.605-0.247,0.795,0l3.034,3.969c2.57-1.74,5.684-2.396,8.714-1.637c0.056,0.014,0.109,0.031,0.164,0.049
	C142.072-157.729,142.31-157.436,142.244-157.174z M127.169-152.965c-2.686-3.733-8.076-3.648-8.293-3.646
	c-0.276,0.007-0.495,0.236-0.488,0.512c0.007,0.276,0.243,0.509,0.512,0.488c0.054,0.002,5.075-0.082,7.457,3.229
	c0.098,0.136,0.251,0.208,0.406,0.208c0.102,0,0.204-0.031,0.292-0.094C127.279-152.429,127.33-152.741,127.169-152.965z
	 M130.816-154.412c0.411-0.442,0.854-0.838,1.312-1.208l-2.627-3.437l-2.647,3.463c0.765,0.619,1.472,1.327,2.091,2.131
	c-0.94,1.634-1.584,3.738-1.632,6.446c-0.005,0.276,0.215,0.504,0.491,0.509c0.003,0,0.006,0,0.009,0c0.272,0,0.495-0.218,0.5-0.491
	C128.374-150.421,129.438-152.773,130.816-154.412z"/>
</svg>
