<?xml version="1.0" encoding="utf-8"?>
<!-- Generator: Adobe Illustrator 16.0.0, SVG Export Plug-In . SVG Version: 6.00 Build 0)  -->
<!DOCTYPE svg PUBLIC "-//W3C//DTD SVG 1.1//EN" "http://www.w3.org/Graphics/SVG/1.1/DTD/svg11.dtd">
<svg version="1.1" id="Layer_1" xmlns="http://www.w3.org/2000/svg" xmlns:xlink="http://www.w3.org/1999/xlink" x="0px" y="0px"
	 width="50px" height="50px" viewBox="-245.5 -175.5 50 50" enable-background="new -245.5 -175.5 50 50" xml:space="preserve">
<path d="M-229.002-148.489l-1.666-6.738c-0.037-0.147-0.004-0.303,0.088-0.424c0.092-0.12,0.233-0.192,0.385-0.196l0.189-0.002
	c1.972,0,3.897,0.676,5.568,1.955c0.219,0.168,0.261,0.482,0.093,0.701c-0.168,0.22-0.48,0.262-0.701,0.093
	c-1.362-1.043-2.907-1.638-4.494-1.735l1.51,6.106c0.066,0.269-0.097,0.539-0.365,0.605c-0.041,0.01-0.081,0.015-0.121,0.015
	C-228.742-148.109-228.946-148.262-229.002-148.489z M-211.296-142.942c-0.024,0.096-0.078,0.175-0.146,0.238
	c-0.593,1.786-6.075,2.272-9.054,2.272c-2.98,0-8.464-0.486-9.057-2.272c-0.068-0.063-0.122-0.143-0.146-0.238l-3.54-14.168
	c-0.066-0.262,0.089-0.529,0.35-0.603c0.136-0.043,0.191-0.062,0.25-0.075c0.827-0.207,1.68-0.312,2.531-0.312
	c2.143,0,4.229,0.681,6.046,1.871l3.167-4.144c0.095-0.123,0.242-0.196,0.397-0.196s0.303,0.073,0.397,0.196l3.147,4.119
	c2.548-1.674,5.618-2.28,8.6-1.534c0.056,0.014,0.111,0.031,0.166,0.049c0.261,0.073,0.497,0.366,0.431,0.628L-211.296-142.942z
	 M-220.065-151.499c-0.575,0.995-1.01,2.073-1.293,3.203c-0.223,0.893-0.326,1.795-0.339,2.7c0.428-0.017,0.834-0.024,1.201-0.024
	c2.519,0,6.824,0.349,8.455,1.535l3.196-12.791C-213.159-157.833-217.64-155.696-220.065-151.499z M-223.242-155.655
	c1.047,0.816,1.964,1.829,2.732,2.985c0.775-1.175,1.703-2.186,2.743-3.001l-2.731-3.574L-223.242-155.655z M-228.955-144.085
	c1.214-0.883,3.904-1.302,6.245-1.457c0.015-1.004,0.133-2.006,0.382-2.996c0.281-1.124,0.702-2.201,1.252-3.205
	c-2.018-3.312-5.455-5.356-9.033-5.356c-0.685,0-1.371,0.075-2.042,0.224L-228.955-144.085z M-212.383-143.025
	c0-0.478-2.761-1.595-8.114-1.595c-5.355,0-8.117,1.117-8.117,1.595c0,0.477,2.762,1.594,8.117,1.594
	C-215.144-141.432-212.383-142.549-212.383-143.025z"/>
</svg>
