<?xml version="1.0" encoding="utf-8"?>
<!-- Generator: Adobe Illustrator 16.0.0, SVG Export Plug-In . SVG Version: 6.00 Build 0)  -->
<!DOCTYPE svg PUBLIC "-//W3C//DTD SVG 1.1//EN" "http://www.w3.org/Graphics/SVG/1.1/DTD/svg11.dtd">
<svg version="1.1" id="Layer_1" xmlns="http://www.w3.org/2000/svg" xmlns:xlink="http://www.w3.org/1999/xlink" x="0px" y="0px"
	 width="50px" height="50px" viewBox="-245.5 104.5 50 50" enable-background="new -245.5 104.5 50 50" xml:space="preserve">
<path d="M-210.291,124.139c-1.404-0.977-3.195-1.037-4.661-0.197c-1.528-0.846-3.368-0.725-4.798,0.127v-2.232h1.099
	c0.414,0,0.75-0.336,0.75-0.75s-0.336-0.75-0.75-0.75h-1.099v-0.746c0-0.414-0.336-0.75-0.75-0.75s-0.75,0.336-0.75,0.75v0.746
	h-1.099c-0.414,0-0.75,0.336-0.75,0.75s0.336,0.75,0.75,0.75h1.099v2.232c-1.435-0.852-3.276-0.973-4.797-0.127
	c-1.449-0.832-3.25-0.785-4.661,0.197c-1.568,1.084-2.542,3.125-2.542,5.324c0,0.627,0.08,1.25,0.225,1.789
	c0.245,1.387,1.079,3.449,2.548,6.309c0.002,0.004,0.006,0.006,0.008,0.01c0.804,2.027,6.497,2.59,9.969,2.59
	c3.469,0,9.155-0.561,9.966-2.586c0.003-0.006,0.009-0.008,0.012-0.014c1.448-2.818,2.306-4.941,2.537-6.25
	c0.156-0.598,0.235-1.219,0.235-1.848C-207.75,127.264-208.724,125.225-210.291,124.139z M-221.079,126.156l0.581,0.711l0.581-0.711
	c1.062-1.301,2.968-1.781,4.452-0.795c1.183,0.791,1.917,2.314,1.917,3.977c0,0.482-0.063,0.961-0.203,1.482
	c-0.154,0.832-0.619,2.055-1.352,3.592c-1.818-0.311-3.833-0.428-5.398-0.428c-1.564,0-3.578,0.117-5.396,0.428
	c-0.736-1.549-1.205-2.787-1.365-3.652c-0.127-0.467-0.191-0.947-0.191-1.424c0-1.664,0.735-3.186,1.919-3.975
	C-224.062,124.381-222.138,124.861-221.079,126.156z M-231.75,129.463c0-1.715,0.727-3.283,1.896-4.092
	c0.771-0.537,1.677-0.662,2.504-0.391c-1.005,1.119-1.602,2.688-1.602,4.355c0,0.609,0.082,1.221,0.229,1.756
	c0.164,0.895,0.611,2.119,1.318,3.641c-0.945,0.248-1.755,0.568-2.322,0.977c-1.024-2.098-1.641-3.693-1.835-4.777
	C-231.687,130.455-231.75,129.961-231.75,129.463z M-229.073,137.125c0-0.006-0.003-0.01-0.003-0.014
	c0.131-0.287,0.939-0.682,2.338-1.01c0.344,0.68,0.725,1.4,1.155,2.178C-227.684,137.934-228.899,137.43-229.073,137.125z
	 M-223.73,138.516c-0.553-0.973-1.042-1.873-1.472-2.705c1.282-0.193,2.855-0.326,4.702-0.326c1.848,0,3.422,0.133,4.705,0.322
	c-0.43,0.832-0.92,1.734-1.474,2.707c-0.962,0.09-2.037,0.146-3.23,0.146C-221.693,138.66-222.769,138.604-223.73,138.516z
	 M-215.415,138.275c0.431-0.781,0.813-1.504,1.158-2.184c1.402,0.318,2.209,0.693,2.335,0.938
	C-212.078,137.387-213.297,137.916-215.415,138.275z M-209.449,130.99c-0.185,1.035-0.8,2.623-1.824,4.721
	c-0.566-0.408-1.376-0.73-2.32-0.977c0.703-1.512,1.146-2.717,1.304-3.58c0.161-0.592,0.242-1.203,0.242-1.816
	c0-1.666-0.595-3.234-1.599-4.355c0.835-0.275,1.728-0.15,2.501,0.389c1.169,0.811,1.896,2.379,1.896,4.092
	C-209.25,129.963-209.313,130.459-209.449,130.99z"/>
</svg>
