<?xml version="1.0" encoding="utf-8"?>
<!-- Generator: Adobe Illustrator 16.0.0, SVG Export Plug-In . SVG Version: 6.00 Build 0)  -->
<!DOCTYPE svg PUBLIC "-//W3C//DTD SVG 1.1//EN" "http://www.w3.org/Graphics/SVG/1.1/DTD/svg11.dtd">
<svg version="1.1" id="Layer_1" xmlns="http://www.w3.org/2000/svg" xmlns:xlink="http://www.w3.org/1999/xlink" x="0px" y="0px"
	 width="50px" height="50px" viewBox="104.5 34.5 50 50" enable-background="new 104.5 34.5 50 50" xml:space="preserve">
<g>
	<path d="M141.328,50.511c0-1.086-0.883-1.969-1.969-1.969s-1.969,0.883-1.969,1.969c0,0.71,0.381,1.328,0.945,1.674l-3.764,3.746
		l-3.871-3.871c0.464-0.36,0.768-0.917,0.768-1.549c0-1.086-0.883-1.969-1.969-1.969s-1.969,0.883-1.969,1.969
		c0,0.632,0.304,1.188,0.768,1.549l-3.875,3.875l-3.822-3.81c0.599-0.339,1.008-0.973,1.008-1.708c0-1.086-0.883-1.969-1.969-1.969
		s-1.969,0.883-1.969,1.969c0,0.764,0.441,1.42,1.078,1.746v14.648c0,0.414,0.336,0.75,0.75,0.75h5.055
		c0.044,0.008,0.089,0.012,0.133,0.012s0.089-0.004,0.133-0.012h14.68c0.414,0,0.75-0.336,0.75-0.75V52.257
		C140.887,51.931,141.328,51.274,141.328,50.511z M139.359,50.042c0.259,0,0.469,0.21,0.469,0.469s-0.21,0.469-0.469,0.469
		s-0.469-0.21-0.469-0.469S139.101,50.042,139.359,50.042z M138.75,53.89v6.219l-3.117-3.117L138.75,53.89z M129.5,50.042
		c0.259,0,0.469,0.21,0.469,0.469s-0.21,0.469-0.469,0.469s-0.469-0.21-0.469-0.469S129.241,50.042,129.5,50.042z M129.5,52.979
		l4.009,4.009l-4.019,3.998l-4.005-3.992L129.5,52.979z M123.363,56.995l-3.113,3.113v-6.217L123.363,56.995z M119.641,49.948
		c0.259,0,0.469,0.21,0.469,0.469s-0.21,0.469-0.469,0.469s-0.469-0.21-0.469-0.469S119.382,49.948,119.641,49.948z M124.39,66.062
		h-4.14v-3.832l4.175-4.175l4.002,3.99L124.39,66.062z M126.517,66.062l2.973-2.958l2.966,2.958H126.517z M134.58,66.062
		l-4.028-4.016l4.018-3.997l4.181,4.181v3.832H134.58z"/>
	<path d="M139.5,69.052h-20c-0.414,0-0.75,0.336-0.75,0.75s0.336,0.75,0.75,0.75h20c0.414,0,0.75-0.336,0.75-0.75
		S139.914,69.052,139.5,69.052z"/>
</g>
</svg>
