<?xml version="1.0" encoding="utf-8"?>
<!-- Generator: Adobe Illustrator 16.0.0, SVG Export Plug-In . SVG Version: 6.00 Build 0)  -->
<!DOCTYPE svg PUBLIC "-//W3C//DTD SVG 1.1//EN" "http://www.w3.org/Graphics/SVG/1.1/DTD/svg11.dtd">
<svg version="1.1" id="Layer_1" xmlns="http://www.w3.org/2000/svg" xmlns:xlink="http://www.w3.org/1999/xlink" x="0px" y="0px"
	 width="50px" height="50px" viewBox="-35.5 -175.5 50 50" enable-background="new -35.5 -175.5 50 50" xml:space="preserve">
<path d="M2-138.401h-25c-0.414,0-0.75-0.336-0.75-0.75s0.336-0.75,0.75-0.75H2c0.414,0,0.75,0.336,0.75,0.75
	S2.414-138.401,2-138.401z M2.75-153.534v11.328c0,0.414-0.336,0.75-0.75,0.75h-25c-0.414,0-0.75-0.336-0.75-0.75v-11.328
	c0-0.244,0.119-0.473,0.319-0.613c0.2-0.141,0.455-0.175,0.685-0.092l5.661,2.035l3.609-4.292c-0.542-0.663-0.844-1.488-0.844-2.352
	c0-2.068,1.682-3.751,3.75-3.751s3.75,1.683,3.75,3.751c0,0.821-0.277,1.616-0.775,2.267l3.679,4.377l5.663-2.035
	c0.229-0.083,0.485-0.049,0.686,0.092C2.631-154.007,2.75-153.778,2.75-153.534z M-18.8-143.651c0-0.276-0.224-0.5-0.5-0.5H-23
	c-0.276,0-0.5,0.224-0.5,0.5s0.224,0.5,0.5,0.5h3.7C-19.023-143.151-18.8-143.375-18.8-143.651z M-16.157-149.924l4.059-4.833
	c0.142-0.17,0.12-0.422-0.049-0.563c-0.17-0.143-0.421-0.121-0.563,0.049l-3.879,4.619l-5.208-1.872
	c-0.207-0.076-0.438,0.033-0.512,0.241c-0.075,0.208,0.033,0.437,0.241,0.512l5.471,1.967c0.044,0.016,0.09,0.023,0.135,0.023
	C-16.347-149.781-16.234-149.832-16.157-149.924z M-11.4-143.651c0-0.276-0.224-0.5-0.5-0.5h-3.7c-0.276,0-0.5,0.224-0.5,0.5
	s0.224,0.5,0.5,0.5h3.7C-11.624-143.151-11.4-143.375-11.4-143.651z M-10-149.34h1.379c0.276,0,0.5-0.224,0.5-0.5
	s-0.224-0.5-0.5-0.5H-10v-1.408c0-0.276-0.224-0.5-0.5-0.5s-0.5,0.224-0.5,0.5v1.408h-1.379c-0.276,0-0.5,0.224-0.5,0.5
	s0.224,0.5,0.5,0.5H-11v3.258c0,0.276,0.224,0.5,0.5,0.5s0.5-0.224,0.5-0.5V-149.34z M-4-143.651c0-0.276-0.224-0.5-0.5-0.5h-3.7
	c-0.276,0-0.5,0.224-0.5,0.5s0.224,0.5,0.5,0.5h3.7C-4.224-143.151-4-143.375-4-143.651z M2.5-143.651c0-0.276-0.224-0.5-0.5-0.5
	h-2.8c-0.276,0-0.5,0.224-0.5,0.5s0.224,0.5,0.5,0.5H2C2.276-143.151,2.5-143.375,2.5-143.651z"/>
</svg>
