<?xml version="1.0" encoding="utf-8"?>
<!-- Generator: Adobe Illustrator 16.0.0, SVG Export Plug-In . SVG Version: 6.00 Build 0)  -->
<!DOCTYPE svg PUBLIC "-//W3C//DTD SVG 1.1//EN" "http://www.w3.org/Graphics/SVG/1.1/DTD/svg11.dtd">
<svg version="1.1" id="Layer_1" xmlns="http://www.w3.org/2000/svg" xmlns:xlink="http://www.w3.org/1999/xlink" x="0px" y="0px"
	 width="50px" height="50px" viewBox="244.5 -35.5 50 50" enable-background="new 244.5 -35.5 50 50" xml:space="preserve">
<path d="M284.312-18.848c-0.178-0.134-0.424-0.133-0.604,0.002l-8.327,6.357l-5.425-12.257c-0.08-0.181-0.259-0.298-0.457-0.298
	s-0.377,0.117-0.457,0.297l-5.488,12.398l-8.259-6.494c-0.176-0.14-0.426-0.143-0.605-0.009c-0.182,0.134-0.251,0.372-0.169,0.583
	l5.542,14.321c0.074,0.192,0.26,0.319,0.466,0.319h17.94c0.206,0,0.392-0.127,0.466-0.319l5.543-14.321
	C284.56-18.476,284.492-18.713,284.312-18.848z M269.347-20.35l-4.823,10.598c-0.051,0.112-0.15,0.194-0.27,0.223
	c-0.031,0.007-0.062,0.011-0.095,0.011c-0.088,0-0.175-0.029-0.246-0.084l-6.052-4.729c-0.174-0.136-0.205-0.388-0.069-0.562
	c0.137-0.174,0.388-0.205,0.562-0.069l5.652,4.416l4.612-10.135c0.092-0.201,0.331-0.29,0.53-0.199
	C269.35-20.788,269.438-20.55,269.347-20.35z M278.59,2.042h-0.34v-2.25h0.34c0.553,0,1-0.448,1-1s-0.447-1-1-1h-18.18
	c-0.553,0-1,0.448-1,1s0.447,1,1,1h0.34v2.25h-0.34c-0.553,0-1,0.448-1,1s0.447,1,1,1h18.18c0.553,0,1-0.448,1-1
	S279.143,2.042,278.59,2.042z M277.25,2.042h-4.5v-2.25h4.5V2.042z M271.75,2.042h-4.5v-2.25h4.5V2.042z M261.75-0.208h4.5v2.25
	h-4.5V-0.208z"/>
</svg>
