<?xml version="1.0" encoding="utf-8"?>
<!-- Generator: Adobe Illustrator 16.0.0, SVG Export Plug-In . SVG Version: 6.00 Build 0)  -->
<!DOCTYPE svg PUBLIC "-//W3C//DTD SVG 1.1//EN" "http://www.w3.org/Graphics/SVG/1.1/DTD/svg11.dtd">
<svg version="1.1" id="Layer_1" xmlns="http://www.w3.org/2000/svg" xmlns:xlink="http://www.w3.org/1999/xlink" x="0px" y="0px"
	 width="50px" height="50px" viewBox="244.5 -175.5 50 50" enable-background="new 244.5 -175.5 50 50" xml:space="preserve">
<path d="M283.812-155.764c-0.179-0.134-0.425-0.133-0.604,0.002l-8.022,6.125l-5.229-11.814c-0.16-0.362-0.754-0.362-0.914,0
	l-5.29,11.951l-7.957-6.256c-0.176-0.14-0.426-0.142-0.605-0.009c-0.182,0.134-0.251,0.372-0.169,0.583l5.352,13.828
	c0.074,0.192,0.26,0.319,0.466,0.319h17.322c0.206,0,0.392-0.127,0.466-0.319l5.352-13.828
	C284.06-155.393,283.992-155.63,283.812-155.764z M269.364-157.195l-4.657,10.232c-0.051,0.112-0.15,0.194-0.27,0.223
	c-0.031,0.007-0.062,0.011-0.095,0.011c-0.088,0-0.175-0.029-0.246-0.084l-5.843-4.565c-0.174-0.136-0.205-0.388-0.069-0.562
	c0.137-0.174,0.387-0.206,0.562-0.069l5.443,4.253l4.446-9.77c0.092-0.202,0.331-0.289,0.53-0.199
	C269.367-157.633,269.456-157.396,269.364-157.195z M278.084-139.277h-17.168c-0.276,0-0.5-0.224-0.5-0.5s0.224-0.5,0.5-0.5h17.168
	c0.276,0,0.5,0.224,0.5,0.5S278.36-139.277,278.084-139.277z"/>
</svg>
