<?xml version="1.0" encoding="utf-8"?>
<!-- Generator: Adobe Illustrator 16.0.0, SVG Export Plug-In . SVG Version: 6.00 Build 0)  -->
<!DOCTYPE svg PUBLIC "-//W3C//DTD SVG 1.1//EN" "http://www.w3.org/Graphics/SVG/1.1/DTD/svg11.dtd">
<svg version="1.1" id="Layer_1" xmlns="http://www.w3.org/2000/svg" xmlns:xlink="http://www.w3.org/1999/xlink" x="0px" y="0px"
	 width="50px" height="50px" viewBox="34.5 -35.5 50 50" enable-background="new 34.5 -35.5 50 50" xml:space="preserve">
<path d="M68.592-0.748c0.553,0,1-0.447,1-1c0-0.552-0.447-1-1-1h-18.18c-0.553,0-1,0.448-1,1c0,0.553,0.447,1,1,1h0.34v2.25h-0.34
	c-0.553,0-1,0.448-1,1c0,0.553,0.447,1,1,1h18.18c0.553,0,1-0.447,1-1c0-0.552-0.447-1-1-1h-0.34v-2.25H68.592z M56.252,1.502h-4.5
	v-2.25h4.5V1.502z M61.752,1.502h-4.5v-2.25h4.5V1.502z M67.252,1.502h-4.5v-2.25h4.5V1.502z M56.692-21.692
	c0-1.549,1.261-2.81,2.81-2.81s2.81,1.261,2.81,2.81c0,1.55-1.261,2.81-2.81,2.81S56.692-20.143,56.692-21.692z M73.134-20.721
	c-0.059-0.02-0.117-0.038-0.179-0.054c-4.891-1.223-9.973,0.851-13.081,5.176c-1,1.699-1.693,3.912-1.745,6.806
	c-0.005,0.273-0.228,0.491-0.5,0.491c-0.003,0-0.006,0-0.009,0c-0.276-0.005-0.496-0.232-0.491-0.509
	c0.053-2.966,0.753-5.273,1.776-7.071c-2.481-3.257-6.19-5.237-10.061-5.237c-0.939,0-1.881,0.116-2.795,0.345
	c-0.062,0.016-0.122,0.034-0.273,0.083c-0.261,0.073-0.416,0.34-0.351,0.603L49.352-4.38c0.056,0.223,0.256,0.379,0.485,0.379h0.196
	h7.777h11.356c0.229,0,0.43-0.156,0.485-0.379l3.926-15.709C73.644-20.352,73.395-20.648,73.134-20.721z M56.756-14.68
	c-0.089,0.063-0.19,0.095-0.292,0.095c-0.155,0-0.309-0.072-0.406-0.208c-2.657-3.694-8.252-3.6-8.314-3.604
	c-0.273,0.024-0.505-0.212-0.512-0.488c-0.006-0.275,0.212-0.505,0.488-0.512c0.251,0,6.187-0.1,9.15,4.021
	C57.031-15.153,56.98-14.841,56.756-14.68z"/>
</svg>
